<svg xmlns="http://www.w3.org/2000/svg" width="121.109" height="100" viewBox="0 0 121.109 100">
  <g id="biz-icon01" transform="translate(-130 -791.081)">
    <g id="Group_30" data-name="Group 30" transform="translate(130 791.081)">
      <path id="Path_113" data-name="Path 113" d="M251.109,819.383v79.144a2.438,2.438,0,0,1-2.437,2.437H137.991A7.991,7.991,0,0,1,130,892.972V816.947H248.672a2.437,2.437,0,0,1,2.437,2.436Z" transform="translate(-130 -800.964)" fill="#d0dbf7"/>
      <path id="Path_114" data-name="Path 114" d="M152.566,793.555v79.07a2.474,2.474,0,0,1-2.474,2.473h-12.1A7.991,7.991,0,0,0,130,883.089V799.073a7.991,7.991,0,0,1,7.991-7.992h12.1a2.474,2.474,0,0,1,2.474,2.474Z" transform="translate(-130 -791.081)" fill="#e6ecff"/>
      <path id="Path_115" data-name="Path 115" d="M303.04,836.9h-10.5a1.827,1.827,0,0,1,0-3.654h10.5a1.827,1.827,0,1,1,0,3.654Z" transform="translate(-191.41 -807.191)" fill="#2946ed"/>
      <path id="Path_116" data-name="Path 116" d="M285.423,857.414a1.829,1.829,0,0,1-1.6-2.71l3.883-7.041a3.64,3.64,0,0,1,3.187-1.881h9.424a1.828,1.828,0,0,1,0,3.656h-9.424l-3.87,7.031a1.824,1.824,0,0,1-1.6.946Z" transform="translate(-188.689 -811.982)" fill="#376cfb"/>
      <path id="Path_117" data-name="Path 117" d="M189.863,836.9H179.369a1.827,1.827,0,1,1,0-3.654h10.494a1.827,1.827,0,1,1,0,3.654Z" transform="translate(-148.165 -807.191)" fill="#2946ed"/>
      <path id="Path_118" data-name="Path 118" d="M194.265,857.414a1.828,1.828,0,0,1-1.6-.946l-3.884-7.036h-9.409a1.825,1.825,0,1,1,0-3.651h9.424a3.638,3.638,0,0,1,3.186,1.881l3.883,7.041a1.828,1.828,0,0,1-1.6,2.71Z" transform="translate(-148.165 -811.982)" fill="#376cfb"/>
      <path id="Path_119" data-name="Path 119" d="M297.28,939.168h-8.956a1.827,1.827,0,1,1,0-3.655h8.956a1.827,1.827,0,1,1,0,3.655Z" transform="translate(-189.797 -846.268)" fill="#4294ff"/>
      <path id="Path_120" data-name="Path 120" d="M297.28,926.391h-8.956a1.828,1.828,0,1,1,0-3.655h8.956a1.828,1.828,0,1,1,0,3.655Z" transform="translate(-189.797 -841.386)" fill="#376cfb"/>
      <path id="Path_121" data-name="Path 121" d="M195.035,939.168h-8.956a1.827,1.827,0,0,1,0-3.655h8.956a1.827,1.827,0,0,1,0,3.655Z" transform="translate(-150.73 -846.268)" fill="#4294ff"/>
      <path id="Path_122" data-name="Path 122" d="M195.035,926.391h-8.956a1.828,1.828,0,0,1,0-3.655h8.956a1.828,1.828,0,0,1,0,3.655Z" transform="translate(-150.73 -841.386)" fill="#376cfb"/>
    </g>
    <g id="Group_32" data-name="Group 32" transform="translate(173.065 833.258)">
      <path id="Path_123" data-name="Path 123" d="M279.263,901.1h-7.515V891.77h7.515a3.328,3.328,0,0,1,3.328,3.329v2.671a3.328,3.328,0,0,1-3.328,3.329Z" transform="translate(-227.227 -871.731)" fill="#bac7e5"/>
      <path id="Path_124" data-name="Path 124" d="M203.024,901.1h7.516V891.77h-7.516A3.328,3.328,0,0,0,199.7,895.1v2.671a3.328,3.328,0,0,0,3.328,3.329Z" transform="translate(-199.696 -871.731)" fill="#bac7e5"/>
      <path id="Path_125" data-name="Path 125" d="M210.936,891.163V876.056a16.716,16.716,0,0,1,16.716-16.716h8.042a16.716,16.716,0,0,1,16.716,16.716v15.106a9.178,9.178,0,0,1-9.178,9.178H220.114a9.178,9.178,0,0,1-9.178-9.178Z" transform="translate(-203.991 -859.34)" fill="#e6ecff"/>
      <path id="Path_126" data-name="Path 126" d="M250.162,890.088V868.72a9.868,9.868,0,0,0-3.95-7.9,16.652,16.652,0,0,0-6.874-1.475H231.3a16.66,16.66,0,0,0-6.875,1.475,9.868,9.868,0,0,0-3.949,7.9v21.368a3.687,3.687,0,0,0,3.687,3.688h22.315a3.687,3.687,0,0,0,3.688-3.688Z" transform="translate(-207.634 -859.34)" fill="#2946ed"/>
      <g id="Group_31" data-name="Group 31" transform="translate(16.15 16.579)">
        <path id="Path_127" data-name="Path 127" d="M233.151,889.83a3.659,3.659,0,1,1-3.659-3.659,3.659,3.659,0,0,1,3.659,3.659Z" transform="translate(-225.833 -886.171)" fill="#e6ecff"/>
        <path id="Path_128" data-name="Path 128" d="M258.531,889.83a3.659,3.659,0,1,1-3.659-3.659,3.659,3.659,0,0,1,3.659,3.659Z" transform="translate(-235.531 -886.171)" fill="#e6ecff"/>
        <path id="Path_129" data-name="Path 129" d="M237.7,902.7a4.262,4.262,0,0,0,8.339,0Z" transform="translate(-230.366 -892.486)" fill="#4294ff"/>
      </g>
    </g>
  </g>
</svg>
