<svg xmlns="http://www.w3.org/2000/svg" width="120" height="119.999" viewBox="0 0 120 119.999">
  <g id="biz-icon03" transform="translate(-452 -452)">
    <path id="Path_16" data-name="Path 16" d="M553.379,545.51h19.883a1.267,1.267,0,0,0,1.179-1.7,8.434,8.434,0,0,1-.02-4.862,8.163,8.163,0,0,1,5.959-5.628,8.276,8.276,0,0,1,10.242,8.049,8.029,8.029,0,0,1-.414,2.544,1.257,1.257,0,0,0,1.221,1.592H605.1a6.208,6.208,0,0,1,6.208,6.208v45.515a6.208,6.208,0,0,1-6.208,6.208H559.587a6.208,6.208,0,0,1-6.208-6.208V583.559a1.259,1.259,0,0,1,1.594-1.221,8.027,8.027,0,0,0,2.544.414,8.278,8.278,0,0,0,8.049-10.241,8.166,8.166,0,0,0-5.628-5.96,8.288,8.288,0,0,0-4.489-.061l-2.07-.291Z" transform="translate(-39.311 -31.443)" fill="#2946ed"/>
    <path id="Path_17" data-name="Path 17" d="M542.483,498.621l7.976-11.208a4.188,4.188,0,0,0-.91-5.655l-21.135-16.239-2.07,2.068V480l2.07,2.068,8.006,6.206-3.795,6.208Z" transform="translate(-28.828 -5.242)" fill="#376cfb"/>
    <path id="Path_18" data-name="Path 18" d="M495.933,462.344V452h16.551v10.344Z" transform="translate(-17.036)" fill="#2946ed"/>
    <g id="Group_4" data-name="Group 4" transform="translate(451.999 460.276)">
      <path id="Path_19" data-name="Path 19" d="M462.264,511.015a6.366,6.366,0,0,0-.124,1.261v45.517A6.207,6.207,0,0,0,468.347,564h13.676a1.258,1.258,0,0,0,1.22-1.594,7.987,7.987,0,0,1-.413-2.544,8.29,8.29,0,0,1,10.241-8.047,8.193,8.193,0,0,1,5.958,5.627,8.427,8.427,0,0,1-.02,4.863,1.268,1.268,0,0,0,1.18,1.7h13.676a6.208,6.208,0,0,0,6.207-6.206V544.117a1.257,1.257,0,0,1,1.592-1.221,8.011,8.011,0,0,0,2.546.414,8.275,8.275,0,0,0,0-16.551,8,8,0,0,0-2.546.413,1.256,1.256,0,0,1-1.592-1.22V512.276a6.207,6.207,0,0,0-6.207-6.206h-41.9Z" transform="translate(-455.932 -481.242)" fill="#d0dbf7"/>
      <path id="Path_20" data-name="Path 20" d="M474.759,482.069l-8.008,6.206,13.134,21.479a2.07,2.07,0,0,1-.857,2.872l-4.551,2.32a2.068,2.068,0,0,1-2.654-.687l-19.107-26.847a4.188,4.188,0,0,1,.909-5.655l21.134-16.239,2.068,2.068V480Z" transform="translate(-451.999 -465.518)" fill="#376cfb"/>
    </g>
    <rect id="Rectangle_5" data-name="Rectangle 5" width="24.827" height="16.551" transform="translate(474.759 460.276)" fill="#4294ff"/>
  </g>
</svg>
