<svg xmlns="http://www.w3.org/2000/svg" width="120" height="72.474" viewBox="0 0 120 72.474">
  <g id="biz-icon02" transform="translate(-452 -168.813)">
    <g id="Group_1" data-name="Group 1" transform="translate(452 168.813)">
      <path id="Path_1" data-name="Path 1" d="M572,220.58a20.708,20.708,0,0,1-20.707,20.707H472.608a20.706,20.706,0,0,1-1.967-41.309c-.042-.726-.1-1.45-.1-2.175a28.973,28.973,0,0,1,51.725-17.952,18.6,18.6,0,0,1,30,20.066A20.706,20.706,0,0,1,572,220.58Z" transform="translate(-452 -168.813)" fill="#e6ecff"/>
    </g>
    <path id="Path_2" data-name="Path 2" d="M494.7,266.342V276.7h-4.139V266.342a2.072,2.072,0,0,0-2.072-2.071h-6.212v-4.14h6.212a6.21,6.21,0,0,1,6.211,6.211Z" transform="translate(-11.74 -35.409)" fill="#d0dbf7"/>
    <rect id="Rectangle_1" data-name="Rectangle 1" width="4.142" height="26.918" transform="translate(491.244 214.369)" fill="#d0dbf7"/>
    <rect id="Rectangle_2" data-name="Rectangle 2" width="4.142" height="37.271" transform="translate(503.667 204.015)" fill="#bac7e5"/>
    <path id="Path_3" data-name="Path 3" d="M556.684,272.761V252.054a2.071,2.071,0,1,1,4.142,0v20.707Z" transform="translate(-40.592 -31.474)" fill="#d0dbf7"/>
    <path id="Path_4" data-name="Path 4" d="M609.692,260.131v4.14h-6.211a2.072,2.072,0,0,0-2.072,2.071V276.7h-4.14V266.342a6.211,6.211,0,0,1,6.212-6.211Z" transform="translate(-56.329 -35.409)" fill="#d0dbf7"/>
    <rect id="Rectangle_3" data-name="Rectangle 3" width="4.142" height="26.918" transform="translate(528.516 214.369)" fill="#bac7e5"/>
    <path id="Path_5" data-name="Path 5" d="M506.711,173.381v22.052h-4.142V175.8a26.8,26.8,0,0,1,4.142-2.423Z" transform="translate(-19.608 -1.771)" fill="#bac7e5"/>
    <path id="Path_6" data-name="Path 6" d="M537.151,169.549v13.813h-4.142V168.949a25.2,25.2,0,0,1,4.142.6Z" transform="translate(-31.412 -0.053)" fill="#d0dbf7"/>
    <path id="Path_7" data-name="Path 7" d="M587.881,179.084V197.6H583.74V179.084a17.29,17.29,0,0,1,4.141,0Z" transform="translate(-51.083 -3.934)" fill="#bac7e5"/>
    <path id="Path_8" data-name="Path 8" d="M564.207,184.124v9.711a2.071,2.071,0,0,1-4.142,0V179.941a29.264,29.264,0,0,1,4.1,4.224Z" transform="translate(-41.903 -4.315)" fill="#d0dbf7"/>
    <path id="Path_9" data-name="Path 9" d="M507.472,206.777a4.142,4.142,0,1,1-4.142-4.142,4.141,4.141,0,0,1,4.142,4.142Z" transform="translate(-18.298 -13.115)" fill="#2946ed"/>
    <path id="Path_10" data-name="Path 10" d="M537.91,189.867a4.141,4.141,0,1,1-4.142-4.142,4.141,4.141,0,0,1,4.142,4.142Z" transform="translate(-30.101 -6.558)" fill="#2946ed"/>
    <path id="Path_11" data-name="Path 11" d="M588.641,206.777a4.141,4.141,0,1,1-4.142-4.142,4.141,4.141,0,0,1,4.142,4.142Z" transform="translate(-49.772 -13.115)" fill="#2946ed"/>
    <path id="Path_12" data-name="Path 12" d="M564.966,203.395a4.141,4.141,0,1,1-4.142-4.142,4.141,4.141,0,0,1,4.142,4.142Z" transform="translate(-40.592 -11.803)" fill="#376cfb"/>
    <path id="Path_13" data-name="Path 13" d="M561.583,247.361a4.141,4.141,0,1,1-4.141-4.142,4.141,4.141,0,0,1,4.141,4.142Z" transform="translate(-39.28 -28.851)" fill="#2946ed"/>
    <path id="Path_14" data-name="Path 14" d="M480.414,260.889a4.141,4.141,0,1,1-4.14-4.142,4.141,4.141,0,0,1,4.14,4.142Z" transform="translate(-7.807 -34.097)" fill="#2946ed"/>
    <path id="Path_15" data-name="Path 15" d="M521,237.214a4.141,4.141,0,1,1-4.141-4.142A4.141,4.141,0,0,1,521,237.214Z" transform="translate(-23.544 -24.917)" fill="#376cfb"/>
    <path id="Path_16" data-name="Path 16" d="M541.292,220.3a4.142,4.142,0,1,1-4.141-4.142,4.141,4.141,0,0,1,4.141,4.142Z" transform="translate(-31.412 -18.36)" fill="#4294ff"/>
    <path id="Path_17" data-name="Path 17" d="M622.461,260.889a4.141,4.141,0,1,1-4.141-4.142,4.141,4.141,0,0,1,4.141,4.142Z" transform="translate(-62.886 -34.097)" fill="#4294ff"/>
    <path id="Path_18" data-name="Path 18" d="M581.876,237.214a4.141,4.141,0,1,1-4.14-4.142,4.141,4.141,0,0,1,4.14,4.142Z" transform="translate(-47.149 -24.917)" fill="#376cfb"/>
  </g>
</svg>
