<?xml version="1.0" encoding="utf-8"?>
<!-- Generator: Adobe Illustrator 25.4.1, SVG Export Plug-In . SVG Version: 6.00 Build 0)  -->
<svg version="1.1" id="Layer_1" xmlns="http://www.w3.org/2000/svg" xmlns:xlink="http://www.w3.org/1999/xlink" x="0px" y="0px"
	 viewBox="0 0 16 16" style="enable-background:new 0 0 16 16;" xml:space="preserve">
<style type="text/css">
	.st0{fill:#6C757D;}
</style>
<path class="st0" d="M8.9,0C7.9-0.2,7,0.5,7,1.5c-0.1,1.1-0.2,2-0.4,2.6c-0.1,0.4-0.5,1-1,1.6C4.9,6.3,4.2,6.9,3.4,7.1
	C2.7,7.3,2,7.9,2,8.7v4c0,0.8,0.7,1.5,1.4,1.5C4.5,14.4,5,14.7,5.5,15l0,0c0.3,0.2,0.6,0.3,1,0.5c0.4,0.1,0.9,0.2,1.5,0.2h3.5
	c0.9,0,1.6-0.5,1.9-1.1c0.2-0.3,0.2-0.6,0.3-0.9c0-0.2,0-0.3-0.1-0.5c0.2-0.3,0.4-0.6,0.5-0.9c0.1-0.3,0.2-0.8,0-1.1
	c0.1-0.1,0.1-0.3,0.2-0.4c0.1-0.3,0.1-0.6,0.1-0.9c0-0.3,0-0.6-0.1-0.9c0-0.1-0.1-0.2-0.1-0.4c0.4-0.5,0.4-1.2,0.2-1.7
	c-0.2-0.6-0.7-1.1-1.2-1.3c-0.8-0.3-1.8-0.3-2.5-0.2c-0.1,0-0.3,0-0.4,0.1c0.3-1.5,0.3-3-0.1-4.5c-0.1-0.5-0.5-0.9-1-1L8.9,0z
	 M11.5,14.7H8c-0.5,0-0.9-0.1-1.1-0.2c-0.3-0.1-0.5-0.2-0.8-0.4l0,0c-0.6-0.3-1.2-0.7-2.5-0.9C3.2,13.2,3,13,3,12.7v-4
	c0-0.3,0.2-0.5,0.6-0.6c1.1-0.3,2-1,2.6-1.7c0.6-0.7,1.1-1.5,1.2-2C7.7,3.7,7.9,2.6,8,1.5C8,1.2,8.3,0.9,8.6,1l0.3,0.1
	c0.2,0,0.3,0.1,0.3,0.3C9.6,2.9,9.5,4.5,9,6.1C8.9,6.3,9.1,6.6,9.3,6.7c0.1,0,0.2,0,0.3,0l0,0l0,0l0.1,0c0.3-0.1,0.7-0.1,1-0.2
	c0.7-0.1,1.5-0.1,2.1,0.2C13,6.8,13.3,7,13.4,7.3c0.1,0.3,0.1,0.7-0.3,1l-0.4,0.4l0.4,0.4c0,0,0.1,0.1,0.2,0.3
	c0,0.2,0.1,0.4,0.1,0.6c0,0.2,0,0.4-0.1,0.6c-0.1,0.2-0.1,0.3-0.2,0.3l-0.4,0.4l0.4,0.4c0,0,0.1,0.2,0,0.5c-0.1,0.3-0.3,0.6-0.5,0.8
	l-0.4,0.4l0.4,0.4c0,0,0,0.1,0,0.2c0,0.1,0,0.3-0.1,0.4C12.4,14.4,12.1,14.7,11.5,14.7L11.5,14.7z"/>
</svg>
