<svg xmlns="http://www.w3.org/2000/svg" width="15" height="22" viewBox="0 0 15 22">
  <g id="icon-guide" transform="translate(1)">
    <rect id="Rectangle_93" data-name="Rectangle 93" width="15" height="22" transform="translate(-1)" fill="#e7f4ec" opacity="0"/>
    <g id="Icon_feather-arrow-right-circle" data-name="Icon feather-arrow-right-circle" transform="translate(0 4)">
      <g id="Icon_ionic-ios-arrow-dropright" data-name="Icon ionic-ios-arrow-dropright">
        <path id="Path_68" data-name="Path 68" d="M6.584,4.613a.605.605,0,0,1,.853,0L10.419,7.6a.6.6,0,0,1,.019.831L7.5,11.381a.6.6,0,1,1-.853-.85L9.144,8,6.584,5.463A.6.6,0,0,1,6.584,4.613Z" transform="translate(-1.5 -1.5)" fill="#6c757d"/>
        <path id="Path_69" data-name="Path 69" d="M1.5,8A6.5,6.5,0,1,0,8,1.5,6.5,6.5,0,0,0,1.5,8Zm1,0a5.5,5.5,0,0,1,9.387-3.887,5.5,5.5,0,1,1-7.775,7.775A5.453,5.453,0,0,1,2.5,8Z" transform="translate(-1.5 -1.5)" fill="#6c757d"/>
      </g>
    </g>
  </g>
</svg>
