<svg xmlns="http://www.w3.org/2000/svg" width="32" height="31.997" viewBox="0 0 32 31.997">
  <g id="icon-clock-fill" transform="translate(23.5 -13)">
    <path id="Icon_ionic-md-clock" data-name="Icon ionic-md-clock" d="M30.688,8.059a16,16,0,1,0,0,22.629A16.007,16.007,0,0,0,30.688,8.059Zm-1.269,4.092a1.234,1.234,0,1,1-.454,1.684A1.234,1.234,0,0,1,29.419,12.151ZM5.837,19.374A1.231,1.231,0,1,1,7.067,20.6,1.234,1.234,0,0,1,5.837,19.374ZM9.329,26.6a1.234,1.234,0,1,1,.454-1.684A1.234,1.234,0,0,1,9.329,26.6Zm.454-12.76a1.234,1.234,0,1,1-.454-1.684A1.239,1.239,0,0,1,9.782,13.836Zm2.823-6.184a1.234,1.234,0,1,1-.454,1.684A1.234,1.234,0,0,1,12.605,7.652Zm-.6,8.515,1.2-2.046L20.528,18.5V29.219H18.143V19.727ZM14.29,30.649a1.234,1.234,0,1,1-.454-1.684A1.239,1.239,0,0,1,14.29,30.649Zm5.084,2.261A1.231,1.231,0,1,1,20.6,31.68,1.234,1.234,0,0,1,19.374,32.911Zm0-24.613A1.231,1.231,0,1,1,20.6,7.067,1.234,1.234,0,0,1,19.374,8.3Zm6.769,22.8a1.234,1.234,0,1,1,.454-1.684A1.234,1.234,0,0,1,26.142,31.1ZM26.6,9.328a1.234,1.234,0,1,1-.454-1.684A1.239,1.239,0,0,1,26.6,9.328Zm4.5,16.814a1.234,1.234,0,1,1-.454-1.684A1.239,1.239,0,0,1,31.1,26.142ZM31.68,20.6a1.231,1.231,0,1,1,1.231-1.231A1.234,1.234,0,0,1,31.68,20.6Z" transform="translate(-26.872 9.625)" fill="#124fb6"/>
  </g>
</svg>
