<svg xmlns="http://www.w3.org/2000/svg" viewBox="0 0 754.73 179.77">
  <defs>
    <style>
      .cls-1 {
        fill: #004f99;
      }
    </style>
  </defs>
  <g id="Layer_2" data-name="Layer 2">
    <g id="레이어_1" data-name="레이어 1">
      <g>
        <path class="cls-1" d="M54,101.89V125.8H77.88V101.89Zm0,0V125.8H77.88V101.89ZM159.77,0H20A20,20,0,0,0,0,20V159.77a20,20,0,0,0,20,20H159.77a20,20,0,0,0,19.91-20V20A20,20,0,0,0,159.77,0ZM30,30H54V54H30ZM149.72,149.81H125.8V101.89H101.89v47.92H30V77.88H77.88V30h24V77.88h47.83ZM54,125.8H77.88V101.89H54Zm0-23.91V125.8H77.88V101.89Zm0,0V125.8H77.88V101.89Z"/>
        <g>
          <path d="M281.13,38.18q9.78,11.46,9.79,27.75a41.4,41.4,0,0,1-9.79,27.58q-9.78,11.61-23.22,11.62-13.73,0-23.36-11.62t-9.64-27.58q0-16.29,9.64-27.75t23.36-11.46Q271.37,26.72,281.13,38.18Zm-37.42,9q-5.84,7.71-5.84,18.73a30.28,30.28,0,0,0,5.84,18.56q5.83,7.86,14.2,7.86c5.56,0,10.3-2.62,14.18-7.86a30.16,30.16,0,0,0,5.84-18.56c0-7.35-1.93-13.59-5.84-18.73s-8.62-7.71-14.18-7.71S247.6,42.07,243.71,47.2ZM313.6,33.76a8.84,8.84,0,0,1,7.24-3.36H337.7V43.17H323.82V149.69h-13V42.57A13.4,13.4,0,0,1,313.6,33.76Z"/>
          <path d="M428.71,38.18q9.78,11.46,9.79,27.75a41.4,41.4,0,0,1-9.79,27.58q-9.78,11.61-23.22,11.62-13.73,0-23.37-11.62t-9.65-27.58q0-16.29,9.65-27.75t23.37-11.46Q418.94,26.72,428.71,38.18Zm-37.42,9q-5.85,7.71-5.84,18.73a30.22,30.22,0,0,0,5.84,18.56q5.85,7.86,14.2,7.86t14.19-7.86a30.35,30.35,0,0,0,5.84-18.56q0-11-5.84-18.73t-14.19-7.71Q397.14,39.49,391.29,47.2Zm83.78,102.61h-13V30.44h13Z"/>
          <path d="M528.83,98.16h73.29v12.77H525.84a8.9,8.9,0,0,1-7.24-3.36,13.64,13.64,0,0,1-2.74-8.89V30.4h65.22V43.17H528.83ZM615,149.81H602V30.44h13Z"/>
          <path d="M754.73,130.14H655.57V117.37h43.09V93.81h13v23.56h43.1ZM669.63,69h84.68V81.74H666.62a8.9,8.9,0,0,1-7.23-3.34,13.49,13.49,0,0,1-2.75-8.83V30.4h13Z"/>
          <path d="M281.13,38.18q9.78,11.46,9.79,27.75a41.4,41.4,0,0,1-9.79,27.58q-9.78,11.61-23.22,11.62-13.73,0-23.36-11.62t-9.64-27.58q0-16.29,9.64-27.75t23.36-11.46Q271.37,26.72,281.13,38.18Zm-37.42,9q-5.84,7.71-5.84,18.73a30.28,30.28,0,0,0,5.84,18.56q5.83,7.86,14.2,7.86c5.56,0,10.3-2.62,14.18-7.86a30.16,30.16,0,0,0,5.84-18.56c0-7.35-1.93-13.59-5.84-18.73s-8.62-7.71-14.18-7.71S247.6,42.07,243.71,47.2ZM313.6,33.76a8.84,8.84,0,0,1,7.24-3.36H337.7V43.17H323.82V149.69h-13V42.57A13.4,13.4,0,0,1,313.6,33.76Z"/>
          <path d="M428.71,38.18q9.78,11.46,9.79,27.75a41.4,41.4,0,0,1-9.79,27.58q-9.78,11.61-23.22,11.62-13.73,0-23.37-11.62t-9.65-27.58q0-16.29,9.65-27.75t23.37-11.46Q418.94,26.72,428.71,38.18Zm-37.42,9q-5.85,7.71-5.84,18.73a30.22,30.22,0,0,0,5.84,18.56q5.85,7.86,14.2,7.86t14.19-7.86a30.35,30.35,0,0,0,5.84-18.56q0-11-5.84-18.73t-14.19-7.71Q397.14,39.49,391.29,47.2Zm83.78,102.61h-13V30.44h13Z"/>
          <path d="M528.83,98.16h73.29v12.77H525.84a8.9,8.9,0,0,1-7.24-3.36,13.64,13.64,0,0,1-2.74-8.89V30.4h65.22V43.17H528.83ZM615,149.81H602V30.44h13Z"/>
          <path d="M754.73,130.14H655.57V117.37h43.09V93.81h13v23.56h43.1ZM669.63,69h84.68V81.74H666.62a8.9,8.9,0,0,1-7.23-3.34,13.49,13.49,0,0,1-2.75-8.83V30.4h13Z"/>
        </g>
      </g>
    </g>
  </g>
</svg>
