<?xml version="1.0" encoding="utf-8"?>
<!-- Generator: Adobe Illustrator 25.4.1, SVG Export Plug-In . SVG Version: 6.00 Build 0)  -->
<svg version="1.1" id="Layer_1" xmlns="http://www.w3.org/2000/svg" xmlns:xlink="http://www.w3.org/1999/xlink" x="0px" y="0px"
	 viewBox="0 0 16 16" style="enable-background:new 0 0 16 16;" xml:space="preserve">
<style type="text/css">
	.st0{fill:#6C757D;}
</style>
<path class="st0" d="M8,15c-3.9,0-7-3.1-7-7s3.1-7,7-7s7,3.1,7,7S11.9,15,8,15z M8,16c4.4,0,8-3.6,8-8s-3.6-8-8-8S0,3.6,0,8
	S3.6,16,8,16z"/>
<path class="st0" d="M5.3,5.8C5.2,5.9,5.4,6,5.5,6c0,0,0,0,0,0h0.8c0.1,0,0.2-0.1,0.3-0.3c0.1-0.7,0.5-1.1,1.3-1.1
	c0.7,0,1.3,0.3,1.3,1.2c0,0.6-0.4,0.9-1,1.4c-0.7,0.5-1.2,1.1-1.2,2l0,0.2c0,0.1,0.1,0.2,0.3,0.2h0.8c0.1,0,0.3-0.1,0.3-0.3V9.3
	c0-0.7,0.3-0.9,1-1.5c0.6-0.5,1.2-1,1.2-2.1c0-1.5-1.3-2.2-2.7-2.2C6.7,3.5,5.3,4.1,5.3,5.8z M6.8,11.5c0,0.5,0.4,0.9,1,0.9
	c0.6,0,1-0.4,1-0.9c0-0.6-0.4-0.9-1-0.9C7.2,10.6,6.8,11,6.8,11.5z"/>
</svg>
