<svg xmlns="http://www.w3.org/2000/svg" width="80" height="80" viewBox="0 0 80 80">
  <g id="robot-icon02" transform="translate(-1475 -523)">
    <circle id="Ellipse_150" data-name="Ellipse 150" cx="40" cy="40" r="40" transform="translate(1475 523)" fill="#fff"/>
    <g id="robot-con02" transform="translate(1320.04 93)">
      <path id="Path_57" data-name="Path 57" d="M269.213,501.48H262.7v-8.191h6.516a2.9,2.9,0,0,1,2.885,2.923v2.345a2.9,2.9,0,0,1-2.885,2.923Z" transform="translate(-53.137 -23.695)" fill="#abcffd"/>
      <path id="Path_58" data-name="Path 58" d="M173.846,501.48h6.516v-8.191h-6.516a2.9,2.9,0,0,0-2.885,2.923v2.345a2.9,2.9,0,0,0,2.885,2.923Z" transform="translate(0 -23.695)" fill="#abcffd"/>
      <path id="Path_59" data-name="Path 59" d="M185.271,479.941V466.678A14.586,14.586,0,0,1,199.764,452h6.972a14.587,14.587,0,0,1,14.493,14.677v13.264A8.009,8.009,0,0,1,213.271,488H193.229a8.009,8.009,0,0,1-7.958-8.059Z" transform="translate(-8.289 0)" fill="#abcffd"/>
      <path id="Path_60" data-name="Path 60" d="M223.153,479V460.236a8.7,8.7,0,0,0-3.424-6.941,14.285,14.285,0,0,0-5.96-1.295H206.8a14.288,14.288,0,0,0-5.96,1.295,8.7,8.7,0,0,0-3.424,6.941V479a3.218,3.218,0,0,0,3.2,3.238h19.347a3.218,3.218,0,0,0,3.2-3.238Z" transform="translate(-15.321 0)" fill="#094cb2"/>
      <g id="Group_19" data-name="Group 19" transform="translate(184.963 466.556)">
        <path id="Path_61" data-name="Path 61" d="M210.583,489.373a3.172,3.172,0,1,1-3.172-3.213,3.193,3.193,0,0,1,3.172,3.213Z" transform="translate(-204.239 -486.16)" fill="#e6ecff"/>
        <path id="Path_62" data-name="Path 62" d="M242.9,489.373a3.173,3.173,0,1,1-3.173-3.213,3.193,3.193,0,0,1,3.173,3.213Z" transform="translate(-222.956 -486.16)" fill="#e6ecff"/>
        <path id="Path_63" data-name="Path 63" d="M219.344,507.2a3.685,3.685,0,0,0,7.23,0Z" transform="translate(-212.988 -498.236)" fill="#0acffe"/>
      </g>
    </g>
  </g>
</svg>
