<svg id="robot-icon04" xmlns="http://www.w3.org/2000/svg" width="120" height="120" viewBox="0 0 120 120">
  <circle id="Ellipse_152" data-name="Ellipse 152" cx="60" cy="60" r="60" fill="#e3e6ef"/>
  <g id="robot-icon04-2" data-name="robot-icon04" transform="translate(20 32)">
    <path id="Path_57" data-name="Path 57" d="M209.516,183.546a2.534,2.534,0,0,1,0,2.978c-4.133,5.794-20.255,26.511-39.516,26.511s-35.384-20.717-39.516-26.511a2.534,2.534,0,0,1,0-2.978c4.133-5.794,20.255-26.511,39.516-26.511s35.384,20.717,39.516,26.511Z" transform="translate(-130 -157.035)" fill="#fff"/>
    <path id="Path_58" data-name="Path 58" d="M217.448,194A23.449,23.449,0,1,1,194,170.551,23.448,23.448,0,0,1,217.448,194Z" transform="translate(-154 -165.55)" fill="#e3e6ef"/>
    <g id="Group_28" data-name="Group 28" transform="translate(21.143 9)">
      <g id="Group_24" data-name="Group 24" transform="translate(9.754)">
        <rect id="Rectangle_28" data-name="Rectangle 28" width="2.601" height="5.852" fill="#2946ed"/>
        <rect id="Rectangle_29" data-name="Rectangle 29" width="2.601" height="5.852" transform="translate(7.803)" fill="#2946ed"/>
        <rect id="Rectangle_30" data-name="Rectangle 30" width="2.601" height="5.852" transform="translate(15.606)" fill="#2946ed"/>
      </g>
      <g id="Group_25" data-name="Group 25" transform="translate(0 9.754)">
        <rect id="Rectangle_31" data-name="Rectangle 31" width="5.852" height="2.601" transform="translate(0 15.606)" fill="#2946ed"/>
        <rect id="Rectangle_32" data-name="Rectangle 32" width="5.852" height="2.601" transform="translate(0 7.803)" fill="#2946ed"/>
        <rect id="Rectangle_33" data-name="Rectangle 33" width="5.852" height="2.601" fill="#2946ed"/>
      </g>
      <g id="Group_26" data-name="Group 26" transform="translate(9.754 31.862)">
        <rect id="Rectangle_34" data-name="Rectangle 34" width="2.601" height="5.852" transform="translate(15.606)" fill="#2946ed"/>
        <rect id="Rectangle_35" data-name="Rectangle 35" width="2.601" height="5.852" transform="translate(7.803)" fill="#2946ed"/>
        <rect id="Rectangle_36" data-name="Rectangle 36" width="2.601" height="5.852" fill="#2946ed"/>
      </g>
      <g id="Group_27" data-name="Group 27" transform="translate(31.862 9.754)">
        <rect id="Rectangle_37" data-name="Rectangle 37" width="5.852" height="2.601" fill="#2946ed"/>
        <rect id="Rectangle_38" data-name="Rectangle 38" width="5.852" height="2.601" transform="translate(0 7.803)" fill="#2946ed"/>
        <rect id="Rectangle_39" data-name="Rectangle 39" width="5.852" height="2.601" transform="translate(0 15.606)" fill="#2946ed"/>
      </g>
      <path id="Path_59" data-name="Path 59" d="M198.447,194.546h19.507a3.892,3.892,0,0,1,3.9,3.9v19.507a3.892,3.892,0,0,1-3.9,3.9H198.447a3.892,3.892,0,0,1-3.9-3.9V198.447a3.892,3.892,0,0,1,3.9-3.9Z" transform="translate(-189.344 -189.344)" fill="#4294ff"/>
      <path id="Path_60" data-name="Path 60" d="M223.026,202.218v19.507a1.3,1.3,0,0,1-1.3,1.3H202.218a1.3,1.3,0,0,1-1.3-1.3V202.218a1.3,1.3,0,0,1,1.3-1.3h19.507a1.3,1.3,0,0,1,1.3,1.3Z" transform="translate(-193.114 -193.114)" fill="#2946ed"/>
    </g>
  </g>
</svg>
