<svg xmlns="http://www.w3.org/2000/svg" width="72" height="104.691" viewBox="0 0 72 104.691">
  <g id="robot-icon05" transform="translate(-650.613 -499)">
    <g id="Group_7207" data-name="Group 7207" transform="translate(650.613 499)">
      <path id="Path_108" data-name="Path 108" d="M864.713,918.063v15.1h15.1v-15.1Z" transform="translate(-836.262 -841.114)" fill="#d0dbf7"/>
      <path id="Path_109" data-name="Path 109" d="M856.487,786.907v14.728h23.885V786.907a11.943,11.943,0,1,0-23.885,0Z" transform="translate(-832.43 -774.449)" fill="#2946ed"/>
      <path id="Path_110" data-name="Path 110" d="M877.474,807.573A1.572,1.572,0,0,1,875.9,806V795.165a1.572,1.572,0,0,1,3.144,0V806a1.572,1.572,0,0,1-1.572,1.572Z" transform="translate(-841.474 -783.128)" fill="#d0dbf7"/>
      <path id="Path_111" data-name="Path 111" d="M849.3,820.062v4.9h31.564v-4.9A9.86,9.86,0,0,0,871,810.2H859.159a9.86,9.86,0,0,0-9.86,9.86Z" transform="translate(-829.081 -790.865)" fill="#e6ecff"/>
      <g id="Group_10" data-name="Group 10" transform="translate(2.509)">
        <path id="Path_112" data-name="Path 112" d="M931.384,795.848a1.573,1.573,0,0,1-1.237-2.542,13.988,13.988,0,0,0,0-16.763,1.573,1.573,0,0,1,2.475-1.941,17.133,17.133,0,0,1,0,20.643,1.569,1.569,0,0,1-1.239.6Z" transform="translate(-869.098 -774)" fill="#4294ff"/>
        <path id="Path_113" data-name="Path 113" d="M917.939,795.464a1.573,1.573,0,0,1-1.164-2.629,8.162,8.162,0,0,0,0-10.576,1.572,1.572,0,0,1,2.329-2.113,11.3,11.3,0,0,1,0,14.8,1.568,1.568,0,0,1-1.165.515Z" transform="translate(-862.834 -776.623)" fill="#2946ed"/>
        <path id="Path_114" data-name="Path 114" d="M820.841,795.848a1.569,1.569,0,0,1-1.239-.6,17.132,17.132,0,0,1,0-20.642,1.572,1.572,0,0,1,2.475,1.939,13.988,13.988,0,0,0,0,16.763,1.573,1.573,0,0,1-1.237,2.542Z" transform="translate(-816.144 -774)" fill="#4294ff"/>
      </g>
      <path id="Path_115" data-name="Path 115" d="M834.957,795.464a1.567,1.567,0,0,1-1.165-.515,11.3,11.3,0,0,1,0-14.8,1.572,1.572,0,0,1,2.329,2.113,8.163,8.163,0,0,0,0,10.576,1.573,1.573,0,0,1-1.164,2.628Z" transform="translate(-820.571 -776.623)" fill="#2946ed"/>
      <path id="Path_116" data-name="Path 116" d="M875.229,786.691a4.145,4.145,0,1,0,4.146,4.145,4.145,4.145,0,0,0-4.146-4.145Z" transform="translate(-839.23 -779.912)" fill="#e6ecff"/>
      <path id="Path_117" data-name="Path 117" d="M871.871,937.025H838.124a10.469,10.469,0,0,0-10.469,10.469v7.144H882.34v-7.144A10.469,10.469,0,0,0,871.871,937.025Z" transform="translate(-818.998 -849.948)" fill="#e6ecff"/>
      <g id="Group_17" data-name="Group 17" transform="translate(0 26.287)">
        <path id="Path_139" data-name="Path 139" d="M929.618,884.133h-9.774V872h9.774a4.328,4.328,0,0,1,4.328,4.329V879.8a4.328,4.328,0,0,1-4.328,4.329Z" transform="translate(-861.945 -845.943)" fill="#bac7e5"/>
        <path id="Path_140" data-name="Path 140" d="M815.775,884.133h9.773V872h-9.773a4.328,4.328,0,0,0-4.328,4.329V879.8a4.328,4.328,0,0,0,4.328,4.329Z" transform="translate(-811.447 -845.943)" fill="#bac7e5"/>
        <path id="Path_141" data-name="Path 141" d="M828.356,864.6V844.953A21.739,21.739,0,0,1,850.1,823.214h10.458a21.74,21.74,0,0,1,21.739,21.739V864.6a11.936,11.936,0,0,1-11.936,11.936H840.292A11.936,11.936,0,0,1,828.356,864.6Z" transform="translate(-819.324 -823.214)" fill="#e6ecff"/>
        <path id="Path_142" data-name="Path 142" d="M881.313,863.2V835.412a12.834,12.834,0,0,0-5.136-10.28,21.654,21.654,0,0,0-8.94-1.918H856.779a21.66,21.66,0,0,0-8.94,1.918,12.832,12.832,0,0,0-5.136,10.28V863.2a4.8,4.8,0,0,0,4.8,4.8h29.02a4.8,4.8,0,0,0,4.8-4.8Z" transform="translate(-826.008 -823.214)" fill="#2946ed"/>
        <g id="Group_16" data-name="Group 16" transform="translate(21.003 21.56)">
          <path id="Path_143" data-name="Path 143" d="M860.285,868.338a4.758,4.758,0,1,1-4.758-4.759,4.758,4.758,0,0,1,4.758,4.759Z" transform="translate(-850.768 -863.579)" fill="#e6ecff"/>
          <path id="Path_144" data-name="Path 144" d="M898.468,868.338a4.758,4.758,0,1,1-4.758-4.759,4.758,4.758,0,0,1,4.758,4.759Z" transform="translate(-868.556 -863.579)" fill="#e6ecff"/>
          <path id="Path_145" data-name="Path 145" d="M868.617,888.444a5.542,5.542,0,0,0,10.845,0Z" transform="translate(-859.083 -875.163)" fill="#4294ff"/>
        </g>
      </g>
    </g>
  </g>
</svg>
