<svg xmlns="http://www.w3.org/2000/svg" width="120" height="120" viewBox="0 0 120 120">
  <g id="robot-icon03" transform="translate(-627 -480)">
    <circle id="Ellipse_152" data-name="Ellipse 152" cx="60" cy="60" r="60" transform="translate(627 480)" fill="#e3e6ef"/>
    <g id="robot-icon03-2" data-name="robot-icon03" transform="translate(655 508)">
      <path id="Path_3" data-name="Path 3" d="M225.725,780.621A7.426,7.426,0,0,1,233.107,774a7.323,7.323,0,0,1,6.94,4.943,3.174,3.174,0,0,1,.442-.021,7.377,7.377,0,0,1,7.393,7.382,7.053,7.053,0,0,1-.441,2.493,1.939,1.939,0,0,1,.441-.033,7.377,7.377,0,0,1,7.382,7.393,8.142,8.142,0,0,1-.2,1.721,7.343,7.343,0,0,1,.4,10.957,8.432,8.432,0,0,1,2.263,5.782,8.592,8.592,0,0,1-4.943,7.779,8.607,8.607,0,0,1-7.681,8.165A9.821,9.821,0,0,1,235.568,838c-5.275,0-9.6-3.664-9.843-8.828l-1.1-1.1V781.724Z" transform="translate(-193.725 -774)" fill="#094cb2"/>
      <path id="Path_4" data-name="Path 4" d="M132.262,808.836a7.343,7.343,0,0,1,.4-10.957,8.144,8.144,0,0,1-.2-1.721,7.377,7.377,0,0,1,7.382-7.393,1.943,1.943,0,0,1,.441.033,7.048,7.048,0,0,1-.441-2.493,7.377,7.377,0,0,1,7.393-7.382,3.174,3.174,0,0,1,.442.021,7.324,7.324,0,0,1,6.94-4.943A7.426,7.426,0,0,1,162,780.621v48.551c-.242,5.164-4.568,8.828-9.843,8.828a9.821,9.821,0,0,1-9.533-7.437,8.607,8.607,0,0,1-7.681-8.165A8.592,8.592,0,0,1,130,814.618a8.432,8.432,0,0,1,2.263-5.782Z" transform="translate(-130 -774)" fill="#fff"/>
      <g id="Group_7177" data-name="Group 7177" transform="translate(37.173 15.596)">
        <path id="Path_5" data-name="Path 5" d="M252.62,919.311a.966.966,0,0,1-.965-.966,5.8,5.8,0,0,1,5.793-5.793.966.966,0,1,1,0,1.931,3.861,3.861,0,0,0-3.861,3.861.966.966,0,0,1-.966.966Z" transform="translate(-249.724 -884.552)" fill="#0acffe"/>
        <path id="Path_6" data-name="Path 6" d="M245.861,861.863a.966.966,0,0,1-.965-.966,5.8,5.8,0,0,1,5.793-5.793.966.966,0,1,1,0,1.931,3.862,3.862,0,0,0-3.862,3.861.966.966,0,0,1-.966.966Z" transform="translate(-244.896 -843.518)" fill="#0acffe"/>
        <path id="Path_7" data-name="Path 7" d="M284.482,882.137a.965.965,0,0,1-.965-.965,3.862,3.862,0,0,0-3.862-3.862.966.966,0,0,1,0-1.931,5.8,5.8,0,0,1,5.793,5.793.965.965,0,0,1-.966.965Z" transform="translate(-269.035 -857.999)" fill="#0acffe"/>
        <path id="Path_8" data-name="Path 8" d="M260.827,821.311a.966.966,0,0,1-.966-.965A3.862,3.862,0,0,0,256,816.483a.966.966,0,1,1,0-1.931,5.8,5.8,0,0,1,5.793,5.793.966.966,0,0,1-.965.965Z" transform="translate(-252.138 -814.552)" fill="#0acffe"/>
      </g>
      <path id="Path_9" data-name="Path 9" d="M204.276,811.035a3.31,3.31,0,0,1-3.31-3.31v-3.31h2.207v3.31a1.1,1.1,0,0,0,1.1,1.1h5.517v2.206Z" transform="translate(-177.793 -794.484)" fill="#094cb2"/>
      <rect id="Rectangle_13" data-name="Rectangle 13" width="14.344" height="2.207" transform="translate(17.656 20.966)" fill="#094cb2"/>
      <rect id="Rectangle_14" data-name="Rectangle 14" width="19.862" height="2.207" transform="translate(12.138 27.586)" fill="#094cb2"/>
      <path id="Path_10" data-name="Path 10" d="M202.966,880.966H191.932a1.1,1.1,0,0,1,0-2.207h11.034Z" transform="translate(-170.966 -844.552)" fill="#094cb2"/>
      <path id="Path_11" data-name="Path 11" d="M200.966,922.621a3.31,3.31,0,0,1,3.31-3.31h5.517v2.206h-5.517a1.1,1.1,0,0,0-1.1,1.1v3.31h-2.207Z" transform="translate(-177.793 -871.862)" fill="#094cb2"/>
      <rect id="Rectangle_15" data-name="Rectangle 15" width="14.344" height="2.207" transform="translate(17.656 40.827)" fill="#094cb2"/>
      <path id="Path_12" data-name="Path 12" d="M197.586,796.484a2.207,2.207,0,1,1,2.207,2.206,2.207,2.207,0,0,1-2.207-2.206Z" transform="translate(-175.517 -787.656)" fill="#0acffe"/>
      <path id="Path_13" data-name="Path 13" d="M173.933,837.035a2.207,2.207,0,1,1,2.206,2.207,2.206,2.206,0,0,1-2.206-2.207Z" transform="translate(-159.587 -814.967)" fill="#0acffe"/>
      <path id="Path_14" data-name="Path 14" d="M157.036,857.311a2.207,2.207,0,1,1,2.206,2.207,2.207,2.207,0,0,1-2.206-2.207Z" transform="translate(-148.208 -828.621)" fill="#0acffe"/>
      <path id="Path_15" data-name="Path 15" d="M197.586,938.413a2.207,2.207,0,1,1,2.207,2.207,2.207,2.207,0,0,1-2.207-2.207Z" transform="translate(-175.517 -883.242)" fill="#0acffe"/>
      <path id="Path_16" data-name="Path 16" d="M173.933,897.862a2.207,2.207,0,1,1,2.206,2.206,2.207,2.207,0,0,1-2.206-2.206Z" transform="translate(-159.587 -855.931)" fill="#0acffe"/>
      <path id="Path_17" data-name="Path 17" d="M185.6,877.588a2.207,2.207,0,1,1,2.206,2.206,2.207,2.207,0,0,1-2.206-2.206Z" transform="translate(-167.444 -842.277)" fill="#0acffe"/>
    </g>
  </g>
</svg>
