<?xml version="1.0" encoding="utf-8"?>
<!-- Generator: Adobe Illustrator 25.4.1, SVG Export Plug-In . SVG Version: 6.00 Build 0)  -->
<svg version="1.1" id="Layer_1" xmlns="http://www.w3.org/2000/svg" xmlns:xlink="http://www.w3.org/1999/xlink" x="0px" y="0px"
	 viewBox="0 0 24 24" style="enable-background:new 0 0 24 24;" xml:space="preserve">
<style type="text/css">
	.st0{fill:#C4C8CC;}
</style>
<g id="sns-facebook" transform="translate(-26 -79.166)">
	<path id="Icon_awesome-facebook-square" class="st0" d="M47.4,79.2H28.6c-1.4,0-2.6,1.2-2.6,2.6v18.9c0,1.4,1.2,2.6,2.6,2.6h7.4V95
		h-3.4v-3.8h3.4v-2.9c0-3.3,2-5.2,5-5.2c1,0,2,0.1,3,0.3v3.3h-1.7c-1.1-0.1-2,0.6-2.2,1.6c0,0.1,0,0.3,0,0.4v2.5h3.7L43.2,95h-3.1
		v8.2h7.4c1.4,0,2.6-1.2,2.6-2.6V81.7C50,80.3,48.8,79.2,47.4,79.2z"/>
</g>
</svg>
