<?xml version="1.0" encoding="utf-8"?>
<!-- Generator: Adobe Illustrator 25.4.1, SVG Export Plug-In . SVG Version: 6.00 Build 0)  -->
<svg version="1.1" id="sns-kakaostory" xmlns="http://www.w3.org/2000/svg" xmlns:xlink="http://www.w3.org/1999/xlink" x="0px"
	 y="0px" viewBox="0 0 24 24" style="enable-background:new 0 0 24 24;" xml:space="preserve">
<style type="text/css">
	.st0{fill:#FFC10E;}
	.st1{fill:#FFFFFF;}
</style>
<g id="Layer_1">
	<g id="Group_194">
		<path id="Rectangle_97" class="st0" d="M1.9,0h20.2C23.1,0,24,0.9,24,1.9v20.2c0,1.1-0.9,1.9-1.9,1.9H1.9C0.9,24,0,23.1,0,22.1
			V1.9C0,0.9,0.9,0,1.9,0z"/>
	</g>
	<path id="Path_77" class="st1" d="M15.1,5.4H8.8C8.3,5.4,8,5.8,8,6.2c0,0,0,0,0,0v6.3c0,0.4,0.3,0.8,0.8,0.8c0,0,0,0,0,0h2.9
		c-0.1,0.8-0.3,1.6-0.8,2.3c-0.5,0.6-1,1.2-1.6,1.7c-0.1,0.1-0.2,0.2-0.2,0.3c0,0.1,0,0.2,0.1,0.3l2,2.3c0,0.1,0.1,0.1,0.2,0.1
		c0.1,0,0.2,0,0.3,0c2.5-1.9,4.1-4.8,4.1-8V6.2C15.9,5.8,15.6,5.4,15.1,5.4C15.1,5.4,15.1,5.4,15.1,5.4"/>
</g>
</svg>
