<svg xmlns="http://www.w3.org/2000/svg" viewBox="0 0 24 24">
  <defs>
    <style>
      .cls-1 {
        fill: #c4c8cc;
      }
    </style>
  </defs>
  <g id="Layer_2" data-name="Layer 2">
    <g id="Layer_1-2" data-name="Layer 1">
      <path class="cls-1" d="M21.43,0H2.58A2.59,2.59,0,0,0,0,2.58V21.43A2.58,2.58,0,0,0,2.58,24H21.43A2.57,2.57,0,0,0,24,21.43V2.58A2.58,2.58,0,0,0,21.43,0ZM8.89,12.76l6.72,3.12a2.49,2.49,0,1,1-.49.87L8.4,13.63a2.5,2.5,0,1,1-.27-3.52,1.72,1.72,0,0,1,.27.27l6.72-3.12A2.19,2.19,0,0,1,15,6.5a2.49,2.49,0,1,1,.6,1.63L8.89,11.25A2.59,2.59,0,0,1,8.89,12.76Z"/>
    </g>
  </g>
</svg>
