<?xml version="1.0" encoding="utf-8"?>
<!-- Generator: Adobe Illustrator 25.4.1, SVG Export Plug-In . SVG Version: 6.00 Build 0)  -->
<svg version="1.1" id="sns-naverblog" xmlns="http://www.w3.org/2000/svg" xmlns:xlink="http://www.w3.org/1999/xlink" x="0px"
	 y="0px" viewBox="0 0 24 24" style="enable-background:new 0 0 24 24;" xml:space="preserve">
<style type="text/css">
	.st0{fill:#C4C8CC;}
</style>
<g id="Layer_1">
	<path id="Path_78" class="st0" d="M6.3,7.5C5.9,7.5,5.5,7.7,5.2,8V6H4v5.2h1.3v-0.4c0.2,0.4,0.6,0.6,1.1,0.6c1,0,1.8-0.9,1.8-1.9
		c0,0,0-0.1,0-0.1C8.1,9.4,8,7.5,6.3,7.5z M6,10.3c-0.1,0-0.3,0-0.4-0.1C5.4,10,5.2,9.8,5.2,9.5c0-0.3,0.2-0.6,0.4-0.7
		C5.7,8.7,5.9,8.7,6,8.7c0.4,0,0.8,0.3,0.8,0.8c0,0,0,0,0,0C6.8,9.9,6.5,10.3,6,10.3L6,10.3z"/>
	<path id="Path_79" class="st0" d="M10.3,7.9v3.4H9V8.1c0-1.1-0.6-1-0.6-1V5.9C10.3,5.9,10.3,7.9,10.3,7.9z"/>
	<path id="Path_80" class="st0" d="M13.2,7.5c0,0-2.1,0-2.1,1.9c-0.1,1,0.7,1.9,1.8,2c0.1,0,0.2,0,0.3,0c0,0,2.1,0,2.1-1.9
		c0.1-1.1-0.7-2-1.8-2C13.4,7.5,13.3,7.5,13.2,7.5z M13.2,10.3c-0.4,0-0.8-0.4-0.8-0.8l0,0c0-0.4,0.4-0.8,0.8-0.8
		c0.4,0,0.8,0.4,0.8,0.8C14,9.9,13.7,10.3,13.2,10.3L13.2,10.3z"/>
	<path id="Path_81" class="st0" d="M18.8,7.6V8c-0.3-0.3-0.6-0.5-1.1-0.5c-1,0-1.8,0.8-1.8,1.7c0,0.1,0,0.1,0,0.2c0,0,0,1.9,1.7,1.9
		c0.4,0,0.9-0.2,1.1-0.5v0.3c0,0,0.1,0.9-0.8,0.9h-0.3v1.1h0.5c1,0,1.8-0.8,1.8-1.8c0-0.1,0-0.1,0-0.2V7.6H18.8z M18.1,10.3
		c-0.4,0-0.8-0.4-0.8-0.8l0,0c0-0.4,0.4-0.8,0.8-0.8c0.4,0,0.8,0.4,0.8,0.8C18.9,9.9,18.5,10.3,18.1,10.3z"/>
	<path id="Path_82" class="st0" d="M19.2,0H4.8C2.1,0,0,2.1,0,4.8c0,0,0,0,0,0v14.4C0,21.9,2.1,24,4.8,24c0,0,0,0,0,0h14.4
		c2.7,0,4.8-2.1,4.8-4.8v0V4.8C24,2.1,21.9,0,19.2,0C19.2,0,19.2,0,19.2,0z M22.3,12.8c0,1.8-1.5,3.3-3.2,3.3h-4.8l-1.6,2.7
		l-0.1,0.1c-0.1,0.2-0.3,0.3-0.5,0.3c-0.2,0-0.4-0.1-0.5-0.3l-0.1-0.1l-1.6-2.7H5c-1.8,0-3.2-1.5-3.2-3.3V5.1c0-1.8,1.4-3.3,3.2-3.3
		c0,0,0,0,0,0H19c1.8,0,3.2,1.5,3.2,3.2c0,0,0,0,0,0V12.8z"/>
	<path id="Path_83" class="st0" d="M6.3,7.5C5.9,7.5,5.5,7.7,5.2,8V6H4v5.2h1.3v-0.4c0.2,0.4,0.6,0.6,1.1,0.6c1,0,1.8-0.9,1.8-1.9
		c0,0,0-0.1,0-0.1C8.1,9.4,8,7.5,6.3,7.5z M6,10.3c-0.1,0-0.3,0-0.4-0.1C5.4,10,5.2,9.8,5.2,9.5c0-0.3,0.2-0.6,0.4-0.7
		C5.7,8.7,5.9,8.7,6,8.7c0.4,0,0.8,0.3,0.8,0.8c0,0,0,0,0,0C6.8,9.9,6.5,10.3,6,10.3L6,10.3z"/>
	<path id="Path_84" class="st0" d="M10.3,7.9v3.4H9V8.1c0-1.1-0.6-1-0.6-1V5.9C10.3,5.9,10.3,7.9,10.3,7.9z"/>
	<path id="Path_85" class="st0" d="M13.2,7.5c0,0-2.1,0-2.1,1.9c-0.1,1,0.7,1.9,1.8,2c0.1,0,0.2,0,0.3,0c0,0,2.1,0,2.1-1.9
		c0.1-1.1-0.7-2-1.8-2C13.4,7.5,13.3,7.5,13.2,7.5z M13.2,10.3c-0.4,0-0.8-0.4-0.8-0.8l0,0c0-0.4,0.4-0.8,0.8-0.8
		c0.4,0,0.8,0.4,0.8,0.8C14,9.9,13.7,10.3,13.2,10.3L13.2,10.3z"/>
	<path id="Path_86" class="st0" d="M18.8,7.6V8c-0.3-0.3-0.6-0.5-1.1-0.5c-1,0-1.8,0.8-1.8,1.7c0,0.1,0,0.1,0,0.2c0,0,0,1.9,1.7,1.9
		c0.4,0,0.9-0.2,1.1-0.5v0.3c0,0,0.1,0.9-0.8,0.9h-0.3v1.1h0.5c1,0,1.8-0.8,1.8-1.8c0-0.1,0-0.1,0-0.2V7.6H18.8z M18.1,10.3
		c-0.4,0-0.8-0.4-0.8-0.8l0,0c0-0.4,0.4-0.8,0.8-0.8c0.4,0,0.8,0.4,0.8,0.8C18.9,9.9,18.5,10.3,18.1,10.3z"/>
	<path id="Path_87" class="st0" d="M6.3,7.5C5.9,7.5,5.5,7.7,5.2,8V6H4v5.2h1.3v-0.4c0.2,0.4,0.6,0.6,1.1,0.6c1,0,1.8-0.9,1.8-1.9
		c0,0,0-0.1,0-0.1C8.1,9.4,8,7.5,6.3,7.5z M6,10.3c-0.1,0-0.3,0-0.4-0.1C5.4,10,5.2,9.8,5.2,9.5c0-0.3,0.2-0.6,0.4-0.7
		C5.7,8.7,5.9,8.7,6,8.7c0.4,0,0.8,0.3,0.8,0.8c0,0,0,0,0,0C6.8,9.9,6.5,10.3,6,10.3L6,10.3z"/>
	<path id="Path_88" class="st0" d="M10.3,7.9v3.4H9V8.1c0-1.1-0.6-1-0.6-1V5.9C10.3,5.9,10.3,7.9,10.3,7.9z"/>
	<path id="Path_89" class="st0" d="M13.2,7.5c0,0-2.1,0-2.1,1.9c-0.1,1,0.7,1.9,1.8,2c0.1,0,0.2,0,0.3,0c0,0,2.1,0,2.1-1.9
		c0.1-1.1-0.7-2-1.8-2C13.4,7.5,13.3,7.5,13.2,7.5z M13.2,10.3c-0.4,0-0.8-0.4-0.8-0.8l0,0c0-0.4,0.4-0.8,0.8-0.8
		c0.4,0,0.8,0.4,0.8,0.8C14,9.9,13.7,10.3,13.2,10.3L13.2,10.3z"/>
	<path id="Path_90" class="st0" d="M18.8,7.6V8c-0.3-0.3-0.6-0.5-1.1-0.5c-1,0-1.8,0.8-1.8,1.7c0,0.1,0,0.1,0,0.2c0,0,0,1.9,1.7,1.9
		c0.4,0,0.9-0.2,1.1-0.5v0.3c0,0,0.1,0.9-0.8,0.9h-0.3v1.1h0.5c1,0,1.8-0.8,1.8-1.8c0-0.1,0-0.1,0-0.2V7.6H18.8z M18.1,10.3
		c-0.4,0-0.8-0.4-0.8-0.8l0,0c0-0.4,0.4-0.8,0.8-0.8c0.4,0,0.8,0.4,0.8,0.8C18.9,9.9,18.5,10.3,18.1,10.3z"/>
</g>
</svg>
