<?xml version="1.0" encoding="utf-8"?>
<!-- Generator: Adobe Illustrator 25.4.1, SVG Export Plug-In . SVG Version: 6.00 Build 0)  -->
<svg version="1.1" id="Layer_1" xmlns="http://www.w3.org/2000/svg" xmlns:xlink="http://www.w3.org/1999/xlink" x="0px" y="0px"
	 viewBox="0 0 24 24" style="enable-background:new 0 0 24 24;" xml:space="preserve">
<style type="text/css">
	.st0{fill:#2BB25A;}
</style>
<path class="st0" d="M21.4,0H2.6C1.2,0,0,1.2,0,2.6v18.8C0,22.8,1.2,24,2.6,24h18.8c1.4,0,2.6-1.2,2.6-2.6V2.6C24,1.2,22.8,0,21.4,0
	z M8.9,12.8l6.7,3.1c0.9-1,2.5-1.2,3.5-0.3c1,0.9,1.2,2.5,0.3,3.5c-0.9,1-2.5,1.2-3.5,0.3c-0.8-0.7-1-1.7-0.8-2.7l-6.7-3.1
	c-0.9,1-2.5,1.2-3.5,0.3c-1-0.9-1.2-2.5-0.3-3.5c0.9-1,2.5-1.2,3.5-0.3c0.1,0.1,0.2,0.2,0.3,0.3l6.7-3.1C15,7,15,6.8,15,6.5
	C15,5.1,16.1,4,17.5,4C18.9,4,20,5.1,20,6.5C20,7.9,18.9,9,17.5,9c-0.7,0-1.4-0.3-1.9-0.9l-6.7,3.1C9,11.7,9,12.3,8.9,12.8z"/>
</svg>
