<?xml version="1.0" encoding="utf-8"?>
<!-- Generator: Adobe Illustrator 25.4.1, SVG Export Plug-In . SVG Version: 6.00 Build 0)  -->
<svg version="1.1" id="sns-kakaostory" xmlns="http://www.w3.org/2000/svg" xmlns:xlink="http://www.w3.org/1999/xlink" x="0px"
	 y="0px" viewBox="0 0 23 23" style="enable-background:new 0 0 23 23;" xml:space="preserve">
<style type="text/css">
	.st0{fill:#C4C8CC;}
	.st1{fill:#FFFFFF;}
</style>
<g id="Layer_1">
	<g id="Group_194">
		<path id="Rectangle_97" class="st0" d="M1.8,0h19.3c1,0,1.8,0.8,1.8,1.8v19.3c0,1-0.8,1.8-1.8,1.8H1.8c-1,0-1.8-0.8-1.8-1.8V1.8
			C0,0.8,0.8,0,1.8,0z"/>
	</g>
	<path id="Path_77" class="st1" d="M14.5,5.2H8.4C8,5.2,7.7,5.5,7.7,5.9c0,0,0,0,0,0v6c0,0.4,0.3,0.7,0.7,0.7c0,0,0,0,0,0h2.8
		c-0.1,0.8-0.3,1.5-0.8,2.2c-0.4,0.6-1,1.2-1.5,1.7c-0.1,0.1-0.2,0.2-0.2,0.3c0,0.1,0,0.2,0.1,0.3l2,2.2c0,0.1,0.1,0.1,0.2,0.1
		c0.1,0,0.2,0,0.3,0c2.4-1.8,3.9-4.6,4-7.7V5.9C15.2,5.5,14.9,5.2,14.5,5.2C14.5,5.2,14.5,5.2,14.5,5.2"/>
</g>
</svg>
