<svg xmlns="http://www.w3.org/2000/svg" width="100" height="100" viewBox="0 0 100 100">
  <g id="value-icon07" transform="translate(-453.097 -807.091)">
    <g id="Rectangle_3518" data-name="Rectangle 3518" transform="translate(453.097 807.091)" fill="#fff" stroke="#e2e6ea" stroke-width="5">
      <rect width="100" height="100" rx="50" stroke="none"/>
      <rect x="2.5" y="2.5" width="95" height="95" rx="47.5" fill="none"/>
    </g>
    <g id="Group_7203" data-name="Group 7203" transform="translate(479.097 834.346)">
      <line id="Line_200" data-name="Line 200" x1="6.989" y2="3.862" transform="translate(3.862 11.512)" fill="none" stroke="#094cb2" stroke-linecap="round" stroke-linejoin="round" stroke-width="2"/>
      <line id="Line_201" data-name="Line 201" x1="7.264" y1="4.23" transform="translate(14.897 11.42)" fill="none" stroke="#094cb2" stroke-linecap="round" stroke-linejoin="round" stroke-width="2"/>
      <line id="Line_202" data-name="Line 202" y1="7.908" transform="translate(23.814 18.869)" fill="none" stroke="#094cb2" stroke-linecap="round" stroke-linejoin="round" stroke-width="2"/>
      <line id="Line_203" data-name="Line 203" y1="4.017" x2="7.138" transform="translate(14.897 29.749)" fill="none" stroke="#094cb2" stroke-linecap="round" stroke-linejoin="round" stroke-width="2"/>
      <line id="Line_204" data-name="Line 204" x2="7.096" y2="3.911" transform="translate(3.939 29.763)" fill="none" stroke="#094cb2" stroke-linecap="round" stroke-linejoin="round" stroke-width="2"/>
      <line id="Line_205" data-name="Line 205" y2="8.184" transform="translate(2.133 18.593)" fill="none" stroke="#094cb2" stroke-linecap="round" stroke-linejoin="round" stroke-width="2"/>
      <path id="Path_89" data-name="Path 89" d="M500.27,851.139a2.032,2.032,0,1,0,2.032,2.032A2.032,2.032,0,0,0,500.27,851.139Z" transform="translate(-487.365 -842.6)" fill="none" stroke="#094cb2" stroke-linecap="round" stroke-linejoin="round" stroke-width="2"/>
      <path id="Path_90" data-name="Path 90" d="M500.27,883.2a2.032,2.032,0,1,0,2.032,2.032A2.032,2.032,0,0,0,500.27,883.2Z" transform="translate(-487.365 -850.416)" fill="none" stroke="#094cb2" stroke-linecap="round" stroke-linejoin="round" stroke-width="2"/>
      <path id="Path_91" data-name="Path 91" d="M485.893,858.978a2.032,2.032,0,1,0,2.033,2.032A2.032,2.032,0,0,0,485.893,858.978Z" transform="translate(-483.861 -844.51)" fill="none" stroke="#094cb2" stroke-linecap="round" stroke-linejoin="round" stroke-width="2"/>
      <path id="Path_92" data-name="Path 92" d="M485.893,875.215a2.033,2.033,0,1,0,2.033,2.033A2.033,2.033,0,0,0,485.893,875.215Z" transform="translate(-483.861 -848.468)" fill="none" stroke="#094cb2" stroke-linecap="round" stroke-linejoin="round" stroke-width="2"/>
      <path id="Path_93" data-name="Path 93" d="M514.9,863.043a2.032,2.032,0,1,0-2.032-2.033A2.032,2.032,0,0,0,514.9,863.043Z" transform="translate(-490.931 -844.51)" fill="none" stroke="#094cb2" stroke-linecap="round" stroke-linejoin="round" stroke-width="2"/>
      <path id="Path_94" data-name="Path 94" d="M514.9,875.215a2.033,2.033,0,1,0,2.033,2.033A2.033,2.033,0,0,0,514.9,875.215Z" transform="translate(-490.931 -848.468)" fill="none" stroke="#094cb2" stroke-linecap="round" stroke-linejoin="round" stroke-width="2"/>
      <line id="Line_206" data-name="Line 206" x2="6.989" y2="3.862" transform="translate(37.15 11.512)" fill="none" stroke="#094cb2" stroke-linecap="round" stroke-linejoin="round" stroke-width="2"/>
      <line id="Line_207" data-name="Line 207" y1="4.23" x2="7.264" transform="translate(25.839 11.42)" fill="none" stroke="#094cb2" stroke-linecap="round" stroke-linejoin="round" stroke-width="2"/>
      <line id="Line_208" data-name="Line 208" x1="7.137" y1="4.017" transform="translate(25.966 29.749)" fill="none" stroke="#094cb2" stroke-linecap="round" stroke-linejoin="round" stroke-width="2"/>
      <line id="Line_209" data-name="Line 209" x1="7.096" y2="3.911" transform="translate(36.966 29.763)" fill="none" stroke="#094cb2" stroke-linecap="round" stroke-linejoin="round" stroke-width="2"/>
      <line id="Line_210" data-name="Line 210" y2="8.184" transform="translate(45.866 18.593)" fill="none" stroke="#094cb2" stroke-linecap="round" stroke-linejoin="round" stroke-width="2"/>
      <path id="Path_95" data-name="Path 95" d="M529.657,851.139a2.032,2.032,0,1,1-2.033,2.032A2.032,2.032,0,0,1,529.657,851.139Z" transform="translate(-494.529 -842.6)" fill="none" stroke="#094cb2" stroke-linecap="round" stroke-linejoin="round" stroke-width="2"/>
      <path id="Path_96" data-name="Path 96" d="M529.657,883.2a2.032,2.032,0,1,1-2.033,2.032A2.032,2.032,0,0,1,529.657,883.2Z" transform="translate(-494.529 -850.416)" fill="none" stroke="#094cb2" stroke-linecap="round" stroke-linejoin="round" stroke-width="2"/>
      <path id="Path_97" data-name="Path 97" d="M543.991,858.978a2.032,2.032,0,1,1-2.033,2.032A2.032,2.032,0,0,1,543.991,858.978Z" transform="translate(-498.023 -844.51)" fill="none" stroke="#094cb2" stroke-linecap="round" stroke-linejoin="round" stroke-width="2"/>
      <line id="Line_211" data-name="Line 211" y2="4.414" transform="translate(12.904 4.172)" fill="none" stroke="#094cb2" stroke-linecap="round" stroke-linejoin="round" stroke-width="2"/>
      <path id="Path_98" data-name="Path 98" d="M500.27,839.847a2.032,2.032,0,1,1-2.033,2.032A2.032,2.032,0,0,1,500.27,839.847Z" transform="translate(-487.365 -839.847)" fill="none" stroke="#094cb2" stroke-linecap="round" stroke-linejoin="round" stroke-width="2"/>
      <line id="Line_212" data-name="Line 212" y1="4.414" transform="translate(35.128 36.904)" fill="none" stroke="#094cb2" stroke-linecap="round" stroke-linejoin="round" stroke-width="2"/>
      <path id="Path_99" data-name="Path 99" d="M529.657,898.69a2.032,2.032,0,1,1,2.032-2.033A2.032,2.032,0,0,1,529.657,898.69Z" transform="translate(-494.529 -853.2)" fill="none" stroke="#094cb2" stroke-linecap="round" stroke-linejoin="round" stroke-width="2"/>
      <path id="Path_100" data-name="Path 100" d="M543.991,875.215a2.033,2.033,0,1,1-2.033,2.033A2.033,2.033,0,0,1,543.991,875.215Z" transform="translate(-498.023 -848.468)" fill="none" stroke="#094cb2" stroke-linecap="round" stroke-linejoin="round" stroke-width="2"/>
    </g>
  </g>
</svg>
