<svg xmlns="http://www.w3.org/2000/svg" width="100" height="100" viewBox="0 0 100 100">
  <g id="value-icon01" transform="translate(-685.288 -1203.225)">
    <rect id="Rectangle_3506" data-name="Rectangle 3506" width="100" height="100" rx="50" transform="translate(685.288 1203.225)" fill="#178ede"/>
    <g id="Group_7210" data-name="Group 7210" transform="translate(9.333 6.693)">
      <g id="Group_258" data-name="Group 258" transform="translate(701.955 1229.059)">
        <path id="Path_217" data-name="Path 217" d="M1012.724,1340.256l6.741,2.218a2.384,2.384,0,0,0,3.055-1.425h0a2.384,2.384,0,0,0-1.425-3.055l-11.137-3.787a7.153,7.153,0,0,0-5.127.232l-5.035,2.242" transform="translate(-994.17 -1333.84)" fill="none" stroke="#fff" stroke-linecap="round" stroke-linejoin="round" stroke-width="2"/>
        <path id="Path_218" data-name="Path 218" d="M1024.905,1344.389l7.086-2.884a2.383,2.383,0,0,1,3.167,1.152h0a2.384,2.384,0,0,1-1.152,3.168l-10.8,5.037-.45.193a7.148,7.148,0,0,1-6.274-.313l-4.282-2.365a7.152,7.152,0,0,0-6.315-.3" transform="translate(-996.631 -1336.848)" fill="none" stroke="#fff" stroke-linecap="round" stroke-linejoin="round" stroke-width="2"/>
        <path id="Path_219" data-name="Path 219" d="M990.354,1338.354l3.747-1.72a1.192,1.192,0,0,1,1.587.568l3.942,9.287a1.191,1.191,0,0,1-.568,1.587l-8.708,4.32" transform="translate(-990.354 -1334.923)" fill="none" stroke="#fff" stroke-linecap="round" stroke-linejoin="round" stroke-width="2"/>
        <circle id="Ellipse_99" data-name="Ellipse 99" cx="0.596" cy="0.596" r="0.596" transform="translate(2.156 6.35)" fill="none" stroke="#fff" stroke-linecap="round" stroke-linejoin="round" stroke-width="2"/>
      </g>
      <g id="Group_7198" data-name="Group 7198" transform="translate(711.201 1246.53)">
        <path id="Path_217-2" data-name="Path 217" d="M1009.737,1340.256l-6.742,2.218a2.384,2.384,0,0,1-3.055-1.425h0a2.384,2.384,0,0,1,1.425-3.055l11.137-3.787a7.154,7.154,0,0,1,5.128.232l5.035,2.242" transform="translate(-989.538 -1333.84)" fill="none" stroke="#fff" stroke-linecap="round" stroke-linejoin="round" stroke-width="2"/>
        <path id="Path_218-2" data-name="Path 218" d="M1016.364,1344.39l-7.087-2.884a2.383,2.383,0,0,0-3.168,1.152h0a2.383,2.383,0,0,0,1.152,3.168l10.8,5.038.45.193a7.148,7.148,0,0,0,6.275-.313l4.283-2.366a7.152,7.152,0,0,1,6.315-.3" transform="translate(-1005.885 -1336.848)" fill="none" stroke="#fff" stroke-linecap="round" stroke-linejoin="round" stroke-width="2"/>
        <path id="Path_219-2" data-name="Path 219" d="M999.745,1338.354l-3.747-1.72a1.191,1.191,0,0,0-1.587.568l-3.942,9.288a1.192,1.192,0,0,0,.568,1.587l8.709,4.32" transform="translate(-960.992 -1334.923)" fill="none" stroke="#fff" stroke-linecap="round" stroke-linejoin="round" stroke-width="2"/>
        <circle id="Ellipse_99-2" data-name="Ellipse 99" cx="0.596" cy="0.596" r="0.596" transform="translate(35.406 6.35)" fill="none" stroke="#fff" stroke-linecap="round" stroke-linejoin="round" stroke-width="2"/>
      </g>
    </g>
  </g>
</svg>
