<svg xmlns="http://www.w3.org/2000/svg" width="100" height="100" viewBox="0 0 100 100">
  <g id="value-icon03" transform="translate(-624.501 -504.334)">
    <rect id="Rectangle_3514" data-name="Rectangle 3514" width="100" height="100" rx="50" transform="translate(624.501 504.334)" fill="#333d4b"/>
    <g id="Group_7211" data-name="Group 7211" transform="translate(1.834 1.703)">
      <path id="Path_156" data-name="Path 156" d="M673.484,590h16.435l1.565,3.913H671.919Z" transform="translate(-8.837 -17.151)" fill="none" stroke="#fff" stroke-linecap="round" stroke-linejoin="round" stroke-width="2"/>
      <g id="Group_234" data-name="Group 234" transform="translate(675.948 528.5)">
        <path id="Path_157" data-name="Path 157" d="M688.6,570.008s-1.7-12.913,3.913-15.131a24.2,24.2,0,0,0,9.261-7.044,7.5,7.5,0,0,1-.131,5.74,11.313,11.313,0,0,1-4.434,4.565" transform="translate(-688.359 -536.485)" fill="none" stroke="#fff" stroke-linecap="round" stroke-linejoin="round" stroke-width="2"/>
        <path id="Path_158" data-name="Path 158" d="M703.42,557.167s1.7,1.7.131,4.826a9.736,9.736,0,0,1-5.218,4.3" transform="translate(-690.527 -538.514)" fill="none" stroke="#fff" stroke-linecap="round" stroke-linejoin="round" stroke-width="2"/>
        <path id="Path_159" data-name="Path 159" d="M700.145,566.417a4.835,4.835,0,0,1-1.3,5.283c-2.544,2.348-10.174,2.348-10.174,2.348" transform="translate(-688.426 -540.525)" fill="none" stroke="#fff" stroke-linecap="round" stroke-linejoin="round" stroke-width="2"/>
        <path id="Path_160" data-name="Path 160" d="M705.464,544.681s4.565-5.348,5.478-11.348c0,0,2.609,4.826.456,9.457-3.024,6.507-6.065,7.63-6.065,7.63" transform="translate(-692.049 -533.333)" fill="none" stroke="#fff" stroke-linecap="round" stroke-linejoin="round" stroke-width="2"/>
        <path id="Path_161" data-name="Path 161" d="M711.928,545.5a7.843,7.843,0,0,1,.391,6.392,15.707,15.707,0,0,1-6.652,7.3" transform="translate(-692.122 -535.978)" fill="none" stroke="#fff" stroke-linecap="round" stroke-linejoin="round" stroke-width="2"/>
        <path id="Path_162" data-name="Path 162" d="M710.747,556.5s.565,3.926-1.3,6.392c-2.87,3.782-5.609,3.913-5.609,3.913" transform="translate(-691.723 -538.369)" fill="none" stroke="#fff" stroke-linecap="round" stroke-linejoin="round" stroke-width="2"/>
      </g>
      <g id="Group_235" data-name="Group 235" transform="translate(648.667 528.5)">
        <path id="Path_163" data-name="Path 163" d="M675.865,570.008s1.7-12.913-3.913-15.131a24.2,24.2,0,0,1-9.262-7.044,7.5,7.5,0,0,0,.131,5.74,11.312,11.312,0,0,0,4.435,4.565" transform="translate(-655.387 -536.485)" fill="none" stroke="#fff" stroke-linecap="round" stroke-linejoin="round" stroke-width="2"/>
        <path id="Path_164" data-name="Path 164" d="M663.279,557.167s-1.7,1.7-.131,4.826a9.737,9.737,0,0,0,5.218,4.3" transform="translate(-655.454 -538.514)" fill="none" stroke="#fff" stroke-linecap="round" stroke-linejoin="round" stroke-width="2"/>
        <path id="Path_165" data-name="Path 165" d="M664.916,566.417a4.836,4.836,0,0,0,1.3,5.283c2.544,2.348,10.174,2.348,10.174,2.348" transform="translate(-655.917 -540.525)" fill="none" stroke="#fff" stroke-linecap="round" stroke-linejoin="round" stroke-width="2"/>
        <path id="Path_166" data-name="Path 166" d="M660.948,544.681s-4.565-5.348-5.478-11.348c0,0-2.609,4.826-.456,9.457,3.024,6.507,6.065,7.63,6.065,7.63" transform="translate(-653.645 -533.333)" fill="none" stroke="#fff" stroke-linecap="round" stroke-linejoin="round" stroke-width="2"/>
        <path id="Path_167" data-name="Path 167" d="M654.413,545.5a7.843,7.843,0,0,0-.391,6.392,15.7,15.7,0,0,0,6.652,7.3" transform="translate(-653.501 -535.978)" fill="none" stroke="#fff" stroke-linecap="round" stroke-linejoin="round" stroke-width="2"/>
        <path id="Path_168" data-name="Path 168" d="M655.645,556.5s-.566,3.926,1.3,6.392c2.87,3.782,5.609,3.913,5.609,3.913" transform="translate(-653.949 -538.369)" fill="none" stroke="#fff" stroke-linecap="round" stroke-linejoin="round" stroke-width="2"/>
      </g>
      <g id="Group_236" data-name="Group 236" transform="translate(668.624 557.978)">
        <line id="Line_118" data-name="Line 118" y1="8.217" x2="2.348" transform="translate(0 6.522)" fill="none" stroke="#fff" stroke-linecap="round" stroke-linejoin="round" stroke-width="2"/>
        <line id="Line_119" data-name="Line 119" x2="2.217" y2="7.957" transform="translate(5.87 6.391)" fill="none" stroke="#fff" stroke-linecap="round" stroke-linejoin="round" stroke-width="2"/>
        <circle id="Ellipse_91" data-name="Ellipse 91" cx="3.13" cy="3.13" r="3.13" transform="translate(0.783)" fill="none" stroke="#fff" stroke-linecap="round" stroke-linejoin="round" stroke-width="2"/>
      </g>
    </g>
  </g>
</svg>
