<svg xmlns="http://www.w3.org/2000/svg" width="20" height="20" viewBox="0 0 20 20">
  <g id="instagram-gray" transform="translate(-1020 -2020.77)">
    <rect id="base" width="20" height="20" transform="translate(1020 2020.77)" fill="#6b7584" opacity="0"/>
    <path id="instagram" d="M9.856,0C7.182,0,6.845.012,5.794.059A7.262,7.262,0,0,0,3.4.517,4.826,4.826,0,0,0,1.655,1.655,4.838,4.838,0,0,0,.517,3.4a7.22,7.22,0,0,0-.458,2.39C.012,6.844,0,7.179,0,9.857s.012,3.011.059,4.062a7.261,7.261,0,0,0,.458,2.393A5.046,5.046,0,0,0,3.4,19.2a7.236,7.236,0,0,0,2.393.458c1.052.047,1.387.059,4.064.059s3.011-.012,4.063-.059a7.276,7.276,0,0,0,2.394-.458A5.046,5.046,0,0,0,19.2,16.312a7.293,7.293,0,0,0,.458-2.393c.047-1.051.059-1.386.059-4.063s-.012-3.012-.059-4.064A7.285,7.285,0,0,0,19.2,3.4a4.837,4.837,0,0,0-1.137-1.746A4.818,4.818,0,0,0,16.312.517,7.251,7.251,0,0,0,13.918.059C12.866.012,12.532,0,9.854,0h0ZM8.973,1.777h.885c2.632,0,2.943.009,3.982.057a5.462,5.462,0,0,1,1.831.339A3.058,3.058,0,0,1,16.8,2.91a3.045,3.045,0,0,1,.737,1.133,5.414,5.414,0,0,1,.339,1.83c.048,1.039.058,1.35.058,3.981s-.01,2.943-.058,3.982a5.453,5.453,0,0,1-.339,1.83,3.267,3.267,0,0,1-1.871,1.869,5.422,5.422,0,0,1-1.83.34c-1.039.047-1.35.058-3.982.058s-2.945-.011-3.983-.058a5.444,5.444,0,0,1-1.83-.34A3.053,3.053,0,0,1,2.911,16.8a3.055,3.055,0,0,1-.739-1.133,5.445,5.445,0,0,1-.339-1.83c-.047-1.039-.057-1.35-.057-3.983s.01-2.942.057-3.981a5.453,5.453,0,0,1,.34-1.831,3.058,3.058,0,0,1,.738-1.133A3.045,3.045,0,0,1,4.045,2.17a5.444,5.444,0,0,1,1.83-.34c.909-.042,1.262-.054,3.1-.055v0Zm6.145,1.636A1.183,1.183,0,1,0,16.3,4.6a1.183,1.183,0,0,0-1.183-1.183ZM9.857,4.8A5.062,5.062,0,1,0,14.92,9.857,5.062,5.062,0,0,0,9.857,4.8Zm0,1.775A3.286,3.286,0,1,1,6.572,9.856,3.286,3.286,0,0,1,9.857,6.57Z" transform="translate(1020 2020.77)" fill="#6b7584"/>
  </g>
</svg>
