<svg xmlns="http://www.w3.org/2000/svg" width="20" height="20" viewBox="0 0 20 20">
  <g id="line-gray" transform="translate(-1050 -2020.77)">
    <rect id="base" width="20" height="20" transform="translate(1050 2020.77)" fill="#6b7584" opacity="0"/>
    <path id="line" d="M9.856,0c5.434,0,9.856,3.588,9.856,8A7.11,7.11,0,0,1,17.6,12.919a31.815,31.815,0,0,1-7.743,5.723c-1.023.431-.9-.243-.857-.509l0-.022.14-.844a2.015,2.015,0,0,0-.032-.891c-.111-.275-.547-.418-.867-.487C3.506,15.265,0,11.952,0,8,0,3.588,4.423,0,9.856,0ZM6.187,9.469H4.308V6.059a.192.192,0,0,0-.191-.192H3.425a.192.192,0,0,0-.192.192v4.295a.188.188,0,0,0,.054.132h0l0,0,0,0a.19.19,0,0,0,.133.053H6.187a.191.191,0,0,0,.191-.192v-.69a.192.192,0,0,0-.191-.193Zm.975-3.6a.192.192,0,0,0-.192.192v4.295a.191.191,0,0,0,.192.191h.692a.191.191,0,0,0,.191-.191V6.059a.192.192,0,0,0-.191-.192Zm4.759,0a.192.192,0,0,0-.192.192v2.55L9.761,5.953l-.016-.018h0l-.012-.012,0,0-.014-.011h0l-.006,0,0,0L9.7,5.9l-.01-.006h0l0,0-.012,0,0,0-.012,0H9.647l-.011,0H8.91a.192.192,0,0,0-.192.191v4.295a.191.191,0,0,0,.192.191H9.6a.192.192,0,0,0,.193-.191V7.8l1.971,2.661a.19.19,0,0,0,.048.047h0l.012.007,0,0,.01,0,.009,0,.006,0,.012,0h0a.191.191,0,0,0,.049.007h.69a.192.192,0,0,0,.193-.191v-4.3a.192.192,0,0,0-.192-.192h-.691Zm4.7.883V6.06a.192.192,0,0,0-.191-.193H13.668a.191.191,0,0,0-.133.054h0v0l0,0a.191.191,0,0,0-.054.132v4.295a.188.188,0,0,0,.054.132l0,0,0,0a.191.191,0,0,0,.133.053H16.43a.191.191,0,0,0,.191-.192v-.69a.192.192,0,0,0-.191-.193H14.55V8.744h1.879a.191.191,0,0,0,.191-.192v-.69a.192.192,0,0,0-.191-.193H14.55V6.943h1.879a.191.191,0,0,0,.191-.192Z" transform="translate(1050 2021.77)" fill="#6b7584"/>
  </g>
</svg>
