<svg xmlns="http://www.w3.org/2000/svg" width="20" height="20" viewBox="0 0 20 20">
  <g id="linkedin-gray" transform="translate(-1080 -2020.769)">
    <rect id="base" width="20" height="20" transform="translate(1080 2020.769)" fill="#6b7584" opacity="0"/>
    <path id="linkedin-gray-2" data-name="linkedin-gray" d="M10.1,15.88H7.145c0-.062.036-8.08,0-8.9H10.1v1.26l-.01.016-.01.015h.02V8.236a2.924,2.924,0,0,1,2.668-1.47c2.132,0,3.405,1.5,3.405,4.007v5.1H13.216V11.117c0-1.317-.518-2.014-1.5-2.014A1.647,1.647,0,0,0,10.2,10.186a1.943,1.943,0,0,0-.1.722v4.971Zm-4.568,0H2.574v-8.9H5.533v8.9ZM4.055,5.761h-.02a1.542,1.542,0,1,1,.04-3.076,1.543,1.543,0,1,1-.02,3.076Z" transform="translate(1080.6 2022.083)" fill="#6b7584"/>
  </g>
</svg>
