<svg id="naverblog-gray" xmlns="http://www.w3.org/2000/svg" width="20" height="20" viewBox="0 0 20 20">
  <g id="Layer_1" data-name="Layer 1" transform="translate(0)">
    <path id="Path_4573" data-name="Path 4573" d="M5.21,6.373a1.243,1.243,0,0,0-.8.377V5.25H3.47V9.176h.951V8.867a.857.857,0,0,0,.789.454A1.389,1.389,0,0,0,6.539,7.813S6.5,6.373,5.21,6.373ZM5,8.464A.66.66,0,0,1,4.713,8.4a.617.617,0,0,1-.317-.54.6.6,0,0,1,.317-.531A.66.66,0,0,1,5,7.256a.6.6,0,0,1,.609.6A.609.609,0,0,1,5,8.464Z" transform="translate(-0.097 -0.104)" fill="#6b7584"/>
    <path id="Path_4574" data-name="Path 4574" d="M8.773,6.624V9.2H7.839V6.839c0-.806-.429-.78-.429-.78V5.15C8.773,5.15,8.773,6.624,8.773,6.624Z" transform="translate(-0.295 -0.103)" fill="#6b7584"/>
    <path id="Path_4575" data-name="Path 4575" d="M11.31,6.568s-1.56,0-1.56,1.457a1.414,1.414,0,0,0,1.56,1.483s1.594,0,1.594-1.44a1.431,1.431,0,0,0-1.594-1.5Zm0,2.066a.609.609,0,0,1-.609-.609.607.607,0,1,1,.609.626Z" transform="translate(-0.267 -0.19)" fill="#6b7584"/>
    <path id="Path_4576" data-name="Path 4576" d="M16.108,6.674V6.94a1.011,1.011,0,0,0-.789-.36A1.311,1.311,0,0,0,14,8.02s0,1.406,1.286,1.406a1.071,1.071,0,0,0,.857-.369V9.28s.069.694-.6.694h-.257v.857h.369a1.363,1.363,0,0,0,1.371-1.474V6.674Zm-.557,1.98a.609.609,0,0,1-.609-.609.606.606,0,1,1,.609.609Z" transform="translate(-0.396 -0.12)" fill="#6b7584"/>
    <path id="Path_4577" data-name="Path 4577" d="M16,0H4A4,4,0,0,0,0,4V16a4,4,0,0,0,4,4H16a4,4,0,0,0,4-4V4A4,4,0,0,0,16,0Zm2.562,10.686a2.714,2.714,0,0,1-2.7,2.714H11.819l-1.343,2.238-.048.067a.457.457,0,0,1-.4.229.467.467,0,0,1-.4-.229l-.1-.067L8.181,13.4H4.143a2.714,2.714,0,0,1-2.7-2.714V4.248a2.7,2.7,0,0,1,2.7-2.714H15.857a2.7,2.7,0,0,1,2.7,2.714Z" fill="#6b7584"/>
    <path id="Path_4578" data-name="Path 4578" d="M5.21,6.373a1.243,1.243,0,0,0-.8.377V5.25H3.47V9.176h.951V8.867a.857.857,0,0,0,.789.454A1.389,1.389,0,0,0,6.539,7.813S6.5,6.373,5.21,6.373ZM5,8.464A.66.66,0,0,1,4.713,8.4a.617.617,0,0,1-.317-.54.6.6,0,0,1,.317-.531A.66.66,0,0,1,5,7.256a.6.6,0,0,1,.609.6A.609.609,0,0,1,5,8.464Z" transform="translate(-0.097 -0.104)" fill="#6b7584"/>
    <path id="Path_4579" data-name="Path 4579" d="M8.773,6.624V9.2H7.839V6.839c0-.806-.429-.78-.429-.78V5.15C8.773,5.15,8.773,6.624,8.773,6.624Z" transform="translate(-0.295 -0.103)" fill="#6b7584"/>
    <path id="Path_4580" data-name="Path 4580" d="M11.31,6.568s-1.56,0-1.56,1.457a1.414,1.414,0,0,0,1.56,1.483s1.594,0,1.594-1.44a1.431,1.431,0,0,0-1.594-1.5Zm0,2.066a.609.609,0,0,1-.609-.609.607.607,0,1,1,.609.626Z" transform="translate(-0.267 -0.19)" fill="#6b7584"/>
    <path id="Path_4581" data-name="Path 4581" d="M16.108,6.674V6.94a1.011,1.011,0,0,0-.789-.36A1.311,1.311,0,0,0,14,8.02s0,1.406,1.286,1.406a1.071,1.071,0,0,0,.857-.369V9.28s.069.694-.6.694h-.257v.857h.369a1.363,1.363,0,0,0,1.371-1.474V6.674Zm-.557,1.98a.609.609,0,0,1-.609-.609.606.606,0,1,1,.609.609Z" transform="translate(-0.396 -0.12)" fill="#6b7584"/>
    <path id="Path_4582" data-name="Path 4582" d="M5.21,6.373a1.243,1.243,0,0,0-.8.377V5.25H3.47V9.176h.951V8.867a.857.857,0,0,0,.789.454A1.389,1.389,0,0,0,6.539,7.813S6.5,6.373,5.21,6.373ZM5,8.464A.66.66,0,0,1,4.713,8.4a.617.617,0,0,1-.317-.54.6.6,0,0,1,.317-.531A.66.66,0,0,1,5,7.256a.6.6,0,0,1,.609.6A.609.609,0,0,1,5,8.464Z" transform="translate(-0.097 -0.104)" fill="#6b7584"/>
    <path id="Path_4583" data-name="Path 4583" d="M8.773,6.624V9.2H7.839V6.839c0-.806-.429-.78-.429-.78V5.15C8.773,5.15,8.773,6.624,8.773,6.624Z" transform="translate(-0.295 -0.103)" fill="#6b7584"/>
    <path id="Path_4584" data-name="Path 4584" d="M11.31,6.568s-1.56,0-1.56,1.457a1.414,1.414,0,0,0,1.56,1.483s1.594,0,1.594-1.44a1.431,1.431,0,0,0-1.594-1.5Zm0,2.066a.609.609,0,0,1-.609-.609.607.607,0,1,1,.609.626Z" transform="translate(-0.267 -0.19)" fill="#6b7584"/>
    <path id="Path_4585" data-name="Path 4585" d="M16.108,6.674V6.94a1.011,1.011,0,0,0-.789-.36A1.311,1.311,0,0,0,14,8.02s0,1.406,1.286,1.406a1.071,1.071,0,0,0,.857-.369V9.28s.069.694-.6.694h-.257v.857h.369a1.363,1.363,0,0,0,1.371-1.474V6.674Zm-.557,1.98a.609.609,0,0,1-.609-.609.606.606,0,1,1,.609.609Z" transform="translate(-0.396 -0.12)" fill="#6b7584"/>
  </g>
</svg>
