<svg xmlns="http://www.w3.org/2000/svg" width="20" height="20" viewBox="0 0 20 20">
  <g id="pinterest-white" transform="translate(-1110 -2020.77)">
    <rect id="base" width="20" height="20" transform="translate(1110 2020.77)" fill="#fff" opacity="0"/>
    <path id="pinterest" d="M9.858,0A9.856,9.856,0,0,0,6.266,19.037a9.459,9.459,0,0,1,.033-2.83c.18-.77,1.156-4.9,1.156-4.9a3.559,3.559,0,0,1-.294-1.462c0-1.371.795-2.394,1.784-2.394A1.238,1.238,0,0,1,10.192,8.84a19.809,19.809,0,0,1-.817,3.281,1.432,1.432,0,0,0,1.46,1.782c1.752,0,3.1-1.848,3.1-4.514A3.891,3.891,0,0,0,9.816,5.379a4.266,4.266,0,0,0-4.45,4.276,3.839,3.839,0,0,0,.733,2.25.3.3,0,0,1,.069.283c-.075.31-.241.981-.274,1.117-.043.18-.143.218-.33.132a4.416,4.416,0,0,1-2-3.819c0-3.108,2.26-5.963,6.513-5.963a5.784,5.784,0,0,1,6.076,5.692c0,3.4-2.143,6.131-5.114,6.131a2.637,2.637,0,0,1-2.26-1.132l-.614,2.343a11.029,11.029,0,0,1-1.226,2.584A9.856,9.856,0,1,0,9.858,0Z" transform="translate(1110.006 2020.77)" fill="#fff"/>
  </g>
</svg>
