<svg xmlns="http://www.w3.org/2000/svg" width="20" height="20" viewBox="0 0 20 20">
  <g id="twitter-light" transform="translate(-1140 -2020.77)">
    <rect id="base" width="20" height="20" transform="translate(1140 2020.77)" fill="#d0d4db" opacity="0"/>
    <path id="twitter" d="M6.192,18.017A11.429,11.429,0,0,0,17.7,6.517c0-.172,0-.347-.007-.52a8.236,8.236,0,0,0,2.019-2.1,8.2,8.2,0,0,1-2.327.638A4.067,4.067,0,0,0,19.168,2.3a8.049,8.049,0,0,1-2.571.977A4.048,4.048,0,0,0,9.7,6.965,11.489,11.489,0,0,1,1.365,2.741a4.052,4.052,0,0,0,1.254,5.4,4.094,4.094,0,0,1-1.831-.5v.055a4.051,4.051,0,0,0,3.243,3.965,3.946,3.946,0,0,1-1.066.142,3.979,3.979,0,0,1-.756-.07,4.045,4.045,0,0,0,3.779,2.805A8.117,8.117,0,0,1,.961,16.267,7.786,7.786,0,0,1,0,16.212a11.512,11.512,0,0,0,6.192,1.8Z" transform="translate(1140 2020.771)" fill="#d0d4db"/>
  </g>
</svg>
