<svg xmlns="http://www.w3.org/2000/svg" width="20" height="20" viewBox="0 0 20 20">
  <g id="vimeo-light" transform="translate(-1170 -2020.77)">
    <rect id="base" width="20" height="20" transform="translate(1170 2020.77)" fill="#d0d4db" opacity="0"/>
    <path id="vimeo" d="M19.7,4.947q-.131,2.876-4.019,7.876-4.02,5.228-6.8,5.228-1.724,0-2.916-3.182L4.374,9.036q-.887-3.184-1.9-3.182a6.184,6.184,0,0,0-1.545.929L0,5.588Q1.447,4.317,2.876,3.024A6.532,6.532,0,0,1,5.8,1.254Q8.1,1.026,8.63,4.4q.573,3.637.8,4.517.665,3.014,1.461,3.012.617,0,1.858-1.955A7.658,7.658,0,0,0,14.072,7Q14.25,5.31,12.745,5.31a3.723,3.723,0,0,0-1.46.322Q12.744.876,16.839,1,19.878,1.1,19.7,4.946Z" transform="translate(1170 2021.77)" fill="#d0d4db"/>
  </g>
</svg>
