<svg xmlns="http://www.w3.org/2000/svg" viewBox="0 0 412.84 101.59">
  <defs>
    <style>
      .cls-1, .cls-2 {
        fill: #333;
      }

      .cls-2 {
        stroke: #333;
        stroke-miterlimit: 10;
      }

      .cls-3 {
        fill: #045295;
      }

      .cls-4 {
        fill: #fff;
      }

      .cls-5 {
        fill: #3aaee4;
      }
    </style>
  </defs>
  <g id="Layer_2" data-name="Layer 2">
    <g id="Layer_1-2" data-name="Layer 1">
      <g>
        <g>
          <path class="cls-1" d="M163.54,19.54v2H131.1v-2Zm-5.8,9.8a7.62,7.62,0,0,1,3.51,6.41A7.46,7.46,0,0,1,157.74,42q-3.86,2.84-10.39,2.84T136.9,42a7.51,7.51,0,0,1-3.44-6.23,7.67,7.67,0,0,1,3.44-6.41q3.81-2.71,10.45-2.71T157.74,29.34Zm-17.82.93a7,7,0,0,0-2.48,5.48,6.78,6.78,0,0,0,2.48,5.31,12.79,12.79,0,0,0,14.92,0,6.75,6.75,0,0,0,2.48-5.31,6.92,6.92,0,0,0-2.48-5.48,13,13,0,0,0-14.92,0Zm1.81,18.24v8.64a2.18,2.18,0,0,0,.55,1.78,3.37,3.37,0,0,0,2.17.5h32.44v2h-35.1a4.44,4.44,0,0,1-3.26-1,3.94,3.94,0,0,1-1-3V48.51Zm15.35-36.92v2H139v-2Zm18.61-2.28v19h8.45v2h-8.45v17.5h-4.17V9.31Z"/>
          <path class="cls-1" d="M177.39,61.9h-35.6a4.91,4.91,0,0,1-3.62-1.14,4.43,4.43,0,0,1-1.1-3.31V48h5.16v9.14c0,1,.23,1.29.36,1.39s.61.39,1.86.39h32.94ZM138.07,49v8.44a3.49,3.49,0,0,0,.81,2.6,4,4,0,0,0,2.91.85h34.6v-1H144.45a3.76,3.76,0,0,1-2.51-.63,2.62,2.62,0,0,1-.71-2.15V49Zm38.12-.74H171V8.81h5.17v19h8.45v3h-8.45Zm-4.17-1h3.17V29.77h8.45v-1h-8.45v-19H172Zm-24.67-2c-4.48,0-8.09-1-10.75-2.94A8,8,0,0,1,133,35.75a8.16,8.16,0,0,1,3.64-6.81c2.62-1.87,6.24-2.81,10.75-2.81s8.07.94,10.68,2.81h0a8.12,8.12,0,0,1,3.71,6.81A8,8,0,0,1,158,42.39C155.39,44.33,151.79,45.32,147.35,45.32Zm0-18.19c-4.3,0-7.72.88-10.16,2.62a7.13,7.13,0,0,0-3.23,6,7,7,0,0,0,3.24,5.83c2.47,1.81,5.89,2.74,10.15,2.74s7.62-.93,10.1-2.74a7,7,0,0,0,3.3-5.83,7.08,7.08,0,0,0-3.3-6C155,28,151.61,27.13,147.35,27.13ZM147.41,44a11.44,11.44,0,0,1-7.82-2.53,7.3,7.3,0,0,1-2.65-5.68,7.48,7.48,0,0,1,2.65-5.86h0a13.5,13.5,0,0,1,15.57,0,7.45,7.45,0,0,1,2.65,5.86,7.26,7.26,0,0,1-2.65,5.68A11.31,11.31,0,0,1,147.41,44Zm-7.16-13.31a6.42,6.42,0,0,0-2.31,5.1,6.24,6.24,0,0,0,2.31,4.93,12.29,12.29,0,0,0,14.26,0,6.21,6.21,0,0,0,2.31-4.93,6.45,6.45,0,0,0-2.3-5.11,12.55,12.55,0,0,0-14.27,0ZM164,22H130.6V19H164ZM131.6,21H163V20H131.6Zm26-7H138.46v-3h19.12Zm-18.12-1h17.12v-1H139.46Z"/>
        </g>
        <g>
          <path class="cls-1" d="M213.63,15a11.63,11.63,0,0,1,3.44,8.57,12.11,12.11,0,0,1-3.44,8.75q-3.75,4-10.21,4t-10.33-3.95a12.23,12.23,0,0,1-3.38-8.75A11.81,11.81,0,0,1,193.09,15q3.75-3.88,10.33-3.88Q209.83,11.16,213.63,15ZM196,16a12.2,12.2,0,0,0-2.36,7.64A12.88,12.88,0,0,0,196,31.44,8.89,8.89,0,0,0,203.48,35a8.4,8.4,0,0,0,7.19-3.57A12.88,12.88,0,0,0,213,23.61,12.2,12.2,0,0,0,210.67,16a8.53,8.53,0,0,0-7.19-3.52A8.93,8.93,0,0,0,196,16Zm32.5,31.19c3.22,1.68,4.84,3.86,4.84,6.53,0,2.51-1.64,4.56-4.9,6.17q-5.25,2.64-14.08,2.65-9.36,0-14.74-2.65c-3.34-1.61-5-3.66-5-6.17q0-4,5-6.53,5.32-2.59,14.74-2.59Q223.37,44.57,228.49,47.16Zm-25.61,1.11c-2.7,1.4-4,3.18-4,5.36s1.33,3.91,4,5.3q4.22,2.16,11.53,2.16,6.84,0,10.94-2.16,3.93-2.09,3.93-5.3t-3.87-5.36q-4.11-2.22-11-2.22Q207.17,46.05,202.88,48.27ZM232.6,44h-4.17v-12H218.16V30h10.27V20.65H218.16v-2h10.27V9.31h4.17Z"/>
          <path class="cls-1" d="M214.35,63c-6.29,0-11.32-.91-15-2.7s-5.29-3.91-5.29-6.62,1.78-5.21,5.29-7,8.63-2.64,15-2.64c6.06,0,10.89.89,14.37,2.64h0c3.39,1.77,5.11,4.11,5.11,7s-1.75,4.93-5.18,6.62S220.29,63,214.35,63Zm0-17.94c-6.17,0-11.06.85-14.52,2.54-3.18,1.6-4.73,3.59-4.73,6.08,0,2.32,1.55,4.19,4.73,5.72,3.51,1.72,8.39,2.6,14.52,2.6,5.78,0,10.44-.88,13.86-2.6,3.11-1.53,4.62-3.4,4.62-5.72,0-2.49-1.5-4.48-4.57-6.09C224.93,45.92,220.25,45.07,214.35,45.07Zm0,16.52c-4.93,0-8.88-.74-11.76-2.21s-4.26-3.42-4.26-5.75,1.45-4.32,4.32-5.81h0c2.91-1.51,6.85-2.27,11.7-2.27,4.66,0,8.44.77,11.24,2.28s4.13,3.39,4.13,5.8-1.41,4.26-4.19,5.74S219,61.59,214.35,61.59ZM203.11,48.71c-2.55,1.32-3.78,2.93-3.78,4.92s1.22,3.55,3.72,4.86c2.73,1.39,6.53,2.1,11.3,2.1,4.45,0,8.05-.71,10.71-2.1,2.46-1.31,3.66-2.9,3.66-4.86s-1.18-3.64-3.6-4.92c-2.66-1.43-6.28-2.16-10.77-2.16-4.68,0-8.47.73-11.24,2.16Zm30-4.26h-5.17v-12H217.66V29.52h10.27V21.15H217.66v-3h10.27V8.81h5.17Zm-4.17-1h3.17V9.81h-3.17v9.37H218.66v1h10.27V30.52H218.66v.91h10.27Zm-25.51-6.58c-4.51,0-8.11-1.38-10.69-4.1a12.78,12.78,0,0,1-3.52-9.1,12.37,12.37,0,0,1,3.52-9c2.58-2.68,6.18-4,10.69-4s7.94,1.35,10.57,4a12.19,12.19,0,0,1,3.58,8.92,12.67,12.67,0,0,1-3.58,9.1C211.41,35.47,207.85,36.87,203.42,36.87Zm0-25.21c-4.23,0-7.58,1.25-10,3.73a11.4,11.4,0,0,0-3.24,8.28,11.82,11.82,0,0,0,3.24,8.41c2.39,2.52,5.74,3.79,10,3.79s7.46-1.29,9.85-3.85a11.73,11.73,0,0,0,3.3-8.41,11.26,11.26,0,0,0-3.29-8.22h0C210.85,12.91,207.53,11.66,203.42,11.66Zm.06,23.85a9.41,9.41,0,0,1-7.89-3.77,13.41,13.41,0,0,1-2.46-8.13,12.79,12.79,0,0,1,2.46-7.95h0A9.48,9.48,0,0,1,203.48,12a9.06,9.06,0,0,1,7.59,3.71,12.79,12.79,0,0,1,2.46,8,13.36,13.36,0,0,1-2.46,8.12A8.88,8.88,0,0,1,203.48,35.51Zm-7.09-19.24a11.78,11.78,0,0,0-2.26,7.34,12.41,12.41,0,0,0,2.26,7.53,8.35,8.35,0,0,0,7.09,3.37,7.86,7.86,0,0,0,6.79-3.37,12.41,12.41,0,0,0,2.26-7.53,11.74,11.74,0,0,0-2.26-7.34A8,8,0,0,0,203.48,13,8.4,8.4,0,0,0,196.39,16.27Z"/>
        </g>
        <g>
          <path class="cls-1" d="M264.87,16.77h-14V47.9c0,1.27.83,2.22,2.48,2.83a17.62,17.62,0,0,0,6.34.62,20.48,20.48,0,0,0,5.62-1.23,34.11,34.11,0,0,0,5.14-2.35l.9,2.47a25.62,25.62,0,0,1-6.64,2.28,47.36,47.36,0,0,1-7.19.86q-5.62,0-8.16-1.11a4.1,4.1,0,0,1-2.66-3.94V14.79h18.13Zm12.68-6.72V33.78h7.8V9.31h4.17V63.62h-4.17V35.75h-7.8V61.4h-4V10.05Z"/>
          <path class="cls-1" d="M290,64.12h-5.17V36.25h-6.8V61.9h-5V9.55h5V33.28h6.8V8.81H290Zm-4.17-1H289V9.81h-3.17V34.28h-8.8V10.55h-3V60.9h3V35.25h8.8Zm-28.28-9.24c-3.87,0-6.6-.37-8.37-1.15a4.59,4.59,0,0,1-3-4.4v-34h19.13v3h-14V47.9c0,1.05.71,1.83,2.15,2.37a17.51,17.51,0,0,0,6.15.58,20.21,20.21,0,0,0,5.47-1.2,34.12,34.12,0,0,0,5.06-2.31l.51-.29L272,50.48l-.39.2A26.24,26.24,0,0,1,264.85,53a46.85,46.85,0,0,1-7.27.87ZM247.24,15.29v33a3.62,3.62,0,0,0,2.37,3.49c1.61.71,4.29,1.06,7.95,1.06a45.91,45.91,0,0,0,7.08-.85,26.09,26.09,0,0,0,6.13-2l-.55-1.51a34.18,34.18,0,0,1-4.7,2.1,21.44,21.44,0,0,1-5.75,1.26,18.23,18.23,0,0,1-6.54-.64c-1.88-.7-2.82-1.81-2.82-3.31V16.27h14v-1Z"/>
        </g>
        <g>
          <path class="cls-1" d="M334.59,17.69v2H302.15v-2Zm-6.1,9.12c2.33,1.65,3.5,3.66,3.5,6.05s-1.17,4.33-3.5,6q-3.87,2.77-10.39,2.77t-10.46-2.77q-3.43-2.48-3.44-6a7.28,7.28,0,0,1,3.44-6.05q3.87-2.7,10.46-2.71T328.49,26.81Zm17.94,27.93a10.57,10.57,0,0,1-1.57,5.36,13.93,13.93,0,0,1-3.14,3.7l-1.27-.68a14.85,14.85,0,0,0,1.27-3.39,22.41,22.41,0,0,0,.54-5V48.51H307V46.6h39.45Zm-35.76-27a6.45,6.45,0,0,0,0,10.17,13.06,13.06,0,0,0,14.92,0,6.47,6.47,0,0,0,0-10.17,13.34,13.34,0,0,0-14.92,0Zm16-17.26v2h-17v-2Zm19.76-1.17V25.58h8.46v1.91h-8.46v13h-4.17V9.31Z"/>
          <path class="cls-1" d="M341.78,64.4l-2-1.07.25-.45a14,14,0,0,0,1.22-3.27,21.92,21.92,0,0,0,.53-4.93V49H306.48V46.1h40.45v8.64a11.12,11.12,0,0,1-1.64,5.61A14.45,14.45,0,0,1,342,64.19Zm-.66-1.48.54.28a13.72,13.72,0,0,0,2.77-3.35,10.26,10.26,0,0,0,1.5-5.11V47.1H307.48V48h35.28v6.67a23.62,23.62,0,0,1-.55,5.17A16.64,16.64,0,0,1,341.12,62.92Zm-23-20.81c-4.48,0-8.1-1-10.75-2.87a7.46,7.46,0,0,1,0-12.83c2.66-1.86,6.27-2.81,10.75-2.81s8,.95,10.67,2.81h0a7.71,7.71,0,0,1,3.72,6.45c0,2.5-1.25,4.65-3.72,6.39C326.13,41.15,322.53,42.11,318.1,42.11Zm0-17.51c-4.27,0-7.69.88-10.17,2.62a6.74,6.74,0,0,0-3.23,5.64c0,2.19,1.06,4,3.24,5.57,2.47,1.78,5.89,2.68,10.16,2.68s7.62-.9,10.09-2.68c2.22-1.56,3.3-3.38,3.3-5.57s-1.08-4.08-3.29-5.64C325.72,25.48,322.32,24.6,318.1,24.6ZM346.93,41h-5.17V8.81h5.17V25.08h8.46V28h-8.46Zm-4.17-1h3.17V27h8.46v-.91h-8.46V9.81h-3.17Zm-24.6.75a11.76,11.76,0,0,1-7.82-2.46,7,7,0,0,1,0-10.93h0a13.84,13.84,0,0,1,15.55,0,7,7,0,0,1,2.66,5.51,6.91,6.91,0,0,1-2.65,5.43A11.65,11.65,0,0,1,318.16,40.75ZM311,28.12a5.94,5.94,0,0,0-2.3,4.74,5.87,5.87,0,0,0,2.3,4.67,12.59,12.59,0,0,0,14.28,0,6,6,0,0,0,0-9.41,10.92,10.92,0,0,0-7.1-2.16A11,11,0,0,0,311,28.12Zm24.1-8H301.65v-3h33.44Zm-32.44-1h31.44v-1H302.65ZM327.17,13h-18V10h18Zm-17-1h16V11h-16Z"/>
        </g>
      </g>
      <path class="cls-2" d="M376.15,56.46h11.56V32.78h4.12V56.46h20.51v2h-55v-2H372V32.78h4.12Zm30.92-24.57a26,26,0,0,1-1.4,8.76,31.71,31.71,0,0,1-4.32,8.13l-1.58-.58a24.84,24.84,0,0,0,2.16-6.72,53.34,53.34,0,0,0,.69-9.59V17H363.78v-2h43.29Z"/>
      <g>
        <path class="cls-1" d="M133.51,81.7h7.19V75.77h1.67V89.48H140.7V83.21h-7.19v6.27h-1.67V75.77h1.67Z"/>
        <path class="cls-1" d="M147.66,89.48l5.59-13.71h1.45l5.59,13.71h-1.82l-1.64-4.13H151.1l-1.64,4.13ZM154,77.9c-.61,1.71-1.2,3.26-1.75,4.65l-.52,1.3h4.55l-.52-1.3c-.56-1.42-1.14-3-1.72-4.65Z"/>
        <path class="cls-1" d="M172.62,83.41q1.27,1.82,2.5,3.74h.06c-.09-1.34-.14-2.7-.14-4.08v-7.3h1.69V89.48h-1.67l-5.39-7.64c-.93-1.34-1.76-2.58-2.49-3.74h-.06c.09,1.25.13,2.71.13,4.38v7h-1.67V75.77h1.66Z"/>
        <path class="cls-1" d="M188.73,84v5.51h-1.67V84l-5-8.2h1.83l4,6.66h.06l4-6.66h1.83Z"/>
        <path class="cls-1" d="M200.74,88h7v1.5h-8.71V75.77h8.33v1.5h-6.65V81.7h5.91v1.51h-5.91Z"/>
        <path class="cls-1" d="M226.1,82.64a8.75,8.75,0,0,1-.45,2.86,6.59,6.59,0,0,1-1.28,2.24,5.87,5.87,0,0,1-2,1.47,6.37,6.37,0,0,1-2.63.53,6.67,6.67,0,0,1-2.7-.53,5.69,5.69,0,0,1-2-1.47,6.55,6.55,0,0,1-1.26-2.24,9,9,0,0,1-.44-2.86,8.79,8.79,0,0,1,.45-2.88,6.73,6.73,0,0,1,1.29-2.25,5.74,5.74,0,0,1,2-1.47,6.46,6.46,0,0,1,2.65-.53,6.54,6.54,0,0,1,2.68.53,5.69,5.69,0,0,1,2,1.47,6.5,6.5,0,0,1,1.26,2.25A9.06,9.06,0,0,1,226.1,82.64Zm-1.66,0a7.34,7.34,0,0,0-.37-2.45,4.94,4.94,0,0,0-1-1.76,4.09,4.09,0,0,0-1.5-1.07,5,5,0,0,0-3.72,0,4.09,4.09,0,0,0-1.5,1.07,4.94,4.94,0,0,0-1,1.76,7.34,7.34,0,0,0-.37,2.45,7.48,7.48,0,0,0,.37,2.43,5.11,5.11,0,0,0,1,1.76,4.09,4.09,0,0,0,1.5,1.07,4.82,4.82,0,0,0,1.87.35,4.72,4.72,0,0,0,1.85-.35,4.14,4.14,0,0,0,1.49-1.07,4.94,4.94,0,0,0,1-1.76A7.22,7.22,0,0,0,224.44,82.64Z"/>
        <path class="cls-1" d="M239.41,83.41q1.26,1.82,2.49,3.74H242c-.09-1.34-.13-2.7-.13-4.08v-7.3h1.68V89.48h-1.67l-5.38-7.64c-.93-1.34-1.76-2.58-2.49-3.74h-.07c.09,1.25.14,2.71.14,4.38v7h-1.67V75.77H234Z"/>
        <path class="cls-1" d="M259.15,83.94H256V82.43h4.8v6.63a3,3,0,0,1-.63.24c-.27.07-.59.15-.95.22s-.73.12-1.14.16-.81.06-1.2.06a9.3,9.3,0,0,1-3.12-.48,6.38,6.38,0,0,1-2.26-1.36,5.69,5.69,0,0,1-1.38-2.15,7.82,7.82,0,0,1-.47-2.81,8.67,8.67,0,0,1,.51-3A6.43,6.43,0,0,1,254.05,76a8.62,8.62,0,0,1,3.06-.53q.45,0,.9,0c.3,0,.59.06.87.11a5.2,5.2,0,0,1,.75.16,3.74,3.74,0,0,1,.59.19v1.48a10.17,10.17,0,0,0-1.42-.35,9.51,9.51,0,0,0-1.6-.13,6.94,6.94,0,0,0-2.23.35,5.43,5.43,0,0,0-1.87,1.07,5.19,5.19,0,0,0-1.29,1.8,6.22,6.22,0,0,0-.48,2.54,6.75,6.75,0,0,0,.4,2.46,4.35,4.35,0,0,0,2.91,2.71,7.66,7.66,0,0,0,2.32.32,11.46,11.46,0,0,0,1.17-.06,8.32,8.32,0,0,0,1-.17Z"/>
        <path class="cls-1" d="M279.48,88.25a4.52,4.52,0,0,0,1.33-.17,3.39,3.39,0,0,0,1-.49,2.78,2.78,0,0,0,.72-.77,3.43,3.43,0,0,0,.44-1,3.85,3.85,0,0,0,.14-.75,7.39,7.39,0,0,0,0-.8V75.77h1.67v8.46a8.75,8.75,0,0,1-.05,1,6.77,6.77,0,0,1-.16,1,5.19,5.19,0,0,1-.59,1.41,4,4,0,0,1-1,1.12,5,5,0,0,1-1.5.74,7.43,7.43,0,0,1-2.06.26,7,7,0,0,1-2-.25,4.69,4.69,0,0,1-1.46-.68,3.76,3.76,0,0,1-1-1,5,5,0,0,1-.6-1.31,5.36,5.36,0,0,1-.22-1.1,8.94,8.94,0,0,1-.07-1.14V75.77h1.67v8.51a6.13,6.13,0,0,0,.07.94,3.87,3.87,0,0,0,.21.89,3.13,3.13,0,0,0,1.19,1.57A3.85,3.85,0,0,0,279.48,88.25Z"/>
        <path class="cls-1" d="M298.51,83.41q1.26,1.82,2.49,3.74h.06c-.09-1.34-.13-2.7-.13-4.08v-7.3h1.68V89.48h-1.67l-5.39-7.64c-.93-1.34-1.76-2.58-2.49-3.74H293c.09,1.25.13,2.71.13,4.38v7h-1.67V75.77h1.66Z"/>
        <path class="cls-1" d="M309.27,89.48V75.77H311V89.48Z"/>
        <path class="cls-1" d="M322.25,87.35c.49-1.5,1-3,1.6-4.53l2.63-7h1.67L323,89.48h-1.46l-5.2-13.71H318l2.64,7q.86,2.28,1.61,4.53Z"/>
        <path class="cls-1" d="M335.23,88h7v1.5h-8.71V75.77h8.33v1.5h-6.66V81.7h5.92v1.51h-5.92Z"/>
        <path class="cls-1" d="M350,83.8v5.68h-1.67V75.77h3.56q.9,0,1.53.06a8.77,8.77,0,0,1,1.15.21,4.07,4.07,0,0,1,2.19,1.33,3.6,3.6,0,0,1,.76,2.34,3.88,3.88,0,0,1-.27,1.49,3.43,3.43,0,0,1-.75,1.14,4,4,0,0,1-1.15.79,6.65,6.65,0,0,1-1.49.45v0l4.06,5.86h-1.67L352,83.8Zm0-6.53v5h1.65c.52,0,1,0,1.32,0a5.21,5.21,0,0,0,1-.19,2.66,2.66,0,0,0,1.34-.85,2.33,2.33,0,0,0,.48-1.53,2.2,2.2,0,0,0-.46-1.42,2.43,2.43,0,0,0-1.22-.77,4.58,4.58,0,0,0-.88-.17c-.34,0-.77,0-1.3,0Z"/>
        <path class="cls-1" d="M365.28,79.4a1.92,1.92,0,0,0,.25,1,2,2,0,0,0,.66.65,3.86,3.86,0,0,0,1,.42q.54.16,1.14.3c.53.13,1,.28,1.57.43a5,5,0,0,1,1.37.66,3,3,0,0,1,1,1.08,3.44,3.44,0,0,1,.37,1.71,3.93,3.93,0,0,1-.4,1.84,3.43,3.43,0,0,1-1.12,1.27,5,5,0,0,1-1.68.74,9,9,0,0,1-2.14.24,8.19,8.19,0,0,1-1.09-.07,8.84,8.84,0,0,1-1.07-.18,8.43,8.43,0,0,1-.91-.25,3.42,3.42,0,0,1-.65-.29V87.42a5.31,5.31,0,0,0,.83.34c.31.1.63.19.95.26a8.35,8.35,0,0,0,1,.17,7.91,7.91,0,0,0,.94.06,7.51,7.51,0,0,0,1.37-.12,3.41,3.41,0,0,0,1.14-.41,2.09,2.09,0,0,0,.78-.78,2.41,2.41,0,0,0,.29-1.25,1.82,1.82,0,0,0-.25-1,2.14,2.14,0,0,0-.67-.67,4.3,4.3,0,0,0-1-.42c-.37-.11-.75-.21-1.15-.31s-1.06-.26-1.57-.41a5.17,5.17,0,0,1-1.36-.64,3.29,3.29,0,0,1-1-1.06,3.36,3.36,0,0,1-.36-1.65,4,4,0,0,1,.38-1.8,3.61,3.61,0,0,1,1-1.25,4.56,4.56,0,0,1,1.5-.73,7.09,7.09,0,0,1,1.82-.23,9.54,9.54,0,0,1,3.78.76v1.55a11.73,11.73,0,0,0-1.76-.59,8,8,0,0,0-1.94-.23,4.9,4.9,0,0,0-1.35.16,2.71,2.71,0,0,0-1,.49,1.84,1.84,0,0,0-.56.76A2.57,2.57,0,0,0,365.28,79.4Z"/>
        <path class="cls-1" d="M378.73,89.48V75.77h1.67V89.48Z"/>
        <path class="cls-1" d="M392,89.48h-1.67V77.27h-4.58v-1.5h10.83v1.5H392Z"/>
        <path class="cls-1" d="M407.26,84v5.51h-1.67V84l-5-8.2h1.82l4,6.66h.05l4-6.66h1.83Z"/>
      </g>
      <g>
        <g>
          <path class="cls-3" d="M50.79,0a50.8,50.8,0,1,0,50.8,50.79A50.79,50.79,0,0,0,50.79,0Zm0,100.23a49.44,49.44,0,1,1,49.43-49.44A49.43,49.43,0,0,1,50.79,100.23Z"/>
          <path class="cls-3" d="M50.79,14.54A36.26,36.26,0,1,0,87.05,50.79,36.25,36.25,0,0,0,50.79,14.54Zm0,71.79A35.54,35.54,0,1,1,86.32,50.79,35.54,35.54,0,0,1,50.79,86.33Z"/>
          <path class="cls-3" d="M10.15,57.05a1.63,1.63,0,1,1-1.63-1.63A1.63,1.63,0,0,1,10.15,57.05Z"/>
          <path class="cls-3" d="M95,57.05a1.63,1.63,0,1,1-1.63-1.63A1.63,1.63,0,0,1,95,57.05Z"/>
          <g>
            <path class="cls-3" d="M25.39,32s-1.1,21.37,2.78,27.5c0,0,5.31,12.49,28.68,11.87,0,0,10.69.69,20-1.87l-.06-16.13S78.1,35,56.91,31.23C56.91,31.23,38.85,28.1,25.39,32Z"/>
            <g>
              <path class="cls-4" d="M35.88,36V64.6h5.25V52.13S42,47,49,47.21c0,0,6.37-.61,6.65,4.17V61.93s.29,3.79,5.49,3.61V49.69S61,44.12,51.4,43.84c0,0-7-.38-10.31,3.65V36Z"/>
              <path class="cls-5" d="M66.34,65.54V37H61.09V49.42s-.9,5.11-7.88,4.92c0,0-6.37.61-6.65-4.17V39.62s-.29-3.79-5.49-3.61V51.86s.19,5.57,9.75,5.85c0,0,7,.38,10.31-3.65V65.54Z"/>
              <path class="cls-4" d="M61.09,49.43v-.15c-.28-1.32-1.75-5.2-9.69-5.43,0,0-7-.37-10.31,3.66V36H35.88V64.61h5.25V52.15S42,47,49,47.22c0,0,6.37-.6,6.65,4.18v2.78A6.4,6.4,0,0,0,61.09,49.43Z"/>
            </g>
          </g>
          <g>
            <path class="cls-3" d="M11.46,68.66l-3,1.23-.43-1.11L11,67.58l3.53-4.31L15,64.48,12.47,67.6l4,.43L17,69.25Z"/>
            <path class="cls-3" d="M10.35,73.76l6.82-4.19L19.86,74l-1,.63-2.09-3.4L15,72.29l2,3.25-1,.61L14,72.9l-2,1.24,2.12,3.47-1,.63Z"/>
            <path class="cls-3" d="M23.18,79.36a4.71,4.71,0,0,1-1.66,2.69,4.77,4.77,0,0,1-2.92,1.32,3.17,3.17,0,0,1-3.26-3.71A4.81,4.81,0,0,1,17,77a4.77,4.77,0,0,1,2.88-1.31,3,3,0,0,1,2.49,1.08A3.05,3.05,0,0,1,23.18,79.36Zm-4.54,2.76a3.9,3.9,0,0,0,2-1,3.82,3.82,0,0,0,1.26-1.86,1.8,1.8,0,0,0-.41-1.73,1.76,1.76,0,0,0-1.65-.62,3.87,3.87,0,0,0-2,1,3.88,3.88,0,0,0-1.29,1.87A1.74,1.74,0,0,0,17,81.5,1.8,1.8,0,0,0,18.64,82.12Z"/>
            <path class="cls-3" d="M26.08,86.65a2,2,0,0,1-.63,1.19,2.74,2.74,0,0,1-1.67.77,2.83,2.83,0,0,1-2-.73,2.59,2.59,0,0,1-1.08-2.16,3.54,3.54,0,0,1,.73-2.09l.92.74a2,2,0,0,0-.46,1.4A1.66,1.66,0,0,0,22.51,87a1.52,1.52,0,0,0,1.07.42,1.6,1.6,0,0,0,.91-.35.82.82,0,0,0,.34-.6,1.61,1.61,0,0,0-.15-.72,2.61,2.61,0,0,0-.6-.87,3.85,3.85,0,0,1-.68-.93A2.86,2.86,0,0,1,23,82.53a2,2,0,0,1,.58-1.26,2.55,2.55,0,0,1,1.52-.78,2.49,2.49,0,0,1,2,.66,2.25,2.25,0,0,1,1,2.1,3.44,3.44,0,0,1-.65,1.7l-.91-.74A1.71,1.71,0,0,0,27,83.13a1.37,1.37,0,0,0-.59-1.07,1.29,1.29,0,0,0-1-.36,1.2,1.2,0,0,0-.76.4.81.81,0,0,0-.23.71,2.11,2.11,0,0,0,.23.64,4.19,4.19,0,0,0,.62.82,4.22,4.22,0,0,1,.68,1.08A2.32,2.32,0,0,1,26.08,86.65Z"/>
            <path class="cls-3" d="M31.83,91.09a2.64,2.64,0,0,1-1.6,1.29A2.73,2.73,0,0,1,28,92a2.64,2.64,0,0,1-1.12-3.77l2.76-4.8,1,.59L28,88.69a2.41,2.41,0,0,0-.29,1.15c0,.44.27.83.86,1.16a1.4,1.4,0,0,0,1.45.15,2.25,2.25,0,0,0,.86-.81l2.66-4.64,1,.57Z"/>
            <path class="cls-3" d="M38.94,96.38l1.48-5.51-1.5-.42.27-1a2.32,2.32,0,0,0,.69.07,1.62,1.62,0,0,0,.63-.14A1.27,1.27,0,0,0,41,89a1.33,1.33,0,0,0,.32-.55l.89.24-2.11,7.93Z"/>
            <path class="cls-3" d="M47.41,90a3.39,3.39,0,0,1,.7,1.63A8.68,8.68,0,0,1,47.46,96a3.48,3.48,0,0,1-1.14,1.37,2.18,2.18,0,0,1-1.6.35,2.2,2.2,0,0,1-1.57-1A2.82,2.82,0,0,1,42.62,95l1.08.14a1.72,1.72,0,0,0,.3.9,1.16,1.16,0,0,0,.9.55,1.06,1.06,0,0,0,.92-.25,3,3,0,0,0,.54-.74,2.87,2.87,0,0,0,.28-.72c0-.22.08-.43.11-.62a3.22,3.22,0,0,1-.78.43,1.91,1.91,0,0,1-1,.07,2.17,2.17,0,0,1-1.55-1.1,3.08,3.08,0,0,1-.39-2,2.94,2.94,0,0,1,1-1.88,2.29,2.29,0,0,1,1.88-.56A2.27,2.27,0,0,1,47.41,90Zm-1.07,3.25a1.84,1.84,0,0,0,.52-1.13,1.86,1.86,0,0,0-.21-1.22,1.25,1.25,0,0,0-1.92-.26,2.12,2.12,0,0,0-.31,2.37,1.16,1.16,0,0,0,.89.6A1.18,1.18,0,0,0,46.34,93.29Z"/>
            <path class="cls-3" d="M53,90.15A3.54,3.54,0,0,1,54,91.67a6.84,6.84,0,0,1,.26,2.16,7.07,7.07,0,0,1-.3,2.23A3.45,3.45,0,0,1,53,97.58a2.24,2.24,0,0,1-1.55.57,2.21,2.21,0,0,1-1.68-.73A2.86,2.86,0,0,1,49,95.76h1.09a1.75,1.75,0,0,0,.42.84,1.17,1.17,0,0,0,1,.42,1,1,0,0,0,.88-.38,2.85,2.85,0,0,0,.44-.8,3,3,0,0,0,.17-.75,4.61,4.61,0,0,0,0-.63,3.37,3.37,0,0,1-.71.53,1.86,1.86,0,0,1-1,.21,2.14,2.14,0,0,1-1.69-.87,3.14,3.14,0,0,1-.67-2,2.91,2.91,0,0,1,.7-2,2.3,2.3,0,0,1,1.79-.82A2.27,2.27,0,0,1,53,90.15Zm-.61,3.38a1.92,1.92,0,0,0,.35-1.2,1.87,1.87,0,0,0-.37-1.18,1.16,1.16,0,0,0-1-.45,1.2,1.2,0,0,0-1,.46,1.76,1.76,0,0,0-.36,1.19,1.89,1.89,0,0,0,.38,1.2,1.16,1.16,0,0,0,1,.47A1.19,1.19,0,0,0,52.43,93.53Z"/>
            <path class="cls-3" d="M59.94,93.61a2.13,2.13,0,0,1,.48,1.07,2.45,2.45,0,0,1-.44,1.9,2.54,2.54,0,0,1-1.73,1,2.43,2.43,0,0,1-1.94-.49,2.71,2.71,0,0,1-1-1.79l1.09-.17a1.69,1.69,0,0,0,.54,1,1.42,1.42,0,0,0,2-.25,1.52,1.52,0,0,0,.21-1,1.17,1.17,0,0,0-.37-.72,1.35,1.35,0,0,0-.7-.34,2.86,2.86,0,0,0-.51,0,4.35,4.35,0,0,0-.52.06l-.17-1.09a4.88,4.88,0,0,0,.55-.12,1.32,1.32,0,0,0,.43-.21,1.43,1.43,0,0,0,.43-.52A1.34,1.34,0,0,0,58,90.44a1.27,1.27,0,0,0-1.81.33,1.62,1.62,0,0,0-.14,1L55,91.91A2.25,2.25,0,0,1,55.34,90a2.32,2.32,0,0,1,1.55-.93,2.28,2.28,0,0,1,1.77.43A2.21,2.21,0,0,1,59.6,91a2.11,2.11,0,0,1-.11,1.2,2.08,2.08,0,0,1-.51.72A2.59,2.59,0,0,1,59.94,93.61Z"/>
            <path class="cls-3" d="M72.83,92.47l-4.36-1.94-.28.66-.19.49,1.2,2.52L68,94.72l-3.42-7.23,1.15-.55,1.57,3.3c.26-.64.52-1.39.8-2.24s.52-1.7.73-2.54l1.4-.66c-.21.82-.44,1.62-.66,2.4s-.46,1.48-.68,2.1l5.32,2.5Z"/>
            <path class="cls-3" d="M76.37,81.62A4.41,4.41,0,0,1,79,83.46a4.52,4.52,0,0,1,1,3.07,3.46,3.46,0,0,1-1.48,2.56,3.39,3.39,0,0,1-2.86.64A4.55,4.55,0,0,1,73,87.85a4.41,4.41,0,0,1-1-3A3.35,3.35,0,0,1,73.5,82.3,3.43,3.43,0,0,1,76.37,81.62Zm2.3,4.81a3.74,3.74,0,0,0-.81-2.15,3.53,3.53,0,0,0-1.79-1.37,2,2,0,0,0-1.87.34,2,2,0,0,0-.87,1.68,3.57,3.57,0,0,0,.8,2.11,3.73,3.73,0,0,0,1.79,1.41,1.92,1.92,0,0,0,1.88-.32A2,2,0,0,0,78.67,86.43Z"/>
            <path class="cls-3" d="M86.3,81.53,82.45,81l-1,1,2.34,2.17-.88.92L77.07,79.7l2.23-2.39a3,3,0,0,1,1.81-1,2.1,2.1,0,0,1,1.78.57,2.27,2.27,0,0,1,.72,1.37,2.7,2.7,0,0,1-.23,1.54l4,.57Zm-4-2.67a1.07,1.07,0,0,0-.38-1A1,1,0,0,0,81,77.6a1.64,1.64,0,0,0-.88.52L78.8,79.57l1.8,1.66,1.29-1.4A1.67,1.67,0,0,0,82.35,78.86Z"/>
            <path class="cls-3" d="M88.35,79l-6.73-4.35,3-4.71,1,.63-2.36,3.65,1.78,1.15,2.26-3.48,1,.63L86.07,76l2,1.28,2.4-3.72,1,.63Z"/>
            <path class="cls-3" d="M94.69,66.91l-2.06,0-1.39,3.36,1.47,1.42-.49,1.22-6.23-6,.55-1.34,8.65.13Zm-7-.11,2.66,2.55,1-2.49Z"/>
          </g>
        </g>
        <text/>        <g>
          <polygon class="cls-3" points="5.44 48.08 5.58 46.8 8.02 47.07 8.3 44.53 5.85 44.27 5.99 42.99 12.13 43.66 11.99 44.93 9.4 44.66 9.13 47.19 11.71 47.47 11.58 48.74 5.44 48.08"/>
          <path class="cls-3" d="M8.11,47.18l.3-2.73L6,44.18l.12-1.08,5.94.64-.12,1.08-2.58-.28L9,47.28l2.58.27-.11,1.08L5.55,48l.12-1.08Z"/>
          <path class="cls-3" d="M7.2,37.91l.32-1.08,6.61-.56-.39,1.31-1.62.12-.6,2,1.29,1L12.42,42Zm1.91,0c.44.31.82.59,1.13.83l.33.25.36-1.19-.42,0Z"/>
          <path class="cls-3" d="M12,37.6l-.64,2.14,1.29,1-.33,1.11-5-4,.28-.95,6.4-.54-.33,1.1Zm-3.21.21c.54.38,1,.71,1.34,1l.46.35.44-1.47-.57,0-1.66.08Z"/>
          <path class="cls-3" d="M9.31,31.88l.57-1.09,3.44-.51c.58-.08,1.11-.13,1.58-.16-.54-.25-1-.44-1.21-.58L11.2,28.25l.59-1.14L17.27,30l-.57,1.1-3.41.5c-.48.07-1,.12-1.61.16.51.23.91.43,1.21.58l2.49,1.3-.59,1.14Z"/>
          <path class="cls-3" d="M13.33,30.38c.74-.1,1.38-.15,1.92-.17v0c-.7-.32-1.21-.57-1.53-.73l-2.4-1.25.5-1L17.13,30l-.52,1-3.33.45c-.58.08-1.23.14-2,.17v0c.67.3,1.18.55,1.54.73l2.4,1.25-.5,1-5.3-2.75.52-1Z"/>
          <polygon class="cls-3" points="17.57 25.21 13.25 24.79 14.11 23.69 17.08 23.98 16.04 21.29 16.8 20.25 16.91 20.11 18.4 24.24 20.34 25.74 19.55 26.75 17.57 25.21"/>
          <path class="cls-3" d="M17.19,24.08l-1.06-2.82.75-1,1.42,4,1.9,1.49-.67.85-1.9-1.48-4.19-.43.74-.95,3,.34Z"/>
          <polygon class="cls-3" points="18.76 18.23 21.74 15.5 22.49 16.32 20.46 18.18 21.37 19.17 23.11 17.57 23.86 18.4 22.12 19.99 23.12 21.09 25.27 19.12 26.02 19.94 22.93 22.78 18.76 18.23"/>
          <path class="cls-3" d="M23.12,21.23l2.15-2,.61.67-2.95,2.71-4-4.41,2.83-2.59.62.67-2,1.86,1,1.14,1.75-1.6.61.68L22,20Z"/>
          <path class="cls-3" d="M28.33,17.82a2.74,2.74,0,0,1-.7-.09,2.87,2.87,0,0,1-1-.55,4.12,4.12,0,0,1-.86-1A4,4,0,0,1,25.23,15a2.74,2.74,0,0,1-.05-1.17,2.52,2.52,0,0,1,.44-1.06,3.32,3.32,0,0,1,.94-.88,3.16,3.16,0,0,1,1.2-.47,2.28,2.28,0,0,1,.45,0,2.69,2.69,0,0,1,.7.09A3,3,0,0,1,30,12a4.32,4.32,0,0,1,.85,1,4,4,0,0,1,.52,1.19,2.9,2.9,0,0,1,0,1.17,2.56,2.56,0,0,1-.44,1.07,3.29,3.29,0,0,1-.94.87,3.36,3.36,0,0,1-1.2.48A3.4,3.4,0,0,1,28.33,17.82ZM28,12.58l-.23,0a1.81,1.81,0,0,0-.64.25,1.88,1.88,0,0,0-.5.47,1.32,1.32,0,0,0-.23.6,1.69,1.69,0,0,0,.05.73,2.83,2.83,0,0,0,.38.85,3.34,3.34,0,0,0,.6.71,2,2,0,0,0,.64.36,1.51,1.51,0,0,0,.41.06l.23,0a1.81,1.81,0,0,0,.64-.25,1.88,1.88,0,0,0,.5-.47,1.37,1.37,0,0,0,.23-.6,1.69,1.69,0,0,0-.05-.73,2.68,2.68,0,0,0-.38-.84,3.18,3.18,0,0,0-.6-.72,2,2,0,0,0-.64-.36A1.45,1.45,0,0,0,28,12.58Z"/>
          <path class="cls-3" d="M30.71,13.06a3.72,3.72,0,0,1,.51,1.17,2.89,2.89,0,0,1,.05,1.13,2.68,2.68,0,0,1-.43,1,3.16,3.16,0,0,1-.92.85,3.26,3.26,0,0,1-1.15.46,2.57,2.57,0,0,1-1.11-.06,2.62,2.62,0,0,1-1-.53,3.86,3.86,0,0,1-.83-1A4.2,4.2,0,0,1,25.32,15a2.71,2.71,0,0,1,0-1.13,2.5,2.5,0,0,1,.42-1,3.55,3.55,0,0,1,2.07-1.31,2.57,2.57,0,0,1,1.11.06,2.77,2.77,0,0,1,1,.53A3.86,3.86,0,0,1,30.71,13.06Zm-.94.6a3.32,3.32,0,0,0-.63-.73,1.83,1.83,0,0,0-.67-.38,1.47,1.47,0,0,0-.69-.05,1.82,1.82,0,0,0-.67.27,1.78,1.78,0,0,0-.53.49,1.43,1.43,0,0,0-.25.64,1.86,1.86,0,0,0,.05.77,3,3,0,0,0,.4.88,2.87,2.87,0,0,0,.62.73,1.83,1.83,0,0,0,.67.38,1.47,1.47,0,0,0,.69.05,1.82,1.82,0,0,0,.67-.27A1.78,1.78,0,0,0,30,16a1.43,1.43,0,0,0,.25-.64,1.87,1.87,0,0,0-.05-.77A3.17,3.17,0,0,0,29.77,13.66Z"/>
          <path class="cls-3" d="M32.07,9l1.15-.45,2.91,1.91c.48.34.91.65,1.28.94-.24-.55-.41-1-.52-1.24l-1-2.62,1.2-.46,2.19,5.76-1.15.45-2.88-1.9c-.4-.27-.84-.59-1.31-.95.23.51.4.93.52,1.24l1,2.62-1.2.46Z"/>
          <path class="cls-3" d="M36.07,10.53c.61.42,1.13.8,1.55,1.15h0c-.31-.72-.53-1.24-.65-1.57L36,7.57l1-.38,2.13,5.58-1.07.4-2.78-1.88c-.49-.32-1-.71-1.58-1.17h0c.29.67.51,1.19.65,1.57l1,2.53-1,.38L32.2,9l1.06-.4Z"/>
          <path class="cls-3" d="M43.65,11.92a3,3,0,0,1-.61-.06,2.62,2.62,0,0,1-1.9-1.29,4,4,0,0,1-.41-1.18,4.15,4.15,0,0,1,0-.92,3,3,0,0,1,.18-.85,3.11,3.11,0,0,1,.38-.75,3.75,3.75,0,0,1,.58-.62,3.92,3.92,0,0,1,.77-.46,4.31,4.31,0,0,1,.94-.28,6.4,6.4,0,0,1,.86-.08h0a3.78,3.78,0,0,1,.68.05h.07l.19,1.12-.14,0a4.89,4.89,0,0,0-.66,0,5.39,5.39,0,0,0-.73.06,2.78,2.78,0,0,0-.84.29A1.89,1.89,0,0,0,42,8.14a2.27,2.27,0,0,0,0,.94,2,2,0,0,0,.77,1.4,1.72,1.72,0,0,0,1,.29,3.12,3.12,0,0,0,.52,0l.37-.09.25-.08-.21-1.19-1.31.22L43.24,8.5l2.58-.45.54,3.13-.06,0-.32.16-.45.18-.51.16-.54.12A5,5,0,0,1,43.65,11.92Z"/>
          <path class="cls-3" d="M44.82,9.25l-1.31.23-.15-.9,2.38-.42.51,3-.32.16a3.5,3.5,0,0,1-.43.17l-.51.16a4.87,4.87,0,0,1-.52.12,4.22,4.22,0,0,1-1.41,0A2.75,2.75,0,0,1,42,11.34a2.56,2.56,0,0,1-.75-.82,3.72,3.72,0,0,1-.4-1.15,3.86,3.86,0,0,1,0-.89A3.06,3.06,0,0,1,41,7.66a3.34,3.34,0,0,1,.37-.73,3.23,3.23,0,0,1,.57-.6,3,3,0,0,1,.74-.45,4.2,4.2,0,0,1,.91-.27,6.57,6.57,0,0,1,.85-.08,4.27,4.27,0,0,1,.68,0l.16.92a5.81,5.81,0,0,0-.72,0,4.27,4.27,0,0,0-.71.07,2.65,2.65,0,0,0-.86.29,2.19,2.19,0,0,0-.65.55,2,2,0,0,0-.36.77,2.47,2.47,0,0,0,0,1,2.21,2.21,0,0,0,.81,1.47,2.14,2.14,0,0,0,1.62.25l.38-.08.33-.11Z"/>
          <path class="cls-3" d="M54.37,11.54l-.38,0a4.12,4.12,0,0,1-.85-.17,2.35,2.35,0,0,1-.65-.34,1.79,1.79,0,0,1-.47-.48,2.18,2.18,0,0,1-.28-.62,2.5,2.5,0,0,1-.1-.58,5.5,5.5,0,0,1,0-.69L52,5l1.28.12L53,8.65a2.53,2.53,0,0,0,.06,1,1,1,0,0,0,.4.56,1.39,1.39,0,0,0,.7.23h.16a1.4,1.4,0,0,0,.56-.11,1,1,0,0,0,.49-.48,2.52,2.52,0,0,0,.23-.94l.31-3.5,1.28.11-.32,3.6a5.69,5.69,0,0,1-.1.69,3.08,3.08,0,0,1-.2.56,2,2,0,0,1-.39.55,1.85,1.85,0,0,1-.55.4,2.53,2.53,0,0,1-.72.21A3.74,3.74,0,0,1,54.37,11.54Z"/>
          <path class="cls-3" d="M54,11.42a3.21,3.21,0,0,1-.82-.17,1.87,1.87,0,0,1-.63-.32,1.79,1.79,0,0,1-.45-.46,2.2,2.2,0,0,1-.27-.58,2.43,2.43,0,0,1-.09-.57,5.4,5.4,0,0,1,0-.68l.31-3.5,1.08.1-.3,3.4a2.54,2.54,0,0,0,.06,1,1.16,1.16,0,0,0,.44.62,1.75,1.75,0,0,0,.75.24,1.48,1.48,0,0,0,.77-.11,1.07,1.07,0,0,0,.54-.53,2.63,2.63,0,0,0,.24-1L56,5.48l1.08.1-.31,3.5a4.26,4.26,0,0,1-.1.68,2.54,2.54,0,0,1-.19.53,1.86,1.86,0,0,1-.37.53,1.79,1.79,0,0,1-.52.38,2.51,2.51,0,0,1-.69.2A3.39,3.39,0,0,1,54,11.42Z"/>
          <path class="cls-3" d="M62.79,13.2,61.63,10c-.16-.47-.32-1-.46-1.56-.14.55-.25,1-.35,1.31L60,12.4,58.81,12l1.72-5.92,1.19.34,1.16,3.28c.19.56.35,1.07.46,1.52.14-.58.26-1,.34-1.3l.79-2.7,1.23.36L64,13.55Z"/>
          <path class="cls-3" d="M62.79,9.77a18.23,18.23,0,0,1,.54,1.85h0c.19-.76.33-1.31.43-1.65l.75-2.59,1,.3-1.67,5.73-1.1-.31L61.73,9.93A18.23,18.23,0,0,1,61.18,8h0q-.26,1.08-.42,1.65L60,12.28l-1-.31L60.6,6.24l1.09.32Z"/>
          <rect class="cls-3" x="64.92" y="11.34" width="6.17" height="1.29" transform="translate(28.69 68.75) rotate(-65.29)"/>
          <path class="cls-3" d="M66.26,14.47,68.76,9l1,.46-2.5,5.42Z"/>
          <path class="cls-3" d="M70.88,17l1.3-6.49,1.15.74-.68,3.16-.2.88c0,.11-.06.26-.11.46.16-.13.28-.23.37-.29l.71-.56L76,13l1.15.73-5.34,3.92Z"/>
          <path class="cls-3" d="M72.2,16l.57-.46.71-.55L76,13.08l1,.62-5.16,3.79L71,17l1.25-6.28,1,.62-.67,3.1c-.1.44-.16.74-.2.88s-.09.38-.17.71Z"/>
          <polygon class="cls-3" points="75.11 19.97 79.25 15.39 82.24 18.11 81.49 18.93 79.45 17.08 78.55 18.08 80.3 19.67 79.56 20.49 77.8 18.91 76.81 20.01 78.97 21.96 78.22 22.79 75.11 19.97"/>
          <path class="cls-3" d="M76.67,20l2.16,2-.62.68-3-2.69,4-4.43,2.85,2.58-.61.68-2-1.85-1,1.15,1.75,1.58-.61.68-1.76-1.58Z"/>
          <path class="cls-3" d="M81.82,27.06l.79-2.79-.38-.42-1.81,1.44-.8-1,4.84-3.83,1.18,1.49a5.48,5.48,0,0,1,.48.7,2.94,2.94,0,0,1,.3.63,1.75,1.75,0,0,1,0,1.06,1.72,1.72,0,0,1-.63.89,1.8,1.8,0,0,1-1.11.41,2.09,2.09,0,0,1-1.12-.38l-.84,3Zm1.55-3.56a5.5,5.5,0,0,0,.41.47,2.18,2.18,0,0,0,.33.26.84.84,0,0,0,.42.14.91.91,0,0,0,.49-.2.76.76,0,0,0,.24-.3.54.54,0,0,0,0-.38,1.22,1.22,0,0,0-.14-.35,4.17,4.17,0,0,0-.33-.46l-.42-.53-1.28,1Z"/>
          <path class="cls-3" d="M85.76,25.14a1.67,1.67,0,0,1-1.05.39,2,2,0,0,1-1.16-.43h0L82.7,28l-.8-1,.81-2.7-.47-.59-1.81,1.44-.67-.85,4.68-3.71L85.56,22c.18.24.34.46.48.69a3,3,0,0,1,.29.61,1.72,1.72,0,0,1,0,1A1.7,1.7,0,0,1,85.76,25.14Zm-2.47-1.58a6,6,0,0,0,.42.48,2.51,2.51,0,0,0,.35.28.81.81,0,0,0,.55.14.91.91,0,0,0,.47-.21.79.79,0,0,0,.27-.34.68.68,0,0,0,0-.45,1.59,1.59,0,0,0-.16-.37,5.35,5.35,0,0,0-.33-.47L84.4,22,83,23.14Z"/>
          <path class="cls-3" d="M86.41,32.82a1.58,1.58,0,0,1-.73-.18,2.24,2.24,0,0,1-.71-.55,4.39,4.39,0,0,1-.61-.86,5.41,5.41,0,0,1-.38-.89,3.19,3.19,0,0,1-.14-.84v-.06l1-.55V29a4.63,4.63,0,0,0,.16.87,4,4,0,0,0,.33.77,2.9,2.9,0,0,0,.27.41,1.79,1.79,0,0,0,.32.3.93.93,0,0,0,.35.13h0a.76.76,0,0,0,.37-.1.52.52,0,0,0,.22-.22.72.72,0,0,0,0-.33,2.31,2.31,0,0,0-.08-.43c0-.15-.09-.31-.14-.48a6,6,0,0,1-.16-.68,2.11,2.11,0,0,1,0-.66,1.57,1.57,0,0,1,.25-.6,1.65,1.65,0,0,1,.59-.5,2.06,2.06,0,0,1,.84-.27h.13a1.73,1.73,0,0,1,.64.12,1.87,1.87,0,0,1,.65.44,3.06,3.06,0,0,1,.53.71,6.1,6.1,0,0,1,.39.9,4.49,4.49,0,0,1,.19.86v.06l-1,.56v-.15a5.22,5.22,0,0,0-.19-.88,4,4,0,0,0-.31-.72,1.41,1.41,0,0,0-.53-.59.53.53,0,0,0-.24-.06.68.68,0,0,0-.32.09.65.65,0,0,0-.24.22.74.74,0,0,0-.08.3,1.28,1.28,0,0,0,.05.38,4.16,4.16,0,0,0,.12.44c.07.25.14.49.19.73a2.14,2.14,0,0,1,0,.71A1.32,1.32,0,0,1,88,32a1.62,1.62,0,0,1-.63.53,1.88,1.88,0,0,1-.86.26Z"/>
          <path class="cls-3" d="M86.71,31.51a.51.51,0,0,0,.27-.27.78.78,0,0,0,.06-.38,2.41,2.41,0,0,0-.08-.44c0-.16-.09-.32-.14-.49a5.89,5.89,0,0,1-.16-.67,1.86,1.86,0,0,1,0-.62,1.31,1.31,0,0,1,.23-.56,1.57,1.57,0,0,1,.56-.47,2,2,0,0,1,.8-.26,1.7,1.7,0,0,1,.72.11,2,2,0,0,1,.62.42,2.69,2.69,0,0,1,.51.69,4.59,4.59,0,0,1,.38.88,4.48,4.48,0,0,1,.19.84l-.83.45a4.6,4.6,0,0,0-.19-.9,4.22,4.22,0,0,0-.31-.74,1.48,1.48,0,0,0-.57-.63.65.65,0,0,0-.66,0,.67.67,0,0,0-.28.27.9.9,0,0,0-.09.34,1.9,1.9,0,0,0,0,.4c0,.15.08.3.12.45s.14.49.19.72a2.26,2.26,0,0,1,0,.68,1.39,1.39,0,0,1-.23.6,1.72,1.72,0,0,1-.6.51,1.87,1.87,0,0,1-.82.24,1.52,1.52,0,0,1-.75-.16A2.17,2.17,0,0,1,85,32a5,5,0,0,1-.59-.84,5.14,5.14,0,0,1-.37-.88,2.65,2.65,0,0,1-.14-.81l.81-.45a3.92,3.92,0,0,0,.17.88,4,4,0,0,0,.33.8,3.13,3.13,0,0,0,.29.42,1.29,1.29,0,0,0,.34.32.8.8,0,0,0,.39.14A.71.71,0,0,0,86.71,31.51Z"/>
          <rect class="cls-3" x="86.56" y="34.28" width="6.17" height="1.29" transform="translate(-6.56 35.22) rotate(-21.46)"/>
          <path class="cls-3" d="M86.67,35.51l5.55-2.19.4,1-5.56,2.19Z"/>
          <polygon class="cls-3" points="93.36 40.19 88.46 41.43 88.14 40.18 93.05 38.94 92.58 37.09 93.66 36.81 94.91 41.77 93.83 42.04 93.36 40.19"/>
          <path class="cls-3" d="M88.53,41.31l-.27-1.06L93.17,39l-.47-1.86.89-.22,1.2,4.76-.89.22-.47-1.85Z"/>
          <polygon class="cls-3" points="91.86 47.71 89.42 47.92 89.31 46.64 91.81 46.44 95.28 43.83 95.39 45.21 93.03 46.99 95.59 48.29 95.74 49.57 95.76 49.75 91.86 47.71"/>
          <path class="cls-3" d="M92.86,47l2.69,1.37.09,1.2-3.73-2-2.4.2-.09-1.09,2.4-.19L95.2,44l.09,1.2L92.86,47Z"/>
        </g>
      </g>
    </g>
  </g>
</svg>
