<?xml version="1.0" encoding="utf-8"?>
<!-- Generator: Adobe Illustrator 25.4.1, SVG Export Plug-In . SVG Version: 6.00 Build 0)  -->
<svg version="1.1" id="Layer_1" xmlns="http://www.w3.org/2000/svg" xmlns:xlink="http://www.w3.org/1999/xlink" x="0px" y="0px"
	 viewBox="0 0 412.8 101.6" style="enable-background:new 0 0 412.8 101.6;" xml:space="preserve">
<style type="text/css">
	.st0{fill:#FFFFFF;}
</style>
<g id="Layer_2_00000085227719485190405300000002653456688889547198_">
	<g id="Layer_1-2">
		<g>
			<g>
				<path class="st0" d="M163.5,19.5v2h-32.4v-2H163.5z M157.7,29.3c2.2,1.4,3.5,3.8,3.5,6.4c0,2.5-1.4,4.9-3.5,6.2
					c-2.6,1.9-6,2.8-10.4,2.8c-4.3,0-7.8-0.9-10.4-2.8c-2.1-1.4-3.4-3.7-3.4-6.2c0-2.6,1.3-5,3.4-6.4c2.5-1.8,6-2.7,10.4-2.7
					S155.3,27.6,157.7,29.3L157.7,29.3z M139.9,30.3c-1.6,1.4-2.5,3.4-2.5,5.5c0,2.1,0.9,4,2.5,5.3c4.5,3.2,10.5,3.2,14.9,0
					c1.6-1.3,2.5-3.2,2.5-5.3c0-2.1-0.9-4.1-2.5-5.5C150.4,27.1,144.4,27.1,139.9,30.3z M141.7,48.5v8.6c-0.1,0.6,0.1,1.3,0.5,1.8
					c0.7,0.4,1.4,0.6,2.2,0.5h32.4v2h-35.1c-1.2,0.1-2.3-0.2-3.3-1c-0.7-0.8-1.1-1.9-1-3v-8.9L141.7,48.5z M157.1,11.6v2H139v-2
					H157.1z M175.7,9.3v19h8.5v2h-8.5v17.5h-4.2V9.3L175.7,9.3z"/>
				<path class="st0" d="M177.4,61.9h-35.6c-1.3,0.1-2.6-0.3-3.6-1.1c-0.8-0.9-1.2-2.1-1.1-3.3V48h5.2v9.1c0,1,0.2,1.3,0.4,1.4
					s0.6,0.4,1.9,0.4h32.9L177.4,61.9z M138.1,49v8.4c-0.1,0.9,0.2,1.9,0.8,2.6c0.8,0.6,1.9,0.9,2.9,0.8h34.6v-1h-31.9
					c-0.9,0.1-1.8-0.1-2.5-0.6c-0.6-0.6-0.8-1.4-0.7-2.2V49H138.1z M176.2,48.3H171V8.8h5.2v19h8.5v3h-8.5L176.2,48.3z M172,47.3
					h3.2V29.8h8.5v-1h-8.5v-19H172L172,47.3z M147.3,45.3c-4.5,0-8.1-1-10.8-2.9c-2.2-1.5-3.6-3.9-3.6-6.6c0-2.7,1.4-5.3,3.6-6.8
					c2.6-1.9,6.2-2.8,10.8-2.8s8.1,1,10.7,2.8l0,0c2.3,1.5,3.7,4.1,3.7,6.8c-0.1,2.7-1.5,5.2-3.8,6.6
					C155.4,44.3,151.8,45.3,147.3,45.3L147.3,45.3z M147.3,27.1c-4.3,0-7.7,0.9-10.2,2.6c-2,1.3-3.2,3.6-3.2,6
					c0,2.4,1.2,4.6,3.2,5.8c2.5,1.8,5.9,2.7,10.2,2.7s7.6-0.9,10.1-2.7c2-1.2,3.3-3.4,3.3-5.8c0-2.4-1.2-4.7-3.3-6
					C155,28,151.6,27.1,147.3,27.1L147.3,27.1z M147.4,44c-2.8,0.2-5.6-0.7-7.8-2.5c-1.7-1.4-2.7-3.5-2.6-5.7c0-2.3,0.9-4.4,2.6-5.9
					l0,0c4.7-3.3,10.9-3.3,15.6,0c1.7,1.5,2.7,3.6,2.6,5.9c0,2.2-1,4.3-2.6,5.7C153,43.2,150.2,44.1,147.4,44z M140.2,30.7
					c-1.5,1.3-2.4,3.1-2.3,5.1c0,1.9,0.8,3.7,2.3,4.9c4.3,3,10,3,14.3,0c1.5-1.2,2.3-3,2.3-4.9c0.1-2-0.8-3.8-2.3-5.1
					c-2-1.6-4.5-2.4-7.1-2.2C144.8,28.3,142.3,29.1,140.2,30.7L140.2,30.7z M164,22h-33.4v-3H164V22z M131.6,21H163v-1h-31.4V21z
					 M157.6,14.1h-19.2v-3h19.1L157.6,14.1z M139.5,13.1h17.1v-1h-17.2L139.5,13.1z"/>
			</g>
			<g>
				<path class="st0" d="M213.6,15.1c2.3,2.3,3.5,5.4,3.4,8.6c0.1,3.3-1.2,6.4-3.4,8.8c-2.5,2.7-5.9,4-10.2,4s-7.8-1.3-10.3-3.9
					c-2.2-2.4-3.5-5.5-3.4-8.8c-0.1-3.2,1.1-6.3,3.4-8.6c2.5-2.6,5.9-3.9,10.3-3.9C207.7,11.2,211.1,12.5,213.6,15.1z M196,16
					c-1.6,2.2-2.4,4.9-2.4,7.6c-0.1,2.8,0.7,5.5,2.4,7.8c1.8,2.4,4.6,3.7,7.5,3.6c2.8,0.1,5.6-1.2,7.2-3.6c1.6-2.3,2.4-5,2.3-7.8
					c0.1-2.7-0.7-5.4-2.3-7.6c-1.7-2.3-4.4-3.6-7.2-3.5C200.6,12.4,197.8,13.7,196,16z M228.5,47.2c3.2,1.7,4.8,3.9,4.8,6.5
					c0,2.5-1.6,4.6-4.9,6.2c-3.5,1.8-8.2,2.7-14.1,2.7c-6.2,0-11.2-0.9-14.7-2.7c-3.3-1.6-5-3.7-5-6.2c0-2.7,1.7-4.8,5-6.5
					c3.5-1.7,8.5-2.6,14.7-2.6C220.4,44.6,225.1,45.4,228.5,47.2L228.5,47.2z M202.9,48.3c-2.7,1.4-4,3.2-4.1,5.4
					c0,2.2,1.3,3.9,4,5.3c2.8,1.4,6.6,2.1,11.5,2.1c4.6,0,8.2-0.7,10.9-2.2c2.6-1.4,3.9-3.2,3.9-5.3s-1.3-3.9-3.9-5.4
					c-2.7-1.5-6.4-2.2-11-2.2C209.6,46,205.7,46.8,202.9,48.3L202.9,48.3z M232.6,44h-4.2V32h-10.3v-2h10.3v-9.3h-10.3v-2h10.3V9.3
					h4.2V44z"/>
				<path class="st0" d="M214.4,63c-6.3,0-11.3-0.9-15-2.7s-5.3-3.9-5.3-6.6c0-2.9,1.8-5.2,5.3-7s8.6-2.7,15-2.7
					c6.1,0,10.9,0.9,14.4,2.7l0,0c3.4,1.8,5.1,4.1,5.1,7c0,2.7-1.7,4.9-5.2,6.6S220.3,63,214.4,63z M214.4,45.1
					c-6.2,0-11.1,0.9-14.5,2.5c-3.2,1.6-4.7,3.6-4.7,6.1c0,2.3,1.5,4.2,4.7,5.7c3.5,1.7,8.4,2.6,14.5,2.6c5.8,0,10.4-0.9,13.9-2.6
					c3.1-1.5,4.6-3.4,4.6-5.7c0-2.5-1.5-4.5-4.6-6.1C224.9,45.9,220.2,45.1,214.4,45.1L214.4,45.1z M214.4,61.6
					c-4.9,0-8.9-0.8-11.8-2.2s-4.3-3.4-4.3-5.7s1.5-4.3,4.3-5.8l0,0c2.9-1.5,6.9-2.3,11.7-2.3c4.6,0,8.4,0.8,11.2,2.3
					s4.1,3.4,4.1,5.8s-1.4,4.3-4.2,5.7S219,61.6,214.4,61.6L214.4,61.6z M203.1,48.7c-2.5,1.3-3.8,2.9-3.8,4.9s1.2,3.5,3.7,4.8
					c2.7,1.4,6.5,2.1,11.3,2.1c4.4,0,8.1-0.7,10.7-2.1c2.5-1.3,3.7-2.9,3.7-4.8s-1.2-3.7-3.6-4.9c-2.7-1.4-6.3-2.2-10.8-2.2
					C209.7,46.6,205.9,47.3,203.1,48.7z M233.1,44.5h-5.2v-12h-10.3v-2.9h10.3v-8.4h-10.3v-3h10.3V8.8h5.2V44.5z M228.9,43.5h3.2
					V9.8h-3.2v9.4h-10.3v1h10.3v10.4h-10.3v0.9h10.3V43.5z M203.4,36.9c-4.5,0-8.1-1.4-10.7-4.1c-2.3-2.4-3.6-5.7-3.5-9.1
					c-0.1-3.4,1.2-6.6,3.5-9c2.6-2.7,6.2-4,10.7-4c3.9-0.2,7.7,1.3,10.6,4c2.4,2.4,3.7,5.6,3.6,8.9c0.1,3.4-1.2,6.7-3.6,9.1
					C211.4,35.5,207.9,36.9,203.4,36.9L203.4,36.9z M203.4,11.7c-4.2,0-7.6,1.3-10,3.7c-2.2,2.2-3.3,5.2-3.2,8.3
					c-0.1,3.1,1.1,6.1,3.3,8.4c2.4,2.5,5.7,3.8,10,3.8s7.4-1.3,9.8-3.8c2.2-2.2,3.4-5.3,3.3-8.4c0.1-3.1-1.1-6-3.3-8.2l0,0
					C210.7,12.8,207.1,11.5,203.4,11.7L203.4,11.7z M203.5,35.5c-3.1,0.1-6-1.3-7.9-3.8c-1.7-2.4-2.5-5.2-2.5-8.1
					c-0.1-2.8,0.8-5.6,2.5-7.9l0,0c1.9-2.4,4.8-3.8,7.9-3.7c3-0.1,5.8,1.3,7.6,3.7c1.7,2.3,2.6,5.1,2.5,7.9c0.1,2.9-0.8,5.8-2.4,8.1
					C209.3,34.2,206.5,35.6,203.5,35.5L203.5,35.5z M196.4,16.3c-1.5,2.1-2.3,4.7-2.3,7.3c-0.1,2.7,0.7,5.3,2.3,7.5
					c1.7,2.2,4.3,3.5,7.1,3.4c2.7,0.1,5.2-1.2,6.8-3.4c1.5-2.2,2.3-4.8,2.3-7.5c0.1-2.6-0.7-5.2-2.3-7.3c-1.6-2.2-4.1-3.4-6.8-3.3
					C200.7,12.9,198.1,14.1,196.4,16.3z"/>
			</g>
			<g>
				<path class="st0" d="M264.9,16.8h-14v31.1c0,1.3,0.8,2.2,2.5,2.8c2.1,0.6,4.2,0.8,6.4,0.6c1.9-0.1,3.8-0.6,5.6-1.2
					c1.8-0.6,3.5-1.4,5.1-2.3l0.9,2.5c-2.1,1.1-4.3,1.8-6.6,2.3c-2.4,0.5-4.8,0.8-7.2,0.9c-3.7,0-6.5-0.4-8.1-1.1
					c-1.7-0.6-2.7-2.2-2.7-4V14.8h18.1L264.9,16.8z M277.5,10.1v23.7h7.8V9.3h4.2v54.3h-4.2V35.8h-7.8v25.6h-4V10.1L277.5,10.1z"/>
				<path class="st0" d="M290,64.1h-5.2V36.3H278v25.6h-5V9.6h5v23.7h6.8V8.8h5.2V64.1z M285.8,63.1h3.2V9.8h-3.2v24.5H277V10.6h-3
					v50.4h3V35.3h8.8L285.8,63.1z M257.6,53.9c-3.9,0-6.6-0.4-8.4-1.2c-1.8-0.7-3-2.5-2.9-4.4v-34h19.1v3h-14v30.6
					c0,1.1,0.7,1.8,2.1,2.4c2,0.6,4.1,0.8,6.1,0.6c1.9-0.1,3.7-0.6,5.5-1.2c1.8-0.6,3.4-1.4,5.1-2.3l0.5-0.3l1.3,3.4l-0.4,0.2
					c-2.1,1.1-4.4,1.8-6.8,2.3C262.4,53.5,260,53.8,257.6,53.9L257.6,53.9z M247.2,15.3v33c0,1.6,0.9,3,2.4,3.5
					c1.6,0.7,4.3,1.1,7.9,1.1c2.4-0.1,4.8-0.4,7.1-0.8c2.1-0.4,4.2-1.1,6.1-2l-0.5-1.5c-1.5,0.8-3.1,1.5-4.7,2.1
					c-1.8,0.7-3.8,1.1-5.8,1.3c-2.2,0.2-4.4,0-6.5-0.6c-1.9-0.7-2.8-1.8-2.8-3.3V16.3h14v-1L247.2,15.3z"/>
			</g>
			<g>
				<path class="st0" d="M334.6,17.7v2h-32.4v-2H334.6z M328.5,26.8c2.1,1.3,3.4,3.5,3.5,6c0,2.3-1.2,4.3-3.5,6
					c-2.6,1.8-6,2.8-10.4,2.8s-7.8-0.9-10.5-2.8c-3.3-2-4.4-6.3-2.4-9.6c0.6-1,1.4-1.8,2.4-2.4c2.6-1.8,6.1-2.7,10.5-2.7
					S325.9,25,328.5,26.8L328.5,26.8z M346.4,54.8c0,1.9-0.6,3.7-1.6,5.4c-0.8,1.4-1.9,2.7-3.1,3.7l-1.3-0.7c0.6-1.1,1-2.2,1.3-3.4
					c0.4-1.7,0.6-3.4,0.5-5.1v-6.2H307v-1.9h39.4L346.4,54.8z M310.7,27.8c-2.8,2.2-3.3,6.3-1.1,9.1c0.3,0.4,0.7,0.8,1.1,1.1
					c4.5,3.1,10.4,3.1,14.9,0c2.8-2.2,3.3-6.3,1.1-9.1c-0.3-0.4-0.7-0.8-1.1-1.1C321.1,24.7,315.2,24.7,310.7,27.8z M326.7,10.5v2
					h-17v-2H326.7z M346.4,9.3v16.3h8.5v1.9h-8.5v13h-4.2V9.3L346.4,9.3z"/>
				<path class="st0" d="M341.8,64.4l-2-1.1l0.3-0.4c0.5-1,0.9-2.1,1.2-3.3c0.4-1.6,0.5-3.3,0.5-4.9V49h-35.3v-2.9h40.4v8.6
					c0,2-0.6,3.9-1.6,5.6c-0.9,1.5-2,2.8-3.3,3.8L341.8,64.4z M341.1,62.9l0.5,0.3c1.1-1,2-2.1,2.8-3.4c0.9-1.5,1.5-3.3,1.5-5.1
					v-7.6h-38.4V48h35.3v6.7c0,1.7-0.2,3.5-0.6,5.2C341.9,60.9,341.6,61.9,341.1,62.9z M318.1,42.1c-4.5,0-8.1-1-10.7-2.9
					c-3.5-2.1-4.7-6.7-2.6-10.2c0.6-1.1,1.5-2,2.6-2.6c2.6-1.9,6.3-2.8,10.7-2.8s8,0.9,10.7,2.8l0,0c2.5,1.7,3.7,3.9,3.7,6.5
					s-1.3,4.7-3.7,6.4C326.1,41.2,322.5,42.1,318.1,42.1L318.1,42.1z M318.1,24.6c-4.3,0-7.7,0.9-10.2,2.6c-2,1.2-3.2,3.3-3.2,5.6
					c0,2.2,1,4,3.2,5.6c2.5,1.8,5.9,2.7,10.2,2.7s7.6-0.9,10.1-2.7c2.2-1.6,3.3-3.4,3.3-5.6s-1.1-4.1-3.3-5.6
					C325.7,25.5,322.3,24.6,318.1,24.6L318.1,24.6z M346.9,41h-5.2V8.8h5.2v16.3h8.5V28h-8.5V41z M342.8,40h3.2V27h8.5v-0.9h-8.5
					V9.8h-3.2V40z M318.2,40.8c-2.8,0.1-5.6-0.7-7.8-2.5c-3-2.4-3.5-6.8-1.1-9.8c0.3-0.4,0.7-0.8,1.1-1.1l0,0
					c4.7-3.2,10.9-3.2,15.6,0c3,2.4,3.5,6.8,1.1,9.8c-0.3,0.4-0.7,0.8-1.1,1.1C323.7,40,320.9,40.9,318.2,40.8L318.2,40.8z
					 M311,28.1c-2.6,2.1-3,5.8-1,8.4c0.3,0.4,0.6,0.7,1,1c4.3,3,10,3,14.3,0c1.5-1.1,2.3-2.8,2.3-4.7c0-1.8-0.8-3.6-2.3-4.7
					c-2.1-1.5-4.6-2.3-7.1-2.1C315.6,25.9,313.1,26.6,311,28.1z M335.1,20.1h-33.5v-3h33.4L335.1,20.1z M302.7,19.1h31.4v-1h-31.5
					L302.7,19.1z M327.2,13h-18v-3h18V13z M310.2,12h16v-1h-16V12z"/>
			</g>
		</g>
		<path class="st0" d="M376.1,56.5h11.6V32.8h4.1v23.7h20.5v2h-55v-2H372V32.8h4.1L376.1,56.5z M407.1,31.9c0,3-0.4,5.9-1.4,8.8
			c-1,2.9-2.5,5.6-4.3,8.1l-1.6-0.6c1-2.1,1.8-4.4,2.2-6.7c0.5-3.2,0.8-6.4,0.7-9.6V17h-38.9v-2h43.3V31.9z"/>
		<g>
			<path class="st0" d="M133.5,81.7h7.2v-5.9h1.7v13.7h-1.7v-6.3h-7.2v6.3h-1.7V75.8h1.7V81.7z"/>
			<path class="st0" d="M147.7,89.5l5.6-13.7h1.4l5.6,13.7h-1.8l-1.6-4.1h-5.7l-1.6,4.1H147.7z M154,77.9c-0.6,1.7-1.2,3.3-1.8,4.7
				l-0.5,1.3h4.6l-0.5-1.3C155.2,81.1,154.6,79.6,154,77.9L154,77.9z"/>
			<path class="st0" d="M172.6,83.4c0.8,1.2,1.7,2.4,2.5,3.7h0.1c-0.1-1.3-0.1-2.7-0.1-4.1v-7.3h1.7v13.7H175l-5.4-7.7
				c-0.9-1.3-1.8-2.6-2.5-3.7h-0.1c0.1,1.3,0.1,2.7,0.1,4.4v7h-1.7V75.8h1.7L172.6,83.4z"/>
			<path class="st0" d="M188.7,84v5.5h-1.7V84l-5-8.2h1.8l4,6.7l0,0l4-6.7h1.8L188.7,84z"/>
			<path class="st0" d="M200.7,88h7v1.5H199V75.8h8.3v1.5h-6.7v4.4h5.9v1.5h-5.9L200.7,88z"/>
			<path class="st0" d="M226.1,82.6c0,1-0.1,1.9-0.4,2.9c-0.3,0.8-0.7,1.6-1.3,2.3c-0.6,0.6-1.2,1.1-2,1.5c-0.8,0.4-1.7,0.5-2.6,0.5
				c-0.9,0-1.8-0.2-2.7-0.5c-0.8-0.3-1.4-0.8-2-1.5c-0.6-0.7-1-1.4-1.3-2.3c-0.3-0.9-0.4-1.9-0.4-2.9c0-1,0.1-2,0.4-2.9
				c0.3-0.8,0.7-1.6,1.3-2.3c0.6-0.6,1.2-1.1,2-1.5c0.8-0.4,1.7-0.5,2.6-0.5c0.9,0,1.8,0.2,2.7,0.5c0.8,0.3,1.5,0.8,2,1.5
				c0.6,0.7,1,1.4,1.3,2.3C226,80.7,226.1,81.7,226.1,82.6z M224.4,82.6c0-0.8-0.1-1.7-0.4-2.4c-0.2-0.6-0.6-1.2-1-1.8
				c-0.4-0.5-0.9-0.8-1.5-1.1c-1.2-0.5-2.5-0.5-3.7,0c-0.6,0.2-1.1,0.6-1.5,1.1c-0.4,0.5-0.8,1.1-1,1.8c-0.3,0.8-0.4,1.6-0.4,2.4
				c0,0.8,0.1,1.7,0.4,2.4c0.2,0.6,0.6,1.2,1,1.8c0.4,0.5,0.9,0.8,1.5,1.1c0.6,0.2,1.2,0.4,1.9,0.4c0.6,0,1.3-0.1,1.9-0.4
				c0.6-0.2,1.1-0.6,1.5-1.1c0.4-0.5,0.8-1.1,1-1.8C224.3,84.3,224.4,83.5,224.4,82.6z"/>
			<path class="st0" d="M239.4,83.4c0.9,1.2,1.7,2.4,2.5,3.7h0.1c-0.1-1.3-0.1-2.7-0.1-4.1v-7.3h1.7v13.7h-1.7l-5.4-7.7
				c-0.9-1.3-1.8-2.6-2.5-3.7h-0.1c0.1,1.3,0.1,2.7,0.1,4.4v7h-1.7V75.8h1.6L239.4,83.4z"/>
			<path class="st0" d="M259.1,83.9H256v-1.5h4.8v6.6c-0.2,0.1-0.4,0.2-0.6,0.2c-0.3,0.1-0.6,0.2-1,0.2s-0.7,0.1-1.1,0.2
				s-0.8,0.1-1.2,0.1c-1.1,0-2.1-0.1-3.1-0.5c-0.8-0.3-1.6-0.7-2.3-1.4c-0.6-0.6-1.1-1.3-1.4-2.1c-0.3-0.9-0.5-1.9-0.5-2.8
				c0-1,0.2-2.1,0.5-3.1c0.3-0.9,0.8-1.7,1.5-2.3c0.7-0.7,1.5-1.2,2.4-1.5c1-0.4,2-0.5,3.1-0.5c0.3,0,0.6,0,0.9,0s0.6,0.1,0.9,0.1
				s0.5,0.1,0.8,0.2c0.2,0,0.4,0.1,0.6,0.2v1.5c-0.5-0.1-0.9-0.3-1.4-0.3c-0.5-0.1-1.1-0.1-1.6-0.1c-0.8,0-1.5,0.1-2.2,0.3
				c-0.7,0.2-1.3,0.6-1.9,1.1c-0.6,0.5-1,1.1-1.3,1.8c-0.3,0.8-0.5,1.7-0.5,2.5c0,0.8,0.1,1.7,0.4,2.5c0.5,1.3,1.6,2.3,2.9,2.7
				c0.8,0.2,1.5,0.3,2.3,0.3c0.4,0,0.8,0,1.2-0.1c0.3,0,0.7-0.1,1-0.2L259.1,83.9z"/>
			<path class="st0" d="M279.5,88.3c0.4,0,0.9-0.1,1.3-0.2c0.4-0.1,0.7-0.3,1-0.5c0.3-0.2,0.5-0.5,0.7-0.8c0.2-0.3,0.3-0.6,0.4-1
				c0.1-0.2,0.1-0.5,0.1-0.8c0-0.3,0-0.6,0-0.8v-8.5h1.7v8.5c0,0.3,0,0.7,0,1c0,0.3-0.1,0.7-0.2,1c-0.1,0.5-0.3,1-0.6,1.4
				c-0.3,0.4-0.6,0.8-1,1.1c-0.5,0.3-1,0.6-1.5,0.7c-0.7,0.2-1.4,0.3-2,0.3c-0.7,0-1.3-0.1-2-0.3c-0.5-0.1-1-0.4-1.5-0.7
				c-0.4-0.3-0.7-0.6-1-1c-0.3-0.4-0.5-0.8-0.6-1.3c-0.1-0.4-0.2-0.7-0.2-1.1c0-0.4-0.1-0.8-0.1-1.1v-8.5h1.7v8.5c0,0.3,0,0.7,0.1,1
				c0,0.3,0.1,0.6,0.2,0.9c0.2,0.6,0.6,1.2,1.2,1.6C277.9,88.1,278.7,88.3,279.5,88.3z"/>
			<path class="st0" d="M298.5,83.4c0.8,1.2,1.7,2.4,2.5,3.7h0.1c-0.1-1.3-0.1-2.7-0.1-4.1v-7.3h1.7v13.7h-1.7l-5.4-7.7
				c-0.9-1.3-1.8-2.6-2.5-3.7H293c0.1,1.3,0.1,2.7,0.1,4.4v7h-1.7V75.8h1.7L298.5,83.4z"/>
			<path class="st0" d="M309.3,89.5V75.8h1.7v13.7H309.3z"/>
			<path class="st0" d="M322.2,87.4c0.5-1.5,1-3,1.6-4.5l2.6-7h1.7L323,89.5h-1.5l-5.2-13.7h1.7l2.6,7
				C321.2,84.3,321.7,85.8,322.2,87.4L322.2,87.4z"/>
			<path class="st0" d="M335.2,88h7v1.5h-8.7V75.8h8.3v1.5h-6.6v4.4h5.9v1.5h-5.9L335.2,88z"/>
			<path class="st0" d="M350,83.8v5.7h-1.7V75.8h3.5c0.5,0,1,0,1.5,0.1c0.4,0,0.8,0.1,1.1,0.2c0.9,0.2,1.6,0.7,2.2,1.3
				c0.5,0.7,0.8,1.5,0.8,2.3c0,0.5-0.1,1-0.3,1.5c-0.2,0.4-0.4,0.8-0.8,1.1c-0.3,0.3-0.7,0.6-1.1,0.8c-0.5,0.2-1,0.4-1.5,0.4l0,0
				l4.1,5.9h-1.7l-4.2-5.6H350z M350,77.3v5h1.6c0.5,0,1,0,1.3,0c0.3,0,0.7-0.1,1-0.2c0.5-0.1,1-0.4,1.3-0.9c0.3-0.4,0.5-1,0.5-1.5
				c0-0.5-0.1-1-0.5-1.4c-0.3-0.4-0.7-0.6-1.2-0.8c-0.3-0.1-0.6-0.1-0.9-0.2c-0.4,0-0.9,0-1.3,0L350,77.3z"/>
			<path class="st0" d="M365.3,79.4c0,0.3,0.1,0.7,0.2,1c0.2,0.3,0.4,0.5,0.7,0.7c0.3,0.2,0.6,0.3,1,0.4c0.4,0.1,0.7,0.2,1.1,0.3
				c0.5,0.1,1.1,0.3,1.6,0.4c0.5,0.1,1,0.4,1.4,0.7c0.4,0.3,0.8,0.6,1,1.1c0.3,0.5,0.4,1.1,0.4,1.7c0,0.6-0.1,1.3-0.4,1.8
				c-0.3,0.5-0.7,0.9-1.1,1.3c-0.5,0.3-1.1,0.6-1.7,0.7c-0.7,0.2-1.4,0.2-2.1,0.2c-0.4,0-0.7,0-1.1-0.1c-0.4,0-0.7-0.1-1.1-0.2
				c-0.3-0.1-0.6-0.2-0.9-0.3c-0.2-0.1-0.4-0.2-0.6-0.3v-1.5c0.3,0.1,0.5,0.2,0.8,0.3c0.3,0.1,0.6,0.2,1,0.3c0.3,0.1,0.7,0.1,1,0.2
				c0.3,0,0.6,0.1,1,0.1c0.5,0,0.9,0,1.4-0.1c0.4-0.1,0.8-0.2,1.1-0.4c0.3-0.2,0.6-0.5,0.8-0.8c0.2-0.4,0.3-0.8,0.3-1.2
				c0-0.3-0.1-0.7-0.3-1c-0.2-0.3-0.4-0.5-0.7-0.7c-0.3-0.2-0.6-0.3-1-0.4c-0.4-0.1-0.8-0.2-1.1-0.3s-1-0.3-1.6-0.4
				c-0.5-0.1-0.9-0.4-1.4-0.6c-0.4-0.3-0.8-0.6-1-1.1c-0.3-0.5-0.4-1.1-0.4-1.7c0-0.6,0.1-1.2,0.4-1.8c0.2-0.5,0.6-0.9,1-1.2
				c0.5-0.3,1-0.6,1.5-0.7c0.6-0.2,1.2-0.2,1.8-0.2c0.7,0,1.4,0.1,2,0.2c0.6,0.1,1.2,0.3,1.7,0.6v1.6c-0.6-0.2-1.2-0.4-1.8-0.6
				c-0.6-0.2-1.3-0.2-2-0.2c-0.5,0-0.9,0.1-1.4,0.2c-0.4,0.1-0.7,0.2-1,0.5c-0.3,0.2-0.4,0.5-0.6,0.8
				C365.3,78.7,365.2,79.1,365.3,79.4z"/>
			<path class="st0" d="M378.7,89.5V75.8h1.7v13.7H378.7z"/>
			<path class="st0" d="M392,89.5h-1.7V77.3h-4.6v-1.5h10.8v1.5H392V89.5z"/>
			<path class="st0" d="M407.3,84v5.5h-1.7V84l-5-8.2h1.8l4,6.7h0l4-6.7h1.8L407.3,84z"/>
		</g>
		<g>
			<g>
				<path class="st0" d="M50.8,0C22.7,0,0,22.7,0,50.8s22.7,50.8,50.8,50.8s50.8-22.7,50.8-50.8l0,0C101.6,22.7,78.8,0,50.8,0z
					 M50.8,100.2c-27.3,0-49.4-22.1-49.4-49.4S23.5,1.4,50.8,1.4s49.4,22.1,49.4,49.4S78.1,100.2,50.8,100.2L50.8,100.2z"/>
				<path class="st0" d="M50.8,14.5c-20,0-36.3,16.2-36.3,36.3s16.2,36.3,36.3,36.3s36.3-16.2,36.3-36.3
					C87,30.8,70.8,14.5,50.8,14.5z M50.8,86.3c-19.6,0-35.5-15.9-35.5-35.5s15.9-35.5,35.5-35.5s35.5,15.9,35.5,35.5
					S70.4,86.3,50.8,86.3C50.8,86.3,50.8,86.3,50.8,86.3z"/>
				<path class="st0" d="M10.1,57.1c0,0.9-0.7,1.6-1.6,1.6c-0.9,0-1.6-0.7-1.6-1.6c0-0.9,0.7-1.6,1.6-1.6S10.1,56.2,10.1,57.1
					L10.1,57.1z"/>
				<path class="st0" d="M95,57.1c0,0.9-0.7,1.6-1.6,1.6c-0.9,0-1.6-0.7-1.6-1.6c0-0.9,0.7-1.6,1.6-1.6l0,0
					C94.3,55.4,95,56.1,95,57.1C95,57,95,57.1,95,57.1z"/>
				<g>
					<path class="st0" d="M55.4,50.1c0-0.1-0.1-0.2-0.1-0.3l0,0c-0.1-0.1-0.1-0.3-0.2-0.4c-0.2-0.3-0.3-0.5-0.6-0.7
						c-0.2-0.2-0.4-0.3-0.6-0.5l-0.3-0.2l-0.4-0.2h-0.1c-0.2-0.1-0.3-0.2-0.5-0.2c-1.2-0.4-2.4-0.5-3.6-0.5c-0.8,0-1.6,0-2.5,0.2
						v2.8c0.3,4.8,6.7,4.2,6.7,4.2c0.8,0,1.6,0,2.5-0.2v-2.8C55.6,51,55.6,50.5,55.4,50.1z M55.4,50.1c0-0.1-0.1-0.2-0.1-0.3l0,0
						c-0.1-0.1-0.1-0.3-0.2-0.4c-0.2-0.3-0.3-0.5-0.6-0.7c-0.2-0.2-0.4-0.3-0.6-0.5l-0.3-0.2l-0.4-0.2h-0.1
						c-0.2-0.1-0.3-0.2-0.5-0.2c-1.2-0.4-2.4-0.5-3.6-0.5c-0.8,0-1.6,0-2.5,0.2v2.8c0.3,4.8,6.7,4.2,6.7,4.2c0.8,0,1.6,0,2.5-0.2
						v-2.8C55.6,51,55.6,50.5,55.4,50.1z M55.4,50.1c0-0.1-0.1-0.2-0.1-0.3l0,0c-0.1-0.1-0.1-0.3-0.2-0.4c-0.2-0.3-0.3-0.5-0.6-0.7
						c-0.2-0.2-0.4-0.3-0.6-0.5l-0.3-0.2l-0.4-0.2h-0.1c-0.2-0.1-0.3-0.2-0.5-0.2c-1.2-0.4-2.4-0.5-3.6-0.5c-0.8,0-1.6,0-2.5,0.2
						v2.8c0.3,4.8,6.7,4.2,6.7,4.2c0.8,0,1.6,0,2.5-0.2v-2.8C55.6,51,55.6,50.5,55.4,50.1z M55.4,50.1c0-0.1-0.1-0.2-0.1-0.3l0,0
						c-0.1-0.1-0.1-0.3-0.2-0.4c-0.2-0.3-0.3-0.5-0.6-0.7c-0.2-0.2-0.4-0.3-0.6-0.5l-0.3-0.2l-0.4-0.2h-0.1
						c-0.2-0.1-0.3-0.2-0.5-0.2c-1.2-0.4-2.4-0.5-3.6-0.5c-0.8,0-1.6,0-2.5,0.2v2.8c0.3,4.8,6.7,4.2,6.7,4.2c0.8,0,1.6,0,2.5-0.2
						v-2.8C55.6,51,55.6,50.5,55.4,50.1z M55.4,50.1c0-0.1-0.1-0.2-0.1-0.3l0,0c-0.1-0.1-0.1-0.3-0.2-0.4c-0.2-0.3-0.3-0.5-0.6-0.7
						c-0.2-0.2-0.4-0.3-0.6-0.5l-0.3-0.2l-0.4-0.2h-0.1c-0.2-0.1-0.3-0.2-0.5-0.2c-1.2-0.4-2.4-0.5-3.6-0.5c-0.8,0-1.6,0-2.5,0.2
						v2.8c0.3,4.8,6.7,4.2,6.7,4.2c0.8,0,1.6,0,2.5-0.2v-2.8C55.6,51,55.6,50.5,55.4,50.1z M55.4,50.1c0-0.1-0.1-0.2-0.1-0.3l0,0
						c-0.1-0.1-0.1-0.3-0.2-0.4c-0.2-0.3-0.3-0.5-0.6-0.7c-0.2-0.2-0.4-0.3-0.6-0.5l-0.3-0.2l-0.4-0.2h-0.1
						c-0.2-0.1-0.3-0.2-0.5-0.2c-1.2-0.4-2.4-0.5-3.6-0.5c-0.8,0-1.6,0-2.5,0.2v2.8c0.3,4.8,6.7,4.2,6.7,4.2c0.8,0,1.6,0,2.5-0.2
						v-2.8C55.6,51,55.6,50.5,55.4,50.1z M55.4,50.1c0-0.1-0.1-0.2-0.1-0.3l0,0c-0.1-0.1-0.1-0.3-0.2-0.4c-0.2-0.3-0.3-0.5-0.6-0.7
						c-0.2-0.2-0.4-0.3-0.6-0.5l-0.3-0.2l-0.4-0.2h-0.1c-0.2-0.1-0.3-0.2-0.5-0.2c-1.2-0.4-2.4-0.5-3.6-0.5c-0.8,0-1.6,0-2.5,0.2
						v2.8c0.3,4.8,6.7,4.2,6.7,4.2c0.8,0,1.6,0,2.5-0.2v-2.8C55.6,51,55.6,50.5,55.4,50.1z M55.4,50.1c0-0.1-0.1-0.2-0.1-0.3l0,0
						c-0.1-0.1-0.1-0.3-0.2-0.4c-0.2-0.3-0.3-0.5-0.6-0.7c-0.2-0.2-0.4-0.3-0.6-0.5l-0.3-0.2l-0.4-0.2h-0.1
						c-0.2-0.1-0.3-0.2-0.5-0.2c-1.2-0.4-2.4-0.5-3.6-0.5c-0.8,0-1.6,0-2.5,0.2v2.8c0.3,4.8,6.7,4.2,6.7,4.2c0.8,0,1.6,0,2.5-0.2
						v-2.8C55.6,51,55.6,50.5,55.4,50.1z M76.8,53.4c0,0,1.3-18.4-19.9-22.2c0,0-18.1-3.1-31.5,0.8c0,0-1.1,21.4,2.8,27.5
						c0,0,5.3,12.5,28.7,11.9c0,0,10.7,0.7,20-1.9L76.8,53.4z M66.3,65.6h-5.2c-5.2,0.2-5.5-3.6-5.5-3.6v-4.7
						c-1.6,0.4-3.2,0.6-4.8,0.5c-8-0.2-9.4-4.2-9.7-5.4v12.3h-5.3V36h5.2c5.2-0.2,5.5,3.6,5.5,3.6v4.7c1.6-0.4,3.2-0.6,4.8-0.5
						c1.9,0,3.8,0.3,5.5,1l0.7,0.3c0.3,0.2,0.6,0.3,0.9,0.5c0.2,0.1,0.4,0.3,0.6,0.4l0.3,0.2c0.6,0.5,1,1.1,1.3,1.8
						c0.1,0.2,0.1,0.3,0.2,0.5c0.1,0.2,0.1,0.4,0.2,0.7V37h5.3V65.6z M55.3,49.9L55.3,49.9c-0.1-0.1-0.1-0.3-0.2-0.4
						c-0.2-0.3-0.3-0.5-0.6-0.7c-0.2-0.2-0.4-0.3-0.6-0.5l-0.3-0.2l-0.4-0.2h-0.1c-0.2-0.1-0.3-0.2-0.5-0.2
						c-1.2-0.4-2.4-0.6-3.7-0.5c-0.8,0-1.6,0-2.5,0.2v2.8c0.3,4.8,6.7,4.2,6.7,4.2c0.8,0,1.6,0,2.5-0.2v-2.8c0-0.4-0.1-0.9-0.3-1.3
						C55.4,50,55.3,49.9,55.3,49.9L55.3,49.9z M55.4,50.1c0-0.1-0.1-0.2-0.1-0.3l0,0c-0.1-0.1-0.1-0.3-0.2-0.4
						c-0.2-0.3-0.3-0.5-0.6-0.7c-0.2-0.2-0.4-0.3-0.6-0.5l-0.3-0.2l-0.4-0.2h-0.1c-0.2-0.1-0.3-0.2-0.5-0.2
						c-1.2-0.4-2.4-0.6-3.7-0.5c-0.8,0-1.6,0-2.5,0.2v2.8c0.3,4.8,6.7,4.2,6.7,4.2c0.8,0,1.6,0,2.5-0.2v-2.8
						C55.6,51,55.6,50.5,55.4,50.1L55.4,50.1z M55.4,50.1c0-0.1-0.1-0.2-0.1-0.3l0,0c-0.1-0.1-0.1-0.3-0.2-0.4
						c-0.2-0.3-0.3-0.5-0.6-0.7c-0.2-0.2-0.4-0.3-0.6-0.5l-0.3-0.2l-0.4-0.2h-0.1c-0.2-0.1-0.3-0.2-0.5-0.2
						c-1.2-0.4-2.4-0.6-3.7-0.5c-0.8,0-1.6,0-2.5,0.2v2.8c0.3,4.8,6.7,4.2,6.7,4.2c0.8,0,1.6,0,2.5-0.2v-2.8
						C55.6,51,55.6,50.5,55.4,50.1L55.4,50.1z M55.4,50.1c0-0.1-0.1-0.2-0.1-0.3l0,0c-0.1-0.1-0.1-0.3-0.2-0.4
						c-0.2-0.3-0.3-0.5-0.6-0.7c-0.2-0.2-0.4-0.3-0.6-0.5l-0.3-0.2l-0.4-0.2h-0.1c-0.2-0.1-0.3-0.2-0.5-0.2
						c-1.2-0.4-2.4-0.6-3.7-0.5c-0.8,0-1.6,0-2.5,0.2v2.8c0.3,4.8,6.7,4.2,6.7,4.2c0.8,0,1.6,0,2.5-0.2v-2.8
						C55.6,51,55.6,50.5,55.4,50.1L55.4,50.1z M55.4,50.1c0-0.1-0.1-0.2-0.1-0.3l0,0c-0.1-0.1-0.1-0.3-0.2-0.4
						c-0.2-0.3-0.3-0.5-0.6-0.7c-0.2-0.2-0.4-0.3-0.6-0.5l-0.3-0.2l-0.4-0.2h-0.1c-0.2-0.1-0.3-0.2-0.5-0.2
						c-1.2-0.4-2.4-0.6-3.7-0.5c-0.8,0-1.6,0-2.5,0.2v2.8c0.3,4.8,6.7,4.2,6.7,4.2c0.8,0,1.6,0,2.5-0.2v-2.8
						C55.6,51,55.6,50.5,55.4,50.1L55.4,50.1z M55.4,50.1c0-0.1-0.1-0.2-0.1-0.3l0,0c-0.1-0.1-0.1-0.3-0.2-0.4
						c-0.2-0.3-0.3-0.5-0.6-0.7c-0.2-0.2-0.4-0.3-0.6-0.5l-0.3-0.2l-0.4-0.2h-0.1c-0.2-0.1-0.3-0.2-0.5-0.2
						c-1.2-0.4-2.4-0.6-3.7-0.5c-0.8,0-1.6,0-2.5,0.2v2.8c0.3,4.8,6.7,4.2,6.7,4.2c0.8,0,1.6,0,2.5-0.2v-2.8
						C55.6,51,55.6,50.5,55.4,50.1L55.4,50.1z M55.4,50.1c0-0.1-0.1-0.2-0.1-0.3l0,0c-0.1-0.1-0.1-0.3-0.2-0.4
						c-0.2-0.3-0.3-0.5-0.6-0.7c-0.2-0.2-0.4-0.3-0.6-0.5l-0.3-0.2l-0.4-0.2h-0.1c-0.2-0.1-0.3-0.2-0.5-0.2
						c-1.2-0.4-2.4-0.6-3.7-0.5c-0.8,0-1.6,0-2.5,0.2v2.8c0.3,4.8,6.7,4.2,6.7,4.2c0.8,0,1.6,0,2.5-0.2v-2.8
						C55.6,51,55.6,50.5,55.4,50.1L55.4,50.1z"/>
					<g>
						<rect x="35.9" y="36" class="st0" width="5.2" height="0"/>
						<path class="st0" d="M56.9,44.9c-1.8-0.7-3.7-1-5.5-1c-1.6,0-3.3,0.1-4.8,0.5l0,0c1.6-0.4,3.2-0.6,4.8-0.5
							C53.3,43.9,55.2,44.2,56.9,44.9z"/>
						<rect x="41.1" y="36" class="st0" width="0" height="0"/>
						<rect x="35.9" y="64.6" class="st0" width="5.3" height="0"/>
						<path class="st0" d="M52.6,47.6c-1.2-0.4-2.4-0.5-3.6-0.4c-0.8,0-1.6,0-2.5,0.2c0.8-0.2,1.6-0.2,2.5-0.2
							C50.2,47.1,51.5,47.3,52.6,47.6z"/>
						<path class="st0" d="M55.1,49.4c-0.2-0.3-0.4-0.5-0.6-0.7C54.7,48.9,54.9,49.2,55.1,49.4z"/>
					</g>
				</g>
				<g>
					<path class="st0" d="M16.4,68l-4-0.4l2.6-3.1l-0.5-1.2L11,67.6l-2.9,1.2l0.4,1.1l2.9-1.2l5.5,0.6L16.4,68z"/>
					<path class="st0" d="M18.9,74.6l1-0.6l-2.7-4.4l-6.8,4.2l2.7,4.5l1-0.6L12,74.2l2-1.2l2,3.2l1-0.6l-2-3.2l1.8-1.1L18.9,74.6z"
						/>
					<path class="st0" d="M22.4,76.7c-0.6-0.7-1.5-1.1-2.5-1.1c-1.1,0.1-2.1,0.6-2.9,1.3c-0.9,0.7-1.5,1.6-1.7,2.7
						c-0.3,1.7,0.9,3.4,2.6,3.7c0.2,0,0.4,0.1,0.7,0c1.1-0.1,2.1-0.6,2.9-1.3c0.9-0.7,1.4-1.6,1.7-2.7
						C23.3,78.4,23.1,77.4,22.4,76.7z M21.9,79.2c-0.2,0.7-0.7,1.4-1.3,1.9c-0.6,0.5-1.3,0.9-2,1c-1,0.1-2-0.6-2.1-1.6
						c0-0.3,0-0.5,0.1-0.8c0.2-0.7,0.7-1.4,1.3-1.9c0.5-0.5,1.2-0.9,2-1c0.6-0.1,1.3,0.1,1.7,0.6C22,78,22.1,78.6,21.9,79.2z"/>
					<path class="st0" d="M27.1,81.2c-0.5-0.5-1.3-0.7-2-0.7c-0.6,0.1-1.1,0.4-1.5,0.8c-0.4,0.3-0.6,0.8-0.6,1.3
						c0,0.5,0.1,0.9,0.4,1.4c0.2,0.3,0.4,0.7,0.7,0.9c0.3,0.2,0.5,0.5,0.6,0.9c0.1,0.2,0.2,0.5,0.1,0.7c0,0.2-0.1,0.5-0.3,0.6
						c-0.3,0.2-0.6,0.3-0.9,0.4c-0.4,0-0.8-0.1-1-0.4c-0.4-0.3-0.6-0.7-0.6-1.2c0-0.5,0.1-1,0.5-1.4l-0.9-0.8
						c-0.5,0.6-0.7,1.3-0.7,2.1c0,0.9,0.4,1.7,1.1,2.2c1,1,2.7,1,3.7,0c0.3-0.3,0.5-0.7,0.6-1.2c0.1-0.4,0-0.9-0.2-1.3
						c-0.2-0.4-0.4-0.8-0.7-1.1c-0.2-0.2-0.4-0.5-0.6-0.8c-0.1-0.2-0.2-0.4-0.2-0.7c0-0.3,0-0.5,0.2-0.7c0.2-0.2,0.5-0.4,0.8-0.4
						c0.4,0,0.7,0.1,1,0.4c0.4,0.2,0.6,0.6,0.6,1.1c0,0.4-0.2,0.8-0.4,1.1l0.9,0.7c0.4-0.5,0.6-1.1,0.6-1.7
						C28.2,82.5,27.9,81.6,27.1,81.2z"/>
					<path class="st0" d="M33.6,85.7l-2.7,4.6c-0.2,0.3-0.5,0.6-0.9,0.8c-0.5,0.2-1,0.2-1.5-0.2c-0.6-0.3-0.9-0.7-0.9-1.2
						c0-0.4,0.1-0.8,0.3-1.1l2.7-4.6l-1-0.6l-2.8,4.8c-0.8,1.3-0.3,2.9,0.9,3.6c0.1,0,0.1,0.1,0.2,0.1c0.7,0.4,1.5,0.5,2.2,0.3
						c0.7-0.2,1.3-0.7,1.6-1.3l2.7-4.8L33.6,85.7z"/>
					<path class="st0" d="M41.3,88.5c-0.1,0.2-0.1,0.4-0.3,0.5c-0.1,0.1-0.3,0.3-0.4,0.3c-0.2,0.1-0.4,0.1-0.6,0.2
						c-0.2,0-0.5,0-0.7-0.1l-0.3,1l1.5,0.4L39,96.3l1.1,0.3l2.1-7.9L41.3,88.5z"/>
					<path class="st0" d="M48.1,91.7c-0.1-0.6-0.3-1.2-0.7-1.7c-0.4-0.5-0.9-0.8-1.5-0.8c-0.7-0.1-1.4,0.1-1.9,0.6
						c-0.6,0.5-0.9,1.1-1,1.9c-0.1,0.7,0,1.4,0.4,2c0.3,0.6,0.9,1.1,1.6,1.2c0.3,0.1,0.7,0,1-0.1c0.3-0.1,0.5-0.3,0.8-0.4
						c0,0.2-0.1,0.4-0.1,0.6c-0.1,0.2-0.2,0.5-0.3,0.7c-0.1,0.3-0.3,0.5-0.5,0.7c-0.2,0.2-0.6,0.3-0.9,0.3c-0.4,0-0.7-0.2-0.9-0.6
						c-0.2-0.3-0.3-0.6-0.3-0.9L42.6,95c0,0.6,0.2,1.2,0.5,1.8c0.3,0.5,0.9,0.9,1.6,1c0.6,0.1,1.1,0,1.6-0.3
						c0.5-0.4,0.9-0.8,1.1-1.4c0.3-0.7,0.5-1.4,0.6-2.2C48.2,93.1,48.2,92.4,48.1,91.7z M46.3,93.3c-0.3,0.3-0.6,0.4-1,0.3
						c-0.4,0-0.7-0.3-0.9-0.6c-0.2-0.4-0.3-0.8-0.2-1.2c0-0.4,0.2-0.8,0.5-1.1c0.3-0.3,0.6-0.4,1-0.3c0.4,0,0.7,0.3,0.9,0.6
						c0.2,0.4,0.3,0.8,0.2,1.2C46.8,92.6,46.6,93,46.3,93.3z"/>
					<path class="st0" d="M54,91.7c-0.2-0.6-0.5-1.1-1-1.5c-0.4-0.4-1-0.6-1.7-0.6c-0.7,0-1.3,0.3-1.8,0.8c-0.5,0.6-0.7,1.3-0.7,2
						c0,0.7,0.2,1.4,0.7,1.9c0.4,0.5,1,0.9,1.7,0.9c0.3,0,0.7-0.1,1-0.2c0.3-0.1,0.5-0.3,0.7-0.5c0,0.2,0,0.4,0,0.6
						c0,0.3-0.1,0.5-0.2,0.8c-0.1,0.3-0.2,0.6-0.4,0.8c-0.2,0.3-0.5,0.4-0.9,0.4c-0.4,0-0.8-0.1-1-0.4c-0.2-0.2-0.4-0.5-0.4-0.8h-1
						c0.1,0.6,0.3,1.2,0.8,1.7c0.4,0.5,1,0.8,1.7,0.7c0.6,0,1.1-0.2,1.5-0.6c0.4-0.4,0.8-0.9,0.9-1.5c0.2-0.7,0.3-1.5,0.3-2.2
						C54.3,93.1,54.2,92.4,54,91.7z M52.5,93.5c-0.4,0.5-1.1,0.6-1.7,0.3c-0.1-0.1-0.2-0.2-0.3-0.3c-0.5-0.7-0.5-1.7,0-2.4
						c0.4-0.5,1.2-0.6,1.8-0.2c0.1,0.1,0.1,0.1,0.2,0.2c0.3,0.3,0.4,0.8,0.4,1.2C52.8,92.8,52.7,93.2,52.5,93.5L52.5,93.5z"/>
					<path class="st0" d="M60.4,94.7c-0.1-0.4-0.2-0.8-0.5-1.1c-0.3-0.3-0.6-0.6-1-0.7c0.2-0.2,0.4-0.4,0.5-0.7
						c0.2-0.4,0.2-0.8,0.2-1.2c-0.1-0.6-0.4-1.1-0.9-1.5c-0.5-0.4-1.1-0.5-1.8-0.4c-0.6,0.1-1.2,0.4-1.6,0.9
						c-0.4,0.5-0.5,1.2-0.4,1.9l1.1-0.2c-0.1-0.3,0-0.7,0.2-1c0.4-0.6,1.2-0.7,1.7-0.4c0,0,0,0,0.1,0c0.4,0.4,0.5,1,0.3,1.5
						c-0.1,0.2-0.2,0.4-0.4,0.5c-0.1,0.1-0.3,0.2-0.4,0.2c-0.2,0.1-0.4,0.1-0.5,0.1l0.2,1.1h0.5c0.2,0,0.3,0,0.5,0
						c0.3,0,0.5,0.2,0.7,0.3c0.2,0.2,0.3,0.4,0.4,0.7c0.1,0.3,0,0.7-0.2,1c-0.5,0.6-1.4,0.7-2,0.3c0,0,0,0,0,0
						c-0.3-0.3-0.5-0.6-0.5-1l-1.1,0.2c0.1,0.7,0.4,1.3,1,1.8c0.5,0.4,1.2,0.6,1.9,0.5c0.7-0.1,1.3-0.4,1.7-1
						C60.4,96,60.5,95.3,60.4,94.7z"/>
					<path class="st0" d="M68.5,90.5l4.4,1.9l1.4-0.7l-5.3-2.5c0.2-0.6,0.4-1.3,0.7-2.1s0.4-1.6,0.7-2.4l-1.4,0.7
						c-0.2,0.8-0.4,1.7-0.7,2.5s-0.6,1.6-0.8,2.3l-1.6-3.3l-1.2,0.6l3.4,7.2l1.2-0.5L68,91.7c0-0.1,0.1-0.3,0.2-0.5L68.5,90.5z"/>
					<path class="st0" d="M79,83.5c-0.6-0.9-1.5-1.6-2.6-1.8c-1-0.2-2.1,0-2.9,0.7c-0.9,0.6-1.4,1.5-1.5,2.5c0,1.1,0.3,2.2,1,3
						c0.6,0.9,1.6,1.6,2.6,1.9c1,0.2,2,0,2.8-0.6c0.9-0.6,1.4-1.5,1.5-2.5C80.1,85.4,79.7,84.3,79,83.5z M77.8,88.1
						c-0.5,0.4-1.2,0.5-1.9,0.3c-0.7-0.3-1.4-0.8-1.8-1.5c-0.5-0.6-0.8-1.3-0.8-2.1c0-1.2,1-2.1,2.2-2.1c0.2,0,0.3,0,0.5,0.1
						c0.7,0.3,1.4,0.7,1.8,1.4c0.5,0.6,0.8,1.4,0.8,2.1C78.7,87.1,78.4,87.8,77.8,88.1z"/>
					<path class="st0" d="M86.3,81.5l1.1-1.2l-4-0.6c0.2-0.5,0.3-1,0.2-1.5c-0.1-0.5-0.3-1-0.7-1.4c-0.5-0.5-1.1-0.7-1.8-0.6
						c-0.7,0.1-1.3,0.5-1.8,1l-2.2,2.4l5.9,5.4l0.9-0.9l-2.3-2.2l1-1L86.3,81.5z M82.3,78.9c0,0.4-0.2,0.7-0.4,1l-1.3,1.4l-1.8-1.7
						l1.3-1.4c0.2-0.3,0.5-0.4,0.9-0.5c0.4-0.1,0.7,0,1,0.3C82.3,78.1,82.4,78.5,82.3,78.9L82.3,78.9z"/>
					<path class="st0" d="M90.5,73.5L88,77.3L86,76l2.3-3.5l-1-0.6L85,75.3l-1.7-1.2l2.4-3.7l-1-0.6l-3,4.7l6.7,4.4l3.1-4.8
						L90.5,73.5z"/>
					<path class="st0" d="M94.7,66.9l0.5-1.2l-8.7-0.1L86,66.9l6.2,6l0.5-1.2l-1.5-1.4l1.4-3.3L94.7,66.9z M90.3,69.4l-2.7-2.6
						l3.7,0.1L90.3,69.4z"/>
				</g>
			</g>
			<g>
				<polygon class="st0" points="5.4,48.1 5.6,46.8 8,47.1 8.3,44.5 5.8,44.3 6,43 12.1,43.7 12,44.9 9.4,44.7 9.1,47.2 11.7,47.5 
					11.6,48.8 				"/>
				<path class="st0" d="M11.9,44.8l0.1-1.1l-5.9-0.6L6,44.2l2.4,0.3l-0.3,2.7l-2.4-0.3L5.6,48l5.9,0.6l0.1-1.1L9,47.3l0.3-2.7
					L11.9,44.8z"/>
				<path class="st0" d="M13.7,37.6l0.4-1.3l-6.6,0.6l-0.3,1.1l5.2,4.1l0.4-1.3l-1.3-1l0.6-2L13.7,37.6z M9.1,37.9
					c0.5,0,1,0,1.4-0.1h0.4L10.6,39l-0.3-0.3C9.9,38.5,9.6,38.2,9.1,37.9z"/>
				<path class="st0" d="M13.7,37.5l0.3-1.1l-6.4,0.5l-0.3,1l5.1,4l0.3-1.1l-1.3-1l0.6-2.2L13.7,37.5z M10.7,39.2l-0.4-0.3
					c-0.4-0.3-0.8-0.6-1.3-1l0,0c0.7,0,1.2,0,1.7-0.1h0.6L10.7,39.2z"/>
				<path class="st0" d="M9.3,31.9l0.6-1.1l3.4-0.5c0.6-0.1,1.1-0.1,1.6-0.2c-0.5-0.3-0.9-0.5-1.2-0.6l-2.5-1.3l0.6-1.1l5.5,2.9
					l-0.6,1.1l-3.4,0.5c-0.5,0.1-1,0.1-1.6,0.2l1.2,0.6l2.5,1.3l-0.6,1.1L9.3,31.9z"/>
				<path class="st0" d="M13.3,31.5l3.3-0.5l0.5-1l-5.3-2.8l-0.5,1l2.4,1.3c0.3,0.2,0.8,0.4,1.5,0.7l0,0c-0.5,0-1.2,0.1-1.9,0.2
					L10,30.8l-0.5,1l5.3,2.8l0.5-1l-2.4-1.2c-0.4-0.2-0.9-0.4-1.5-0.7l0,0C12,31.6,12.7,31.5,13.3,31.5z"/>
				<polygon class="st0" points="17.6,25.2 13.3,24.8 14.1,23.7 17.1,24 16,21.3 16.8,20.3 16.9,20.1 18.4,24.3 20.3,25.7 
					19.5,26.8 				"/>
				<path class="st0" d="M18.3,24.3l-1.4-4l-0.7,1l1,2.8l0,0l-3-0.3l-0.7,1l4.2,0.4l1.9,1.5l0.7-0.9L18.3,24.3z"/>
				<polygon class="st0" points="18.8,18.2 21.7,15.5 22.5,16.3 20.5,18.2 21.4,19.2 23.1,17.6 23.9,18.4 22.1,20 23.1,21.1 
					25.3,19.1 26,20 22.9,22.8 				"/>
				<path class="st0" d="M25.3,19.3l-2.1,2L22,20l1.8-1.6l-0.6-0.7l-1.7,1.6l-1-1.1l2-1.9l-0.6-0.7l-2.8,2.6l4,4.4l3-2.7L25.3,19.3z
					"/>
				<path class="st0" d="M31.3,14.2c-0.1-0.4-0.3-0.8-0.5-1.2c-0.2-0.4-0.5-0.7-0.9-1c-0.3-0.2-0.6-0.4-1-0.6
					c-0.2-0.1-0.5-0.1-0.7-0.1c-0.2,0-0.3,0-0.5,0c-0.4,0.1-0.8,0.2-1.2,0.5c-0.4,0.2-0.7,0.5-0.9,0.9c-0.2,0.3-0.4,0.7-0.5,1.1
					c-0.1,0.4-0.1,0.8,0,1.2c0.1,0.4,0.3,0.8,0.5,1.2c0.2,0.4,0.5,0.7,0.9,1c0.3,0.2,0.6,0.4,1,0.5c0.2,0.1,0.5,0.1,0.7,0.1
					c0.2,0,0.3,0,0.5,0c0.5-0.1,0.9-0.2,1.3-0.5c0.4-0.2,0.7-0.5,1-0.9c0.2-0.3,0.4-0.7,0.4-1.1C31.5,15,31.4,14.6,31.3,14.2z
					 M28.5,16.6c-0.1,0-0.3,0-0.4-0.1c-0.2-0.1-0.4-0.2-0.6-0.4c-0.2-0.2-0.4-0.4-0.6-0.7c-0.2-0.3-0.3-0.5-0.4-0.9
					c0-0.2,0-0.5,0-0.7c0-0.2,0.1-0.4,0.2-0.6c0.1-0.2,0.3-0.3,0.5-0.5c0.2-0.1,0.4-0.2,0.6-0.3c0.1,0,0.2,0,0.2,0
					c0.1,0,0.3,0,0.4,0.1c0.2,0.1,0.5,0.2,0.6,0.4c0.2,0.2,0.4,0.4,0.6,0.7c0.2,0.3,0.3,0.6,0.4,0.9c0.1,0.2,0.1,0.5,0,0.7
					c0,0.2-0.1,0.4-0.2,0.6c-0.1,0.2-0.3,0.3-0.5,0.5c-0.2,0.1-0.4,0.2-0.6,0.3C28.7,16.6,28.6,16.6,28.5,16.6z"/>
				<path class="st0" d="M31.2,14.2c-0.1-0.4-0.3-0.8-0.5-1.2c-0.2-0.4-0.5-0.7-0.8-1c-0.3-0.2-0.6-0.4-1-0.5
					c-0.4-0.1-0.7-0.1-1.1-0.1c-0.4,0.1-0.8,0.2-1.2,0.5c-0.4,0.2-0.7,0.5-0.9,0.9c-0.2,0.3-0.4,0.6-0.4,1c-0.1,0.4-0.1,0.8,0.1,1.2
					c0.1,0.4,0.3,0.8,0.5,1.2c0.2,0.4,0.5,0.7,0.8,1c0.3,0.2,0.6,0.4,1,0.5c0.4,0.1,0.7,0.1,1.1,0c0.4-0.1,0.8-0.2,1.2-0.5
					c0.4-0.2,0.7-0.5,0.9-0.9c0.2-0.3,0.4-0.6,0.4-1C31.3,15,31.3,14.6,31.2,14.2z M30.2,15.3c0,0.2-0.1,0.5-0.2,0.7
					c-0.1,0.2-0.3,0.4-0.5,0.5c-0.2,0.1-0.4,0.2-0.7,0.3c-0.2,0.1-0.5,0.1-0.7,0c-0.2-0.1-0.5-0.2-0.7-0.4c-0.2-0.2-0.5-0.5-0.6-0.7
					c-0.2-0.3-0.3-0.6-0.4-0.9c-0.1-0.2-0.1-0.5-0.1-0.8c0-0.2,0.1-0.5,0.3-0.6c0.1-0.2,0.3-0.4,0.5-0.5c0.2-0.1,0.4-0.2,0.7-0.3
					c0.2-0.1,0.5-0.1,0.7,0c0.2,0.1,0.5,0.2,0.7,0.4c0.2,0.2,0.5,0.5,0.6,0.7c0.2,0.3,0.3,0.6,0.4,0.9
					C30.3,14.8,30.3,15.1,30.2,15.3z"/>
				<path class="st0" d="M32.1,9l1.2-0.4l2.9,1.9c0.5,0.3,0.9,0.6,1.3,0.9c-0.2-0.6-0.4-1-0.5-1.2l-1-2.6l1.2-0.5l2.2,5.8l-1.2,0.4
					l-2.9-1.9c-0.4-0.3-0.8-0.6-1.3-1c0.2,0.5,0.4,0.9,0.5,1.3l1,2.6l-1.2,0.5L32.1,9z"/>
				<path class="st0" d="M35.3,11.3l2.8,1.9l1.1-0.4L37,7.2l-1,0.4l1,2.5c0.1,0.3,0.3,0.9,0.7,1.6l0,0c-0.4-0.4-0.9-0.7-1.5-1.1
					l-2.8-1.9L32.2,9l2.1,5.6l1-0.4l-1-2.5c-0.1-0.4-0.4-0.9-0.7-1.6l0,0C34.3,10.6,34.8,11,35.3,11.3z"/>
				<path class="st0" d="M43.7,11.9c-0.2,0-0.4,0-0.6-0.1c-0.4-0.1-0.8-0.2-1.1-0.4c-0.3-0.2-0.6-0.5-0.8-0.9
					c-0.2-0.4-0.3-0.8-0.4-1.2c0-0.3,0-0.6,0-0.9c0-0.3,0.1-0.6,0.2-0.8c0.1-0.3,0.2-0.5,0.4-0.8c0.2-0.2,0.4-0.4,0.6-0.6
					c0.2-0.2,0.5-0.3,0.8-0.5c0.3-0.1,0.6-0.2,0.9-0.3c0.3-0.1,0.6-0.1,0.9-0.1l0,0c0.2,0,0.5,0,0.7,0h0.1l0.2,1.1h-0.1
					c-0.2,0-0.4,0-0.7,0c-0.2,0-0.5,0-0.7,0.1c-0.3,0-0.6,0.1-0.8,0.3c-0.2,0.1-0.4,0.3-0.6,0.5c-0.2,0.2-0.3,0.5-0.3,0.7
					C42,8.5,42,8.8,42,9.1c0,0.6,0.3,1.1,0.8,1.4c0.3,0.2,0.6,0.3,1,0.3c0.2,0,0.3,0,0.5,0l0.4-0.1l0.3-0.1l-0.2-1.2l-1.3,0.2
					l-0.2-1.1l2.6-0.4l0.5,3.1h-0.1L46,11.4c-0.1,0.1-0.3,0.1-0.4,0.2c-0.2,0.1-0.3,0.1-0.5,0.2c-0.2,0.1-0.4,0.1-0.5,0.1
					C44.2,11.9,43.9,11.9,43.7,11.9z"/>
				<path class="st0" d="M45.7,8.2l-2.4,0.4l0.2,0.9l1.3-0.2l0.2,1.4c-0.1,0-0.2,0.1-0.3,0.1c-0.1,0-0.3,0.1-0.4,0.1
					c-0.5,0.1-1.1,0-1.6-0.3c-0.5-0.4-0.8-0.9-0.8-1.5c-0.1-0.3-0.1-0.7,0-1c0.1-0.3,0.2-0.5,0.4-0.8c0.2-0.2,0.4-0.4,0.6-0.5
					c0.3-0.1,0.6-0.2,0.9-0.3c0.2,0,0.5-0.1,0.7-0.1c0.2,0,0.5,0,0.7,0l-0.2-0.9c-0.2,0-0.5,0-0.7,0c-0.3,0-0.6,0-0.8,0.1
					c-0.3,0.1-0.6,0.1-0.9,0.3c-0.3,0.1-0.5,0.3-0.8,0.4c-0.2,0.2-0.4,0.4-0.6,0.6c-0.2,0.2-0.3,0.5-0.4,0.7
					c-0.1,0.3-0.2,0.5-0.2,0.8c0,0.3,0,0.6,0,0.9c0.1,0.4,0.2,0.8,0.4,1.1c0.2,0.3,0.4,0.6,0.7,0.8c0.3,0.2,0.7,0.4,1.1,0.4
					c0.5,0.1,0.9,0.1,1.4,0c0.2,0,0.4-0.1,0.5-0.1l0.5-0.2l0.4-0.2l0.3-0.2L45.7,8.2z"/>
				<path class="st0" d="M54.4,11.5c-0.1,0-0.3,0-0.4,0c-0.3,0-0.6-0.1-0.8-0.2c-0.2-0.1-0.5-0.2-0.7-0.3c-0.2-0.1-0.3-0.3-0.5-0.5
					c-0.1-0.2-0.2-0.4-0.3-0.6c-0.1-0.2-0.1-0.4-0.1-0.6c0-0.2,0-0.5,0-0.7L52,5l1.3,0.1L53,8.7c-0.1,0.3-0.1,0.7,0,1
					c0.1,0.2,0.2,0.4,0.4,0.6c0.2,0.1,0.5,0.2,0.7,0.2h0.2c0.2,0,0.4,0,0.6-0.1c0.2-0.1,0.4-0.3,0.5-0.5c0.1-0.3,0.2-0.6,0.2-0.9
					l0.3-3.5l1.3,0.1l-0.3,3.6c0,0.2-0.1,0.5-0.1,0.7c0,0.2-0.1,0.4-0.2,0.6c-0.1,0.2-0.2,0.4-0.4,0.6c-0.2,0.2-0.4,0.3-0.6,0.4
					c-0.2,0.1-0.5,0.2-0.7,0.2C54.7,11.5,54.5,11.5,54.4,11.5z"/>
				<path class="st0" d="M56,5.5l-0.4,3.4c0,0.3-0.1,0.7-0.2,1c-0.1,0.2-0.3,0.4-0.5,0.5c-0.2,0.1-0.5,0.1-0.8,0.1
					c-0.3,0-0.5-0.1-0.7-0.2c-0.2-0.1-0.4-0.4-0.4-0.6c-0.1-0.3-0.1-0.7-0.1-1l0.3-3.4l-1.1-0.1l-0.3,3.5c0,0.2,0,0.5,0,0.7
					c0,0.2,0,0.4,0.1,0.6c0.1,0.2,0.1,0.4,0.3,0.6c0.1,0.2,0.3,0.3,0.4,0.5c0.2,0.1,0.4,0.2,0.6,0.3c0.5,0.2,1.1,0.2,1.7,0.1
					c0.2,0,0.5-0.1,0.7-0.2c0.2-0.1,0.4-0.2,0.5-0.4c0.2-0.2,0.3-0.3,0.4-0.5c0.1-0.2,0.1-0.4,0.2-0.5c0.1-0.2,0.1-0.4,0.1-0.7
					L57,5.6L56,5.5z"/>
				<path class="st0" d="M62.8,13.2L61.6,10c-0.2-0.5-0.3-1-0.5-1.6c-0.1,0.6-0.3,1-0.3,1.3L60,12.4l-1.2-0.4l1.7-5.9l1.2,0.3
					l1.2,3.3c0.2,0.6,0.3,1.1,0.5,1.5c0.1-0.6,0.3-1,0.3-1.3l0.8-2.7l1.2,0.4L64,13.6L62.8,13.2z"/>
				<path class="st0" d="M64.5,7.4L63.8,10c-0.1,0.3-0.2,0.9-0.4,1.6l0,0c-0.1-0.5-0.3-1.1-0.5-1.9l-1.1-3.2l-1.1-0.3L58.9,12l1,0.3
					l0.8-2.6c0.1-0.4,0.3-0.9,0.4-1.6l0,0c0.2,0.7,0.4,1.3,0.5,1.9l1.1,3.2l1.1,0.3l1.7-5.7L64.5,7.4z"/>
				
					<rect x="64.9" y="11.3" transform="matrix(0.418 -0.9084 0.9084 0.418 28.6761 68.7441)" class="st0" width="6.2" height="1.3"/>
				<path class="st0" d="M68.8,9.1l-2.5,5.4l1,0.5l2.5-5.4L68.8,9.1z"/>
				<path class="st0" d="M70.9,17l1.3-6.5l1.2,0.7l-0.7,3.2c-0.1,0.4-0.2,0.7-0.2,0.9s-0.1,0.3-0.1,0.4l0.4-0.3l0.7-0.6L76,13
					l1.2,0.7l-5.3,3.9L70.9,17z"/>
				<path class="st0" d="M76,13.1L73.5,15l-0.7,0.6L72.2,16l0,0c0.1-0.3,0.1-0.6,0.2-0.7s0.1-0.4,0.2-0.9l0.7-3.1l-1-0.6L71,17
					l0.8,0.5l5.2-3.8L76,13.1z"/>
				<polygon class="st0" points="75.1,20 79.2,15.4 82.2,18.1 81.5,18.9 79.4,17.1 78.6,18.1 80.3,19.7 79.6,20.5 77.8,18.9 
					76.8,20 79,22 78.2,22.8 				"/>
				<path class="st0" d="M81.5,18.8l0.6-0.7l-2.8-2.6l-4,4.4l3,2.7l0.6-0.7l-2.2-2l1.1-1.3l1.8,1.6l0.6-0.7l-1.8-1.6l1-1.1
					L81.5,18.8z"/>
				<path class="st0" d="M86.4,23.3c-0.1-0.2-0.2-0.4-0.3-0.6c-0.1-0.2-0.3-0.5-0.5-0.7l-1.2-1.5l-4.8,3.8l0.8,1l1.8-1.4l0.4,0.4
					l-0.8,2.8l0.9,1.2l0.8-3c0.3,0.2,0.7,0.4,1.1,0.4c0.4,0,0.8-0.2,1.1-0.4c0.3-0.2,0.5-0.5,0.6-0.9C86.5,24,86.5,23.6,86.4,23.3z
					 M84.1,24.3c-0.1-0.1-0.2-0.2-0.3-0.3c-0.1-0.1-0.3-0.3-0.4-0.5l-0.3-0.3l1.3-1l0.4,0.5c0.1,0.1,0.2,0.3,0.3,0.5
					c0.1,0.1,0.1,0.2,0.2,0.3c0,0.1,0,0.3,0,0.4c-0.1,0.1-0.1,0.2-0.3,0.3c-0.1,0.1-0.3,0.2-0.5,0.2C84.4,24.4,84.2,24.3,84.1,24.3
					L84.1,24.3z"/>
				<path class="st0" d="M86.3,23.3c-0.1-0.2-0.2-0.4-0.3-0.6c-0.1-0.2-0.3-0.5-0.5-0.7l-1.1-1.4l-4.7,3.7l0.7,0.9l1.8-1.4l0.5,0.6
					L81.9,27l0.8,1l0.8-2.9l0,0c0.3,0.3,0.7,0.4,1.2,0.4c0.4,0,0.7-0.2,1-0.4c0.3-0.2,0.5-0.5,0.6-0.8C86.4,24,86.4,23.6,86.3,23.3z
					 M85.3,23.9c-0.1,0.1-0.2,0.3-0.3,0.4c-0.1,0.1-0.3,0.2-0.5,0.2c-0.2,0-0.4,0-0.6-0.1c-0.1-0.1-0.2-0.2-0.3-0.3
					c-0.2-0.1-0.3-0.3-0.4-0.5L83,23.1l1.4-1.1l0.5,0.6c0.1,0.1,0.2,0.3,0.3,0.5c0.1,0.1,0.1,0.2,0.2,0.4
					C85.4,23.6,85.4,23.8,85.3,23.9L85.3,23.9z"/>
				<path class="st0" d="M86.4,32.8c-0.3,0-0.5-0.1-0.7-0.2c-0.3-0.1-0.5-0.3-0.7-0.6c-0.2-0.3-0.4-0.6-0.6-0.9
					c-0.2-0.3-0.3-0.6-0.4-0.9c-0.1-0.3-0.1-0.6-0.2-0.8v-0.1l1-0.5V29c0,0.3,0.1,0.6,0.2,0.9c0.1,0.3,0.2,0.5,0.3,0.8
					c0.1,0.1,0.2,0.3,0.3,0.4c0.1,0.1,0.2,0.2,0.3,0.3c0.1,0.1,0.2,0.1,0.3,0.1l0,0c0.1,0,0.3,0,0.4-0.1c0.1,0,0.2-0.1,0.2-0.2
					c0-0.1,0-0.2,0-0.3c0-0.1,0-0.3-0.1-0.4c0-0.2-0.1-0.3-0.2-0.5s-0.1-0.5-0.2-0.7c0-0.2,0-0.4,0-0.6c0-0.2,0.1-0.4,0.3-0.6
					c0.2-0.2,0.4-0.4,0.6-0.5c0.3-0.1,0.5-0.2,0.8-0.3h0.1c0.2,0,0.4,0,0.7,0.1c0.2,0.1,0.5,0.2,0.7,0.4c0.2,0.2,0.4,0.5,0.5,0.7
					c0.2,0.3,0.3,0.6,0.4,0.9c0.1,0.3,0.2,0.6,0.2,0.9v0.1l-1,0.5v-0.1c0-0.3-0.1-0.6-0.2-0.9c-0.1-0.2-0.2-0.5-0.3-0.7
					c-0.1-0.2-0.3-0.4-0.5-0.6c-0.1,0-0.2-0.1-0.3-0.1c-0.1,0-0.2,0-0.3,0.1c-0.1,0-0.2,0.1-0.2,0.2c-0.1,0.1-0.1,0.2-0.1,0.3
					c0,0.1,0,0.2,0,0.4l0.1,0.5c0.1,0.2,0.1,0.5,0.2,0.7c0,0.2,0,0.5,0,0.7c0,0.2,0,0.4-0.1,0.6c-0.2,0.2-0.4,0.4-0.6,0.5
					C87.1,32.7,86.8,32.8,86.4,32.8L86.4,32.8z"/>
				<path class="st0" d="M90.5,29.5c-0.1-0.3-0.2-0.6-0.4-0.9c-0.1-0.3-0.3-0.5-0.5-0.7c-0.2-0.2-0.4-0.3-0.6-0.4
					c-0.2-0.1-0.5-0.1-0.7-0.1c-0.3,0-0.6,0.1-0.8,0.3c-0.2,0.1-0.4,0.3-0.6,0.5c-0.1,0.2-0.2,0.4-0.2,0.6c0,0.2,0,0.4,0,0.6
					c0,0.2,0.1,0.4,0.2,0.7c0,0.2,0.1,0.3,0.1,0.5c0,0.1,0.1,0.3,0.1,0.5c0,0.1,0,0.2,0,0.4c-0.1,0.1-0.2,0.2-0.3,0.3
					c-0.1,0.1-0.3,0.1-0.4,0.1c-0.1,0-0.3-0.1-0.4-0.1c-0.1-0.1-0.2-0.2-0.3-0.3c-0.1-0.1-0.2-0.3-0.3-0.4c-0.1-0.3-0.3-0.5-0.3-0.8
					c-0.1-0.3-0.1-0.6-0.2-0.9L84,29.5c0,0.3,0.1,0.5,0.1,0.8c0.1,0.3,0.2,0.6,0.4,0.9c0.1,0.3,0.3,0.6,0.5,0.8
					c0.2,0.2,0.4,0.4,0.7,0.5c0.2,0.1,0.5,0.2,0.8,0.2c0.3,0,0.6-0.1,0.8-0.3c0.2-0.1,0.4-0.3,0.6-0.5c0.1-0.2,0.2-0.4,0.2-0.6
					c0-0.2,0-0.4,0-0.7c0-0.2-0.1-0.5-0.2-0.7c0-0.2-0.1-0.3-0.1-0.5c0-0.1,0-0.3,0-0.4c0-0.1,0-0.2,0.1-0.3
					c0.2-0.3,0.6-0.4,0.9-0.3c0.2,0.2,0.4,0.4,0.6,0.6c0.1,0.2,0.2,0.5,0.3,0.7c0.1,0.3,0.1,0.6,0.2,0.9l0.8-0.5
					C90.6,30,90.6,29.7,90.5,29.5z"/>
				
					<rect x="86.6" y="34.3" transform="matrix(0.9307 -0.3659 0.3659 0.9307 -6.5651 35.2159)" class="st0" width="6.2" height="1.3"/>
				<path class="st0" d="M92.2,33.3l-5.6,2.2l0.4,1l5.6-2.2L92.2,33.3z"/>
				<polygon class="st0" points="93.4,40.2 88.4,41.4 88.1,40.2 93,39 92.6,37.1 93.7,36.8 94.9,41.8 93.8,42 				"/>
				<path class="st0" d="M93.6,36.9l-0.9,0.2l0.5,1.8l-4.9,1.2l0.3,1l4.9-1.2l0.5,1.9l0.9-0.2L93.6,36.9z"/>
				<polygon class="st0" points="91.9,47.7 89.4,47.9 89.3,46.7 91.8,46.5 95.3,43.8 95.4,45.2 93,47 95.6,48.3 95.7,49.6 
					95.8,49.8 				"/>
				<path class="st0" d="M95.5,48.4L92.8,47l0,0l2.4-1.8L95.2,44l-3.4,2.5l-2.4,0.2l0.1,1.1l2.4-0.2l3.7,2L95.5,48.4z"/>
			</g>
		</g>
	</g>
</g>
</svg>
