<svg xmlns="http://www.w3.org/2000/svg" viewBox="0 0 265.07 50.7">
  <defs>
    <style>
      .cls-1 {
        fill: #fff;
      }
    </style>
  </defs>
  <g id="Layer_2" data-name="Layer 2">
    <g id="Layer_1-2" data-name="Layer 1">
      <g>
        <path class="cls-1" d="M58.35,5H78.57V8.35q0,8.53-6.19,13.38a21.17,21.17,0,0,1-12.93,4.94l-3.74-2.59A19.06,19.06,0,0,0,67,19.71,13.06,13.06,0,0,0,71.38,9.3V8.8h-13Zm33,24V45.43H68a4.65,4.65,0,0,1-3.42-1.25,4.3,4.3,0,0,1-1.28-3.24V29ZM84.61,41.59V32.86H70.08v8.73Zm6.73-15.52H84.61v-22h6.73Z"/>
        <path class="cls-1" d="M113.76,12.54a9.61,9.61,0,0,1,3.49,3.22,8.37,8.37,0,0,1,1.34,4.62,8.78,8.78,0,0,1-2.87,6.56,10.1,10.1,0,0,1-13.9,0,8.8,8.8,0,0,1-2.89-6.56,8.37,8.37,0,0,1,1.34-4.62,9.56,9.56,0,0,1,3.5-3.22H98.88V8.8h6.54V3.86h6.64V8.8h6.58v3.74Zm-7.67,3.82a7.05,7.05,0,0,0-1.12,4,7,7,0,0,0,1.12,4A3.2,3.2,0,0,0,108.76,26a3.12,3.12,0,0,0,2.67-1.67,7.25,7.25,0,0,0,1.07-4,7.35,7.35,0,0,0-1.07-4,3.15,3.15,0,0,0-2.67-1.67A3.22,3.22,0,0,0,106.09,16.36Zm14.15,29.07V4.11h6.33V15.34h2.8V4.11h6.34V45.43h-6.34V19.13h-2.8v26.3Z"/>
        <path class="cls-1" d="M161.47,45.43V29.16a8.44,8.44,0,0,1-2.15,1,10.36,10.36,0,0,1-3.15.42h-8.48a4.72,4.72,0,0,1-3.4-1.2,4.2,4.2,0,0,1-1.24-3.19V5.65h15V9.5h-8.38V26.77h6.73a13.72,13.72,0,0,0,3-.28,11.53,11.53,0,0,0,2.05-.62V4.11h6.39V15.34h4V4.11h6.39V45.43h-6.39V19.13h-4v26.3Z"/>
        <path class="cls-1" d="M203.24,12a9.08,9.08,0,0,1,2.49,3,8,8,0,0,1,.9,3.74,8.56,8.56,0,0,1-3,6.54,11.06,11.06,0,0,1-14.6,0,8.55,8.55,0,0,1-3-6.54,8,8,0,0,1,.9-3.74,9.17,9.17,0,0,1,2.44-3h-4.94V8.35h8.54V3.41h6.73V8.35h8.54V12Zm8.48,22.56H188.81V30.81h29.65V45.38h-6.74ZM193.56,14.77a6.68,6.68,0,0,0-1.2,4,6.8,6.8,0,0,0,1.2,4,3.08,3.08,0,0,0,5.51,0,6.93,6.93,0,0,0,1.18-4,6.81,6.81,0,0,0-1.18-4,3.1,3.1,0,0,0-5.51,0Zm24.9-2.23h6.74v3.85h-6.74V28.07h-6.74v-24h6.74Z"/>
        <path class="cls-1" d="M241.32,18.88V35.5h3.34V18.88h6.49V35.5h13.92v3.8H228.24V35.5h6.59V18.88Zm-10-14.17h29.79V20.28a34.38,34.38,0,0,1-.67,7.24,16.25,16.25,0,0,1-1.88,5H252.6a12,12,0,0,0,1.57-5.14c.18-2,.28-4.54.28-7.63V8.55H231.29Z"/>
      </g>
      <g>
        <path class="cls-1" d="M25,9.68h.07a39.34,39.34,0,0,1,5.91.76l-.61,3,.36.06a34.19,34.19,0,0,1,6.08,2l0,8.38s0,.35,0,.35a17.94,17.94,0,0,1-1.25,6.29A16.26,16.26,0,0,1,25,40.11h0a16.24,16.24,0,0,1-10.52-9.67,17.8,17.8,0,0,1-1.23-6.29v-.31s0-8,0-8.43a36.16,36.16,0,0,1,6.09-1.95l.36-.06-.6-3A40.52,40.52,0,0,1,25,9.68M25,9a41.25,41.25,0,0,0-6.12.77l-.63.12s.49,2.45.59,3a38.59,38.59,0,0,0-5.92,1.94l-.39.17,0,8.87s0,.34,0,.34a18.64,18.64,0,0,0,1.28,6.55,16.94,16.94,0,0,0,11,10.09l.06,0h.29l.09,0a16.88,16.88,0,0,0,11-10,18.54,18.54,0,0,0,1.3-6.55v-.36l0-8.84-.39-.17a37,37,0,0,0-5.92-2l.61-3-.64-.12A40.75,40.75,0,0,0,25.07,9H25Z"/>
        <path class="cls-1" d="M25,10.57h.06a32.49,32.49,0,0,1,4.87.58c-.07.31-.61,3-.61,3l1.25.24a32,32,0,0,1,5.35,1.69l0,7.8v.34a16.84,16.84,0,0,1-1.19,6,15.32,15.32,0,0,1-9.75,9,15.31,15.31,0,0,1-9.7-9,16.89,16.89,0,0,1-1.17-5.94v-.33s0-6.86,0-7.83a31.71,31.71,0,0,1,5.36-1.67l1.25-.23s-.54-2.66-.6-3A34.45,34.45,0,0,1,25,10.57m0-.36h0a37.08,37.08,0,0,0-5.11.59l-.18,0,.59,3-.88.17a31.44,31.44,0,0,0-5.54,1.74l-.12,0v8.39a17.26,17.26,0,0,0,1.19,6.08,15.68,15.68,0,0,0,10,9.29H25a15.71,15.71,0,0,0,10-9.25,17.32,17.32,0,0,0,1.22-6.09v-.34l0-8-.11-.05A33.41,33.41,0,0,0,30.63,14l-.89-.17c.07-.31.61-3,.61-3l-.18,0a35.11,35.11,0,0,0-5.11-.61Z"/>
        <polygon class="cls-1" points="33.14 27.49 31.38 27.49 31.39 22.62 26.52 22.61 26.51 27.48 24.75 27.48 24.77 16.64 26.53 16.64 26.52 21.12 31.39 21.13 31.4 16.65 33.16 16.66 33.14 27.49"/>
        <path class="cls-1" d="M23.76,24.44v1.78a4,4,0,0,0-2.18,3.6,4.08,4.08,0,0,0,4.05,4.07,4,4,0,0,0,2.88-1.17,4,4,0,0,0,.57-5.06,4,4,0,0,0-1.53-1.41V24.46a6,6,0,0,1,2.74,2.12,5.62,5.62,0,0,1-.62,7.27,5.7,5.7,0,0,1-8.06,0A5.59,5.59,0,0,1,21,26.59a6.15,6.15,0,0,1,2.77-2.15"/>
        <path class="cls-1" d="M20.7,25.85a4.2,4.2,0,0,1-1.28-.31,4.37,4.37,0,0,1-1.33-.87,3.53,3.53,0,0,1-.84-1.27A4.13,4.13,0,0,1,17,21.86a3.74,3.74,0,0,1,.31-1.48,3.88,3.88,0,0,1,.93-1.3,3.79,3.79,0,0,1,1.26-.81A4.15,4.15,0,0,1,21,18a4.24,4.24,0,0,1,1.71.33,3.51,3.51,0,0,1,1.35,1h0V17a6,6,0,0,0-3-.72,6.71,6.71,0,0,0-2.31.36,5.54,5.54,0,0,0-1.89,1.19,5.76,5.76,0,0,0-1.34,1.83,5.21,5.21,0,0,0-.45,2.15,5.81,5.81,0,0,0,.37,2.08,5.3,5.3,0,0,0,1.1,1.74,6,6,0,0,0,2,1.39,5.48,5.48,0,0,0,1.17.37,6.79,6.79,0,0,1,.71-1.25,4.19,4.19,0,0,1,.26-.33m.1-2.39h3.27V21.83H20.8Z"/>
        <g>
          <path class="cls-1" d="M17.49,44.46a.34.34,0,0,0-.22-.29.35.35,0,0,0-.36.06.85.85,0,0,0-.3.39.88.88,0,0,0-.05.48.42.42,0,0,0,.22.3.37.37,0,0,0,.36-.07.79.79,0,0,0,.29-.38A.85.85,0,0,0,17.49,44.46Z"/>
          <path class="cls-1" d="M32.47,6.07A.9.9,0,0,0,33.4,6a1.83,1.83,0,0,0,.72-1.73.86.86,0,0,0-.6-.71.88.88,0,0,0-.93.07,1.78,1.78,0,0,0-.59.76,1.72,1.72,0,0,0-.13,1A.91.91,0,0,0,32.47,6.07Z"/>
          <path class="cls-1" d="M31.54,46.28a.4.4,0,0,0,.22-.31.85.85,0,0,0-.06-.49.77.77,0,0,0-.31-.37.36.36,0,0,0-.6.25.85.85,0,0,0,.06.49.8.8,0,0,0,.32.38A.39.39,0,0,0,31.54,46.28Z"/>
          <rect class="cls-1" x="10.53" y="42.74" width="1.02" height="1.7" transform="translate(-30.04 25.31) rotate(-51.8)"/>
          <polygon class="cls-1" points="16.54 5.66 15.42 4.48 15.42 4.48 15.41 4.48 15.55 6.11 16.54 5.66"/>
          <path class="cls-1" d="M25.4,0A25.35,25.35,0,1,0,50.7,25.4,25.35,25.35,0,0,0,25.4,0ZM45,12.89a1.51,1.51,0,0,1,1.07.86,1.7,1.7,0,0,1,.2,1.05,1.26,1.26,0,0,1-.57.87l-.29-.55a.68.68,0,0,0,.33-.52,1.05,1.05,0,0,0-.12-.62.9.9,0,0,0-.76-.54,1.9,1.9,0,0,0-1,.2,1.81,1.81,0,0,0-.71.66.89.89,0,0,0,0,.93.94.94,0,0,0,.57.54,1,1,0,0,0,.76-.1l-.44-.84.42-.22.7,1.35-1.67.86-.18-.35.33-.28a1.49,1.49,0,0,1-.58-.26,1.32,1.32,0,0,1-.37-.46,1.55,1.55,0,0,1-.08-1.37,1.93,1.93,0,0,1,1-1A2,2,0,0,1,45,12.89Zm-.71-1.71-.42.34L42.66,10l-.72.59L43.08,12l-.39.33-1.14-1.4-.81.67L42,13.13l-.42.34-1.65-2,2.76-2.26ZM39.68,6.47l.48.4L38.21,9.19l1.38,1.17-.34.41L37.38,9.2ZM36.85,4.65,35.3,7.25l1.56.93-.28.46L34.49,7.39l1.83-3.06Zm-5.43-.5a2,2,0,0,1,.93-1,1.53,1.53,0,0,1,1.37,0,1.58,1.58,0,0,1,1,1,2.06,2.06,0,0,1-.1,1.4,2,2,0,0,1-.92,1,1.52,1.52,0,0,1-1.38,0,1.55,1.55,0,0,1-.94-1A2,2,0,0,1,31.42,4.15Zm-4.17-.71a2.08,2.08,0,0,1,.67-1.23,1.54,1.54,0,0,1,1.33-.33,1.64,1.64,0,0,1,1,.49,1.18,1.18,0,0,1,.33,1l-.62-.1a1,1,0,0,0-.2-.55.83.83,0,0,0-.56-.3.89.89,0,0,0-.88.28,1.67,1.67,0,0,0-.41.88,1.77,1.77,0,0,0,.09,1,.88.88,0,0,0,.75.55.76.76,0,0,0,.68-.16,1.09,1.09,0,0,0,.37-.61l.61.11a1.51,1.51,0,0,1-.63.95,1.45,1.45,0,0,1-1.11.22,1.54,1.54,0,0,1-1.15-.76A2,2,0,0,1,27.25,3.44ZM21.08,2l.12.52L19.31,3l.22.91,1.75-.41L21.4,4l-1.75.42.24,1,1.92-.45.13.52-2.54.6-.82-3.47ZM15.47,3.78l2.72,2.69-.61.28L16.89,6l-1.3.59.08,1-.59.26-.22-3.82ZM10.12,7.06,11,8.2l1.3-1-.85-1.14.5-.37,2.14,2.86-.5.37-1-1.29-1.3,1,1,1.29-.5.38L9.62,7.44ZM6.34,10.92,9.08,12h0L7.63,9.46,8.2,8.8l2.68,2.37-.39.44L8.42,9.79h0l1.41,2.56-.34.39L6.77,11.67h0L8.83,13.5l-.4.45L5.75,11.58ZM4.73,13.5l3.1,1.76-.31.55L4.42,14Zm.09,20.15A.83.83,0,0,1,4,32.82.84.84,0,0,1,4.82,32a.85.85,0,0,1,.84.84A.84.84,0,0,1,4.82,33.65Zm1.83-16-.42-.09a1.33,1.33,0,0,1,0,1.19,1.57,1.57,0,0,1-1,.9,2,2,0,0,1-1.38-.15,2,2,0,0,1-1-1,1.53,1.53,0,0,1,0-1.38,1.79,1.79,0,0,1,.72-.79,1.21,1.21,0,0,1,1-.07l-.26.55a.74.74,0,0,0-.62.06,1,1,0,0,0-.41.47.88.88,0,0,0,0,.93,1.74,1.74,0,0,0,.74.63,1.7,1.7,0,0,0,1,.17.88.88,0,0,0,.73-.57.89.89,0,0,0-.46-1.32L4.9,18l-.43-.2.65-1.38,1.7.8Zm5.09,27.74L9.59,43.67a.54.54,0,0,1-.22-.36.52.52,0,0,1,.11-.39l.87-1.1,2.57,2Zm-.39-5.76.27-.34,1.86,1.46-.24.3a1.87,1.87,0,0,1-1.54.79,2.44,2.44,0,0,1-1.54-.48L10,40.82a2.22,2.22,0,0,0,1.35.41,1.51,1.51,0,0,0,1.16-.64l0,0Zm1.79,4-.62-.49,1.58-2,.62.49Zm3.48,2.22a1.14,1.14,0,0,1-.63-.61,1,1,0,0,1,0-.84,1,1,0,0,1,.35-.44,1.18,1.18,0,0,1,.52-.2l-.54-.21.17-.41.71.29.21-.54.72.29-.21.54.71.29-.16.4-.53-.21a1.11,1.11,0,0,1,.24.5.9.9,0,0,1-.06.56,1,1,0,0,1-.59.59A1.12,1.12,0,0,1,16.62,45.8Zm2.24,2.88-.69-.28,1.15-2.86L19,45.42l-1.14,2.86L17.18,48,19,43.52l.69.27L19.18,45l.3.12L20,43.91l.69.28Zm8,.93h-.75l0-3.08h-.46l0,3.08h-.75v-1.9a1,1,0,0,1-.25.12,1,1,0,0,1-.37,0h-1a.54.54,0,0,1-.4-.15.5.5,0,0,1-.14-.37l0-2.41,1.76,0v.45h-1v2h.79a1.3,1.3,0,0,0,.35,0l.24-.08V44.76h.75v1.32h.47V44.77h.75Zm3.3-3.47a.84.84,0,0,1-.08-.44,1.06,1.06,0,0,1,.12-.43l-.53.23-.17-.4.92-.4-.23-.53.72-.31.23.53.91-.4.18.4-.53.23a1.08,1.08,0,0,1,.4.2,1,1,0,0,1,.27.36,1,1,0,0,1,0,.85,1.21,1.21,0,0,1-.65.63,1.2,1.2,0,0,1-.91,0A.94.94,0,0,1,30.17,46.14Zm3.91-.51-.72.32-1.11-2.58.72-.32.39.92.73-.32.18.42-.73.31Zm.09,2.17-.5-1.15-2.46,1.06L31,47.3l3.18-1.37.68,1.56Zm1.54-5.59,2.72-2.09,1.11,1.45a3.87,3.87,0,0,1,.46.72,1.94,1.94,0,0,1,.19.6l-.54.42a1.37,1.37,0,0,0-.23-.59c-.12-.2-.3-.44-.52-.73l-.8-1L36,42.57Zm2.2,3.44-.27-.35.6-.47-1.19-1.54.59-.46,1.19,1.55.31-.24L38,42.6l.59-.46,1.19,1.55,1.27-1,.27.35ZM25.23,43.53A18.35,18.35,0,1,1,43.62,25.22,18.35,18.35,0,0,1,25.23,43.53ZM46,33.65a.84.84,0,1,1,.84-.83A.84.84,0,0,1,46,33.65Zm1.08-16.31-.89.3.57,1.71-.49.16-.56-1.71-1,.33L45.31,20l-.51.17L44,17.71l3.38-1.13L48.18,19l-.52.17Z"/>
        </g>
      </g>
    </g>
  </g>
</svg>
