<svg xmlns="http://www.w3.org/2000/svg" viewBox="0 0 441.22 105.97">
  <defs>
    <style>
      .cls-1 {
        fill: #fff;
      }
    </style>
  </defs>
  <g id="Layer_2" data-name="Layer 2">
    <g id="Layer_1-2" data-name="Layer 1">
      <g>
        <g>
          <path class="cls-1" d="M5.54,46.54A4.56,4.56,0,0,1,6,45.12a3.14,3.14,0,0,1,2.15-1.66,4.27,4.27,0,0,1,1.68,0,4.58,4.58,0,0,1,1.48.46,3.27,3.27,0,0,1,1.1.87A3.21,3.21,0,0,1,13,46a4.2,4.2,0,0,1,0,1.67l-.54,3.51L5,50.05Zm6.12,1.07a2.49,2.49,0,0,0,0-.77,1.75,1.75,0,0,0-.29-.71,2,2,0,0,0-.63-.56,2.78,2.78,0,0,0-1-.33,4.13,4.13,0,0,0-1,0,2,2,0,0,0-.85.27,1.82,1.82,0,0,0-.61.65,3,3,0,0,0-.34,1.08l-.2,1.28,4.74.72Z"/>
          <path class="cls-1" d="M9.23,39.67a3.86,3.86,0,0,1-.91-1.19A3.67,3.67,0,0,1,8,37a4.34,4.34,0,0,1,.3-1.7,4.59,4.59,0,0,1,.89-1.5,3.56,3.56,0,0,1,2.71-1.18,4.24,4.24,0,0,1,1.58.29,4.29,4.29,0,0,1,1.36.8,3.54,3.54,0,0,1,.9,1.18A3.61,3.61,0,0,1,16,36.36a4.92,4.92,0,0,1-1.19,3.19,3.55,3.55,0,0,1-1.23.9,3.69,3.69,0,0,1-1.45.31,4.5,4.5,0,0,1-1.55-.28A4.66,4.66,0,0,1,9.23,39.67ZM12.17,39a2.46,2.46,0,0,0,.9-.07,1.91,1.91,0,0,0,.79-.45,2.59,2.59,0,0,0,.72-1.94,1.89,1.89,0,0,0-.31-.85,2.29,2.29,0,0,0-.63-.65,3.86,3.86,0,0,0-.83-.44,4,4,0,0,0-1-.22,2.55,2.55,0,0,0-.92.07,2,2,0,0,0-.79.44,2.29,2.29,0,0,0-.57.9,2.21,2.21,0,0,0-.15,1,1.92,1.92,0,0,0,.3.86,2.55,2.55,0,0,0,.66.65,3.36,3.36,0,0,0,.86.45A3.72,3.72,0,0,0,12.17,39Z"/>
          <path class="cls-1" d="M12.88,26.22l6.15,0,0,0-4.23-2.87L15.77,22l6.3,4.26-1,1.5-6.14,0,0,0,4.22,2.86L18.18,32l-6.31-4.26Z"/>
          <path class="cls-1" d="M27.62,20.87a3.25,3.25,0,0,1-.76.95,4.57,4.57,0,0,1-1.49.87,3.56,3.56,0,0,1-2.93-.25,4.43,4.43,0,0,1-1.22-1,4.59,4.59,0,0,1-.81-1.39,3.65,3.65,0,0,1-.22-1.49,3.46,3.46,0,0,1,.41-1.47,4.68,4.68,0,0,1,2.14-2,3.44,3.44,0,0,1,1.15-.3,3,3,0,0,1,1.15.13,2.7,2.7,0,0,1,1,.63l-1.32,1.12a1.64,1.64,0,0,0-1.09-.33,1.93,1.93,0,0,0-1.06.48,2.33,2.33,0,0,0-.65.84,1.89,1.89,0,0,0-.14.9,2.36,2.36,0,0,0,.24.88,3.75,3.75,0,0,0,.54.82,3.2,3.2,0,0,0,.7.63,2.44,2.44,0,0,0,.82.38,2,2,0,0,0,.9,0,2.19,2.19,0,0,0,.94-.51,2.07,2.07,0,0,0,.78-1.22,1.75,1.75,0,0,0-.36-1.3L25,19.41l-.81-.95,2.63-2.24,2.67,3.14-.88.75-.7-.54A2.8,2.8,0,0,1,27.62,20.87Z"/>
          <path class="cls-1" d="M35.42,14.5a1.9,1.9,0,0,1,0,.92,2.25,2.25,0,0,1-.46,1,3.41,3.41,0,0,1-1.2.87,3.74,3.74,0,0,1-1,.32,2.76,2.76,0,0,1-1,0,2.19,2.19,0,0,1-.87-.38,2.34,2.34,0,0,1-.68-.87l-.29-.59L31.52,15l.15.31a2.72,2.72,0,0,0,.27.44.94.94,0,0,0,.32.28.74.74,0,0,0,.4.1,1.27,1.27,0,0,0,.51-.14,1.09,1.09,0,0,0,.44-.35.61.61,0,0,0,.12-.4,1.24,1.24,0,0,0-.08-.41c0-.13-.11-.26-.17-.38L31.22,9.84,32.85,9l2.29,4.69A4.29,4.29,0,0,1,35.42,14.5Z"/>
          <path class="cls-1" d="M44.66,12.91a4.1,4.1,0,0,1-2.35,1.31,4,4,0,0,1-2.69-.15,2.84,2.84,0,0,1-1.41-2L37.15,7.41,38.92,7,40,11.62a2.81,2.81,0,0,0,.19.58,1.15,1.15,0,0,0,.35.46,1.32,1.32,0,0,0,.59.25,2,2,0,0,0,.89-.06,1.77,1.77,0,0,0,1.21-.68,1.81,1.81,0,0,0,.08-1.31L42.23,6.25,44,5.84l1.06,4.62A2.8,2.8,0,0,1,44.66,12.91Z"/>
          <path class="cls-1" d="M59,7.64a1.78,1.78,0,0,0-.37-.45,2.09,2.09,0,0,0-1.15-.48,2.29,2.29,0,0,0-1,.14,1.9,1.9,0,0,0-.74.53,2.65,2.65,0,0,0-.45.81,4,4,0,0,0-.15,1.9,2.76,2.76,0,0,0,.32.84,2.06,2.06,0,0,0,.65.63,2.19,2.19,0,0,0,1,.3,1.74,1.74,0,0,0,1.33-.37,2,2,0,0,0,.67-1.19l1.74.14a3.63,3.63,0,0,1-.45,1.26,3.17,3.17,0,0,1-2,1.45,4.55,4.55,0,0,1-1.4.11,4.62,4.62,0,0,1-1.68-.44,3.61,3.61,0,0,1-1.2-.94,3.44,3.44,0,0,1-.69-1.31A4.27,4.27,0,0,1,53.27,9a4.6,4.6,0,0,1,.4-1.55,3.62,3.62,0,0,1,.89-1.21,3.53,3.53,0,0,1,1.34-.75,4.37,4.37,0,0,1,1.72-.18,4.63,4.63,0,0,1,1.26.28,3.7,3.7,0,0,1,1,.61,3.06,3.06,0,0,1,.72.92,3,3,0,0,1,.3,1.2l-1.75-.14A1.3,1.3,0,0,0,59,7.64Z"/>
          <path class="cls-1" d="M64.69,8.7a3.64,3.64,0,0,1,1.14-1A3.75,3.75,0,0,1,67.3,7.3,4.53,4.53,0,0,1,69,7.52a4.46,4.46,0,0,1,1.53.82A3.63,3.63,0,0,1,71.86,11a4.42,4.42,0,0,1-.21,1.59,4.36,4.36,0,0,1-.74,1.4,3.58,3.58,0,0,1-1.14.95,3.64,3.64,0,0,1-1.46.41,4.6,4.6,0,0,1-1.72-.22,4.51,4.51,0,0,1-1.52-.81,3.68,3.68,0,0,1-1-1.18,3.75,3.75,0,0,1-.38-1.44,4.26,4.26,0,0,1,.21-1.56A4.24,4.24,0,0,1,64.69,8.7Zm.81,2.9a2.26,2.26,0,0,0,.12.9,1.82,1.82,0,0,0,.48.76,2.21,2.21,0,0,0,.92.53,2.31,2.31,0,0,0,1,.1,2,2,0,0,0,.84-.34,2.57,2.57,0,0,0,.61-.66,3.37,3.37,0,0,0,.4-.86,3.88,3.88,0,0,0,.18-1,2.5,2.5,0,0,0-.11-.91,2.08,2.08,0,0,0-.48-.77,2.16,2.16,0,0,0-.92-.52,2.23,2.23,0,0,0-1.06-.11,1.87,1.87,0,0,0-.83.35,2.57,2.57,0,0,0-.63.68,4.26,4.26,0,0,0-.41.89A3.62,3.62,0,0,0,65.5,11.6Z"/>
          <path class="cls-1" d="M78.26,11.85,75,17.13l3.41,2.11-.74,1.2-4.94-3.07,4-6.47Z"/>
          <path class="cls-1" d="M86.1,17.8l-4.37,4.41L84.57,25l-1,1-4.13-4.09,5.37-5.41Z"/>
          <path class="cls-1" d="M94.73,29l-1.19.76-2.33-3.67L89.83,27,92,30.31l-1.1.7-2.14-3.37-1.57,1,2.38,3.75-1.19.75L85,27.87l6.43-4.08Z"/>
          <path class="cls-1" d="M91.18,40a3.13,3.13,0,0,1-.62-1,4.58,4.58,0,0,1-.29-1.7,3.63,3.63,0,0,1,.36-1.48,3.78,3.78,0,0,1,.91-1.17,4.11,4.11,0,0,1,1.37-.78,4.22,4.22,0,0,1,1.58-.28,3.84,3.84,0,0,1,1.47.32,3.46,3.46,0,0,1,1.23.91,4.28,4.28,0,0,1,.87,1.49,4.35,4.35,0,0,1,.25,1.22,3.57,3.57,0,0,1-.13,1.18,2.86,2.86,0,0,1-.52,1,2.75,2.75,0,0,1-1,.74l-.58-1.62a1.64,1.64,0,0,0,.69-.91,1.88,1.88,0,0,0-.08-1.16,2.22,2.22,0,0,0-.55-.9,2,2,0,0,0-.79-.46,2.53,2.53,0,0,0-.92-.08,3.54,3.54,0,0,0-1,.22,3.7,3.7,0,0,0-.84.43,2.29,2.29,0,0,0-.64.64,1.93,1.93,0,0,0-.31.84,2.23,2.23,0,0,0,.15,1.05,2,2,0,0,0,.86,1.17,1.77,1.77,0,0,0,1.34.12l-.61-1.71,1.17-.42,1.17,3.25-3.87,1.39-.39-1.08.75-.47A2.67,2.67,0,0,1,91.18,40Z"/>
          <path class="cls-1" d="M101,50l-1.39.22L99,45.89l-1.62.25.61,3.94-1.29.2-.6-3.94-1.85.28L94.87,51l-1.39.22L92.54,45l7.52-1.15Z"/>
        </g>
        <path class="cls-1" d="M53,106A53,53,0,0,1,15.52,15.52,53,53,0,1,1,53,106ZM53,1.46a51.53,51.53,0,0,0-36.43,88,51.52,51.52,0,0,0,88-36.43A51.52,51.52,0,0,0,53,1.46Z"/>
        <g>
          <path class="cls-1" d="M62.58,82.78c-.36.24-8.28,4.91-9.55,4.91s-9.22-5-9.22-5V27.17H40.65V82.65c.67.72,8.92,6.49,12.38,6.49s12.5-6.36,12.5-6.36V27.3h-3Z"/>
          <polygon class="cls-1" points="45.2 49.83 48 49.83 48 30.88 49.57 30.88 49.57 49.83 52.37 49.83 52.37 30.88 53.94 30.88 53.94 49.83 56.73 49.83 56.73 30.88 58.32 30.88 58.32 49.83 61.11 49.83 61.11 27.3 61.05 27.3 58.32 27.3 56.73 27.3 55.59 27.3 55.59 23.78 50.49 23.78 50.49 27.3 49.57 27.3 48 27.3 45.2 27.3 45.2 27.3 45.2 49.83"/>
          <path class="cls-1" d="M39.22,27.17H26.05C25,30.58,19.92,47.45,20.28,53.63c1.06,17.49,13.91,26.13,18.94,29Z"/>
          <path class="cls-1" d="M79.93,27.17H67V82.46c5.19-3,17.63-11.64,18.67-28.83C86.06,47.45,81,30.58,79.93,27.17Z"/>
        </g>
        <g>
          <path class="cls-1" d="M40.19,91.28l.24,0c1.58.39,2.2-.33,2.4-.94l1.35.33-2,8.35-1.65-.4,1.41-5.75-2-.49Z"/>
          <path class="cls-1" d="M47.51,97.94h0a.91.91,0,0,0,.91.94c.7.06,1.46-.47,1.63-2.26l0,0a1.87,1.87,0,0,1-1.7.58A2.54,2.54,0,0,1,46,94.27a2.76,2.76,0,0,1,3.2-2.82c3,.25,2.73,3.47,2.62,4.67-.29,3.32-2,4.26-3.5,4.12a2.47,2.47,0,0,1-2.46-2.44Zm1.3-2.08a1.26,1.26,0,0,0,1.37-1.32c.09-1-.28-1.62-1.14-1.71-.44,0-1.25.11-1.35,1.35S48.17,95.8,48.81,95.86Z"/>
          <path class="cls-1" d="M58.66,92.81A11.75,11.75,0,0,0,56,100.14l-1.75.1a12.13,12.13,0,0,1,2.65-7.12l-4.26.25-.06-1.5,6-.36Z"/>
          <path class="cls-1" d="M63.66,99.34c-2.17.46-3.22-.79-3.46-1.94A2.18,2.18,0,0,1,61,95a1.76,1.76,0,0,1-1.38-1.43,2.43,2.43,0,0,1,2.13-2.86c1.75-.37,2.89.45,3.14,1.62a1.83,1.83,0,0,1-.61,1.9A2.06,2.06,0,0,1,66,96,2.79,2.79,0,0,1,63.66,99.34Zm-.29-6.51A1,1,0,0,0,62.16,92a1,1,0,0,0-.91,1.28,1,1,0,0,0,1.3.8A1,1,0,0,0,63.37,92.83Zm-.59,2.54a1.18,1.18,0,0,0-.9,1.56,1.24,1.24,0,1,0,.9-1.56Z"/>
        </g>
        <g>
          <polygon class="cls-1" points="9.16 56.35 10.16 58.37 12.38 58.69 10.77 60.26 11.15 62.47 9.16 61.43 7.18 62.47 7.55 60.26 5.95 58.69 8.17 58.37 9.16 56.35"/>
          <polygon class="cls-1" points="96.81 56.35 97.8 58.37 100.02 58.69 98.41 60.26 98.8 62.47 96.81 61.43 94.82 62.47 95.2 60.26 93.59 58.69 95.81 58.37 96.81 56.35"/>
        </g>
      </g>
      <g>
        <path class="cls-1" d="M141.32,53.78a15.61,15.61,0,1,0,28.08-9.33h14V38H160.63V32.82h20.93V26.48H139.68V22h41.86V15.55H132.31V26.84s-.34,6,5.33,6h15.62V38H130.42v6.45h14A15.45,15.45,0,0,0,141.32,53.78ZM156.92,45a8.82,8.82,0,1,1-8.81,8.82A8.83,8.83,0,0,1,156.92,45ZM217.4,68.88h7.25V51.58h22.94V45h-53v6.56H217.4Zm72.91-17V68.51h6.79V22h5.76V68.56h6.91v-53H290.31V45.38H268V22h16.55V15.55H260.6V45.87s-.31,6,5.26,6ZM221.05,30.32q3.12,4.32,11.34,6.2A72.34,72.34,0,0,0,245.67,38v-6.4q-9.07-.32-13.72-2.06-5.89-2.32-6.08-7.4h19.8V15.55H196.42v6.56h19.8q-.18,5.07-6.08,7.4-4.71,1.81-13.72,2.06V38a72.25,72.25,0,0,0,13.09-1.45Q217.93,34.65,221.05,30.32Zm153-8.28h7.39V15.59l-14.76,0V42.88h7.37Zm-45.56,7.79a13.77,13.77,0,1,0,24.94-8h6.17V15.59H346.28V10.52h-7.94v5.07h-14v6.23h6.8A13.68,13.68,0,0,0,328.52,29.83Zm13.76-7a7,7,0,1,1-7,7A7,7,0,0,1,342.28,22.85Zm24.43,45.76h7.37V46.76H324.56v6.56h42.15Z"/>
        <path class="cls-1" d="M436.56,21.06a5.4,5.4,0,0,0-5.4-5.41l-40,0V22.1h38V55.82h-9.92V34.69h-7.18V55.82h-8.25V34.69h-7.27V55.82h-8.63v6.51h53V55.82h-4.35Z"/>
      </g>
      <g>
        <path class="cls-1" d="M130.42,78.27h5.88a8.85,8.85,0,0,1,6.24,2.07,7.93,7.93,0,0,1,2.3,6.09,9.65,9.65,0,0,1-1.54,5.62A6.91,6.91,0,0,1,138.37,95a20.62,20.62,0,0,1-2.6.11h-5.35Zm6.24,13.57q4.4,0,4.4-5.1t-4.26-5.21h-2.64V91.84Z"/>
        <path class="cls-1" d="M162.1,77.91a7.81,7.81,0,0,1,6.05,2.52,8.86,8.86,0,0,1,2.22,6.22,9,9,0,0,1-2.15,6.23,7.58,7.58,0,0,1-6,2.55A8.2,8.2,0,0,1,156,93a10,10,0,0,1,0-12.63A8,8,0,0,1,162.1,77.91Zm0,14.4a3.73,3.73,0,0,0,3.29-1.76,6.69,6.69,0,0,0,1-3.76,7,7,0,0,0-1-3.91A3.84,3.84,0,0,0,162,81.12a3.75,3.75,0,0,0-3.38,1.79,7,7,0,0,0-1,3.86,6.46,6.46,0,0,0,1.07,3.8A3.91,3.91,0,0,0,162.1,92.31Z"/>
        <path class="cls-1" d="M180.22,78.27h3.89l4.81,8.66q.77,1.38.93,1.71a11.92,11.92,0,0,1,.75,1.79c-.09-2.65-.14-4-.14-4V78.27H194v16.8h-3.88l-4.71-8.47c-.65-1.16-1-1.76-1-1.81a10.23,10.23,0,0,1-.79-1.93q.09,2.6.09,3.81v8.4h-3.45Z"/>
        <path class="cls-1" d="M214.94,83.57a2.71,2.71,0,0,0-1.26-1.88,4.55,4.55,0,0,0-5.74,1,6.14,6.14,0,0,0-1.13,3.81,7.13,7.13,0,0,0,1,4,3.93,3.93,0,0,0,3.5,1.81,4.17,4.17,0,0,0,2.75-1,3.82,3.82,0,0,0,1.37-2.52h-4.1V85.79h7.24v9.28h-2.24a6.7,6.7,0,0,1-.47-2.5,3.23,3.23,0,0,1-2,2.22,7.5,7.5,0,0,1-3.08.62A7.07,7.07,0,0,1,205.08,93a9.16,9.16,0,0,1-1.91-6,9.37,9.37,0,0,1,2.13-6.38,7.66,7.66,0,0,1,6.11-2.6A6.92,6.92,0,0,1,216,79.34a10.83,10.83,0,0,1,2.6,4Z"/>
        <path class="cls-1" d="M227.93,88.6h3.55v1.21c0,1.65.64,2.48,1.93,2.48A1.57,1.57,0,0,0,235,91.5a4.56,4.56,0,0,0,.26-1.81V78.27h3.71V90.05c0,3.6-1.86,5.41-5.59,5.41a5.86,5.86,0,0,1-3.86-1.19,4.51,4.51,0,0,1-1.55-3.67Z"/>
        <path class="cls-1" d="M248.93,78.27h3.74V88.6a4.5,4.5,0,0,0,.62,2.71,3.23,3.23,0,0,0,2.59.86,2.71,2.71,0,0,0,2.36-.9,4.08,4.08,0,0,0,.45-2.2V78.27h3.72v11q0,6.08-6.72,6.07t-6.76-6.17Z"/>
        <path class="cls-1" d="M298.43,83.62a2.79,2.79,0,0,0-1.27-1.9,4.06,4.06,0,0,0-5.57,1.14,7,7,0,0,0-1,3.86,6.66,6.66,0,0,0,1,3.81A3.8,3.8,0,0,0,295,92.26a3.26,3.26,0,0,0,3.52-3h4v.1l0,.12q-1.18,5.9-7.62,5.9a7.34,7.34,0,0,1-5.9-2.5,9.18,9.18,0,0,1-2-6.19A9.08,9.08,0,0,1,289,80.43,7.69,7.69,0,0,1,295,78a8,8,0,0,1,4.81,1.38,6,6,0,0,1,2.45,4.26Z"/>
        <path class="cls-1" d="M319.59,77.91a7.83,7.83,0,0,1,6.05,2.52,8.85,8.85,0,0,1,2.21,6.22,9,9,0,0,1-2.14,6.23,7.58,7.58,0,0,1-6,2.55A8.19,8.19,0,0,1,313.5,93a9.94,9.94,0,0,1-.05-12.63A8,8,0,0,1,319.59,77.91Zm0,14.4a3.74,3.74,0,0,0,3.29-1.76,6.69,6.69,0,0,0,1-3.76,7,7,0,0,0-1-3.91,3.86,3.86,0,0,0-3.43-1.76,3.76,3.76,0,0,0-3.38,1.79,7,7,0,0,0-1,3.86,6.39,6.39,0,0,0,1.07,3.8A3.91,3.91,0,0,0,319.59,92.31Z"/>
        <path class="cls-1" d="M337.73,78.27h3.79V91.91h8.21v3.16h-12Z"/>
        <path class="cls-1" d="M359.26,78.27H363V91.91h8.21v3.16h-12Z"/>
        <path class="cls-1" d="M380.78,78.27h12.5v3.21h-8.77v3.26h7.7v3h-7.7v4.12h8.91v3.21H380.78Z"/>
        <path class="cls-1" d="M414.4,83.57a2.71,2.71,0,0,0-1.26-1.88,4.19,4.19,0,0,0-2.25-.59,4.13,4.13,0,0,0-3.49,1.64,6.13,6.13,0,0,0-1.12,3.81,7.13,7.13,0,0,0,1,4,3.93,3.93,0,0,0,3.5,1.81,4.17,4.17,0,0,0,2.75-1,3.82,3.82,0,0,0,1.37-2.52h-4.1V85.79h7.24v9.28h-2.24a6.88,6.88,0,0,1-.48-2.5,3.2,3.2,0,0,1-2,2.22,7.53,7.53,0,0,1-3.08.62A7.05,7.05,0,0,1,404.54,93a9.16,9.16,0,0,1-1.91-6,9.37,9.37,0,0,1,2.13-6.38,7.65,7.65,0,0,1,6.11-2.6,6.92,6.92,0,0,1,4.59,1.41,10.83,10.83,0,0,1,2.6,4Z"/>
        <path class="cls-1" d="M428.58,78.27h12.5v3.21h-8.76v3.26H440v3h-7.69v4.12h8.9v3.21H428.58Z"/>
      </g>
    </g>
  </g>
</svg>
