<svg xmlns="http://www.w3.org/2000/svg" width="21" height="24" viewBox="0 0 21 24">
  <g id="icon-bell" transform="translate(-3 -1.501)">
    <path id="Path_4572" data-name="Path 4572" d="M22.971,17.913a12.8,12.8,0,0,1-.673-4.081V10.407A8.651,8.651,0,0,0,20.073,4.5a9.086,9.086,0,0,0-5.691-2.952,8.744,8.744,0,0,0-3.634.39A8.418,8.418,0,0,0,7.6,3.741,8.513,8.513,0,0,0,4.723,10.08v3.772a12.771,12.771,0,0,1-.673,4.063L3,20.947l.84,1.128H9.993A3.416,3.416,0,0,0,11.022,24.5a3.558,3.558,0,0,0,4.956,0,3.409,3.409,0,0,0,1.03-2.421h6.153L24,20.947l-1.029-3.035Zm-8.233,5.395a1.749,1.749,0,0,1-2.476,0,1.691,1.691,0,0,1-.527-1.208h3.508a1.59,1.59,0,0,1-.5,1.21Zm-9.68-2.932.651-1.91a14.488,14.488,0,0,0,.777-4.614V10.079A6.81,6.81,0,0,1,8.8,5.011a6.868,6.868,0,0,1,2.521-1.436,6.951,6.951,0,0,1,2.9-.309,7.332,7.332,0,0,1,4.559,2.4,6.988,6.988,0,0,1,1.762,4.759v3.446a13.941,13.941,0,0,0,.777,4.614l.651,1.908H5.058v-.021Z" transform="translate(0)" fill="#333d4b"/>
  </g>
</svg>
