<svg xmlns="http://www.w3.org/2000/svg" width="100" height="100" viewBox="0 0 100 100">
  <g id="map-icon05" transform="translate(-297.667 -359.352)">
    <rect id="Rectangle_3523" data-name="Rectangle 3523" width="100" height="100" rx="50" transform="translate(297.667 359.352)" fill="#178ede"/>
    <g id="Group_152" data-name="Group 152" transform="translate(170.75 -308.148)">
      <path id="Path_12" data-name="Path 12" d="M155.292,734v3.5a3.5,3.5,0,0,1-3.5,3.5h0a3.5,3.5,0,0,1-3.5-3.5V731" fill="none" stroke="#fff" stroke-linecap="round" stroke-linejoin="round" stroke-width="2"/>
      <path id="Path_13" data-name="Path 13" d="M162.417,734H152.292a4,4,0,0,1-4-4V718.046a4,4,0,0,1,.85-2.465l5.15-6.581h45l5.15,6.581a4,4,0,0,1,.85,2.465V730a4,4,0,0,1-4,4h-10.5" fill="none" stroke="#fff" stroke-linecap="round" stroke-linejoin="round" stroke-width="2"/>
      <path id="Path_14" data-name="Path 14" d="M205.292,731v6.5a3.5,3.5,0,0,1-3.5,3.5h0a3.5,3.5,0,0,1-3.5-3.5V734" fill="none" stroke="#fff" stroke-linecap="round" stroke-linejoin="round" stroke-width="2"/>
      <path id="Path_15" data-name="Path 15" d="M154.292,709l4.014-12.436A4,4,0,0,1,162.039,694h29.505a4,4,0,0,1,3.734,2.564L199.292,709" fill="none" stroke="#fff" stroke-linecap="round" stroke-linejoin="round" stroke-width="2"/>
      <rect id="Rectangle_39" data-name="Rectangle 39" width="28" height="5.333" transform="translate(162.792 730)" fill="none" stroke="#fff" stroke-linecap="round" stroke-linejoin="round" stroke-width="2"/>
      <path id="Path_16" data-name="Path 16" d="M154.75,709h-7a2.333,2.333,0,0,1-2.333-2.333h0a2.333,2.333,0,0,1,2.333-2.334h3.461a2.333,2.333,0,0,1,2.145,1.414Z" fill="none" stroke="#fff" stroke-linecap="round" stroke-linejoin="round" stroke-width="2"/>
      <path id="Path_17" data-name="Path 17" d="M199.083,709h7a2.334,2.334,0,0,0,2.334-2.333h0a2.334,2.334,0,0,0-2.334-2.334h-3.461a2.334,2.334,0,0,0-2.145,1.414Z" fill="none" stroke="#fff" stroke-linecap="round" stroke-linejoin="round" stroke-width="2"/>
      <g id="Group_150" data-name="Group 150">
        <path id="Path_18" data-name="Path 18" d="M159.792,721.25a3.167,3.167,0,1,1-3.167-3.167A3.167,3.167,0,0,1,159.792,721.25Z" fill="none" stroke="#fff" stroke-linecap="round" stroke-linejoin="round" stroke-width="2"/>
        <path id="Path_19" data-name="Path 19" d="M200.125,721.25a3.166,3.166,0,1,1-3.167-3.167A3.167,3.167,0,0,1,200.125,721.25Z" fill="none" stroke="#fff" stroke-linecap="round" stroke-linejoin="round" stroke-width="2"/>
      </g>
      <g id="Group_151" data-name="Group 151">
        <path id="Path_20" data-name="Path 20" d="M187.958,724.25H165.625l-2-6h26.333Z" fill="none" stroke="#fff" stroke-linecap="round" stroke-linejoin="round" stroke-width="2"/>
        <line id="Line_75" data-name="Line 75" x1="22.333" transform="translate(165.625 721.25)" fill="none" stroke="#fff" stroke-linecap="round" stroke-linejoin="round" stroke-width="2"/>
      </g>
    </g>
  </g>
</svg>
