<svg xmlns="http://www.w3.org/2000/svg" width="100" height="100" viewBox="0 0 100 100">
  <g id="map-icon03" transform="translate(-464.792 -666)">
    <rect id="Rectangle_3524" data-name="Rectangle 3524" width="100" height="100" rx="50" transform="translate(464.792 666)" fill="#178ede"/>
    <g id="Group_7212" data-name="Group 7212">
      <path id="Rectangle_41" data-name="Rectangle 41" d="M12,0H40A12,12,0,0,1,52,12V55a0,0,0,0,1,0,0H0a0,0,0,0,1,0,0V12A12,12,0,0,1,12,0Z" transform="translate(488.792 685)" fill="none" stroke="#fff" stroke-linecap="round" stroke-linejoin="round" stroke-width="2"/>
      <path id="Rectangle_42" data-name="Rectangle 42" d="M2,0H23a0,0,0,0,1,0,0V44a0,0,0,0,1,0,0H2a2,2,0,0,1-2-2V2A2,2,0,0,1,2,0Z" transform="translate(536.792 696) rotate(90)" fill="none" stroke="#fff" stroke-linecap="round" stroke-linejoin="round" stroke-width="2"/>
      <g id="Group_156" data-name="Group 156">
        <path id="Path_30" data-name="Path 30" d="M502.792,740v5a2,2,0,0,1-2,2h-6a2,2,0,0,1-2-2v-5" fill="none" stroke="#fff" stroke-linecap="round" stroke-linejoin="round" stroke-width="2"/>
        <path id="Path_31" data-name="Path 31" d="M536.792,740v5a2,2,0,0,1-2,2h-6a2,2,0,0,1-2-2v-5" fill="none" stroke="#fff" stroke-linecap="round" stroke-linejoin="round" stroke-width="2"/>
      </g>
      <g id="Group_157" data-name="Group 157">
        <path id="Path_32" data-name="Path 32" d="M488.792,711h-3a2,2,0,0,1-2-2v-6a2,2,0,0,1,2-2h3" fill="none" stroke="#fff" stroke-linecap="round" stroke-linejoin="round" stroke-width="2"/>
        <path id="Path_33" data-name="Path 33" d="M540.792,701h3a2,2,0,0,1,2,2v6a2,2,0,0,1-2,2h-3" fill="none" stroke="#fff" stroke-linecap="round" stroke-linejoin="round" stroke-width="2"/>
      </g>
      <line id="Line_77" data-name="Line 77" x2="50" transform="translate(489.792 734)" fill="none" stroke="#fff" stroke-linecap="round" stroke-linejoin="round" stroke-width="2"/>
      <g id="Group_158" data-name="Group 158">
        <path id="Rectangle_43" data-name="Rectangle 43" d="M0,0H8a4,4,0,0,1,4,4V5a0,0,0,0,1,0,0H0A0,0,0,0,1,0,5V0A0,0,0,0,1,0,0Z" transform="translate(492.792 724)" fill="none" stroke="#fff" stroke-linecap="round" stroke-linejoin="round" stroke-width="2"/>
        <path id="Rectangle_44" data-name="Rectangle 44" d="M0,0H12a0,0,0,0,1,0,0V1A4,4,0,0,1,8,5H0A0,0,0,0,1,0,5V0A0,0,0,0,1,0,0Z" transform="translate(536.792 729) rotate(180)" fill="none" stroke="#fff" stroke-linecap="round" stroke-linejoin="round" stroke-width="2"/>
      </g>
      <line id="Line_78" data-name="Line 78" x2="9.667" transform="translate(509.958 690.333)" fill="none" stroke="#fff" stroke-linecap="round" stroke-linejoin="round" stroke-width="2"/>
      <line id="Line_79" data-name="Line 79" y2="22.667" transform="translate(514.792 696.333)" fill="none" stroke="#fff" stroke-linecap="round" stroke-linejoin="round" stroke-width="2"/>
      <line id="Line_80" data-name="Line 80" y1="12" x2="8.333" transform="translate(522.396 706.333)" fill="none" stroke="#fff" stroke-linecap="round" stroke-linejoin="round" stroke-width="2"/>
      <line id="Line_81" data-name="Line 81" y1="12" x2="8.333" transform="translate(500.396 706.333)" fill="none" stroke="#fff" stroke-linecap="round" stroke-linejoin="round" stroke-width="2"/>
    </g>
  </g>
</svg>
