<svg xmlns="http://www.w3.org/2000/svg" width="100" height="100" viewBox="0 0 100 100">
  <g id="map-icon04" transform="translate(-801.834 -666.333)">
    <rect id="Rectangle_3525" data-name="Rectangle 3525" width="100" height="100" rx="50" transform="translate(801.834 666.333)" fill="#178ede"/>
    <g id="Group_7213" data-name="Group 7213">
      <g id="Group_161" data-name="Group 161">
        <path id="Path_37" data-name="Path 37" d="M840.167,726.833A3.167,3.167,0,1,1,837,723.667,3.167,3.167,0,0,1,840.167,726.833Z" fill="none" stroke="#fff" stroke-linecap="round" stroke-linejoin="round" stroke-width="2"/>
        <path id="Path_38" data-name="Path 38" d="M870.5,726.833a3.167,3.167,0,1,1-3.167-3.166A3.167,3.167,0,0,1,870.5,726.833Z" fill="none" stroke="#fff" stroke-linecap="round" stroke-linejoin="round" stroke-width="2"/>
      </g>
      <g id="Group_162" data-name="Group 162">
        <rect id="Rectangle_46" data-name="Rectangle 46" width="48" height="44" rx="6" transform="translate(828.167 692.555)" fill="none" stroke="#fff" stroke-linecap="round" stroke-linejoin="round" stroke-width="2"/>
        <path id="Rectangle_47" data-name="Rectangle 47" d="M2,0H20a0,0,0,0,1,0,0V40a0,0,0,0,1,0,0H2a2,2,0,0,1-2-2V2A2,2,0,0,1,2,0Z" transform="translate(872.167 698.555) rotate(90)" fill="none" stroke="#fff" stroke-linecap="round" stroke-linejoin="round" stroke-width="2"/>
        <line id="Line_84" data-name="Line 84" y2="19.667" transform="translate(852.167 698.888)" fill="none" stroke="#fff" stroke-linecap="round" stroke-linejoin="round" stroke-width="2"/>
        <line id="Line_85" data-name="Line 85" y1="12" x2="8.333" transform="translate(857.771 705.888)" fill="none" stroke="#fff" stroke-linecap="round" stroke-linejoin="round" stroke-width="2"/>
        <line id="Line_86" data-name="Line 86" y1="12" x2="8.333" transform="translate(837.771 705.888)" fill="none" stroke="#fff" stroke-linecap="round" stroke-linejoin="round" stroke-width="2"/>
      </g>
      <g id="Group_163" data-name="Group 163">
        <line id="Line_87" data-name="Line 87" x1="8.667" y2="11.778" transform="translate(824.833 736.555)" fill="none" stroke="#fff" stroke-linecap="round" stroke-linejoin="round" stroke-width="2"/>
        <line id="Line_88" data-name="Line 88" x2="8.667" y2="11.778" transform="translate(870.833 736.555)" fill="none" stroke="#fff" stroke-linecap="round" stroke-linejoin="round" stroke-width="2"/>
        <line id="Line_89" data-name="Line 89" x2="45.333" transform="translate(829.167 743)" fill="none" stroke="#fff" stroke-linecap="round" stroke-linejoin="round" stroke-width="2"/>
      </g>
      <path id="Path_39" data-name="Path 39" d="M841.167,692.667v-2.334a4,4,0,0,1,4-4h14a4,4,0,0,1,4,4v2.334" fill="none" stroke="#fff" stroke-linecap="round" stroke-linejoin="round" stroke-width="2"/>
    </g>
  </g>
</svg>
