<svg xmlns="http://www.w3.org/2000/svg" width="100" height="100" viewBox="0 0 100 100">
  <g id="map-icon06" transform="translate(-464.792 -666)">
    <rect id="Rectangle_3524" data-name="Rectangle 3524" width="100" height="100" rx="50" transform="translate(464.792 666)" fill="#178ede"/>
    <g id="Group_202" data-name="Group 202" transform="translate(-507.375 -153.402)">
      <line id="Line_145" data-name="Line 145" x1="21.333" transform="translate(1019.663 890.526)" fill="none" stroke="#fff" stroke-linecap="round" stroke-linejoin="round" stroke-width="2"/>
      <line id="Line_146" data-name="Line 146" x1="20.667" transform="translate(1004.996 895.859)" fill="none" stroke="#fff" stroke-linecap="round" stroke-linejoin="round" stroke-width="2"/>
      <path id="Rectangle_55" data-name="Rectangle 55" d="M0,0H36.5a22,22,0,0,1,22,22v5a0,0,0,0,1,0,0H0a0,0,0,0,1,0,0V0A0,0,0,0,1,0,0Z" transform="translate(995.167 857.5)" fill="none" stroke="#fff" stroke-linecap="round" stroke-linejoin="round" stroke-width="2"/>
      <path id="Path_130" data-name="Path 130" d="M1045.167,862.5h-14.5v11h22" fill="none" stroke="#fff" stroke-linecap="round" stroke-linejoin="round" stroke-width="2"/>
      <path id="Path_131" data-name="Path 131" d="M1010.167,873.5h-10.5v-11h10.5S1010.667,874,1010.167,873.5Z" fill="none" stroke="#fff" stroke-linecap="round" stroke-linejoin="round" stroke-width="2"/>
      <path id="Path_132" data-name="Path 132" d="M1025.667,873.5h-10.5v-11h10.5S1026.167,874,1025.667,873.5Z" fill="none" stroke="#fff" stroke-linecap="round" stroke-linejoin="round" stroke-width="2"/>
      <path id="Path_133" data-name="Path 133" d="M1000.667,857.5v-8.35c0-5.712-2.363-6.928-5.25-4.7a15.414,15.414,0,0,0-5.25,10.8V884.5h10.5" fill="none" stroke="#fff" stroke-linecap="round" stroke-linejoin="round" stroke-width="2"/>
      <line id="Line_147" data-name="Line 147" x2="31.5" transform="translate(995.667 880.5)" fill="none" stroke="#fff" stroke-linecap="round" stroke-linejoin="round" stroke-width="2"/>
    </g>
  </g>
</svg>
