<svg xmlns="http://www.w3.org/2000/svg" width="100" height="100" viewBox="0 0 100 100">
  <g id="map-icon02" transform="translate(-297.667 -359.352)">
    <rect id="Rectangle_3523" data-name="Rectangle 3523" width="100" height="100" rx="50" transform="translate(297.667 359.352)" fill="#178ede"/>
    <g id="Group_7214" data-name="Group 7214">
      <path id="Rectangle_45" data-name="Rectangle 45" d="M0,0H50A12,12,0,0,1,62,12v.333a0,0,0,0,1,0,0H12a12,12,0,0,1-12-12V0A0,0,0,0,1,0,0Z" transform="translate(316.667 401.685)" fill="none" stroke="#fff" stroke-linecap="round" stroke-linejoin="round" stroke-width="2"/>
      <path id="Path_34" data-name="Path 34" d="M325.667,401.685h-9V389.352h6Z" fill="none" stroke="#fff" stroke-linecap="round" stroke-linejoin="round" stroke-width="2"/>
      <path id="Path_35" data-name="Path 35" d="M366.667,401.685H354V380.352h5.667Z" fill="none" stroke="#fff" stroke-linecap="round" stroke-linejoin="round" stroke-width="2"/>
      <path id="Path_36" data-name="Path 36" d="M366.667,414.352H354v24.333h5.667Z" fill="none" stroke="#fff" stroke-linecap="round" stroke-linejoin="round" stroke-width="2"/>
      <line id="Line_82" data-name="Line 82" x2="7.333" transform="translate(371 407.352)" fill="none" stroke="#fff" stroke-linecap="round" stroke-linejoin="round" stroke-width="2" stroke-dasharray="4 4"/>
      <line id="Line_83" data-name="Line 83" x2="31" transform="translate(330.333 407.352)" fill="none" stroke="#fff" stroke-linecap="round" stroke-linejoin="round" stroke-width="2" stroke-dasharray="4 4"/>
    </g>
  </g>
</svg>
