<svg xmlns="http://www.w3.org/2000/svg" width="190" height="40" viewBox="0 0 190 40">
  <g id="KETI-logo" transform="translate(54.055 -426)">
    <rect id="area" width="190" height="40" transform="translate(-54.055 426)" fill="#fff" opacity="0.005"/>
    <g id="Group_7160" data-name="Group 7160" transform="translate(-251 197.592)">
      <g id="Group_6" data-name="Group 6" transform="translate(276.701 239.09)">
        <g id="Group_5" data-name="Group 5" transform="translate(0)">
          <g id="Group_3" data-name="Group 3" transform="translate(0 10.56)">
            <path id="Path_11" data-name="Path 11" d="M522.865,282.917h-.328a.421.421,0,0,0-.387.248.507.507,0,0,0-.027.162v7.188a.4.4,0,0,0,.414.4h.328a.407.407,0,0,0,.38-.243.4.4,0,0,0,.037-.158v-7.188A.411.411,0,0,0,522.865,282.917Z" transform="translate(-482.721 -282.917)" fill="#004e8d"/>
            <path id="Path_12" data-name="Path 12" d="M593.679,282.917h-.337a.413.413,0,0,0-.375.248.4.4,0,0,0-.032.162v7.188a.4.4,0,0,0,.407.4h.337a.423.423,0,0,0,.382-.243.418.418,0,0,0,.03-.158v-7.188A.408.408,0,0,0,593.679,282.917Z" transform="translate(-527.585 -282.917)" fill="#004e8d"/>
            <path id="Path_13" data-name="Path 13" d="M435.1,287.677h-1.349a1.887,1.887,0,0,0-1.922,1.845v2.569a1.89,1.89,0,0,0,1.922,1.851H435.1a1.937,1.937,0,0,0,1.255-.451,1.836,1.836,0,0,0,.567-.772.4.4,0,0,0-.043-.365.408.408,0,0,0-.343-.177h-.364a.372.372,0,0,0-.363.221.812.812,0,0,1-.709.421h-1.349a.752.752,0,0,1-.767-.727v-.719h3.464a.57.57,0,0,0,.585-.567v-1.283A1.893,1.893,0,0,0,435.1,287.677Zm-2.116,1.845a.747.747,0,0,1,.767-.717H435.1a.748.748,0,0,1,.777.717v.729H432.98Z" transform="translate(-425.512 -285.933)" fill="#004e8d"/>
            <path id="Path_14" data-name="Path 14" d="M451.718,288.8h1.35a.789.789,0,0,1,.693.376.4.4,0,0,0,.386.267h.356a.41.41,0,0,0,.345-.185.38.38,0,0,0,.042-.354,1.853,1.853,0,0,0-.563-.785,1.958,1.958,0,0,0-1.259-.447h-1.35a1.888,1.888,0,0,0-1.923,1.845v2.569a1.891,1.891,0,0,0,1.923,1.851h1.35a1.953,1.953,0,0,0,1.256-.451,1.868,1.868,0,0,0,.563-.772.39.39,0,0,0-.04-.365.413.413,0,0,0-.345-.177h-.368a.368.368,0,0,0-.359.221.815.815,0,0,1-.708.421h-1.35a.747.747,0,0,1-.764-.727v-2.569A.742.742,0,0,1,451.718,288.8Z" transform="translate(-436.897 -285.933)" fill="#004e8d"/>
            <path id="Path_15" data-name="Path 15" d="M470.533,284.661h-2.116v-1.336a.409.409,0,0,0-.413-.409h-.331a.412.412,0,0,0-.38.251.381.381,0,0,0-.033.159v7.188a.4.4,0,0,0,.413.4H468a.412.412,0,0,0,.38-.243.389.389,0,0,0,.033-.158v-4.725h2.116a.747.747,0,0,1,.775.717v4.019a.4.4,0,0,0,.412.4h.332a.4.4,0,0,0,.413-.4v-4.019A1.891,1.891,0,0,0,470.533,284.661Z" transform="translate(-447.962 -282.917)" fill="#004e8d"/>
            <path id="Path_16" data-name="Path 16" d="M488.858,287.663H486a.4.4,0,0,0-.41.4v5.455a.4.4,0,0,0,.41.4h.332a.4.4,0,0,0,.41-.4v-4.737h2.119a.747.747,0,0,1,.779.729v4.008a.4.4,0,0,0,.406.4h.335a.4.4,0,0,0,.41-.4v-4.008A1.891,1.891,0,0,0,488.858,287.663Z" transform="translate(-459.574 -285.924)" fill="#004e8d"/>
            <path id="Path_17" data-name="Path 17" d="M506.912,287.677h-1.351a1.887,1.887,0,0,0-1.921,1.845v2.569a1.884,1.884,0,0,0,1.921,1.84h1.351a1.89,1.89,0,0,0,1.932-1.84v-2.569A1.893,1.893,0,0,0,506.912,287.677Zm-2.114,1.845a.741.741,0,0,1,.763-.717h1.351a.75.75,0,0,1,.774.717v2.569a.751.751,0,0,1-.774.715h-1.351a.743.743,0,0,1-.763-.715Z" transform="translate(-471.011 -285.933)" fill="#004e8d"/>
            <path id="Path_18" data-name="Path 18" d="M532.776,287.677h-1.354a1.888,1.888,0,0,0-1.922,1.845v2.569a1.885,1.885,0,0,0,1.922,1.84h1.354a1.887,1.887,0,0,0,1.929-1.84v-2.569A1.89,1.89,0,0,0,532.776,287.677Zm-2.111,1.845a.738.738,0,0,1,.758-.717h1.354a.747.747,0,0,1,.773.717v2.569a.749.749,0,0,1-.773.715h-1.354a.739.739,0,0,1-.758-.715Z" transform="translate(-487.396 -285.933)" fill="#004e8d"/>
            <path id="Path_19" data-name="Path 19" d="M569.8,287.677h-.234a.6.6,0,0,0-.547.361L567.38,292.3l-1.645-4.268a.588.588,0,0,0-.54-.351h-.235a.413.413,0,0,0-.342.182.381.381,0,0,0-.045.366l2.185,5.67-.473,1.228a.406.406,0,0,0,.047.377.4.4,0,0,0,.333.177h.241a.6.6,0,0,0,.549-.368l2.73-7.088a.374.374,0,0,0-.047-.365A.4.4,0,0,0,569.8,287.677Z" transform="translate(-509.599 -285.933)" fill="#004e8d"/>
            <path id="Path_20" data-name="Path 20" d="M603.953,287.663H601.1a.4.4,0,0,0-.415.4v5.455a.406.406,0,0,0,.415.4h.33a.4.4,0,0,0,.407-.4v-4.737h2.114a.744.744,0,0,1,.776.729v4.008a.4.4,0,0,0,.411.4h.339a.4.4,0,0,0,.41-.4v-4.008A1.894,1.894,0,0,0,603.953,287.663Z" transform="translate(-532.496 -285.924)" fill="#004e8d"/>
            <path id="Path_21" data-name="Path 21" d="M673.641,287.663h-.333a.4.4,0,0,0-.416.4V292.8h-2.109a.746.746,0,0,1-.781-.726v-4.006a.4.4,0,0,0-.406-.4h-.332a.4.4,0,0,0-.415.4v4.006a1.9,1.9,0,0,0,1.933,1.851h2.858a.406.406,0,0,0,.413-.4v-5.455A.4.4,0,0,0,673.641,287.663Z" transform="translate(-575.683 -285.924)" fill="#004e8d"/>
            <path id="Path_22" data-name="Path 22" d="M703.361,291.372a.572.572,0,0,0,.586-.567v-1.283a1.893,1.893,0,0,0-1.935-1.845h-1.346a1.89,1.89,0,0,0-1.923,1.845v2.569a1.893,1.893,0,0,0,1.923,1.851h1.346a1.939,1.939,0,0,0,1.256-.451,1.875,1.875,0,0,0,.567-.772.4.4,0,0,0-.045-.365.413.413,0,0,0-.345-.177h-.361a.364.364,0,0,0-.362.221.813.813,0,0,1-.71.421h-1.346a.748.748,0,0,1-.766-.727v-.719Zm-2.7-2.567h1.346a.749.749,0,0,1,.778.717v.729H699.9v-.729A.743.743,0,0,1,700.665,288.8Z" transform="translate(-594.62 -285.933)" fill="#004e8d"/>
            <path id="Path_23" data-name="Path 23" d="M638.888,290.881a.419.419,0,0,0-.155-.032l-1,0a.746.746,0,0,1-.767-.715v-3.283h1.663a.4.4,0,0,0,.392-.407v-.323a.4.4,0,0,0-.239-.371.39.39,0,0,0-.156-.031h-1.66V285a.413.413,0,0,0-.412-.4h-.334a.415.415,0,0,0-.412.4v5.141a1.887,1.887,0,0,0,1.925,1.841h1a.394.394,0,0,0,.392-.4v-.32A.4.4,0,0,0,638.888,290.881Z" transform="translate(-554.749 -283.979)" fill="#004e8d"/>
            <path id="Path_24" data-name="Path 24" d="M659.6,290.881a.423.423,0,0,0-.158-.032l-1,0a.742.742,0,0,1-.761-.715v-3.283h1.661a.394.394,0,0,0,.393-.407v-.323a.389.389,0,0,0-.393-.4h-1.661V285a.416.416,0,0,0-.415-.4h-.332a.414.414,0,0,0-.412.4v5.141a1.885,1.885,0,0,0,1.921,1.841h1.008a.391.391,0,0,0,.388-.4v-.32A.4.4,0,0,0,659.6,290.881Z" transform="translate(-567.87 -283.979)" fill="#004e8d"/>
            <path id="Path_25" data-name="Path 25" d="M690.115,290.881a.443.443,0,0,0-.157-.032l-1,0a.744.744,0,0,1-.767-.715v-3.283h1.667a.4.4,0,0,0,.39-.407v-.323a.4.4,0,0,0-.239-.371.407.407,0,0,0-.156-.031H688.19V285a.413.413,0,0,0-.41-.4h-.334a.414.414,0,0,0-.411.4v5.141a1.884,1.884,0,0,0,1.923,1.841h1a.4.4,0,0,0,.4-.4v-.32A.407.407,0,0,0,690.115,290.881Z" transform="translate(-587.203 -283.979)" fill="#004e8d"/>
            <path id="Path_26" data-name="Path 26" d="M649.608,282.917h-.331a.412.412,0,0,0-.38.248.462.462,0,0,0-.033.162v1.007a.4.4,0,0,0,.411.4h.333a.4.4,0,0,0,.379-.241.33.33,0,0,0,.036-.161v-1.008A.409.409,0,0,0,649.608,282.917Z" transform="translate(-563.02 -282.917)" fill="#004e8d"/>
            <path id="Path_27" data-name="Path 27" d="M649.608,289.88h-.331a.41.41,0,0,0-.38.247.431.431,0,0,0-.033.157v4.641a.4.4,0,0,0,.411.4h.333a.408.408,0,0,0,.379-.24.344.344,0,0,0,.036-.161v-4.641A.406.406,0,0,0,649.608,289.88Z" transform="translate(-563.02 -287.329)" fill="#004e8d"/>
            <path id="Path_28" data-name="Path 28" d="M420.506,282.953a.435.435,0,0,0-.17-.036h-5.343a.408.408,0,0,0-.4.409v.322a.4.4,0,0,0,.4.4h2.1v6.464a.4.4,0,0,0,.4.4h.344a.413.413,0,0,0,.415-.4V284.05h2.1a.394.394,0,0,0,.4-.4v-.322A.4.4,0,0,0,420.506,282.953Z" transform="translate(-414.597 -282.917)" fill="#004e8d"/>
            <path id="Path_29" data-name="Path 29" d="M552.172,287.677H549.3a1.885,1.885,0,0,0-1.918,1.845V291.7a1.889,1.889,0,0,0,1.918,1.851h2.128v.269a.758.758,0,0,1-.77.724h-2.129a.362.362,0,0,0-.158.026.4.4,0,0,0-.238.372v.326a.393.393,0,0,0,.4.4h2.122a1.9,1.9,0,0,0,1.935-1.852v-5.741A.411.411,0,0,0,552.172,287.677Zm-3.631,1.845a.743.743,0,0,1,.763-.717h2.128v3.626H549.3a.747.747,0,0,1-.763-.726Z" transform="translate(-498.727 -285.933)" fill="#004e8d"/>
            <path id="Path_30" data-name="Path 30" d="M621.532,290.251h-1.3a.841.841,0,0,1-.538-.21.676.676,0,0,1-.249-.479.7.7,0,0,1,.211-.532.771.771,0,0,1,.555-.225h2.332a.4.4,0,0,0,.4-.4v-.325a.4.4,0,0,0-.243-.368.407.407,0,0,0-.152-.034h-2.291a2.067,2.067,0,0,0-1.411.563,1.794,1.794,0,0,0-.557,1.32,1.847,1.847,0,0,0,.584,1.283,1.986,1.986,0,0,0,1.343.53h1.34a.831.831,0,0,1,.535.2.659.659,0,0,1,.251.479.71.71,0,0,1-.209.535.793.793,0,0,1-.568.223l-2.625,0a.394.394,0,0,0-.394.4v.323a.394.394,0,0,0,.241.369.364.364,0,0,0,.154.033h2.623a1.988,1.988,0,0,0,1.356-.525,1.827,1.827,0,0,0,.576-1.276,1.786,1.786,0,0,0-.553-1.327A2.066,2.066,0,0,0,621.532,290.251Z" transform="translate(-543.648 -285.933)" fill="#004e8d"/>
          </g>
          <g id="Group_4" data-name="Group 4" transform="translate(1.163)">
            <path id="Path_31" data-name="Path 31" d="M439.324,258.854h-1.347a1.887,1.887,0,0,0-1.925,1.843v2.567a1.885,1.885,0,0,0,1.925,1.841h1.347a1.89,1.89,0,0,0,1.932-1.841V260.7A1.892,1.892,0,0,0,439.324,258.854Zm-2.118,1.843a.749.749,0,0,1,.771-.717h1.347a.751.751,0,0,1,.775.717v2.567a.75.75,0,0,1-.775.719h-1.347a.748.748,0,0,1-.771-.719Z" transform="translate(-429.353 -257.112)" fill="#004e8d"/>
            <path id="Path_32" data-name="Path 32" d="M469.467,258.854h-1.35A1.883,1.883,0,0,0,466.2,260.7v2.567a1.887,1.887,0,0,0,1.919,1.853h1.35a1.919,1.919,0,0,0,1.255-.451,1.814,1.814,0,0,0,.566-.774.414.414,0,0,0-.039-.366.422.422,0,0,0-.349-.177h-.36a.379.379,0,0,0-.365.221.8.8,0,0,1-.709.421h-1.35a.743.743,0,0,1-.761-.728v-.715h3.463a.567.567,0,0,0,.581-.568V260.7A1.89,1.89,0,0,0,469.467,258.854Zm-2.111,1.843a.74.74,0,0,1,.761-.717h1.35a.754.754,0,0,1,.78.717v.726h-2.891Z" transform="translate(-448.452 -257.112)" fill="#004e8d"/>
            <path id="Path_33" data-name="Path 33" d="M532.211,254.1h-.335a.416.416,0,0,0-.381.244.421.421,0,0,0-.032.162v7.185a.4.4,0,0,0,.414.4h.335a.41.41,0,0,0,.376-.243.4.4,0,0,0,.03-.161V254.5A.4.4,0,0,0,532.211,254.1Z" transform="translate(-489.801 -254.1)" fill="#004e8d"/>
            <path id="Path_34" data-name="Path 34" d="M542.249,258.854H540.9a1.884,1.884,0,0,0-1.924,1.843v2.567a1.888,1.888,0,0,0,1.924,1.853h1.351a1.938,1.938,0,0,0,1.255-.451,1.857,1.857,0,0,0,.564-.774.394.394,0,0,0-.044-.368.421.421,0,0,0-.343-.176h-.364a.38.38,0,0,0-.365.221.8.8,0,0,1-.7.421H540.9a.749.749,0,0,1-.767-.728v-.715H543.6a.57.57,0,0,0,.584-.568V260.7A1.892,1.892,0,0,0,542.249,258.854Zm-2.117,1.843a.746.746,0,0,1,.767-.717h1.351a.748.748,0,0,1,.772.717v.726h-2.889Z" transform="translate(-494.56 -257.112)" fill="#004e8d"/>
            <path id="Path_35" data-name="Path 35" d="M558.771,259.98h1.344a.783.783,0,0,1,.693.38.408.408,0,0,0,.391.263h.354a.411.411,0,0,0,.344-.186.38.38,0,0,0,.042-.352,1.779,1.779,0,0,0-.562-.784,1.933,1.933,0,0,0-1.262-.447h-1.344a1.889,1.889,0,0,0-1.929,1.843v2.567a1.893,1.893,0,0,0,1.929,1.853h1.344a1.931,1.931,0,0,0,1.257-.451,1.846,1.846,0,0,0,.566-.774.4.4,0,0,0-.045-.366.41.41,0,0,0-.342-.177h-.363a.381.381,0,0,0-.368.221.793.793,0,0,1-.706.421h-1.344a.746.746,0,0,1-.767-.728V260.7A.743.743,0,0,1,558.771,259.98Z" transform="translate(-505.881 -257.112)" fill="#004e8d"/>
            <path id="Path_36" data-name="Path 36" d="M601.948,258.854H600.6a1.887,1.887,0,0,0-1.923,1.843v2.567a1.885,1.885,0,0,0,1.923,1.841h1.349a1.888,1.888,0,0,0,1.933-1.841V260.7A1.89,1.89,0,0,0,601.948,258.854Zm-2.11,1.843a.742.742,0,0,1,.761-.717h1.349a.75.75,0,0,1,.777.717v2.567a.749.749,0,0,1-.777.719H600.6a.741.741,0,0,1-.761-.719Z" transform="translate(-532.385 -257.112)" fill="#004e8d"/>
            <path id="Path_37" data-name="Path 37" d="M619.8,258.828h-2.855a.4.4,0,0,0-.412.4v5.453a.4.4,0,0,0,.412.4h.333a.4.4,0,0,0,.41-.4v-4.731H619.8a.742.742,0,0,1,.775.726v4.006a.4.4,0,0,0,.414.4h.335a.4.4,0,0,0,.407-.4V260.68A1.894,1.894,0,0,0,619.8,258.828Z" transform="translate(-543.698 -257.095)" fill="#004e8d"/>
            <path id="Path_38" data-name="Path 38" d="M644.18,259.98h1.347a.8.8,0,0,1,.7.378.4.4,0,0,0,.387.266h.353a.414.414,0,0,0,.347-.184.383.383,0,0,0,.042-.354,1.76,1.76,0,0,0-.568-.784,1.9,1.9,0,0,0-1.257-.447H644.18a1.888,1.888,0,0,0-1.922,1.843v2.567a1.891,1.891,0,0,0,1.922,1.853h1.347a1.932,1.932,0,0,0,1.257-.451,1.877,1.877,0,0,0,.568-.777.4.4,0,0,0-.042-.363.423.423,0,0,0-.347-.177H646.6a.377.377,0,0,0-.365.221.794.794,0,0,1-.709.421H644.18a.747.747,0,0,1-.764-.728V260.7A.744.744,0,0,1,644.18,259.98Z" transform="translate(-559.997 -257.112)" fill="#004e8d"/>
            <path id="Path_39" data-name="Path 39" d="M421.016,257.94l2.363-3.2a.393.393,0,0,0,.043-.417.409.409,0,0,0-.373-.226h-.321a.608.608,0,0,0-.47.23l-2.2,2.971a.357.357,0,0,1-.3.141h-.833V254.5a.405.405,0,0,0-.414-.4h-.327a.412.412,0,0,0-.385.244.417.417,0,0,0-.035.162v7.185a.407.407,0,0,0,.42.4h.327a.4.4,0,0,0,.38-.243.365.365,0,0,0,.034-.161v-3.122h.928a.375.375,0,0,1,.3.147l2.344,3.156a.576.576,0,0,0,.459.222h.331a.4.4,0,0,0,.361-.21.407.407,0,0,0-.03-.428Z" transform="translate(-417.77 -254.1)" fill="#004e8d"/>
            <path id="Path_40" data-name="Path 40" d="M457.5,258.878a.44.44,0,0,0-.169-.032h-1.16a1.885,1.885,0,0,0-1.922,1.844V264.7a.4.4,0,0,0,.412.394h.328a.4.4,0,0,0,.416-.394V260.69a.736.736,0,0,1,.709-.713h1.23a.4.4,0,0,0,.4-.4v-.322A.4.4,0,0,0,457.5,258.878Z" transform="translate(-440.879 -257.107)" fill="#004e8d"/>
            <path id="Path_41" data-name="Path 41" d="M590.116,258.878a.455.455,0,0,0-.173-.032h-1.162a1.887,1.887,0,0,0-1.921,1.844V264.7a.406.406,0,0,0,.416.394h.327a.4.4,0,0,0,.414-.394V260.69a.738.738,0,0,1,.712-.713h1.229a.4.4,0,0,0,.4-.4v-.322A.4.4,0,0,0,590.116,258.878Z" transform="translate(-524.9 -257.107)" fill="#004e8d"/>
            <path id="Path_42" data-name="Path 42" d="M486.7,258.854h-2.2a.425.425,0,0,0-.155.029.4.4,0,0,0-.237.373v.322a.39.39,0,0,0,.392.4h2.2a.75.75,0,0,1,.778.717v.47h-2.128a1.887,1.887,0,0,0-1.917,1.844v.253a1.888,1.888,0,0,0,1.917,1.853h2.7a.57.57,0,0,0,.583-.569V260.7A1.892,1.892,0,0,0,486.7,258.854Zm-2.115,4.157a.745.745,0,0,1,.765-.718h2.128v1.7h-2.128a.749.749,0,0,1-.765-.728Z" transform="translate(-459.373 -257.112)" fill="#004e8d"/>
            <path id="Path_43" data-name="Path 43" d="M517.4,254.132a.378.378,0,0,0-.172-.032h-4.486a.571.571,0,0,0-.569.568v6.869a.56.56,0,0,0,.552.557h4.522a.394.394,0,0,0,.4-.4v-.324a.407.407,0,0,0-.245-.373.393.393,0,0,0-.152-.031h-3.919V258.5h3.115a.4.4,0,0,0,.4-.4v-.322a.4.4,0,0,0-.24-.373.442.442,0,0,0-.16-.032h-3.115v-2.144h3.919a.4.4,0,0,0,.4-.4V254.5A.4.4,0,0,0,517.4,254.132Z" transform="translate(-477.579 -254.1)" fill="#004e8d"/>
            <path id="Path_44" data-name="Path 44" d="M577.476,262.055a.47.47,0,0,0-.157-.029l-1,0a.74.74,0,0,1-.761-.719v-3.281h1.659a.4.4,0,0,0,.4-.4V257.3a.4.4,0,0,0-.242-.373.409.409,0,0,0-.155-.032h-1.659v-.722a.416.416,0,0,0-.417-.4h-.331a.413.413,0,0,0-.412.4v5.135a1.887,1.887,0,0,0,1.921,1.845h1a.4.4,0,0,0,.394-.405v-.319A.411.411,0,0,0,577.476,262.055Z" transform="translate(-517.002 -255.158)" fill="#004e8d"/>
            <path id="Path_45" data-name="Path 45" d="M635.748,254.1h-.329a.4.4,0,0,0-.413.406v1.007a.4.4,0,0,0,.413.4h.327a.416.416,0,0,0,.384-.243.444.444,0,0,0,.034-.159V254.5A.406.406,0,0,0,635.748,254.1Z" transform="translate(-555.402 -254.1)" fill="#004e8d"/>
            <path id="Path_46" data-name="Path 46" d="M635.748,261.055h-.329a.412.412,0,0,0-.383.244.421.421,0,0,0-.03.162V266.1a.4.4,0,0,0,.413.4h.327a.412.412,0,0,0,.384-.243.432.432,0,0,0,.034-.161v-4.638A.4.4,0,0,0,635.748,261.055Z" transform="translate(-555.402 -258.506)" fill="#004e8d"/>
            <path id="Path_47" data-name="Path 47" d="M662.376,261.423h-1.3a.852.852,0,0,1-.537-.207.668.668,0,0,1-.247-.478.72.72,0,0,1,.21-.535.773.773,0,0,1,.553-.223h2.332a.392.392,0,0,0,.4-.4v-.322a.4.4,0,0,0-.238-.372.43.43,0,0,0-.158-.03H661.1a2.079,2.079,0,0,0-1.417.559,1.773,1.773,0,0,0-.553,1.319,1.813,1.813,0,0,0,.584,1.285,1.971,1.971,0,0,0,1.337.532H662.4a.856.856,0,0,1,.538.195.683.683,0,0,1,.247.48.7.7,0,0,1-.211.535.775.775,0,0,1-.564.224h-2.623a.393.393,0,0,0-.394.4v.322a.4.4,0,0,0,.237.372.369.369,0,0,0,.156.03h2.623a1.989,1.989,0,0,0,1.356-.525,1.819,1.819,0,0,0,.576-1.278,1.742,1.742,0,0,0-.557-1.323A2.06,2.06,0,0,0,662.376,261.423Z" transform="translate(-570.689 -257.112)" fill="#004e8d"/>
          </g>
        </g>
      </g>
      <g id="Group_10" data-name="Group 10" transform="translate(196.945 230.408)">
        <g id="Group_9" data-name="Group 9">
          <g id="Group_8" data-name="Group 8">
            <g id="Group_7" data-name="Group 7">
              <path id="Path_48" data-name="Path 48" d="M262.19,254.326h6.8v18.462h-6.8V254.326Zm-7.327,3.926v14.536h-6.753V258.252H242v-3.926h18.971v3.926Zm-24.519-.228h-5.712v3.689h10.843a2.372,2.372,0,0,0-1.093,1.847,2.347,2.347,0,0,0,1.093,1.838H224.633v3.7h5.712a2.155,2.155,0,0,0,0,3.688H217.883V254.326h12.461a2.165,2.165,0,0,0,0,3.7Zm-21.575-3.7h7.906L210.5,263.56l6.175,9.228H208.77l-5.02-8.711v8.711h-6.8V254.326h6.8v8.714Z" transform="translate(-196.945 -245.562)" fill="#004e8d"/>
              <path id="Path_49" data-name="Path 49" d="M277.134,266.408c3.286,0,5.944-1.448,5.944-3.232s-2.659-3.236-5.944-3.236c-3.235,0-5.883,1.443-5.883,3.236s2.649,3.232,5.883,3.232Zm5.129-7.39c3.236,0,5.887-1.443,5.887-3.228s-2.651-3.234-5.887-3.234-5.881,1.442-5.881,3.234,2.65,3.228,5.881,3.228Zm-5.129-22.152c3.286,0,5.944-1.439,5.944-3.23s-2.659-3.229-5.944-3.229c-3.235,0-5.883,1.438-5.883,3.229s2.649,3.23,5.883,3.23Zm5.129,7.386c3.236,0,5.887-1.441,5.887-3.231s-2.651-3.229-5.887-3.229-5.881,1.443-5.881,3.229,2.65,3.231,5.881,3.231Zm5.143,7.383c3.23,0,5.878-1.441,5.878-3.229s-2.649-3.231-5.878-3.231c-3.294,0-5.946,1.443-5.946,3.231S284.113,251.635,287.407,251.635Z" transform="translate(-244.022 -230.408)" fill="#4ec5f1"/>
            </g>
          </g>
        </g>
      </g>
    </g>
    <g id="white" transform="translate(-251 197.592)">
      <g id="Group_6-2" data-name="Group 6" transform="translate(276.701 239.09)">
        <g id="Group_5-2" data-name="Group 5" transform="translate(0)">
          <g id="Group_3-2" data-name="Group 3" transform="translate(0 10.56)">
            <path id="Path_11-2" data-name="Path 11" d="M522.865,282.917h-.328a.421.421,0,0,0-.387.248.507.507,0,0,0-.027.162v7.188a.4.4,0,0,0,.414.4h.328a.407.407,0,0,0,.38-.243.4.4,0,0,0,.037-.158v-7.188A.411.411,0,0,0,522.865,282.917Z" transform="translate(-482.721 -282.917)" fill="#004e8d"/>
            <path id="Path_12-2" data-name="Path 12" d="M593.679,282.917h-.337a.413.413,0,0,0-.375.248.4.4,0,0,0-.032.162v7.188a.4.4,0,0,0,.407.4h.337a.423.423,0,0,0,.382-.243.418.418,0,0,0,.03-.158v-7.188A.408.408,0,0,0,593.679,282.917Z" transform="translate(-527.585 -282.917)" fill="#004e8d"/>
            <path id="Path_13-2" data-name="Path 13" d="M435.1,287.677h-1.349a1.887,1.887,0,0,0-1.922,1.845v2.569a1.89,1.89,0,0,0,1.922,1.851H435.1a1.937,1.937,0,0,0,1.255-.451,1.836,1.836,0,0,0,.567-.772.4.4,0,0,0-.043-.365.408.408,0,0,0-.343-.177h-.364a.372.372,0,0,0-.363.221.812.812,0,0,1-.709.421h-1.349a.752.752,0,0,1-.767-.727v-.719h3.464a.57.57,0,0,0,.585-.567v-1.283A1.893,1.893,0,0,0,435.1,287.677Zm-2.116,1.845a.747.747,0,0,1,.767-.717H435.1a.748.748,0,0,1,.777.717v.729H432.98Z" transform="translate(-425.512 -285.933)" fill="#004e8d"/>
            <path id="Path_14-2" data-name="Path 14" d="M451.718,288.8h1.35a.789.789,0,0,1,.693.376.4.4,0,0,0,.386.267h.356a.41.41,0,0,0,.345-.185.38.38,0,0,0,.042-.354,1.853,1.853,0,0,0-.563-.785,1.958,1.958,0,0,0-1.259-.447h-1.35a1.888,1.888,0,0,0-1.923,1.845v2.569a1.891,1.891,0,0,0,1.923,1.851h1.35a1.953,1.953,0,0,0,1.256-.451,1.868,1.868,0,0,0,.563-.772.39.39,0,0,0-.04-.365.413.413,0,0,0-.345-.177h-.368a.368.368,0,0,0-.359.221.815.815,0,0,1-.708.421h-1.35a.747.747,0,0,1-.764-.727v-2.569A.742.742,0,0,1,451.718,288.8Z" transform="translate(-436.897 -285.933)" fill="#004e8d"/>
            <path id="Path_15-2" data-name="Path 15" d="M470.533,284.661h-2.116v-1.336a.409.409,0,0,0-.413-.409h-.331a.412.412,0,0,0-.38.251.381.381,0,0,0-.033.159v7.188a.4.4,0,0,0,.413.4H468a.412.412,0,0,0,.38-.243.389.389,0,0,0,.033-.158v-4.725h2.116a.747.747,0,0,1,.775.717v4.019a.4.4,0,0,0,.412.4h.332a.4.4,0,0,0,.413-.4v-4.019A1.891,1.891,0,0,0,470.533,284.661Z" transform="translate(-447.962 -282.917)" fill="#004e8d"/>
            <path id="Path_16-2" data-name="Path 16" d="M488.858,287.663H486a.4.4,0,0,0-.41.4v5.455a.4.4,0,0,0,.41.4h.332a.4.4,0,0,0,.41-.4v-4.737h2.119a.747.747,0,0,1,.779.729v4.008a.4.4,0,0,0,.406.4h.335a.4.4,0,0,0,.41-.4v-4.008A1.891,1.891,0,0,0,488.858,287.663Z" transform="translate(-459.574 -285.924)" fill="#004e8d"/>
            <path id="Path_17-2" data-name="Path 17" d="M506.912,287.677h-1.351a1.887,1.887,0,0,0-1.921,1.845v2.569a1.884,1.884,0,0,0,1.921,1.84h1.351a1.89,1.89,0,0,0,1.932-1.84v-2.569A1.893,1.893,0,0,0,506.912,287.677Zm-2.114,1.845a.741.741,0,0,1,.763-.717h1.351a.75.75,0,0,1,.774.717v2.569a.751.751,0,0,1-.774.715h-1.351a.743.743,0,0,1-.763-.715Z" transform="translate(-471.011 -285.933)" fill="#004e8d"/>
            <path id="Path_18-2" data-name="Path 18" d="M532.776,287.677h-1.354a1.888,1.888,0,0,0-1.922,1.845v2.569a1.885,1.885,0,0,0,1.922,1.84h1.354a1.887,1.887,0,0,0,1.929-1.84v-2.569A1.89,1.89,0,0,0,532.776,287.677Zm-2.111,1.845a.738.738,0,0,1,.758-.717h1.354a.747.747,0,0,1,.773.717v2.569a.749.749,0,0,1-.773.715h-1.354a.739.739,0,0,1-.758-.715Z" transform="translate(-487.396 -285.933)" fill="#004e8d"/>
            <path id="Path_19-2" data-name="Path 19" d="M569.8,287.677h-.234a.6.6,0,0,0-.547.361L567.38,292.3l-1.645-4.268a.588.588,0,0,0-.54-.351h-.235a.413.413,0,0,0-.342.182.381.381,0,0,0-.045.366l2.185,5.67-.473,1.228a.406.406,0,0,0,.047.377.4.4,0,0,0,.333.177h.241a.6.6,0,0,0,.549-.368l2.73-7.088a.374.374,0,0,0-.047-.365A.4.4,0,0,0,569.8,287.677Z" transform="translate(-509.599 -285.933)" fill="#004e8d"/>
            <path id="Path_20-2" data-name="Path 20" d="M603.953,287.663H601.1a.4.4,0,0,0-.415.4v5.455a.406.406,0,0,0,.415.4h.33a.4.4,0,0,0,.407-.4v-4.737h2.114a.744.744,0,0,1,.776.729v4.008a.4.4,0,0,0,.411.4h.339a.4.4,0,0,0,.41-.4v-4.008A1.894,1.894,0,0,0,603.953,287.663Z" transform="translate(-532.496 -285.924)" fill="#004e8d"/>
            <path id="Path_21-2" data-name="Path 21" d="M673.641,287.663h-.333a.4.4,0,0,0-.416.4V292.8h-2.109a.746.746,0,0,1-.781-.726v-4.006a.4.4,0,0,0-.406-.4h-.332a.4.4,0,0,0-.415.4v4.006a1.9,1.9,0,0,0,1.933,1.851h2.858a.406.406,0,0,0,.413-.4v-5.455A.4.4,0,0,0,673.641,287.663Z" transform="translate(-575.683 -285.924)" fill="#004e8d"/>
            <path id="Path_22-2" data-name="Path 22" d="M703.361,291.372a.572.572,0,0,0,.586-.567v-1.283a1.893,1.893,0,0,0-1.935-1.845h-1.346a1.89,1.89,0,0,0-1.923,1.845v2.569a1.893,1.893,0,0,0,1.923,1.851h1.346a1.939,1.939,0,0,0,1.256-.451,1.875,1.875,0,0,0,.567-.772.4.4,0,0,0-.045-.365.413.413,0,0,0-.345-.177h-.361a.364.364,0,0,0-.362.221.813.813,0,0,1-.71.421h-1.346a.748.748,0,0,1-.766-.727v-.719Zm-2.7-2.567h1.346a.749.749,0,0,1,.778.717v.729H699.9v-.729A.743.743,0,0,1,700.665,288.8Z" transform="translate(-594.62 -285.933)" fill="#004e8d"/>
            <path id="Path_23-2" data-name="Path 23" d="M638.888,290.881a.419.419,0,0,0-.155-.032l-1,0a.746.746,0,0,1-.767-.715v-3.283h1.663a.4.4,0,0,0,.392-.407v-.323a.4.4,0,0,0-.239-.371.39.39,0,0,0-.156-.031h-1.66V285a.413.413,0,0,0-.412-.4h-.334a.415.415,0,0,0-.412.4v5.141a1.887,1.887,0,0,0,1.925,1.841h1a.394.394,0,0,0,.392-.4v-.32A.4.4,0,0,0,638.888,290.881Z" transform="translate(-554.749 -283.979)" fill="#004e8d"/>
            <path id="Path_24-2" data-name="Path 24" d="M659.6,290.881a.423.423,0,0,0-.158-.032l-1,0a.742.742,0,0,1-.761-.715v-3.283h1.661a.394.394,0,0,0,.393-.407v-.323a.389.389,0,0,0-.393-.4h-1.661V285a.416.416,0,0,0-.415-.4h-.332a.414.414,0,0,0-.412.4v5.141a1.885,1.885,0,0,0,1.921,1.841h1.008a.391.391,0,0,0,.388-.4v-.32A.4.4,0,0,0,659.6,290.881Z" transform="translate(-567.87 -283.979)" fill="#004e8d"/>
            <path id="Path_25-2" data-name="Path 25" d="M690.115,290.881a.443.443,0,0,0-.157-.032l-1,0a.744.744,0,0,1-.767-.715v-3.283h1.667a.4.4,0,0,0,.39-.407v-.323a.4.4,0,0,0-.239-.371.407.407,0,0,0-.156-.031H688.19V285a.413.413,0,0,0-.41-.4h-.334a.414.414,0,0,0-.411.4v5.141a1.884,1.884,0,0,0,1.923,1.841h1a.4.4,0,0,0,.4-.4v-.32A.407.407,0,0,0,690.115,290.881Z" transform="translate(-587.203 -283.979)" fill="#004e8d"/>
            <path id="Path_26-2" data-name="Path 26" d="M649.608,282.917h-.331a.412.412,0,0,0-.38.248.462.462,0,0,0-.033.162v1.007a.4.4,0,0,0,.411.4h.333a.4.4,0,0,0,.379-.241.33.33,0,0,0,.036-.161v-1.008A.409.409,0,0,0,649.608,282.917Z" transform="translate(-563.02 -282.917)" fill="#004e8d"/>
            <path id="Path_27-2" data-name="Path 27" d="M649.608,289.88h-.331a.41.41,0,0,0-.38.247.431.431,0,0,0-.033.157v4.641a.4.4,0,0,0,.411.4h.333a.408.408,0,0,0,.379-.24.344.344,0,0,0,.036-.161v-4.641A.406.406,0,0,0,649.608,289.88Z" transform="translate(-563.02 -287.329)" fill="#004e8d"/>
            <path id="Path_28-2" data-name="Path 28" d="M420.506,282.953a.435.435,0,0,0-.17-.036h-5.343a.408.408,0,0,0-.4.409v.322a.4.4,0,0,0,.4.4h2.1v6.464a.4.4,0,0,0,.4.4h.344a.413.413,0,0,0,.415-.4V284.05h2.1a.394.394,0,0,0,.4-.4v-.322A.4.4,0,0,0,420.506,282.953Z" transform="translate(-414.597 -282.917)" fill="#004e8d"/>
            <path id="Path_29-2" data-name="Path 29" d="M552.172,287.677H549.3a1.885,1.885,0,0,0-1.918,1.845V291.7a1.889,1.889,0,0,0,1.918,1.851h2.128v.269a.758.758,0,0,1-.77.724h-2.129a.362.362,0,0,0-.158.026.4.4,0,0,0-.238.372v.326a.393.393,0,0,0,.4.4h2.122a1.9,1.9,0,0,0,1.935-1.852v-5.741A.411.411,0,0,0,552.172,287.677Zm-3.631,1.845a.743.743,0,0,1,.763-.717h2.128v3.626H549.3a.747.747,0,0,1-.763-.726Z" transform="translate(-498.727 -285.933)" fill="#004e8d"/>
            <path id="Path_30-2" data-name="Path 30" d="M621.532,290.251h-1.3a.841.841,0,0,1-.538-.21.676.676,0,0,1-.249-.479.7.7,0,0,1,.211-.532.771.771,0,0,1,.555-.225h2.332a.4.4,0,0,0,.4-.4v-.325a.4.4,0,0,0-.243-.368.407.407,0,0,0-.152-.034h-2.291a2.067,2.067,0,0,0-1.411.563,1.794,1.794,0,0,0-.557,1.32,1.847,1.847,0,0,0,.584,1.283,1.986,1.986,0,0,0,1.343.53h1.34a.831.831,0,0,1,.535.2.659.659,0,0,1,.251.479.71.71,0,0,1-.209.535.793.793,0,0,1-.568.223l-2.625,0a.394.394,0,0,0-.394.4v.323a.394.394,0,0,0,.241.369.364.364,0,0,0,.154.033h2.623a1.988,1.988,0,0,0,1.356-.525,1.827,1.827,0,0,0,.576-1.276,1.786,1.786,0,0,0-.553-1.327A2.066,2.066,0,0,0,621.532,290.251Z" transform="translate(-543.648 -285.933)" fill="#004e8d"/>
          </g>
          <g id="Group_4-2" data-name="Group 4" transform="translate(1.163)">
            <path id="Path_31-2" data-name="Path 31" d="M439.324,258.854h-1.347a1.887,1.887,0,0,0-1.925,1.843v2.567a1.885,1.885,0,0,0,1.925,1.841h1.347a1.89,1.89,0,0,0,1.932-1.841V260.7A1.892,1.892,0,0,0,439.324,258.854Zm-2.118,1.843a.749.749,0,0,1,.771-.717h1.347a.751.751,0,0,1,.775.717v2.567a.75.75,0,0,1-.775.719h-1.347a.748.748,0,0,1-.771-.719Z" transform="translate(-429.353 -257.112)" fill="#004e8d"/>
            <path id="Path_32-2" data-name="Path 32" d="M469.467,258.854h-1.35A1.883,1.883,0,0,0,466.2,260.7v2.567a1.887,1.887,0,0,0,1.919,1.853h1.35a1.919,1.919,0,0,0,1.255-.451,1.814,1.814,0,0,0,.566-.774.414.414,0,0,0-.039-.366.422.422,0,0,0-.349-.177h-.36a.379.379,0,0,0-.365.221.8.8,0,0,1-.709.421h-1.35a.743.743,0,0,1-.761-.728v-.715h3.463a.567.567,0,0,0,.581-.568V260.7A1.89,1.89,0,0,0,469.467,258.854Zm-2.111,1.843a.74.74,0,0,1,.761-.717h1.35a.754.754,0,0,1,.78.717v.726h-2.891Z" transform="translate(-448.452 -257.112)" fill="#004e8d"/>
            <path id="Path_33-2" data-name="Path 33" d="M532.211,254.1h-.335a.416.416,0,0,0-.381.244.421.421,0,0,0-.032.162v7.185a.4.4,0,0,0,.414.4h.335a.41.41,0,0,0,.376-.243.4.4,0,0,0,.03-.161V254.5A.4.4,0,0,0,532.211,254.1Z" transform="translate(-489.801 -254.1)" fill="#004e8d"/>
            <path id="Path_34-2" data-name="Path 34" d="M542.249,258.854H540.9a1.884,1.884,0,0,0-1.924,1.843v2.567a1.888,1.888,0,0,0,1.924,1.853h1.351a1.938,1.938,0,0,0,1.255-.451,1.857,1.857,0,0,0,.564-.774.394.394,0,0,0-.044-.368.421.421,0,0,0-.343-.176h-.364a.38.38,0,0,0-.365.221.8.8,0,0,1-.7.421H540.9a.749.749,0,0,1-.767-.728v-.715H543.6a.57.57,0,0,0,.584-.568V260.7A1.892,1.892,0,0,0,542.249,258.854Zm-2.117,1.843a.746.746,0,0,1,.767-.717h1.351a.748.748,0,0,1,.772.717v.726h-2.889Z" transform="translate(-494.56 -257.112)" fill="#004e8d"/>
            <path id="Path_35-2" data-name="Path 35" d="M558.771,259.98h1.344a.783.783,0,0,1,.693.38.408.408,0,0,0,.391.263h.354a.411.411,0,0,0,.344-.186.38.38,0,0,0,.042-.352,1.779,1.779,0,0,0-.562-.784,1.933,1.933,0,0,0-1.262-.447h-1.344a1.889,1.889,0,0,0-1.929,1.843v2.567a1.893,1.893,0,0,0,1.929,1.853h1.344a1.931,1.931,0,0,0,1.257-.451,1.846,1.846,0,0,0,.566-.774.4.4,0,0,0-.045-.366.41.41,0,0,0-.342-.177h-.363a.381.381,0,0,0-.368.221.793.793,0,0,1-.706.421h-1.344a.746.746,0,0,1-.767-.728V260.7A.743.743,0,0,1,558.771,259.98Z" transform="translate(-505.881 -257.112)" fill="#004e8d"/>
            <path id="Path_36-2" data-name="Path 36" d="M601.948,258.854H600.6a1.887,1.887,0,0,0-1.923,1.843v2.567a1.885,1.885,0,0,0,1.923,1.841h1.349a1.888,1.888,0,0,0,1.933-1.841V260.7A1.89,1.89,0,0,0,601.948,258.854Zm-2.11,1.843a.742.742,0,0,1,.761-.717h1.349a.75.75,0,0,1,.777.717v2.567a.749.749,0,0,1-.777.719H600.6a.741.741,0,0,1-.761-.719Z" transform="translate(-532.385 -257.112)" fill="#004e8d"/>
            <path id="Path_37-2" data-name="Path 37" d="M619.8,258.828h-2.855a.4.4,0,0,0-.412.4v5.453a.4.4,0,0,0,.412.4h.333a.4.4,0,0,0,.41-.4v-4.731H619.8a.742.742,0,0,1,.775.726v4.006a.4.4,0,0,0,.414.4h.335a.4.4,0,0,0,.407-.4V260.68A1.894,1.894,0,0,0,619.8,258.828Z" transform="translate(-543.698 -257.095)" fill="#004e8d"/>
            <path id="Path_38-2" data-name="Path 38" d="M644.18,259.98h1.347a.8.8,0,0,1,.7.378.4.4,0,0,0,.387.266h.353a.414.414,0,0,0,.347-.184.383.383,0,0,0,.042-.354,1.76,1.76,0,0,0-.568-.784,1.9,1.9,0,0,0-1.257-.447H644.18a1.888,1.888,0,0,0-1.922,1.843v2.567a1.891,1.891,0,0,0,1.922,1.853h1.347a1.932,1.932,0,0,0,1.257-.451,1.877,1.877,0,0,0,.568-.777.4.4,0,0,0-.042-.363.423.423,0,0,0-.347-.177H646.6a.377.377,0,0,0-.365.221.794.794,0,0,1-.709.421H644.18a.747.747,0,0,1-.764-.728V260.7A.744.744,0,0,1,644.18,259.98Z" transform="translate(-559.997 -257.112)" fill="#004e8d"/>
            <path id="Path_39-2" data-name="Path 39" d="M421.016,257.94l2.363-3.2a.393.393,0,0,0,.043-.417.409.409,0,0,0-.373-.226h-.321a.608.608,0,0,0-.47.23l-2.2,2.971a.357.357,0,0,1-.3.141h-.833V254.5a.405.405,0,0,0-.414-.4h-.327a.412.412,0,0,0-.385.244.417.417,0,0,0-.035.162v7.185a.407.407,0,0,0,.42.4h.327a.4.4,0,0,0,.38-.243.365.365,0,0,0,.034-.161v-3.122h.928a.375.375,0,0,1,.3.147l2.344,3.156a.576.576,0,0,0,.459.222h.331a.4.4,0,0,0,.361-.21.407.407,0,0,0-.03-.428Z" transform="translate(-417.77 -254.1)" fill="#004e8d"/>
            <path id="Path_40-2" data-name="Path 40" d="M457.5,258.878a.44.44,0,0,0-.169-.032h-1.16a1.885,1.885,0,0,0-1.922,1.844V264.7a.4.4,0,0,0,.412.394h.328a.4.4,0,0,0,.416-.394V260.69a.736.736,0,0,1,.709-.713h1.23a.4.4,0,0,0,.4-.4v-.322A.4.4,0,0,0,457.5,258.878Z" transform="translate(-440.879 -257.107)" fill="#004e8d"/>
            <path id="Path_41-2" data-name="Path 41" d="M590.116,258.878a.455.455,0,0,0-.173-.032h-1.162a1.887,1.887,0,0,0-1.921,1.844V264.7a.406.406,0,0,0,.416.394h.327a.4.4,0,0,0,.414-.394V260.69a.738.738,0,0,1,.712-.713h1.229a.4.4,0,0,0,.4-.4v-.322A.4.4,0,0,0,590.116,258.878Z" transform="translate(-524.9 -257.107)" fill="#004e8d"/>
            <path id="Path_42-2" data-name="Path 42" d="M486.7,258.854h-2.2a.425.425,0,0,0-.155.029.4.4,0,0,0-.237.373v.322a.39.39,0,0,0,.392.4h2.2a.75.75,0,0,1,.778.717v.47h-2.128a1.887,1.887,0,0,0-1.917,1.844v.253a1.888,1.888,0,0,0,1.917,1.853h2.7a.57.57,0,0,0,.583-.569V260.7A1.892,1.892,0,0,0,486.7,258.854Zm-2.115,4.157a.745.745,0,0,1,.765-.718h2.128v1.7h-2.128a.749.749,0,0,1-.765-.728Z" transform="translate(-459.373 -257.112)" fill="#004e8d"/>
            <path id="Path_43-2" data-name="Path 43" d="M517.4,254.132a.378.378,0,0,0-.172-.032h-4.486a.571.571,0,0,0-.569.568v6.869a.56.56,0,0,0,.552.557h4.522a.394.394,0,0,0,.4-.4v-.324a.407.407,0,0,0-.245-.373.393.393,0,0,0-.152-.031h-3.919V258.5h3.115a.4.4,0,0,0,.4-.4v-.322a.4.4,0,0,0-.24-.373.442.442,0,0,0-.16-.032h-3.115v-2.144h3.919a.4.4,0,0,0,.4-.4V254.5A.4.4,0,0,0,517.4,254.132Z" transform="translate(-477.579 -254.1)" fill="#004e8d"/>
            <path id="Path_44-2" data-name="Path 44" d="M577.476,262.055a.47.47,0,0,0-.157-.029l-1,0a.74.74,0,0,1-.761-.719v-3.281h1.659a.4.4,0,0,0,.4-.4V257.3a.4.4,0,0,0-.242-.373.409.409,0,0,0-.155-.032h-1.659v-.722a.416.416,0,0,0-.417-.4h-.331a.413.413,0,0,0-.412.4v5.135a1.887,1.887,0,0,0,1.921,1.845h1a.4.4,0,0,0,.394-.405v-.319A.411.411,0,0,0,577.476,262.055Z" transform="translate(-517.002 -255.158)" fill="#004e8d"/>
            <path id="Path_45-2" data-name="Path 45" d="M635.748,254.1h-.329a.4.4,0,0,0-.413.406v1.007a.4.4,0,0,0,.413.4h.327a.416.416,0,0,0,.384-.243.444.444,0,0,0,.034-.159V254.5A.406.406,0,0,0,635.748,254.1Z" transform="translate(-555.402 -254.1)" fill="#004e8d"/>
            <path id="Path_46-2" data-name="Path 46" d="M635.748,261.055h-.329a.412.412,0,0,0-.383.244.421.421,0,0,0-.03.162V266.1a.4.4,0,0,0,.413.4h.327a.412.412,0,0,0,.384-.243.432.432,0,0,0,.034-.161v-4.638A.4.4,0,0,0,635.748,261.055Z" transform="translate(-555.402 -258.506)" fill="#004e8d"/>
            <path id="Path_47-2" data-name="Path 47" d="M662.376,261.423h-1.3a.852.852,0,0,1-.537-.207.668.668,0,0,1-.247-.478.72.72,0,0,1,.21-.535.773.773,0,0,1,.553-.223h2.332a.392.392,0,0,0,.4-.4v-.322a.4.4,0,0,0-.238-.372.43.43,0,0,0-.158-.03H661.1a2.079,2.079,0,0,0-1.417.559,1.773,1.773,0,0,0-.553,1.319,1.813,1.813,0,0,0,.584,1.285,1.971,1.971,0,0,0,1.337.532H662.4a.856.856,0,0,1,.538.195.683.683,0,0,1,.247.48.7.7,0,0,1-.211.535.775.775,0,0,1-.564.224h-2.623a.393.393,0,0,0-.394.4v.322a.4.4,0,0,0,.237.372.369.369,0,0,0,.156.03h2.623a1.989,1.989,0,0,0,1.356-.525,1.819,1.819,0,0,0,.576-1.278,1.742,1.742,0,0,0-.557-1.323A2.06,2.06,0,0,0,662.376,261.423Z" transform="translate(-570.689 -257.112)" fill="#004e8d"/>
          </g>
        </g>
      </g>
      <g id="Group_10-2" data-name="Group 10" transform="translate(196.945 230.408)">
        <g id="Group_9-2" data-name="Group 9">
          <g id="Group_8-2" data-name="Group 8">
            <g id="Group_7-2" data-name="Group 7">
              <path id="Path_48-2" data-name="Path 48" d="M262.19,254.326h6.8v18.462h-6.8V254.326Zm-7.327,3.926v14.536h-6.753V258.252H242v-3.926h18.971v3.926Zm-24.519-.228h-5.712v3.689h10.843a2.372,2.372,0,0,0-1.093,1.847,2.347,2.347,0,0,0,1.093,1.838H224.633v3.7h5.712a2.155,2.155,0,0,0,0,3.688H217.883V254.326h12.461a2.165,2.165,0,0,0,0,3.7Zm-21.575-3.7h7.906L210.5,263.56l6.175,9.228H208.77l-5.02-8.711v8.711h-6.8V254.326h6.8v8.714Z" transform="translate(-196.945 -245.562)" fill="#004e8d"/>
              <path id="Path_49-2" data-name="Path 49" d="M277.134,266.408c3.286,0,5.944-1.448,5.944-3.232s-2.659-3.236-5.944-3.236c-3.235,0-5.883,1.443-5.883,3.236s2.649,3.232,5.883,3.232Zm5.129-7.39c3.236,0,5.887-1.443,5.887-3.228s-2.651-3.234-5.887-3.234-5.881,1.442-5.881,3.234,2.65,3.228,5.881,3.228Zm-5.129-22.152c3.286,0,5.944-1.439,5.944-3.23s-2.659-3.229-5.944-3.229c-3.235,0-5.883,1.438-5.883,3.229s2.649,3.23,5.883,3.23Zm5.129,7.386c3.236,0,5.887-1.441,5.887-3.231s-2.651-3.229-5.887-3.229-5.881,1.443-5.881,3.229,2.65,3.231,5.881,3.231Zm5.143,7.383c3.23,0,5.878-1.441,5.878-3.229s-2.649-3.231-5.878-3.231c-3.294,0-5.946,1.443-5.946,3.231S284.113,251.635,287.407,251.635Z" transform="translate(-244.022 -230.408)" fill="#4ec5f1"/>
            </g>
          </g>
        </g>
      </g>
    </g>
  </g>
</svg>
