<svg xmlns="http://www.w3.org/2000/svg" width="142" height="44" viewBox="0 0 142 44">
  <g id="KIRIA2-logo" transform="translate(-526 -136)">
    <rect id="area" width="142" height="44" transform="translate(526 136)" fill="#fff" opacity="0"/>
    <g id="Layer_1" data-name="Layer 1" transform="translate(526 136)">
      <path id="Path_4531" data-name="Path 4531" d="M94.835,122.667l.287-.026v-.931h-6.91v.931l.524.078a.171.171,0,0,1-.02.026,16.373,16.373,0,0,1-1.541,1.726c-.087.082-.166.155-.241.214v-1.268c0-.678,0-.678.574-.734l.286-.026v-.931H84.21v.931l.287.026c.621.057.621.057.621.734v4.047c0,.68,0,.68-.585.736l-.286.028v.931h3.62v-.94l-.289-.025c-.635-.056-.635-.056-.635-.736V126.1c.855,1.165,1.685,2.262,2.227,2.939l.095.119h5.861v-.948l-.287-.026c-.605-.056-.605-.056-.605-.714v-4.089C94.23,122.723,94.23,122.723,94.835,122.667Zm-2.453,4.81c0,.658,0,.658-.621.714l-.239.022-.144-.02c-.338-.047-.521-.119-.985-.666-.383-.466-1.324-1.608-2.129-2.726.49-.507.981-1.01,1.451-1.456a2.1,2.1,0,0,1,1.5-.67l.262-.026h0l.289.026c.621.057.621.057.621.714Z" transform="translate(-71.133 -102.82)" fill="#a7a9ac"/>
      <path id="Path_4532" data-name="Path 4532" d="M172.948,127.294c-.506-.054-.571-.064-.892-.92-.466-1.241-.931-2.523-1.386-3.8l-.715-1.988-.894.244-2.219,5.561c-.324.819-.38.827-.92.894h-.061l-.093-.008c-.605-.054-.605-.054-.605-.714v-4.076c0-.658,0-.658.605-.714l.287-.026v-.931h-3.64v.931l.287.026c.621.056.621.056.621.714v4.089c0,.656,0,.656-.621.714l-.273.023a.805.805,0,0,1-.514-.275,7.5,7.5,0,0,1-.776-1.075c-.227-.346-.517-.829-.718-1.184a2.053,2.053,0,0,0,1.2-1.884,1.92,1.92,0,0,0-.838-1.653,3.357,3.357,0,0,0-1.983-.435h-3.13v.931l.286.026c.583.056.583.056.583.7v4.1c0,.656,0,.656-.621.714l-.287.026v.931h3.642v-.931l-.287-.026c-.621-.057-.621-.057-.621-.714v-1.263a.434.434,0,0,1,.425.279l.245.436c.23.414.466.832.691,1.178.542.807,1.086.987,2.255,1.041l.433.009h6.181v-.931l-.278-.033c-.3-.037-.408-.071-.439-.071h-.008a.931.931,0,0,1,.07-.318c.1-.337.217-.667.329-.979h1.646c.155.427.3.832.4,1.131a1.212,1.212,0,0,0,.056.155,1.735,1.735,0,0,1-.351.078l-.268.042v.931h3.468v-.931Zm-13.674-3.211a1.322,1.322,0,0,1-.867.208h-.04v-2.252a.985.985,0,0,0,0-.18,1.115,1.115,0,0,1,.295-.028c.31,0,1.026.119,1.026,1.224A1.247,1.247,0,0,1,159.273,124.083Zm9.394.7.438-1.2.417,1.2Z" transform="translate(-131.471 -101.874)" fill="#a7a9ac"/>
      <path id="Path_4533" data-name="Path 4533" d="M91.136,130.828c-.576-.728-1.446-1.884-2.256-2.984-.228-.3-.366-.354-.532-.332v1.929c0,.9.092.975.922,1.047v.34h-2.99v-.341c.776-.073.872-.155.872-1.047v-4.052c0-.911-.095-.973-.9-1.047V124h2.958v.338c-.776.074-.86.137-.86,1.047v1.8a1.958,1.958,0,0,0,.776-.523,16.334,16.334,0,0,0,1.57-1.763c.276-.337.251-.466-.23-.534l-.211-.033V124h2.655v.338a2.4,2.4,0,0,0-1.679.759c-.535.5-1.086,1.078-1.645,1.653.709,1.006,1.625,2.155,2.293,2.956.484.573.737.715,1.189.776v.346Z" transform="translate(-72.857 -104.755)" fill="#002659"/>
      <path id="Path_4534" data-name="Path 4534" d="M133.1,130.828v-.341c.807-.073.9-.137.9-1.027v-4.094c0-.889-.095-.951-.9-1.026V124h3.01v.338c-.807.074-.892.137-.892,1.026v4.094c0,.891.085.954.892,1.027v.343Z" transform="translate(-112.437 -104.755)" fill="#002659"/>
      <path id="Path_4535" data-name="Path 4535" d="M163.988,130.915c-.084,0-.2-.011-.324-.011a2.057,2.057,0,0,1-1.994-.993c-.31-.466-.621-1.061-.923-1.6a.762.762,0,0,0-.776-.436h-.241v1.581c0,.871.095.954.9,1.027v.341H157.62v-.341c.81-.073.916-.155.916-1.027v-4.1c0-.861-.1-.943-.872-1.018V124h2.809a3.062,3.062,0,0,1,1.8.379,1.614,1.614,0,0,1,.7,1.4,1.861,1.861,0,0,1-1.322,1.743c.169.32.576,1.013.892,1.491a7.17,7.17,0,0,0,.818,1.125,1.412,1.412,0,0,0,.683.466Zm-3.9-3.426a1.6,1.6,0,0,0,1.069-.286,1.546,1.546,0,0,0,.523-1.269c0-1.133-.681-1.536-1.344-1.536a.839.839,0,0,0-.51.1c-.07.062-.095.18-.095.417v2.574Z" transform="translate(-133.152 -104.755)" fill="#002659"/>
      <path id="Path_4536" data-name="Path 4536" d="M201.37,130.828v-.341c.808-.073.9-.137.9-1.027v-4.094c0-.889-.093-.951-.9-1.026V124h3.013v.338c-.81.074-.9.137-.9,1.026v4.094c0,.891.085.954.9,1.027v.343Z" transform="translate(-170.113 -104.755)" fill="#002659"/>
      <path id="Path_4537" data-name="Path 4537" d="M226.315,130.034v-.341c.621-.093.7-.206.542-.65-.116-.344-.295-.839-.484-1.344h-2.087c-.133.383-.282.785-.407,1.21-.178.562-.126.691.638.784v.341H222.2v-.341c.683-.081.819-.189,1.172-1.086l2.165-5.422.466-.124c.661,1.826,1.322,3.71,2,5.52.344.92.483,1.046,1.154,1.119v.335Zm-.945-5.26h-.025c-.31.81-.6,1.626-.891,2.416H226.2Z" transform="translate(-187.711 -103.961)" fill="#002659"/>
      <path id="Path_4538" data-name="Path 4538" d="M18.518,10.136a28.274,28.274,0,0,0-5.845-5.593A30.268,30.268,0,0,0,6.605.939,13.379,13.379,0,0,0,4.262.151,6.207,6.207,0,0,0,2.6-.018,2.881,2.881,0,0,0,.5.893,3.009,3.009,0,0,0-.052,2.88,6.019,6.019,0,0,0,.479,4.887,18.291,18.291,0,0,0,3.291,9.356a26.676,26.676,0,0,0,3.383,3.457c.155.138.31.379.521.127.183-.227.022-.379-.076-.566a15.6,15.6,0,0,1-.8-1.822,9.43,9.43,0,0,1-.445-1.6,3.569,3.569,0,0,1,.009-1.477A2.172,2.172,0,0,1,6.407,6.5a2.328,2.328,0,0,1,1.3-.632,4.717,4.717,0,0,1,1.915.155,15.778,15.778,0,0,1,3.145,1.226,36.133,36.133,0,0,1,5.276,3.3c.182.133.32.332.571.141S18.653,10.318,18.518,10.136ZM14.887,7.925a23.4,23.4,0,0,0-3.1-1.7,14.057,14.057,0,0,0-1.465-.565A7.95,7.95,0,0,0,8.9,5.341a4.722,4.722,0,0,0-1.29,0,3.085,3.085,0,0,0-.776.222,2.532,2.532,0,0,0-.9.678,2.911,2.911,0,0,0-.621,1.5,4.2,4.2,0,0,0,.068,1.431,7.07,7.07,0,0,0,.365,1.155A11.163,11.163,0,0,0,6.805,12.3a26.5,26.5,0,0,1-3.15-3.246A18.05,18.05,0,0,1,.915,4.7a5.568,5.568,0,0,1-.49-1.851A2.473,2.473,0,0,1,.865,1.194,1.932,1.932,0,0,1,1.733.619,3.335,3.335,0,0,1,2.769.464a7.79,7.79,0,0,1,2.8.576,26.692,26.692,0,0,1,6.381,3.569A28.573,28.573,0,0,1,17.97,10.2a31.056,31.056,0,0,0-3.083-2.27Z" transform="translate(0.061 0.022)" fill="#a7a9ac"/>
      <path id="Path_4539" data-name="Path 4539" d="M10.688,16.315a.095.095,0,1,0,.146-.121,9.738,9.738,0,0,1-1.518-3.226,3.177,3.177,0,0,1,.428-2.731c1.293-1.75,4.266-.945,7.138.608a30.584,30.584,0,0,1,4.98,3.446.094.094,0,1,0,.129-.137c-.29-.31-.583-.621-.884-.919-.869-.878-1.778-1.691-2.733-2.492a39.37,39.37,0,0,0-6.036-4.278,14.2,14.2,0,0,0-5.585-2,2.319,2.319,0,0,0-1.947.655,1.978,1.978,0,0,0-.4,1.148,6.593,6.593,0,0,0,.8,2.877,23.056,23.056,0,0,0,3.175,4.665C9.14,14.7,9.926,15.541,10.688,16.315Z" transform="translate(-3.71 -3.769)" fill="#003974"/>
      <path id="Path_4540" data-name="Path 4540" d="M128.988,185.671a8.67,8.67,0,0,0-.795-2.446,17.116,17.116,0,0,0-2.483-3.816h-1.276l.054.13a8.473,8.473,0,0,1,.507,2.041,4.937,4.937,0,0,1-.048,2.041,2.748,2.748,0,0,1-1.159,1.6,3.389,3.389,0,0,1-1.992.331,11.964,11.964,0,0,1-3.962-1.19,25.493,25.493,0,0,1-3.707-1.978c-.211-.141-.386-.366-.646-.115s0,.427.171.621a24.5,24.5,0,0,0,2.782,2.551,25.63,25.63,0,0,0,4.531,2.969,13.3,13.3,0,0,0,3.495,1.214,5.239,5.239,0,0,0,2.433-.025,2.948,2.948,0,0,0,1.142-.605,2.9,2.9,0,0,0,.757-1.139A4.43,4.43,0,0,0,128.988,185.671Zm-.365,1.06a3.447,3.447,0,0,1-.213.967,2.62,2.62,0,0,1-.512.843,2.246,2.246,0,0,1-.669.5,2.883,2.883,0,0,1-.8.23,5.872,5.872,0,0,1-1.969-.07,10.969,10.969,0,0,1-1.9-.559,19.69,19.69,0,0,1-4.222-2.29,32.411,32.411,0,0,1-2.6-2.041c-.428-.372-.849-.749-1.249-1.147a.094.094,0,0,1,.118-.146,25.414,25.414,0,0,0,2.671,1.519,12.72,12.72,0,0,0,4.289,1.4,4.226,4.226,0,0,0,2.328-.31,2.656,2.656,0,0,0,.94-.776,2.99,2.99,0,0,0,.478-1.086,6.542,6.542,0,0,0-.523-4.17h.54a17.494,17.494,0,0,1,2.106,3.055,12.54,12.54,0,0,1,.776,1.688,7.4,7.4,0,0,1,.331,1.176,4.716,4.716,0,0,1,.074,1.218Z" transform="translate(-95.771 -151.567)" fill="#a7a9ac"/>
      <path id="Path_4541" data-name="Path 4541" d="M117.025,182.83a.095.095,0,1,0-.121.146q.293.276.59.548c.31.284.621.56.942.833s.641.54.968.8.658.518.995.767.68.49,1.026.725.7.466,1.058.678.72.425,1.086.621.745.385,1.127.557.776.331,1.164.466a10.817,10.817,0,0,0,1.2.36,7.985,7.985,0,0,0,1.241.183,4.325,4.325,0,0,0,1.249-.079,2.483,2.483,0,0,0,1.114-.551,2.3,2.3,0,0,0,.642-1.057,3.587,3.587,0,0,0,.1-1.241,6.517,6.517,0,0,0-.22-1.241,9.638,9.638,0,0,0-.419-1.182c-.163-.385-.346-.763-.54-1.133s-.4-.739-.621-1.1-.445-.709-.683-1.055-.484-.683-.737-1.018h-.675a7.923,7.923,0,0,1,.562,1.639,6.134,6.134,0,0,1,.155,1.873,3.229,3.229,0,0,1-.621,1.8,2.864,2.864,0,0,1-1.65.943,4.936,4.936,0,0,1-1.9-.04,12.224,12.224,0,0,1-1.823-.487,17.794,17.794,0,0,1-1.733-.718q-.847-.4-1.656-.872c-.538-.31-1.064-.644-1.577-1A2.45,2.45,0,0,1,117.025,182.83Z" transform="translate(-98.725 -151.947)" fill="#004a8f"/>
      <path id="Path_4542" data-name="Path 4542" d="M128.525,45a23.527,23.527,0,0,0-.808-3.789,12.347,12.347,0,0,0-.745-1.92,7.185,7.185,0,0,0-.636-1.052,4.223,4.223,0,0,0-1.175-1.125,2.6,2.6,0,0,0-1.127-.391,2.54,2.54,0,0,0-1.307.272,4.115,4.115,0,0,0-1.493,1.361,6.646,6.646,0,0,0-1.021,2.227c-.1.393.276.45.563.244a3.184,3.184,0,0,1,1.131-.562,2.3,2.3,0,0,1,1.2.074,3.175,3.175,0,0,1,1.064.621,5.571,5.571,0,0,1,.833.917,13.248,13.248,0,0,1,1.822,3.495,21.644,21.644,0,0,1,.787,2.793.388.388,0,0,0,.017.082h1.057v-.076A17.226,17.226,0,0,0,128.525,45Zm-.466,2.823h-.115a17.322,17.322,0,0,0-2.131-5.478,7.06,7.06,0,0,0-1.386-1.685,3.524,3.524,0,0,0-1.362-.748,2.766,2.766,0,0,0-.7-.092,2.468,2.468,0,0,0-.374.028,2.916,2.916,0,0,0-.992.365,5.974,5.974,0,0,1,.872-1.632,3.838,3.838,0,0,1,.65-.689,2.611,2.611,0,0,1,.664-.391,1.828,1.828,0,0,1,.538-.135h.11a1.65,1.65,0,0,1,.431.057,2.483,2.483,0,0,1,1.074.655,5,5,0,0,1,.839,1.11,9.847,9.847,0,0,1,.776,1.788c.192.545.348,1.117.5,1.746.174.742.31,1.522.425,2.317a17.36,17.36,0,0,1,.171,2.785Z" transform="translate(-101.536 -31.018)" fill="#a7a9ac"/>
      <path id="Path_4543" data-name="Path 4543" d="M130.347,51.035c-.016-.259-.034-.518-.056-.776s-.043-.518-.071-.776-.056-.518-.087-.776-.067-.515-.1-.776-.079-.515-.121-.776-.09-.514-.14-.776-.1-.511-.155-.763-.123-.506-.191-.757-.141-.5-.219-.749-.155-.5-.25-.739-.183-.489-.293-.725a6.8,6.8,0,0,0-.376-.675,7.5,7.5,0,0,0-.439-.646,4.023,4.023,0,0,0-.523-.579,2.724,2.724,0,0,0-.653-.422,1.946,1.946,0,0,0-.753-.2,1.808,1.808,0,0,0-.757.155,2.759,2.759,0,0,0-.666.405,4.2,4.2,0,0,0-.554.548,6.111,6.111,0,0,0-.466.621,7.3,7.3,0,0,0-.386.677c-.118.233-.225.466-.332.708l-.14.31a.093.093,0,0,0,.155.1,2.3,2.3,0,0,1,1.527-.794,2.768,2.768,0,0,1,1.663.537,5.225,5.225,0,0,1,1.224,1.175,9.129,9.129,0,0,1,.888,1.407,14.088,14.088,0,0,1,.672,1.5c.2.511.366,1.03.514,1.552s.272,1.054.371,1.587c.025.137.051.273.076.41Z" transform="translate(-103.571 -33.899)" fill="#005baa"/>
      <path id="Path_4544" data-name="Path 4544" d="M52.73,108.133a.094.094,0,0,0-.172-.073,5.324,5.324,0,0,1-1.536,1.836,3.488,3.488,0,0,1-2.883.43,5.048,5.048,0,0,1-2.359-1.862,10.527,10.527,0,0,1-1.445-2.582,15.8,15.8,0,0,1-.793-2.821,23.088,23.088,0,0,1-.36-2.892,27.974,27.974,0,0,1-.029-2.908q.059-1.452.262-2.894a26.618,26.618,0,0,1,.549-2.851,13.919,13.919,0,0,1,.961-2.742c.053-.106.106-.213.155-.32a.095.095,0,1,0-.155-.095,14.662,14.662,0,0,0-.838,1.4c-.281.523-.542,1.058-.776,1.6s-.456,1.1-.652,1.656-.374,1.128-.538,1.7-.31,1.144-.452,1.722-.267,1.151-.374,1.741-.2,1.172-.278,1.76-.143,1.179-.192,1.771-.085,1.182-.109,1.777-.033,1.189-.029,1.781.019,1.187.051,1.78.081,1.184.147,1.775.155,1.176.262,1.76.242,1.164.4,1.735A15.737,15.737,0,0,0,42.121,114a10.015,10.015,0,0,0,.8,1.587,5.1,5.1,0,0,0,1.167,1.334,3.045,3.045,0,0,0,1.622.669,3.141,3.141,0,0,0,1.707-.438,5.76,5.76,0,0,0,1.378-1.117,10.871,10.871,0,0,0,1.109-1.4,15.841,15.841,0,0,0,.909-1.532c.275-.526.524-1.065.756-1.612s.444-1.1.638-1.662S52.57,108.706,52.73,108.133Z" transform="translate(-34.363 -74.586)" fill="#002659"/>
      <path id="Path_4545" data-name="Path 4545" d="M46.942,105.417a6.718,6.718,0,0,1-1.1,1.241,3.724,3.724,0,0,1-1.477.742,3.155,3.155,0,0,1-1.643-.036,3.754,3.754,0,0,1-1.415-.852,7.045,7.045,0,0,1-1.071-1.271,10.708,10.708,0,0,1-.824-1.446,12.378,12.378,0,0,1-.6-1.552,16.493,16.493,0,0,1-.411-1.614q-.164-.815-.267-1.642c-.068-.551-.116-1.1-.147-1.659s-.043-1.109-.042-1.665.019-1.109.048-1.663.068-1.108.123-1.66.118-1.1.2-1.654.168-1.092.276-1.632A15.8,15.8,0,0,1,39,87.445c.164-.523.358-1.057.573-1.57.088-.216.25-.408-.012-.6s-.382.07-.517.261A24.322,24.322,0,0,0,36.3,90.579a30.06,30.06,0,0,0-1.84,6.867,34.076,34.076,0,0,0-.247,7.746c.073.919.185,1.836.343,2.742a19.665,19.665,0,0,0,.931,3.518,9.931,9.931,0,0,0,1.389,2.6,5.725,5.725,0,0,0,1.232,1.2,3.89,3.89,0,0,0,1.853.72,3.931,3.931,0,0,0,1.7-.25,5.688,5.688,0,0,0,1.9-1.218,9.495,9.495,0,0,0,1.726-2.269,15.89,15.89,0,0,0,.826-1.69A24.023,24.023,0,0,0,47.54,105.6C47.65,104.992,47.288,104.944,46.942,105.417Zm-1.266,4.941a13.986,13.986,0,0,1-1.159,2.235,7.98,7.98,0,0,1-1.632,1.873,4.742,4.742,0,0,1-1.695.917,3.258,3.258,0,0,1-1.2.116,3.358,3.358,0,0,1-1.3-.43,5.266,5.266,0,0,1-1.746-1.729,10.488,10.488,0,0,1-1.086-2.248,18.849,18.849,0,0,1-.678-2.428,28.892,28.892,0,0,1-.591-5.023,33.184,33.184,0,0,1,.805-8.622,28.346,28.346,0,0,1,1.564-4.81,23.6,23.6,0,0,1,2.455-4.385l-.155.3a16.653,16.653,0,0,0-1.313,4.368c-.133.748-.245,1.5-.327,2.248a28.34,28.34,0,0,0-.155,4.106,23.724,23.724,0,0,0,.493,4.078,15.324,15.324,0,0,0,.635,2.216,11.406,11.406,0,0,0,1.3,2.469,6.469,6.469,0,0,0,1.688,1.736,3.772,3.772,0,0,0,1.086.5,3.308,3.308,0,0,0,1.2.1,3.654,3.654,0,0,0,2.017-.888,6.026,6.026,0,0,0,1.172-1.552A23.693,23.693,0,0,1,45.676,110.358Z" transform="translate(-28.799 -71.981)" fill="#a7a9ac"/>
      <path id="Path_4546" data-name="Path 4546" d="M295.78,124.158v-1.277h2.5V122h1.431v.881h2.475v1.277h-2.553a2.863,2.863,0,0,1,1.614,1.016,2.962,2.962,0,0,1-.2,3.932,2.88,2.88,0,0,1-4.107,0,2.948,2.948,0,0,1-.189-3.932,2.908,2.908,0,0,1,1.639-1.016Zm.965,10.884v-4.534h1.429v3.259h6.33v1.274Zm3.293-9.155a1.37,1.37,0,0,0-2.093,0,1.775,1.775,0,0,0,0,2.328,1.386,1.386,0,0,0,2.093,0A1.769,1.769,0,0,0,300.038,125.887Zm4.159,1.13v5.163h-1.429v-9.923h1.426v3.49h1.147v1.271Z" transform="translate(-249.873 -103.065)" fill="#636466"/>
      <path id="Path_4547" data-name="Path 4547" d="M370.839,129.461v2.21h3.01v4.765h-1.429v-3.49h-6.344v-1.276h3.342v-2.21H365.54v-1.274h6.888v-3.259h-6.334V123.65h7.759v4.537h.867v1.274Z" transform="translate(-308.808 -104.459)" fill="#636466"/>
      <path id="Path_4548" data-name="Path 4548" d="M434.54,134.793v-1.279h3.879v-2.1h-3.014v-4.533h6.021v-1.957h-6.021V123.65h7.448v4.509h-6.018v1.983h6.351v1.276h-3.344v2.1h3.879v1.279Z" transform="translate(-367.101 -104.459)" fill="#636466"/>
      <path id="Path_4549" data-name="Path 4549" d="M503.6,131.292v-1.276h3.879v-.931h-3.01V123.67H505.9v1.279h4.592V123.67h1.428v5.416h-3.01l.023.931h3.854v1.276Zm7.118,5.161-2.528-3.231-2.525,3.231h-1.684l3.442-4.481h1.535l3.443,4.481Zm-.23-10.242H505.9V127.8h4.595Z" transform="translate(-425.444 -104.476)" fill="#636466"/>
      <path id="Path_4550" data-name="Path 4550" d="M574.87,130.713l-1.937-5.1-1.907,5.1H569.52l2.652-7.033h1.552l2.661,7.033Zm-4,5.754v-4.823H572.3v3.544h6.3v1.274Zm7.448-8.589v5.783h-1.429v-9.978h1.429v2.92h1.147v1.277Z" transform="translate(-481.135 -104.485)" fill="#636466"/>
      <path id="Path_4551" data-name="Path 4551" d="M647.9,128.978v-2.383h-1.3a3.05,3.05,0,0,1-5.147,1.462,3.105,3.105,0,0,1,2.149-5.313,2.916,2.916,0,0,1,1.971.737,3.111,3.111,0,0,1,1.052,1.843H647.9V122.74h1.426v6.238Zm-6.3,6.69v-5.749h1.428v1.241H647.9v-1.241h1.426v5.754Zm3.122-11.115a1.451,1.451,0,0,0-2.256,0,1.862,1.862,0,0,0-.483,1.293,1.911,1.911,0,0,0,.483,1.307,1.435,1.435,0,0,0,2.256,0,1.947,1.947,0,0,0,.466-1.307A1.892,1.892,0,0,0,644.718,124.552Zm3.18,7.884h-4.874v1.957H647.9Z" transform="translate(-541.141 -103.69)" fill="#636466"/>
      <path id="Path_4552" data-name="Path 4552" d="M713.832,130.653l-1.862-3.993-1.862,3.993H708.6l2.657-5.724h-2.273V123.65h6v1.279h-2.272l2.627,5.724Zm-4.035,5.783v-4.818h1.426v3.544h6.609v1.274Zm6.313-2.894V123.65h1.428v9.892Z" transform="translate(-598.633 -104.459)" fill="#636466"/>
      <path id="Path_4553" data-name="Path 4553" d="M779.79,129.057v-1.276h9.188v1.276Zm.776-5.9v-1.276H783.7v-.594h1.429v.594h3.189v1.276h-1.67a2.793,2.793,0,0,1,.484,1.573,2.726,2.726,0,0,1-2.743,2.734,2.675,2.675,0,0,1-1.955-.8,2.623,2.623,0,0,1-.81-1.935,2.529,2.529,0,0,1,.135-.841,3.043,3.043,0,0,1,.361-.732Zm5.875,11.017a2.93,2.93,0,0,1-4.986-2.084,2.77,2.77,0,0,1,.874-2.068,2.906,2.906,0,0,1,4.112,0,2.793,2.793,0,0,1,.858,2.068,2.859,2.859,0,0,1-.866,2.081Zm-1.009-3.239a1.372,1.372,0,0,0-1.065-.493,1.338,1.338,0,0,0-1.055.493,1.723,1.723,0,0,0-.433,1.168,1.687,1.687,0,0,0,.425,1.179,1.353,1.353,0,0,0,1.055.479,1.4,1.4,0,0,0,1.064-.479,1.668,1.668,0,0,0,.438-1.179,1.706,1.706,0,0,0-.438-1.172Zm-.1-7.329a1.191,1.191,0,0,0-.931-.447,1.217,1.217,0,0,0-.953.447,1.679,1.679,0,0,0,0,2.14,1.217,1.217,0,0,0,.953.447,1.191,1.191,0,0,0,.931-.447A1.685,1.685,0,0,0,785.333,123.61Z" transform="translate(-658.776 -102.465)" fill="#636466"/>
      <path id="Path_4554" data-name="Path 4554" d="M851.267,130.061v2.92h-1.429v-2.92H847v-1.274h6.888v1.274Zm1.175-2.272a2.891,2.891,0,0,1-4.925-2.025,2.7,2.7,0,0,1,.857-2.017,2.888,2.888,0,0,1,4.069,0,2.728,2.728,0,0,1,.841,2.017,2.765,2.765,0,0,1-.841,2.02Zm-4.54,8.026v-3.8h1.426v2.525h6.839v1.274Zm3.533-11.152a1.37,1.37,0,0,0-2.068,0,1.6,1.6,0,0,0-.421,1.1,1.638,1.638,0,0,0,.421,1.133,1.375,1.375,0,0,0,2.068,0,1.636,1.636,0,0,0,.419-1.133,1.6,1.6,0,0,0-.419-1.106Zm3.021,8.347v-.962h-2.245v-1.274h2.245v-7.749h1.426v9.986Z" transform="translate(-715.557 -103.833)" fill="#636466"/>
    </g>
  </g>
</svg>
