<svg xmlns="http://www.w3.org/2000/svg" width="37.956" height="40" viewBox="0 0 37.956 40">
  <g id="logo-symbol" transform="translate(0.061 0.022)">
    <path id="Path_4349" data-name="Path 4349" d="M93.869,122.58l.261-.024v-.846H87.848v.838l.477.071a.154.154,0,0,1-.018.024,14.883,14.883,0,0,1-1.4,1.569c-.079.075-.151.141-.219.195v-1.153c0-.616,0-.616.522-.667l.26-.024v-.846H84.21v.846l.261.024c.564.052.564.052.564.667v3.679c0,.618,0,.618-.532.669l-.26.025v.846h3.291v-.855l-.262-.023c-.577-.051-.577-.051-.577-.669v-1.234c.777,1.059,1.532,2.057,2.024,2.672l.086.109h5.328v-.853l-.261-.024c-.55-.051-.55-.051-.55-.649v-3.717C93.319,122.631,93.319,122.631,93.869,122.58Zm-2.23,4.373c0,.6,0,.6-.564.649l-.217.02-.131-.018c-.308-.042-.474-.109-.9-.605-.348-.423-1.2-1.461-1.935-2.479.446-.461.892-.918,1.319-1.323a1.917,1.917,0,0,1,1.36-.611l.238-.023h0l.262.024c.564.052.564.052.564.649Z" transform="translate(-72.383 -104.56)" fill="#a7a9ac"/>
    <path id="Path_4350" data-name="Path 4350" d="M171.373,126.684c-.46-.049-.519-.058-.811-.837-.423-1.129-.846-2.294-1.26-3.451l-.65-1.807-.813.221-2.017,5.056c-.295.745-.346.752-.837.813h-.055l-.085-.007c-.55-.049-.55-.049-.55-.649v-3.706c0-.6,0-.6.55-.649l.261-.024V120.8H161.8v.846l.261.024c.564.051.564.051.564.649v3.717c0,.6,0,.6-.564.649l-.248.021a.736.736,0,0,1-.467-.248,6.943,6.943,0,0,1-.705-.979c-.206-.315-.47-.755-.653-1.076a1.867,1.867,0,0,0,1.09-1.713,1.745,1.745,0,0,0-.762-1.5,3.051,3.051,0,0,0-1.8-.395h-2.845v.846l.26.024c.53.051.53.051.53.639v3.727c0,.6,0,.6-.564.649l-.261.024v.846h3.311V126.7l-.261-.024c-.564-.052-.564-.052-.564-.649V124.88a.394.394,0,0,1,.387.254l.223.4c.209.377.423.756.628,1.071.492.734.987.9,2.05.947l.394.008h5.619v-.846l-.252-.03c-.269-.034-.371-.065-.4-.065h-.007a.847.847,0,0,1,.063-.289c.093-.306.2-.607.3-.89h1.5c.141.388.275.756.367,1.028a1.1,1.1,0,0,0,.051.141,1.578,1.578,0,0,1-.319.071l-.244.038v.846h3.153v-.846Zm-12.431-2.919a1.2,1.2,0,0,1-.789.189h-.037v-2.047a.9.9,0,0,0,0-.164,1.014,1.014,0,0,1,.268-.025c.282,0,.932.109.932,1.113A1.134,1.134,0,0,1,158.942,123.765Zm8.54.639.4-1.09.379,1.09Z" transform="translate(-133.728 -103.598)" fill="#a7a9ac"/>
    <path id="Path_4351" data-name="Path 4351" d="M90.692,130.207c-.523-.66-1.315-1.711-2.051-2.711-.207-.275-.333-.322-.484-.3v1.753c0,.818.083.886.838.952v.308H86.277v-.31c.705-.066.793-.141.793-.952v-3.683c0-.828-.086-.885-.82-.954V124h2.689v.306c-.705.069-.782.126-.782.954V126.9a1.78,1.78,0,0,0,.705-.475,14.988,14.988,0,0,0,1.428-1.6c.251-.308.229-.423-.209-.487l-.192-.031V124H92.3v.306a2.2,2.2,0,0,0-1.526.691c-.487.456-.987.98-1.5,1.5.645.916,1.477,1.961,2.085,2.689.44.521.67.65,1.081.705v.315Z" transform="translate(-74.135 -106.527)" fill="#002659"/>
    <path id="Path_4352" data-name="Path 4352" d="M133.1,130.207v-.31c.734-.066.82-.124.82-.934v-3.721c0-.808-.086-.865-.82-.934V124h2.737v.306c-.734.069-.811.126-.811.934v3.721c0,.81.078.868.811.934v.312Z" transform="translate(-114.376 -106.527)" fill="#002659"/>
    <path id="Path_4353" data-name="Path 4353" d="M163.409,130.286c-.076,0-.182-.01-.295-.01a1.87,1.87,0,0,1-1.813-.9c-.282-.423-.564-.965-.839-1.452a.693.693,0,0,0-.705-.4h-.219v1.439c0,.791.086.868.82.934v.31H157.62v-.31c.736-.066.832-.141.832-.934v-3.728c0-.783-.087-.858-.793-.927V124h2.553a2.8,2.8,0,0,1,1.641.343,1.471,1.471,0,0,1,.639,1.27,1.692,1.692,0,0,1-1.2,1.584c.154.291.523.921.811,1.356a6.516,6.516,0,0,0,.743,1.023,1.284,1.284,0,0,0,.621.423Zm-3.545-3.115a1.456,1.456,0,0,0,.972-.26,1.406,1.406,0,0,0,.475-1.154c0-1.03-.619-1.4-1.222-1.4a.763.763,0,0,0-.464.09c-.063.056-.086.164-.086.379v2.34Z" transform="translate(-135.437 -106.527)" fill="#002659"/>
    <path id="Path_4354" data-name="Path 4354" d="M201.37,130.207v-.31c.735-.066.82-.124.82-.934v-3.721c0-.808-.085-.865-.82-.934V124h2.74v.306c-.736.069-.814.126-.814.934v3.721c0,.81.078.868.814.934v.312Z" transform="translate(-173.015 -106.527)" fill="#002659"/>
    <path id="Path_4355" data-name="Path 4355" d="M225.941,129.4v-.31c.564-.085.635-.188.492-.591-.106-.313-.268-.763-.44-1.222h-1.9c-.121.348-.257.714-.37,1.1-.162.511-.114.628.58.712v.31H222.2v-.31c.621-.073.745-.172,1.065-.987l1.968-4.929.423-.113c.6,1.66,1.2,3.373,1.821,5.018.313.837.439.951,1.05,1.017v.3Zm-.859-4.781h-.023c-.282.736-.543,1.478-.81,2.2h1.59Z" transform="translate(-190.907 -105.719)" fill="#002659"/>
    <path id="Path_4356" data-name="Path 4356" d="M16.829,9.212a25.7,25.7,0,0,0-5.314-5.084A27.516,27.516,0,0,0,6,.851,12.042,12.042,0,0,0,3.869.136,5.581,5.581,0,0,0,2.363-.019,2.614,2.614,0,0,0,.449.809a2.738,2.738,0,0,0-.5,1.807A5.472,5.472,0,0,0,.43,4.44,16.628,16.628,0,0,0,2.986,8.5a24.251,24.251,0,0,0,3.075,3.143c.141.127.282.344.474.116.166-.206.02-.343-.069-.515a14.287,14.287,0,0,1-.725-1.656,8.573,8.573,0,0,1-.4-1.456,3.245,3.245,0,0,1,.008-1.343,1.975,1.975,0,0,1,.474-.886A2.116,2.116,0,0,1,7,5.332a4.288,4.288,0,0,1,1.741.141A14.344,14.344,0,0,1,11.6,6.587a32.848,32.848,0,0,1,4.8,3c.165.121.291.3.519.128S16.952,9.377,16.829,9.212Zm-3.3-2.01a21.272,21.272,0,0,0-2.821-1.543,12.779,12.779,0,0,0-1.332-.513,7.227,7.227,0,0,0-1.289-.292,4.293,4.293,0,0,0-1.172,0,2.751,2.751,0,0,0-.705.2,2.281,2.281,0,0,0-.821.615,2.646,2.646,0,0,0-.564,1.367,3.82,3.82,0,0,0,.062,1.3,6.427,6.427,0,0,0,.332,1.05,10.148,10.148,0,0,0,.965,1.793A24.092,24.092,0,0,1,3.318,8.231,16.409,16.409,0,0,1,.827,4.272,5.062,5.062,0,0,1,.381,2.589a2.249,2.249,0,0,1,.4-1.507A1.756,1.756,0,0,1,1.57.561,3.075,3.075,0,0,1,2.512.413,7.244,7.244,0,0,1,5.06.943a24.266,24.266,0,0,1,5.8,3.245,25.975,25.975,0,0,1,5.471,5.078,28.233,28.233,0,0,0-2.8-2.064Z" fill="#a7a9ac"/>
    <path id="Path_4357" data-name="Path 4357" d="M10.117,15.238a.086.086,0,1,0,.133-.11,8.839,8.839,0,0,1-1.38-2.933,2.888,2.888,0,0,1,.389-2.483c1.175-1.591,3.878-.859,6.489.553A27.716,27.716,0,0,1,20.275,13.4a.085.085,0,1,0,.117-.124c-.264-.282-.53-.564-.8-.835-.79-.8-1.617-1.538-2.484-2.266a35.79,35.79,0,0,0-5.488-3.889A12.908,12.908,0,0,0,6.539,4.468a2.108,2.108,0,0,0-1.77.6A1.8,1.8,0,0,0,4.4,6.108a5.993,5.993,0,0,0,.731,2.615,20.96,20.96,0,0,0,2.886,4.241C8.709,13.769,9.424,14.534,10.117,15.238Z" transform="translate(-3.834 -3.854)" fill="#003974"/>
    <path id="Path_4358" data-name="Path 4358" d="M127.568,185.1a7.882,7.882,0,0,0-.722-2.223,15.561,15.561,0,0,0-2.257-3.469h-1.16l.049.118a7.7,7.7,0,0,1,.461,1.855,4.488,4.488,0,0,1-.044,1.855,2.5,2.5,0,0,1-1.054,1.457,3.081,3.081,0,0,1-1.811.3,10.876,10.876,0,0,1-3.6-1.082,23.171,23.171,0,0,1-3.37-1.8c-.192-.128-.351-.333-.587-.1s0,.388.155.564a22.269,22.269,0,0,0,2.529,2.319,23.3,23.3,0,0,0,4.119,2.7,12.094,12.094,0,0,0,3.177,1.1,4.762,4.762,0,0,0,2.212-.023,2.68,2.68,0,0,0,1.038-.55,2.635,2.635,0,0,0,.688-1.035A4.028,4.028,0,0,0,127.568,185.1Zm-.332.963a3.133,3.133,0,0,1-.193.879,2.381,2.381,0,0,1-.466.766,2.013,2.013,0,0,1-.608.454,2.574,2.574,0,0,1-.729.21,5.338,5.338,0,0,1-1.79-.063,9.973,9.973,0,0,1-1.727-.508,17.9,17.9,0,0,1-3.838-2.082,29.461,29.461,0,0,1-2.361-1.855c-.389-.339-.772-.681-1.136-1.042a.085.085,0,1,1,.107-.133,23.1,23.1,0,0,0,2.428,1.381,11.563,11.563,0,0,0,3.9,1.27,3.842,3.842,0,0,0,2.116-.282,2.429,2.429,0,0,0,.855-.705,2.718,2.718,0,0,0,.434-.987,5.947,5.947,0,0,0-.475-3.79h.491a15.9,15.9,0,0,1,1.914,2.778,11.385,11.385,0,0,1,.705,1.533,6.786,6.786,0,0,1,.3,1.071,4.287,4.287,0,0,1,.068,1.107Z" transform="translate(-97.432 -154.12)" fill="#a7a9ac"/>
    <path id="Path_4359" data-name="Path 4359" d="M117.01,182.56a.086.086,0,0,0-.11.133q.267.251.536.5c.282.258.564.509.856.758s.583.491.88.728.6.471.9.7.618.447.932.659.636.423.962.618.655.388.987.564.677.35,1.024.506.705.3,1.058.423a9.536,9.536,0,0,0,1.093.326,7.1,7.1,0,0,0,1.129.168,3.933,3.933,0,0,0,1.136-.072,2.257,2.257,0,0,0,1.013-.5A2.093,2.093,0,0,0,130,187.1a3.261,3.261,0,0,0,.094-1.129,5.923,5.923,0,0,0-.2-1.129,8.759,8.759,0,0,0-.381-1.075c-.148-.35-.315-.694-.491-1.03s-.363-.672-.564-1-.4-.645-.621-.959-.44-.621-.67-.925h-.614a7.2,7.2,0,0,1,.511,1.49,5.576,5.576,0,0,1,.141,1.7,2.935,2.935,0,0,1-.564,1.635,2.605,2.605,0,0,1-1.5.859,4.542,4.542,0,0,1-1.729-.038,11.107,11.107,0,0,1-1.658-.443,16.163,16.163,0,0,1-1.576-.653q-.77-.365-1.505-.793c-.49-.282-.968-.585-1.433-.906A2.225,2.225,0,0,1,117.01,182.56Z" transform="translate(-100.435 -154.507)" fill="#004a8f"/>
    <path id="Path_4360" data-name="Path 4360" d="M127.768,44.247a21.386,21.386,0,0,0-.735-3.445,11.226,11.226,0,0,0-.677-1.745,6.458,6.458,0,0,0-.578-.956,3.838,3.838,0,0,0-1.068-1.023,2.361,2.361,0,0,0-1.024-.355,2.281,2.281,0,0,0-1.188.248,3.724,3.724,0,0,0-1.357,1.236,6.042,6.042,0,0,0-.928,2.024c-.089.357.251.409.512.221a2.9,2.9,0,0,1,1.028-.511,2.092,2.092,0,0,1,1.089.068,2.886,2.886,0,0,1,.968.564,5.121,5.121,0,0,1,.758.834,12.043,12.043,0,0,1,1.656,3.177,19.674,19.674,0,0,1,.715,2.539.336.336,0,0,0,.016.075h.961v-.069a15.658,15.658,0,0,0-.147-2.882Zm-.423,2.566h-.1a15.747,15.747,0,0,0-1.937-4.98,6.418,6.418,0,0,0-1.26-1.532,3.2,3.2,0,0,0-1.239-.68,2.515,2.515,0,0,0-.635-.083,2.242,2.242,0,0,0-.34.025,2.651,2.651,0,0,0-.9.332,5.431,5.431,0,0,1,.793-1.484,3.489,3.489,0,0,1,.591-.626,2.374,2.374,0,0,1,.6-.355,1.662,1.662,0,0,1,.49-.123h.1a1.5,1.5,0,0,1,.392.052,2.257,2.257,0,0,1,.976.6,4.55,4.55,0,0,1,.763,1.009,8.953,8.953,0,0,1,.705,1.625c.175.5.316,1.016.457,1.587.158.674.282,1.384.387,2.106a15.783,15.783,0,0,1,.155,2.532Z" transform="translate(-103.294 -31.557)" fill="#a7a9ac"/>
    <path id="Path_4361" data-name="Path 4361" d="M129.643,50.043c-.014-.236-.031-.473-.051-.705s-.04-.471-.065-.705-.051-.471-.079-.705-.061-.468-.095-.705-.072-.468-.11-.705-.082-.467-.127-.705-.094-.464-.141-.694-.111-.46-.174-.688-.128-.456-.2-.681-.141-.45-.227-.671-.166-.444-.267-.659a6.351,6.351,0,0,0-.341-.614,7.029,7.029,0,0,0-.4-.585,3.583,3.583,0,0,0-.475-.528,2.52,2.52,0,0,0-.594-.384,1.769,1.769,0,0,0-.684-.178,1.643,1.643,0,0,0-.688.141,2.555,2.555,0,0,0-.605.368,3.817,3.817,0,0,0-.5.5,5.559,5.559,0,0,0-.423.564,6.641,6.641,0,0,0-.351.615c-.107.212-.2.423-.3.643l-.127.282a.085.085,0,0,0,.141.092,2.086,2.086,0,0,1,1.388-.722,2.516,2.516,0,0,1,1.512.488,4.75,4.75,0,0,1,1.113,1.068,8.3,8.3,0,0,1,.807,1.279,12.808,12.808,0,0,1,.611,1.366c.178.464.333.937.467,1.411s.247.958.337,1.443c.023.124.047.248.069.372Z" transform="translate(-105.362 -34.487)" fill="#005baa"/>
    <path id="Path_4362" data-name="Path 4362" d="M51.635,106.329a.085.085,0,1,0-.157-.066,4.853,4.853,0,0,1-1.4,1.669,3.171,3.171,0,0,1-2.621.391,4.59,4.59,0,0,1-2.144-1.693A9.57,9.57,0,0,1,44,104.282a14.361,14.361,0,0,1-.721-2.565,20.988,20.988,0,0,1-.327-2.63,25.427,25.427,0,0,1-.027-2.644q.054-1.32.238-2.631a24.2,24.2,0,0,1,.5-2.591,12.654,12.654,0,0,1,.873-2.493c.048-.1.1-.193.141-.291a.086.086,0,1,0-.141-.086,13.325,13.325,0,0,0-.762,1.27c-.255.475-.492.962-.705,1.456s-.415,1-.592,1.505-.34,1.026-.49,1.545-.282,1.04-.411,1.566-.243,1.047-.34,1.583-.181,1.065-.253,1.6-.13,1.071-.175,1.61-.078,1.075-.1,1.615-.03,1.079-.027,1.619.017,1.079.047,1.618.073,1.076.134,1.614.141,1.069.238,1.6.22,1.058.365,1.577a14.305,14.305,0,0,0,.519,1.533,9.106,9.106,0,0,0,.729,1.443,4.64,4.64,0,0,0,1.061,1.213,2.768,2.768,0,0,0,1.474.608,2.855,2.855,0,0,0,1.552-.4,5.236,5.236,0,0,0,1.253-1.016,9.883,9.883,0,0,0,1.009-1.27,14.4,14.4,0,0,0,.827-1.392c.25-.478.477-.968.687-1.466s.4-1,.58-1.511S51.49,106.85,51.635,106.329Z" transform="translate(-34.999 -75.854)" fill="#002659"/>
    <path id="Path_4363" data-name="Path 4363" d="M45.775,103.58a6.107,6.107,0,0,1-1,1.129,3.386,3.386,0,0,1-1.343.674,2.868,2.868,0,0,1-1.494-.032,3.412,3.412,0,0,1-1.287-.774,6.4,6.4,0,0,1-.973-1.155,9.733,9.733,0,0,1-.749-1.315,11.254,11.254,0,0,1-.546-1.411,15,15,0,0,1-.374-1.467q-.15-.741-.243-1.493c-.062-.5-.106-1-.134-1.508s-.04-1.009-.038-1.514.017-1.009.044-1.512.062-1.007.111-1.509.107-1,.178-1.5.152-.993.251-1.484a14.359,14.359,0,0,1,.379-1.463c.15-.475.326-.961.521-1.428.08-.2.227-.371-.011-.546s-.347.063-.47.237A22.085,22.085,0,0,0,36.1,90.092a27.3,27.3,0,0,0-1.673,6.241,30.978,30.978,0,0,0-.224,7.042c.066.835.168,1.669.312,2.493a17.877,17.877,0,0,0,.846,3.2,9.028,9.028,0,0,0,1.263,2.361,5.2,5.2,0,0,0,1.12,1.092,3.295,3.295,0,0,0,3.228.427,5.172,5.172,0,0,0,1.727-1.107,8.632,8.632,0,0,0,1.569-2.062,14.448,14.448,0,0,0,.75-1.536,21.839,21.839,0,0,0,1.3-4.5C46.418,103.193,46.089,103.149,45.775,103.58Zm-1.151,4.492A12.714,12.714,0,0,1,43.57,110.1a7.29,7.29,0,0,1-1.484,1.7,4.329,4.329,0,0,1-1.54.832,2.962,2.962,0,0,1-1.088.106,3.053,3.053,0,0,1-1.178-.391,4.788,4.788,0,0,1-1.587-1.572,9.535,9.535,0,0,1-.987-2.044,17.135,17.135,0,0,1-.616-2.208,26.266,26.266,0,0,1-.537-4.566,30.167,30.167,0,0,1,.732-7.838,25.769,25.769,0,0,1,1.422-4.373,21.449,21.449,0,0,1,2.232-3.987l-.141.275A15.139,15.139,0,0,0,37.6,90.013c-.121.68-.223,1.36-.3,2.044a25.761,25.761,0,0,0-.141,3.733,21.567,21.567,0,0,0,.449,3.707,13.931,13.931,0,0,0,.577,2.014,10.368,10.368,0,0,0,1.181,2.244,5.881,5.881,0,0,0,1.535,1.579,3.43,3.43,0,0,0,.987.457,3.008,3.008,0,0,0,1.093.09,3.322,3.322,0,0,0,1.834-.807,5.478,5.478,0,0,0,1.065-1.411A21.539,21.539,0,0,1,44.624,108.071Z" transform="translate(-29.342 -73.206)" fill="#a7a9ac"/>
  </g>
</svg>
