<svg id="logo-w" xmlns="http://www.w3.org/2000/svg" width="179.2" height="56" viewBox="0 0 179.2 56">
  <rect id="Rectangle_3450" data-name="Rectangle 3450" width="179.2" height="56" transform="translate(0 0)" fill="#fff" opacity="0"/>
  <g id="white">
    <path id="Path_4349" data-name="Path 4349" d="M97.732,122.929l.365-.034V121.71H89.3v1.173l.668.1a.215.215,0,0,1-.026.034,20.835,20.835,0,0,1-1.961,2.2c-.111.1-.211.2-.306.273v-1.614c0-.863,0-.863.731-.934l.363-.034v-1.185H84.21V122.9l.365.034c.79.073.79.073.79.934v5.151c0,.865,0,.865-.745.936l-.363.036v1.185h4.608v-1.2l-.367-.032c-.808-.071-.808-.071-.808-.936v-1.728c1.088,1.483,2.145,2.88,2.834,3.741l.12.152H98.1v-1.195l-.365-.034c-.77-.071-.77-.071-.77-.909v-5.2C96.962,123,96.962,123,97.732,122.929Zm-3.122,6.122c0,.837,0,.837-.79.908l-.3.028-.184-.026c-.431-.059-.664-.152-1.254-.847-.488-.592-1.685-2.046-2.71-3.47.624-.646,1.248-1.286,1.847-1.852a2.684,2.684,0,0,1,1.9-.855l.334-.032h0l.367.034c.79.073.79.073.79.908Z" transform="translate(-67.567 -97.669)" fill="#fff"/>
    <path id="Path_4350" data-name="Path 4350" d="M177.67,129.122c-.644-.069-.727-.081-1.136-1.171-.592-1.58-1.185-3.211-1.764-4.831l-.91-2.53-1.138.31-2.824,7.078c-.413,1.043-.484,1.053-1.171,1.138h-.077l-.118-.01c-.77-.069-.77-.069-.77-.908v-5.188c0-.837,0-.837.77-.908l.365-.034v-1.185h-4.633v1.185l.365.034c.79.071.79.071.79.908v5.2c0,.835,0,.835-.79.908l-.348.03a1.031,1.031,0,0,1-.654-.348,9.72,9.72,0,0,1-.987-1.371c-.288-.44-.658-1.057-.914-1.507a2.613,2.613,0,0,0,1.527-2.4,2.443,2.443,0,0,0-1.066-2.1,4.272,4.272,0,0,0-2.524-.553h-3.983v1.185l.363.034c.743.071.743.071.743.895V128.2c0,.835,0,.835-.79.908l-.365.034v1.185h4.635v-1.185l-.365-.034c-.79-.073-.79-.073-.79-.908V126.6a.551.551,0,0,1,.541.355l.312.555c.292.527.592,1.059.879,1.5.689,1.027,1.382,1.256,2.87,1.325l.551.012h7.866v-1.185l-.353-.041c-.377-.047-.519-.091-.559-.091h-.01a1.185,1.185,0,0,1,.089-.4c.13-.429.277-.849.419-1.246h2.1c.2.543.385,1.059.514,1.44a1.543,1.543,0,0,0,.071.2,2.209,2.209,0,0,1-.446.1l-.342.053v1.185h4.414v-1.185Zm-17.4-4.086a1.682,1.682,0,0,1-1.1.265h-.051v-2.866a1.254,1.254,0,0,0,0-.229,1.42,1.42,0,0,1,.375-.036c.395,0,1.305.152,1.305,1.558A1.587,1.587,0,0,1,160.267,125.036Zm11.956.895.557-1.527.531,1.527Z" transform="translate(-124.882 -96.77)" fill="#fff"/>
    <path id="Path_4351" data-name="Path 4351" d="M92.469,132.69c-.733-.924-1.841-2.4-2.872-3.8-.29-.385-.466-.45-.677-.423v2.455c0,1.145.117,1.24,1.173,1.333v.431H86.288v-.434c.987-.093,1.11-.2,1.11-1.333v-5.157c0-1.159-.12-1.238-1.147-1.335V124h3.764v.429c-.987.1-1.094.176-1.094,1.335v2.3a2.493,2.493,0,0,0,.987-.666,20.984,20.984,0,0,0,2-2.242c.352-.431.32-.592-.292-.681l-.269-.043V124h3.379v.429a3.08,3.08,0,0,0-2.137.968c-.681.638-1.382,1.373-2.093,2.1.9,1.282,2.068,2.745,2.919,3.764.616.729.938.91,1.513.987v.44Z" transform="translate(-69.204 -99.506)" fill="#fff"/>
    <path id="Path_4352" data-name="Path 4352" d="M133.1,132.69v-.434c1.027-.093,1.147-.174,1.147-1.307v-5.21c0-1.132-.12-1.211-1.147-1.307V124h3.831v.429c-1.027.1-1.136.176-1.136,1.307v5.21c0,1.134.109,1.215,1.136,1.307v.436Z" transform="translate(-106.801 -99.506)" fill="#fff"/>
    <path id="Path_4353" data-name="Path 4353" d="M165.725,132.8c-.107,0-.255-.014-.413-.014a2.619,2.619,0,0,1-2.538-1.264c-.395-.592-.79-1.351-1.175-2.032a.97.97,0,0,0-.987-.557h-.306v2.014c0,1.108.12,1.215,1.147,1.307v.434H157.62v-.434c1.031-.093,1.165-.2,1.165-1.307v-5.22c0-1.1-.122-1.2-1.11-1.3V124h3.575a3.913,3.913,0,0,1,2.3.48,2.06,2.06,0,0,1,.895,1.777,2.368,2.368,0,0,1-1.683,2.218c.215.407.733,1.29,1.136,1.9a9.124,9.124,0,0,0,1.041,1.432,1.8,1.8,0,0,0,.869.592Zm-4.963-4.361a2.039,2.039,0,0,0,1.361-.363,1.968,1.968,0,0,0,.666-1.616c0-1.442-.867-1.955-1.71-1.955a1.068,1.068,0,0,0-.65.126c-.089.079-.12.229-.12.531v3.276Z" transform="translate(-126.479 -99.506)" fill="#fff"/>
    <path id="Path_4354" data-name="Path 4354" d="M201.37,132.69v-.434c1.029-.093,1.147-.174,1.147-1.307v-5.21c0-1.132-.118-1.211-1.147-1.307V124h3.835v.429c-1.031.1-1.14.176-1.14,1.307v5.21c0,1.134.109,1.215,1.14,1.307v.436Z" transform="translate(-161.588 -99.506)" fill="#fff"/>
    <path id="Path_4355" data-name="Path 4355" d="M227.438,131.935V131.5c.79-.118.889-.263.689-.828-.148-.438-.375-1.068-.616-1.71h-2.656c-.17.488-.359,1-.517,1.54-.227.715-.16.879.812,1v.434H222.2V131.5c.869-.1,1.043-.241,1.491-1.382l2.755-6.9.592-.158c.841,2.325,1.683,4.722,2.55,7.025.438,1.171.614,1.331,1.469,1.424v.427Zm-1.2-6.693H226.2c-.395,1.031-.76,2.07-1.134,3.075H227.3Z" transform="translate(-178.305 -98.752)" fill="#fff"/>
    <path id="Path_4356" data-name="Path 4356" d="M23.585,12.906a35.985,35.985,0,0,0-7.44-7.118A38.522,38.522,0,0,0,8.424,1.2,16.858,16.858,0,0,0,5.442.2,7.813,7.813,0,0,0,3.332-.018,3.659,3.659,0,0,0,.652,1.142a3.833,3.833,0,0,0-.7,2.53A7.661,7.661,0,0,0,.627,6.225a23.28,23.28,0,0,0,3.579,5.688,33.952,33.952,0,0,0,4.305,4.4c.2.178.395.482.664.162.233-.288.028-.48-.1-.721a20,20,0,0,1-1.015-2.319A12,12,0,0,1,7.5,11.4a4.542,4.542,0,0,1,.012-1.88,2.765,2.765,0,0,1,.664-1.24,2.962,2.962,0,0,1,1.655-.8,6,6,0,0,1,2.437.2,20.081,20.081,0,0,1,4,1.56,45.987,45.987,0,0,1,6.715,4.2c.231.17.407.425.727.18S23.757,13.137,23.585,12.906Zm-4.621-2.814a29.78,29.78,0,0,0-3.95-2.161,17.89,17.89,0,0,0-1.864-.719A10.118,10.118,0,0,0,11.345,6.8,6.01,6.01,0,0,0,9.7,6.8a3.851,3.851,0,0,0-.987.284,3.194,3.194,0,0,0-1.149.861,3.705,3.705,0,0,0-.79,1.914,5.348,5.348,0,0,0,.087,1.821,9,9,0,0,0,.464,1.469,14.208,14.208,0,0,0,1.351,2.51,33.728,33.728,0,0,1-4.009-4.132A22.973,22.973,0,0,1,1.182,5.99,7.086,7.086,0,0,1,.558,3.634a3.148,3.148,0,0,1,.561-2.109,2.459,2.459,0,0,1,1.1-.731A4.305,4.305,0,0,1,3.542.587a10.141,10.141,0,0,1,3.567.743,33.972,33.972,0,0,1,8.121,4.542,36.365,36.365,0,0,1,7.659,7.11,39.526,39.526,0,0,0-3.924-2.889Z" transform="translate(0.061 0.022)" fill="#fff"/>
    <path id="Path_4357" data-name="Path 4357" d="M12.4,19.547a.121.121,0,1,0,.186-.154,12.375,12.375,0,0,1-1.931-4.106,4.043,4.043,0,0,1,.545-3.476c1.645-2.228,5.429-1.2,9.085.774a38.8,38.8,0,0,1,6.338,4.386.119.119,0,0,0,.164-.174c-.369-.395-.743-.79-1.126-1.169-1.106-1.118-2.263-2.153-3.478-3.172A50.107,50.107,0,0,0,14.5,7.012c-2.208-1.226-4.9-2.441-7.108-2.542A2.951,2.951,0,0,0,4.916,5.3,2.518,2.518,0,0,0,4.4,6.765a8.39,8.39,0,0,0,1.023,3.662,29.344,29.344,0,0,0,4.041,5.937C10.432,17.491,11.433,18.561,12.4,19.547Z" transform="translate(-3.521 -3.579)" fill="#fff"/>
    <path id="Path_4358" data-name="Path 4358" d="M133.246,187.379a11.034,11.034,0,0,0-1.011-3.113,21.785,21.785,0,0,0-3.16-4.856h-1.623l.069.166a10.784,10.784,0,0,1,.646,2.6,6.283,6.283,0,0,1-.061,2.6,3.5,3.5,0,0,1-1.475,2.04,4.313,4.313,0,0,1-2.536.421,15.226,15.226,0,0,1-5.042-1.515,32.442,32.442,0,0,1-4.718-2.518c-.269-.18-.492-.466-.822-.146s0,.543.217.79a31.177,31.177,0,0,0,3.541,3.247,32.618,32.618,0,0,0,5.767,3.778,16.932,16.932,0,0,0,4.448,1.544,6.668,6.668,0,0,0,3.1-.032,3.752,3.752,0,0,0,1.454-.77,3.689,3.689,0,0,0,.964-1.45A5.639,5.639,0,0,0,133.246,187.379Zm-.464,1.349a4.387,4.387,0,0,1-.271,1.23,3.334,3.334,0,0,1-.652,1.072,2.818,2.818,0,0,1-.851.636,3.6,3.6,0,0,1-1.021.294,7.474,7.474,0,0,1-2.506-.089,13.961,13.961,0,0,1-2.417-.711,25.058,25.058,0,0,1-5.374-2.915,41.245,41.245,0,0,1-3.306-2.6c-.545-.474-1.08-.954-1.59-1.46a.119.119,0,1,1,.15-.186,32.341,32.341,0,0,0,3.4,1.933,16.188,16.188,0,0,0,5.459,1.777,5.379,5.379,0,0,0,2.962-.395,3.4,3.4,0,0,0,1.2-.987,3.806,3.806,0,0,0,.608-1.382,8.326,8.326,0,0,0-.666-5.307h.687a22.267,22.267,0,0,1,2.68,3.889,15.936,15.936,0,0,1,.987,2.147,9.5,9.5,0,0,1,.421,1.5,6,6,0,0,1,.095,1.55Z" transform="translate(-90.971 -143.973)" fill="#fff"/>
    <path id="Path_4359" data-name="Path 4359" d="M117.067,183.64a.121.121,0,0,0-.154.186q.373.352.751.7c.395.361.79.713,1.2,1.06s.816.687,1.232,1.019.837.66,1.266.974.865.626,1.305.922.891.592,1.347.865.916.543,1.382.79.948.49,1.434.709.987.421,1.481.593a13.357,13.357,0,0,0,1.531.456,9.939,9.939,0,0,0,1.58.235,5.506,5.506,0,0,0,1.59-.1,3.16,3.16,0,0,0,1.418-.7,2.931,2.931,0,0,0,.818-1.345,4.565,4.565,0,0,0,.132-1.58,8.292,8.292,0,0,0-.28-1.58,12.263,12.263,0,0,0-.533-1.5c-.207-.49-.44-.972-.687-1.442s-.508-.94-.79-1.394-.567-.9-.869-1.343-.616-.869-.938-1.3h-.859a10.084,10.084,0,0,1,.715,2.086,7.807,7.807,0,0,1,.2,2.384,4.11,4.11,0,0,1-.79,2.289,3.648,3.648,0,0,1-2.1,1.2,6.358,6.358,0,0,1-2.421-.053,15.547,15.547,0,0,1-2.321-.62,22.631,22.631,0,0,1-2.206-.914q-1.078-.512-2.107-1.11c-.685-.395-1.355-.82-2.007-1.268A3.112,3.112,0,0,1,117.067,183.64Z" transform="translate(-93.776 -144.334)" fill="#fff"/>
    <path id="Path_4360" data-name="Path 4360" d="M130.8,47.258a29.939,29.939,0,0,0-1.029-4.823,15.716,15.716,0,0,0-.948-2.443,9.041,9.041,0,0,0-.81-1.339,5.374,5.374,0,0,0-1.5-1.432,3.306,3.306,0,0,0-1.434-.5,3.193,3.193,0,0,0-1.663.348,5.214,5.214,0,0,0-1.9,1.73,8.459,8.459,0,0,0-1.3,2.834c-.124.5.352.573.717.31a4.053,4.053,0,0,1,1.44-.715,2.929,2.929,0,0,1,1.525.095,4.041,4.041,0,0,1,1.355.79,7.17,7.17,0,0,1,1.061,1.167,16.86,16.86,0,0,1,2.319,4.448,27.543,27.543,0,0,1,1,3.555.47.47,0,0,0,.022.1H131v-.1a21.921,21.921,0,0,0-.205-4.035Zm-.592,3.592h-.146a22.047,22.047,0,0,0-2.712-6.972,8.986,8.986,0,0,0-1.764-2.145,4.485,4.485,0,0,0-1.734-.952,3.521,3.521,0,0,0-.889-.117,3.138,3.138,0,0,0-.476.036,3.711,3.711,0,0,0-1.262.464,7.6,7.6,0,0,1,1.11-2.078,4.884,4.884,0,0,1,.827-.877,3.324,3.324,0,0,1,.845-.5,2.327,2.327,0,0,1,.685-.172h.14a2.1,2.1,0,0,1,.549.073,3.16,3.16,0,0,1,1.367.833,6.37,6.37,0,0,1,1.068,1.412,12.534,12.534,0,0,1,.987,2.275c.245.7.442,1.422.64,2.222.221.944.395,1.937.541,2.949a22.1,22.1,0,0,1,.217,3.545Z" transform="translate(-96.447 -29.462)" fill="#fff"/>
    <path id="Path_4361" data-name="Path 4361" d="M132.458,54.009c-.02-.33-.043-.662-.071-.987s-.055-.66-.091-.987-.071-.66-.111-.987-.085-.656-.132-.987-.1-.656-.154-.987-.115-.654-.178-.987-.132-.65-.2-.972-.156-.644-.243-.964-.18-.638-.278-.954-.2-.63-.318-.94-.233-.622-.373-.922a8.889,8.889,0,0,0-.478-.859,9.84,9.84,0,0,0-.559-.82,5.016,5.016,0,0,0-.666-.739,3.528,3.528,0,0,0-.831-.537,2.477,2.477,0,0,0-.958-.249,2.3,2.3,0,0,0-.964.2,3.576,3.576,0,0,0-.847.515,5.343,5.343,0,0,0-.705.7,7.78,7.78,0,0,0-.592.79,9.3,9.3,0,0,0-.492.861c-.15.3-.286.592-.423.9l-.178.395a.118.118,0,0,0,.2.128,2.921,2.921,0,0,1,1.943-1.011,3.523,3.523,0,0,1,2.117.683,6.65,6.65,0,0,1,1.558,1.5,11.619,11.619,0,0,1,1.13,1.791,17.931,17.931,0,0,1,.855,1.912c.249.65.466,1.311.654,1.975s.346,1.341.472,2.02c.032.174.065.348.1.521Z" transform="translate(-98.38 -32.199)" fill="#fff"/>
    <path id="Path_4362" data-name="Path 4362" d="M56.015,113.545a.119.119,0,1,0-.219-.093,6.794,6.794,0,0,1-1.955,2.336,4.44,4.44,0,0,1-3.669.547,6.425,6.425,0,0,1-3-2.37,13.4,13.4,0,0,1-1.839-3.286,20.106,20.106,0,0,1-1.009-3.59,29.383,29.383,0,0,1-.458-3.681,35.6,35.6,0,0,1-.038-3.7q.075-1.849.334-3.683a33.877,33.877,0,0,1,.7-3.628,17.715,17.715,0,0,1,1.223-3.49c.067-.134.134-.271.2-.407a.12.12,0,1,0-.2-.12,18.656,18.656,0,0,0-1.066,1.777c-.357.666-.689,1.347-.987,2.038s-.581,1.4-.829,2.107-.476,1.436-.685,2.163-.395,1.456-.575,2.192-.34,1.465-.476,2.216-.253,1.491-.354,2.24-.182,1.5-.245,2.253-.109,1.5-.138,2.261-.041,1.511-.038,2.267.024,1.511.065,2.265.1,1.507.188,2.259.2,1.5.334,2.24.308,1.481.512,2.208a20.028,20.028,0,0,0,.727,2.147,12.75,12.75,0,0,0,1.021,2.02,6.5,6.5,0,0,0,1.485,1.7,3.875,3.875,0,0,0,2.064.851,4,4,0,0,0,2.172-.557,7.331,7.331,0,0,0,1.754-1.422,13.837,13.837,0,0,0,1.412-1.777,20.168,20.168,0,0,0,1.157-1.949c.35-.669.668-1.355.962-2.052s.565-1.4.812-2.115S55.811,114.274,56.015,113.545Z" transform="translate(-32.639 -70.848)" fill="#fff"/>
    <path id="Path_4363" data-name="Path 4363" d="M50.445,110.929a8.549,8.549,0,0,1-1.4,1.58,4.74,4.74,0,0,1-1.88.944,4.015,4.015,0,0,1-2.091-.045,4.777,4.777,0,0,1-1.8-1.084,8.966,8.966,0,0,1-1.363-1.617,13.627,13.627,0,0,1-1.049-1.841,15.756,15.756,0,0,1-.764-1.975,20.994,20.994,0,0,1-.523-2.054q-.209-1.037-.34-2.09c-.087-.7-.148-1.406-.188-2.111s-.055-1.412-.053-2.119.024-1.412.061-2.117.087-1.41.156-2.113.15-1.406.249-2.105.213-1.39.352-2.078a20.1,20.1,0,0,1,.531-2.048c.209-.666.456-1.345.729-2,.113-.275.318-.519-.016-.764s-.486.089-.658.332A30.919,30.919,0,0,0,36.9,92.046a38.215,38.215,0,0,0-2.342,8.737,43.369,43.369,0,0,0-.314,9.859c.093,1.169.235,2.336.436,3.49a25.027,25.027,0,0,0,1.185,4.477,12.64,12.64,0,0,0,1.768,3.306,7.285,7.285,0,0,0,1.568,1.529,4.613,4.613,0,0,0,4.519.6,7.24,7.24,0,0,0,2.417-1.55,12.085,12.085,0,0,0,2.2-2.887,20.227,20.227,0,0,0,1.051-2.151,30.575,30.575,0,0,0,1.819-6.3C51.345,110.388,50.885,110.326,50.445,110.929Zm-1.612,6.288a17.8,17.8,0,0,1-1.475,2.844,10.206,10.206,0,0,1-2.078,2.386,6.061,6.061,0,0,1-2.157,1.165,4.147,4.147,0,0,1-1.523.148,4.274,4.274,0,0,1-1.649-.547,6.7,6.7,0,0,1-2.222-2.2,13.349,13.349,0,0,1-1.382-2.862,23.989,23.989,0,0,1-.863-3.091,36.772,36.772,0,0,1-.752-6.393,42.234,42.234,0,0,1,1.025-10.973,36.076,36.076,0,0,1,1.991-6.122,30.028,30.028,0,0,1,3.124-5.581l-.2.385A21.2,21.2,0,0,0,39,91.936c-.17.952-.312,1.9-.417,2.862a36.066,36.066,0,0,0-.2,5.226,30.193,30.193,0,0,0,.628,5.19,19.5,19.5,0,0,0,.808,2.82,14.516,14.516,0,0,0,1.653,3.142,8.234,8.234,0,0,0,2.149,2.21,4.8,4.8,0,0,0,1.382.64,4.211,4.211,0,0,0,1.531.126,4.651,4.651,0,0,0,2.567-1.13,7.669,7.669,0,0,0,1.491-1.975A30.155,30.155,0,0,1,48.833,117.217Z" transform="translate(-27.353 -68.374)" fill="#fff"/>
    <path id="Path_4364" data-name="Path 4364" d="M295.78,124.747v-1.625h3.18V122h1.821v1.122h3.15v1.625h-3.249a3.644,3.644,0,0,1,2.054,1.294,3.77,3.77,0,0,1-.259,5,3.665,3.665,0,0,1-5.228,0,3.752,3.752,0,0,1-.241-5,3.7,3.7,0,0,1,2.086-1.294Zm1.228,13.852v-5.771h1.819v4.147h8.056V138.6Zm4.191-11.652a1.744,1.744,0,0,0-2.664,0,2.259,2.259,0,0,0,0,2.962,1.764,1.764,0,0,0,2.664,0A2.251,2.251,0,0,0,301.2,126.947Zm5.293,1.438v6.571h-1.819v-12.63h1.815v4.442h1.459v1.617Z" transform="translate(-237.353 -97.901)" fill="#fff"/>
    <path id="Path_4365" data-name="Path 4365" d="M372.284,131.046v2.812h3.831v6.065H374.3v-4.442h-8.074v-1.623h4.254v-2.812H365.54v-1.621h8.767v-4.147h-8.062V123.65h9.875v5.775h1.1v1.621Z" transform="translate(-293.336 -99.225)" fill="#fff"/>
    <path id="Path_4366" data-name="Path 4366" d="M434.54,137.832V136.2h4.937v-2.668h-3.835v-5.769H443.3v-2.49h-7.663V123.65h9.48v5.739h-7.659v2.524h8.083v1.623H441.29V136.2h4.937v1.627Z" transform="translate(-348.709 -99.225)" fill="#fff"/>
    <path id="Path_4367" data-name="Path 4367" d="M503.6,133.371v-1.623h4.937v-1.185h-3.831V123.67h1.819V125.3h5.844V123.67h1.817v6.893h-3.831l.03,1.185h4.906v1.623Zm9.059,6.569-3.217-4.112-3.213,4.112h-2.143l4.38-5.7h1.953l4.382,5.7Zm-.292-13.035h-5.846v2.02h5.848Z" transform="translate(-404.13 -99.241)" fill="#fff"/>
    <path id="Path_4368" data-name="Path 4368" d="M576.33,132.63l-2.465-6.494-2.427,6.494H569.52l3.375-8.95h1.975l3.387,8.95Zm-5.093,7.323v-6.138h1.817v4.511h8.018v1.621Zm9.48-10.931v7.361H578.9v-12.7h1.819V127.4h1.459v1.625Z" transform="translate(-457.031 -99.249)" fill="#fff"/>
    <path id="Path_4369" data-name="Path 4369" d="M649.9,130.654v-3.034h-1.655a3.837,3.837,0,0,1-1.341,2.153,3.731,3.731,0,0,1-2.475.881,3.689,3.689,0,0,1-2.735-1.185,3.953,3.953,0,0,1,2.735-6.76,3.713,3.713,0,0,1,2.508.94A3.959,3.959,0,0,1,648.278,126H649.9v-3.282h1.815v7.941Zm-8.02,8.514v-7.317H643.7v1.58h6.2v-1.58h1.815v7.323Zm3.974-14.145a1.843,1.843,0,0,0-2.871,0,2.357,2.357,0,0,0-.614,1.643,2.431,2.431,0,0,0,.614,1.663,1.827,1.827,0,0,0,2.871,0,2.478,2.478,0,0,0,.593-1.663A2.4,2.4,0,0,0,645.855,125.024Zm4.047,10.033h-6.2v2.49h6.2Z" transform="translate(-514.031 -98.47)" fill="#fff"/>
    <path id="Path_4370" data-name="Path 4370" d="M715.26,132.563l-2.37-5.082-2.37,5.082H708.6l3.381-7.286h-2.893V123.65h7.631v1.627h-2.891l3.344,7.286Zm-5.135,7.361v-6.132h1.815V138.3h8.411v1.621Zm8.034-3.683V123.65h1.817v12.59Z" transform="translate(-568.643 -99.225)" fill="#fff"/>
    <path id="Path_4371" data-name="Path 4371" d="M779.79,131.167v-1.623h11.694v1.623Zm.988-7.5v-1.623h3.991v-.758h1.819v.758h4.058v1.623h-2.125a3.553,3.553,0,0,1,.616,2,3.47,3.47,0,0,1-3.492,3.48,3.4,3.4,0,0,1-2.489-1.017,3.338,3.338,0,0,1-1.031-2.463,3.22,3.22,0,0,1,.172-1.07,3.865,3.865,0,0,1,.46-.932Zm7.477,14.022a3.729,3.729,0,0,1-6.345-2.652,3.525,3.525,0,0,1,1.112-2.633,3.7,3.7,0,0,1,5.234,0,3.554,3.554,0,0,1,1.092,2.633,3.64,3.64,0,0,1-1.1,2.648Zm-1.284-4.122a1.746,1.746,0,0,0-1.355-.628,1.7,1.7,0,0,0-1.343.628,2.194,2.194,0,0,0-.551,1.487,2.146,2.146,0,0,0,.541,1.5,1.722,1.722,0,0,0,1.343.61,1.777,1.777,0,0,0,1.355-.61,2.123,2.123,0,0,0,.557-1.5,2.172,2.172,0,0,0-.557-1.491Zm-.126-9.328a1.517,1.517,0,0,0-1.185-.569,1.548,1.548,0,0,0-1.213.569,2.137,2.137,0,0,0,0,2.723,1.548,1.548,0,0,0,1.213.569,1.517,1.517,0,0,0,1.185-.569A2.145,2.145,0,0,0,786.845,124.235Z" transform="translate(-625.773 -97.323)" fill="#fff"/>
    <path id="Path_4372" data-name="Path 4372" d="M852.431,132.011v3.717h-1.819v-3.717H847V130.39h8.767v1.621Zm1.495-2.891a3.679,3.679,0,0,1-6.269-2.577,3.431,3.431,0,0,1,1.09-2.567,3.675,3.675,0,0,1,5.178,0,3.473,3.473,0,0,1,1.07,2.567,3.519,3.519,0,0,1-1.07,2.571Zm-5.779,10.214v-4.843h1.815v3.215h8.7v1.621Zm4.5-14.194a1.744,1.744,0,0,0-2.633,0,2.041,2.041,0,0,0-.535,1.4,2.086,2.086,0,0,0,.535,1.442,1.75,1.75,0,0,0,2.633,0,2.083,2.083,0,0,0,.533-1.442,2.038,2.038,0,0,0-.533-1.408Zm3.845,10.623v-1.224h-2.858v-1.621h2.858v-9.863H858.3v12.709Z" transform="translate(-679.71 -98.63)" fill="#fff"/>
    <path id="Path_4373" data-name="Path 4373" d="M249.815,230.523l-1.019-2.1-.563.794v1.309h-.673V226.04h.673v2.078l1.436-2.078h.824l-1.248,1.773,1.357,2.71Z" transform="translate(-198.656 -181.394)" fill="#fff"/>
    <path id="Path_4374" data-name="Path 4374" d="M265,230.415a1.292,1.292,0,0,1-1.017-.486,1.515,1.515,0,0,1-.332-.752,13.074,13.074,0,0,1,0-2.082,1.5,1.5,0,0,1,.332-.75,1.313,1.313,0,0,1,2.04,0,1.459,1.459,0,0,1,.326.752,12.466,12.466,0,0,1,0,2.08,1.476,1.476,0,0,1-.326.752A1.3,1.3,0,0,1,265,230.415Zm0-3.851a.614.614,0,0,0-.51.249,1.129,1.129,0,0,0-.2.616c-.012.1-.016.338-.016.707a7.031,7.031,0,0,0,.016.707,1.124,1.124,0,0,0,.2.616.646.646,0,0,0,1.021,0,1.139,1.139,0,0,0,.2-.614c.01-.1.016-.34.016-.709a7.031,7.031,0,0,0-.016-.707,1.147,1.147,0,0,0-.2-.616A.618.618,0,0,0,265,226.564Z" transform="translate(-211.536 -181.248)" fill="#fff"/>
    <path id="Path_4375" data-name="Path 4375" d="M282.748,230.488l-.79-1.843h-.614v1.843h-.673V226h1.5a1.118,1.118,0,0,1,.877.375,1.394,1.394,0,0,1,.33.958,1.359,1.359,0,0,1-.215.79,1.071,1.071,0,0,1-.505.411l.865,1.957Zm-.616-2.516a.549.549,0,0,0,.421-.166.653.653,0,0,0,.158-.466.664.664,0,0,0-.158-.468.543.543,0,0,0-.421-.168h-.78v1.268Z" transform="translate(-225.227 -181.359)" fill="#fff"/>
    <path id="Path_4376" data-name="Path 4376" d="M297.37,230.523V226.04h2.485v.705h-1.813v1.169h1.546v.7h-1.546v1.2h1.813v.705Z" transform="translate(-238.629 -181.394)" fill="#fff"/>
    <path id="Path_4377" data-name="Path 4377" d="M312.913,230.523l-.257-.879h-1.382l-.257.879H310.3l1.4-4.483h.535l1.4,4.483Zm-.444-1.546-.492-1.7-.506,1.7Z" transform="translate(-249.005 -181.394)" fill="#fff"/>
    <rect id="Rectangle_3447" data-name="Rectangle 3447" width="0.673" height="4.483" transform="translate(66.013 44.646)" fill="#fff"/>
    <path id="Path_4378" data-name="Path 4378" d="M343.6,230.523l-1.631-2.921v2.921H341.3V226.04h.6l1.629,2.917V226.04h.674v4.483Z" transform="translate(-273.883 -181.394)" fill="#fff"/>
    <path id="Path_4379" data-name="Path 4379" d="M359.366,230.418a1.688,1.688,0,0,1-1.357-.592l-.03-.036.448-.519.042.049a1.135,1.135,0,0,0,.908.395.79.79,0,0,0,.529-.162.565.565,0,0,0,.184-.454.592.592,0,0,0-.132-.417.653.653,0,0,0-.377-.168l-.438-.073a1.13,1.13,0,0,1-1.021-1.24,1.351,1.351,0,0,1,.35-.968,1.25,1.25,0,0,1,.948-.369,1.548,1.548,0,0,1,1.185.515l.032.036-.433.5-.041-.047a.987.987,0,0,0-.768-.32.592.592,0,0,0-.458.174.622.622,0,0,0-.166.454.511.511,0,0,0,.128.371.685.685,0,0,0,.385.182l.423.075a1.343,1.343,0,0,1,.654,2.255,1.422,1.422,0,0,1-1,.359Z" transform="translate(-287.269 -181.252)" fill="#fff"/>
    <path id="Path_4380" data-name="Path 4380" d="M374.023,230.523v-3.778H373v-.705h2.719v.705h-1.025v3.778Z" transform="translate(-299.322 -181.394)" fill="#fff"/>
    <rect id="Rectangle_3448" data-name="Rectangle 3448" width="0.673" height="4.483" transform="translate(76.798 44.646)" fill="#fff"/>
    <path id="Path_4381" data-name="Path 4381" d="M395.273,230.523v-3.778H394.25v-.705h2.719v.705h-1.023v3.778Z" transform="translate(-316.376 -181.394)" fill="#fff"/>
    <path id="Path_4382" data-name="Path 4382" d="M411.157,230.529a1.284,1.284,0,0,1-.987-.44,1.621,1.621,0,0,1-.395-1.126V226h.671v2.923a1.017,1.017,0,0,0,.2.658.685.685,0,0,0,1.035,0,.987.987,0,0,0,.2-.656V226h.674v2.962a1.624,1.624,0,0,1-.4,1.126A1.292,1.292,0,0,1,411.157,230.529Z" transform="translate(-328.833 -181.362)" fill="#fff"/>
    <path id="Path_4383" data-name="Path 4383" d="M426.593,230.523v-3.778H425.57v-.705h2.721v.705h-1.025v3.778Z" transform="translate(-341.51 -181.394)" fill="#fff"/>
    <path id="Path_4384" data-name="Path 4384" d="M441.38,230.523V226.04h2.484v.705h-1.811v1.169H443.6v.7h-1.544v1.2h1.811v.705Z" transform="translate(-354.198 -181.394)" fill="#fff"/>
    <path id="Path_4385" data-name="Path 4385" d="M462.34,230.523V226.04h2.487v.705h-1.813v1.224h1.546v.705h-1.546v1.849Z" transform="translate(-371.018 -181.394)" fill="#fff"/>
    <path id="Path_4386" data-name="Path 4386" d="M477.85,230.415a1.292,1.292,0,0,1-1.017-.486,1.515,1.515,0,0,1-.332-.752,13.081,13.081,0,0,1,0-2.082,1.5,1.5,0,0,1,.332-.75,1.313,1.313,0,0,1,2.04,0,1.444,1.444,0,0,1,.326.752,12.453,12.453,0,0,1,0,2.08,1.457,1.457,0,0,1-.326.752A1.3,1.3,0,0,1,477.85,230.415Zm0-3.851a.614.614,0,0,0-.51.249,1.13,1.13,0,0,0-.2.616c-.012.1-.016.338-.016.707a7.032,7.032,0,0,0,.016.707,1.123,1.123,0,0,0,.2.616.646.646,0,0,0,1.021,0,1.139,1.139,0,0,0,.2-.614c.01-.1.016-.34.016-.709a7.03,7.03,0,0,0-.016-.707,1.147,1.147,0,0,0-.2-.616A.616.616,0,0,0,477.85,226.564Z" transform="translate(-382.35 -181.248)" fill="#fff"/>
    <path id="Path_4387" data-name="Path 4387" d="M495.656,230.488l-.79-1.843h-.6v1.843h-.673V226h1.5a1.126,1.126,0,0,1,.879.375,1.4,1.4,0,0,1,.33.958,1.36,1.36,0,0,1-.217.79,1.061,1.061,0,0,1-.506.411l.867,1.957Zm-.618-2.516a.549.549,0,0,0,.421-.166.654.654,0,0,0,.158-.466.664.664,0,0,0-.158-.468.543.543,0,0,0-.421-.168h-.774v1.268Z" transform="translate(-396.096 -181.359)" fill="#fff"/>
    <path id="Path_4388" data-name="Path 4388" d="M517.97,230.488l-.79-1.843h-.614v1.843H515.9V226h1.5a1.12,1.12,0,0,1,.879.375,1.556,1.556,0,0,1,.115,1.748,1.07,1.07,0,0,1-.506.411l.865,1.957Zm-.616-2.516a.551.551,0,0,0,.421-.166.651.651,0,0,0,.156-.466.663.663,0,0,0-.158-.468.539.539,0,0,0-.419-.168h-.79v1.268Z" transform="translate(-414 -181.359)" fill="#fff"/>
    <path id="Path_4389" data-name="Path 4389" d="M533.26,230.415a1.289,1.289,0,0,1-1.017-.486,1.515,1.515,0,0,1-.332-.752,13.1,13.1,0,0,1,0-2.082,1.5,1.5,0,0,1,.332-.75,1.313,1.313,0,0,1,2.04,0,1.46,1.46,0,0,1,.326.752,12.493,12.493,0,0,1,0,2.08,1.476,1.476,0,0,1-.326.752A1.3,1.3,0,0,1,533.26,230.415Zm0-3.851a.612.612,0,0,0-.509.249,1.146,1.146,0,0,0-.2.616c-.01.1-.014.338-.014.707s0,.606.014.707a1.158,1.158,0,0,0,.2.616.648.648,0,0,0,1.023,0,1.155,1.155,0,0,0,.2-.614c0-.1.016-.34.016-.709a7.031,7.031,0,0,0-.016-.707,1.161,1.161,0,0,0-.2-.616.618.618,0,0,0-.511-.249Z" transform="translate(-426.816 -181.248)" fill="#fff"/>
    <path id="Path_4390" data-name="Path 4390" d="M549,230.486V226h1.5a1.13,1.13,0,0,1,.859.34,1.284,1.284,0,0,1,.318.912,1.207,1.207,0,0,1-.164.624.942.942,0,0,1-.278.3,1.087,1.087,0,0,1,.5,1.015,1.322,1.322,0,0,1-.324.95,1.13,1.13,0,0,1-.853.34Zm1.507-.705a.51.51,0,0,0,.407-.166.747.747,0,0,0,0-.893.509.509,0,0,0-.407-.166h-.833v1.224Zm-.053-1.93a.542.542,0,0,0,.4-.146.684.684,0,0,0,0-.849.545.545,0,0,0-.4-.148h-.79v1.143Z" transform="translate(-440.563 -181.357)" fill="#fff"/>
    <path id="Path_4391" data-name="Path 4391" d="M566.54,230.415a1.289,1.289,0,0,1-1.017-.486,1.515,1.515,0,0,1-.332-.752,13.11,13.11,0,0,1,0-2.082,1.5,1.5,0,0,1,.332-.75,1.313,1.313,0,0,1,2.04,0,1.46,1.46,0,0,1,.326.752,12.506,12.506,0,0,1,0,2.08,1.477,1.477,0,0,1-.326.752A1.3,1.3,0,0,1,566.54,230.415Zm0-3.851a.614.614,0,0,0-.509.249,1.145,1.145,0,0,0-.2.616c0,.1-.014.338-.014.707s0,.608.014.707a1.141,1.141,0,0,0,.2.616.646.646,0,0,0,1.021,0,1.157,1.157,0,0,0,.2-.614c0-.1.016-.34.016-.709a7,7,0,0,0-.016-.707,1.165,1.165,0,0,0-.2-.616A.619.619,0,0,0,566.54,226.564Z" transform="translate(-453.524 -181.248)" fill="#fff"/>
    <path id="Path_4392" data-name="Path 4392" d="M581.613,230.523v-3.778H580.59v-.705h2.72v.705h-1.023v3.778Z" transform="translate(-465.915 -181.394)" fill="#fff"/>
    <rect id="Rectangle_3449" data-name="Rectangle 3449" width="0.673" height="4.483" transform="translate(118.92 44.646)" fill="#fff"/>
    <path id="Path_4393" data-name="Path 4393" d="M611.493,230.523l-1.629-2.921v2.921h-.673V226.04h.6l1.631,2.917V226.04h.673v4.483Z" transform="translate(-488.866 -181.394)" fill="#fff"/>
    <path id="Path_4394" data-name="Path 4394" d="M627.61,230.486V226h1.361a1.252,1.252,0,0,1,1,.431,1.642,1.642,0,0,1,.352.839,7.694,7.694,0,0,1,.037.942,8.29,8.29,0,0,1-.037.972,1.668,1.668,0,0,1-.352.869,1.246,1.246,0,0,1-1,.431Zm1.3-.705a.687.687,0,0,0,.592-.273,1.048,1.048,0,0,0,.162-.508c.018-.154.026-.419.026-.79a7.226,7.226,0,0,0-.026-.756.989.989,0,0,0-.162-.476.683.683,0,0,0-.593-.275h-.634v3.073Z" transform="translate(-503.648 -181.357)" fill="#fff"/>
    <path id="Path_4395" data-name="Path 4395" d="M645.657,230.529a1.284,1.284,0,0,1-.987-.44,1.622,1.622,0,0,1-.4-1.126V226h.672v2.923a1.017,1.017,0,0,0,.2.658.685.685,0,0,0,1.035,0,.988.988,0,0,0,.2-.656V226h.673v2.962a1.624,1.624,0,0,1-.395,1.126A1.292,1.292,0,0,1,645.657,230.529Z" transform="translate(-517.021 -181.362)" fill="#fff"/>
    <path id="Path_4396" data-name="Path 4396" d="M661.358,230.418a1.688,1.688,0,0,1-1.359-.592l-.03-.036.448-.519.042.049a1.138,1.138,0,0,0,.909.395.79.79,0,0,0,.531-.162.566.566,0,0,0,.182-.454.593.593,0,0,0-.132-.417.651.651,0,0,0-.375-.168l-.439-.073a1.13,1.13,0,0,1-1.023-1.24,1.358,1.358,0,0,1,.35-.968,1.25,1.25,0,0,1,.948-.369,1.548,1.548,0,0,1,1.195.515l.032.036-.433.5-.041-.047a.988.988,0,0,0-.768-.32.593.593,0,0,0-.458.174.635.635,0,0,0-.166.454.525.525,0,0,0,.128.371.686.686,0,0,0,.385.182l.425.075a1.274,1.274,0,0,1,.723.342,1.293,1.293,0,0,1,.318.934,1.28,1.28,0,0,1-.4.988,1.428,1.428,0,0,1-1,.359Z" transform="translate(-529.617 -181.252)" fill="#fff"/>
    <path id="Path_4397" data-name="Path 4397" d="M676.033,230.523v-3.778H675.01v-.705h2.719v.705h-1.023v3.778Z" transform="translate(-541.687 -181.394)" fill="#fff"/>
    <path id="Path_4398" data-name="Path 4398" d="M692.866,230.488l-.79-1.843h-.612v1.843h-.673V226h1.495a1.122,1.122,0,0,1,.879.375,1.556,1.556,0,0,1,.115,1.748,1.066,1.066,0,0,1-.508.411l.867,1.957Zm-.616-2.516a.546.546,0,0,0,.419-.166.654.654,0,0,0,.158-.466.664.664,0,0,0-.158-.468.541.541,0,0,0-.419-.168h-.78v1.268Z" transform="translate(-554.351 -181.359)" fill="#fff"/>
    <path id="Path_4399" data-name="Path 4399" d="M706.141,230.523V228.68L705,226.04h.737l.741,1.831.741-1.831h.737l-1.141,2.641v1.843Z" transform="translate(-565.754 -181.394)" fill="#fff"/>
    <path id="Path_4400" data-name="Path 4400" d="M727.149,230.491l-.255-.879h-1.382l-.257.879h-.715L725.934,226h.535l1.4,4.483Zm-.444-1.546-.492-1.7-.5,1.7Z" transform="translate(-581.435 -181.362)" fill="#fff"/>
    <path id="Path_4401" data-name="Path 4401" d="M742.73,230.486V226h1.361a1.26,1.26,0,0,1,1,.431,1.676,1.676,0,0,1,.352.839,8.312,8.312,0,0,1,.035.942,8.872,8.872,0,0,1-.035.972,1.7,1.7,0,0,1-.352.869,1.254,1.254,0,0,1-1,.431Zm1.3-.705a.693.693,0,0,0,.592-.273,1.069,1.069,0,0,0,.162-.508c.016-.154.026-.419.026-.79a5.41,5.41,0,0,0-.026-.756,1.009,1.009,0,0,0-.162-.476.689.689,0,0,0-.592-.275h-.63v3.073Z" transform="translate(-596.033 -181.357)" fill="#fff"/>
    <path id="Path_4402" data-name="Path 4402" d="M758.512,230.523l-1.252-4.483h.7l.814,3.026.816-3.026h.709l-1.262,4.483Z" transform="translate(-607.693 -181.394)" fill="#fff"/>
    <path id="Path_4403" data-name="Path 4403" d="M774.2,230.523l-.257-.879h-1.383l-.257.879h-.715l1.4-4.483h.535l1.4,4.483Zm-.444-1.546-.492-1.7-.506,1.7Z" transform="translate(-619.193 -181.394)" fill="#fff"/>
    <path id="Path_4404" data-name="Path 4404" d="M792.093,230.523l-1.629-2.921v2.921h-.673V226.04h.6l1.631,2.917V226.04h.673v4.483Z" transform="translate(-633.798 -181.394)" fill="#fff"/>
    <path id="Path_4405" data-name="Path 4405" d="M808.912,230.415a1.3,1.3,0,0,1-1.019-.486,1.531,1.531,0,0,1-.33-.752,12.451,12.451,0,0,1,0-2.082,1.514,1.514,0,0,1,.33-.75,1.289,1.289,0,0,1,1.019-.486,1.252,1.252,0,0,1,.914.365,1.759,1.759,0,0,1,.466,1.025v.063h-.681v-.043c-.095-.476-.324-.705-.7-.705a.607.607,0,0,0-.506.243,1.216,1.216,0,0,0-.2.622c0,.1-.016.338-.016.707a6.981,6.981,0,0,0,.016.707,1.232,1.232,0,0,0,.2.624.611.611,0,0,0,.506.243c.377,0,.606-.231.7-.707v-.043h.677v.063a1.756,1.756,0,0,1-.468,1.023,1.254,1.254,0,0,1-.912.369Z" transform="translate(-648.027 -181.248)" fill="#fff"/>
    <path id="Path_4406" data-name="Path 4406" d="M824.15,230.523V226.04h2.484v.705h-1.811v1.169h1.544v.7h-1.544v1.2h1.811v.705Z" transform="translate(-661.373 -181.394)" fill="#fff"/>
    <path id="Path_4407" data-name="Path 4407" d="M842.146,230.523v-2.7l-.766,1.9h-.49l-.786-1.91v2.7h-.674V226.04h.656l1.049,2.627,1.027-2.627h.658v4.483Z" transform="translate(-673.635 -181.394)" fill="#fff"/>
    <path id="Path_4408" data-name="Path 4408" d="M860.26,230.523V226.04h2.485v.705h-1.811v1.169h1.547v.7h-1.547v1.2h1.811v.705Z" transform="translate(-690.351 -181.394)" fill="#fff"/>
    <path id="Path_4409" data-name="Path 4409" d="M877.845,230.523l-1.631-2.921v2.921h-.673V226.04h.6l1.629,2.917V226.04h.673v4.483Z" transform="translate(-702.613 -181.394)" fill="#fff"/>
    <path id="Path_4410" data-name="Path 4410" d="M893.323,230.523v-3.778H892.3v-.705h2.72v.705H894v3.778Z" transform="translate(-716.063 -181.394)" fill="#fff"/>
  </g>
</svg>
