<svg xmlns="http://www.w3.org/2000/svg" width="142" height="40" viewBox="0 0 142 40">
  <g id="MI-logo" transform="translate(54.055 -507)">
    <rect id="area" width="142" height="40" transform="translate(-54.055 507)" fill="#fff" opacity="0"/>
    <g id="white" transform="translate(-54.055 511)">
      <g id="Group_7" data-name="Group 7" transform="translate(0 0)">
        <g id="Group_6" data-name="Group 6">
          <g id="Group_5" data-name="Group 5">
            <g id="Group_4" data-name="Group 4">
              <g id="Group_3" data-name="Group 3">
                <g id="Group_1" data-name="Group 1">
                  <path id="Path_1" data-name="Path 1" d="M68.794,22.873A5.769,5.769,0,0,0,60.587,24.6a5.775,5.775,0,0,1-10.44-1.588h0c-.006-.022-.01-.039-.016-.06s-.014-.049-.019-.074a7.408,7.408,0,0,1-.3-2.294c0-5.175,5.308-10.937,12.957-10.937a14.586,14.586,0,0,1,13.466,9.275c-.02-.059-.038-.117-.058-.176a16.493,16.493,0,0,0-32.093,5.35c0,8.14,5.872,15.109,14.016,15.109A13.246,13.246,0,0,0,70.968,30.54,6.357,6.357,0,0,0,68.794,22.873Z" transform="translate(-44.088 -7.602)" fill="#002b51"/>
                </g>
                <g id="Group_2" data-name="Group 2" transform="translate(5.728 2.041)">
                  <path id="Path_2" data-name="Path 2" d="M88.387,23.532a14.537,14.537,0,0,0-13.569-9.6c-7.649,0-12.957,5.762-12.957,10.937a7.408,7.408,0,0,0,.3,2.294A4.84,4.84,0,0,1,62,25.99c0-5.389,5.4-9.124,10.944-9.124a13.6,13.6,0,0,1,13.6,13.6,14.988,14.988,0,0,1-8.31,13.429l0,0a16.5,16.5,0,0,0,10.875-15.51A16.282,16.282,0,0,0,88.387,23.532Z" transform="translate(-61.861 -13.935)" fill="#da0021"/>
                </g>
              </g>
            </g>
          </g>
        </g>
      </g>
      <g id="Group_8" data-name="Group 8" transform="translate(40.619 9.767)">
        <path id="Path_3" data-name="Path 3" d="M174.182,38.184l4.063,6.486-1.3.827-2.763-4.521-2.718,4.639-1.33-.842Zm-1.58,8.584v2.955h8.865v1.448H170.961v-4.4Zm8.524-.074H179.5V38.258h1.625v3.029h1.891V42.9h-1.891Z" transform="translate(-170.134 -38.095)" fill="#464545"/>
        <path id="Path_4" data-name="Path 4" d="M221.3,41.708a2.835,2.835,0,0,1-.266,1.218,3.331,3.331,0,0,1-.709,1,3.513,3.513,0,0,1-1.064.68,3.415,3.415,0,0,1-2.57,0,3.513,3.513,0,0,1-1.064-.68,3.33,3.33,0,0,1-.709-1,2.836,2.836,0,0,1-.267-1.218,2.889,2.889,0,0,1,.267-1.227,3.127,3.127,0,0,1,.709-.99,3.378,3.378,0,0,1,1.064-.695,3.415,3.415,0,0,1,2.57,0,3.379,3.379,0,0,1,1.064.695,3.128,3.128,0,0,1,.709.99A2.888,2.888,0,0,1,221.3,41.708Zm-5.689,3.885h1.61v1.3h7.136v-1.3h1.61v5.732H215.61Zm4.122-3.885a1.765,1.765,0,0,0-1.758-1.758,1.67,1.67,0,0,0-1.234.517,1.707,1.707,0,0,0-.51,1.241,1.74,1.74,0,0,0,1.743,1.743,1.7,1.7,0,0,0,1.241-.509A1.669,1.669,0,0,0,219.733,41.708Zm4.624,6.471h-7.136V50h7.136Zm-.03-9.766h1.64v6.265h-1.64V42.2H222.1V40.762h2.231Z" transform="translate(-200.304 -38.251)" fill="#464545"/>
        <path id="Path_5" data-name="Path 5" d="M268.853,46.259H256.738V44.915h5.245v-.857h-4.27V38.872h10.15v1.344h-8.554v.65h8.554v1.226h-8.554v.665h8.584v1.3h-4.3v.857h5.26Zm-2.822,3.235a2.7,2.7,0,0,1-.258,1.167,3.092,3.092,0,0,1-.688.946,3.457,3.457,0,0,1-1.019.657,3.161,3.161,0,0,1-1.241.244,3.209,3.209,0,0,1-1.247-.244,3.421,3.421,0,0,1-1.028-.657,3.067,3.067,0,0,1-.686-.946,2.69,2.69,0,0,1-.259-1.167,2.645,2.645,0,0,1,.259-1.16,3.088,3.088,0,0,1,.686-.938,3.421,3.421,0,0,1,1.028-.657,3.2,3.2,0,0,1,1.247-.244,3.15,3.15,0,0,1,1.241.244,3.458,3.458,0,0,1,1.019.657,3.113,3.113,0,0,1,.688.938A2.658,2.658,0,0,1,266.031,49.495Zm-1.581-.014a1.577,1.577,0,0,0-.472-1.145,1.556,1.556,0,0,0-1.153-.48,1.579,1.579,0,0,0-1.159.48,1.562,1.562,0,0,0-.481,1.145,1.536,1.536,0,0,0,.481,1.137,1.59,1.59,0,0,0,1.159.473,1.567,1.567,0,0,0,1.153-.473A1.55,1.55,0,0,0,264.45,49.48Z" transform="translate(-228.829 -38.562)" fill="#464545"/>
        <path id="Path_6" data-name="Path 6" d="M304.6,44.587l-2.748-4L299.12,44.69l-1.315-.872,4.049-5.91,4.063,5.777Zm3.635,3.856a2.915,2.915,0,0,1-.273,1.248,3.276,3.276,0,0,1-1.817,1.729,3.46,3.46,0,0,1-1.323.258,3.507,3.507,0,0,1-1.33-.258,3.57,3.57,0,0,1-1.108-.7,3.434,3.434,0,0,1-.731-1.027,2.978,2.978,0,0,1,0-2.5,3.432,3.432,0,0,1,.731-1.027,3.564,3.564,0,0,1,1.108-.7,3.5,3.5,0,0,1,1.33-.258,3.454,3.454,0,0,1,1.323.258,3.274,3.274,0,0,1,1.817,1.729A2.912,2.912,0,0,1,308.236,48.443Zm-1.6-.015a1.71,1.71,0,0,0-.547-1.271,1.782,1.782,0,0,0-1.285-.532,1.756,1.756,0,0,0-1.277.532,1.774,1.774,0,0,0,0,2.549,1.77,1.77,0,0,0,1.277.524,1.8,1.8,0,0,0,1.285-.524A1.7,1.7,0,0,0,306.641,48.429Zm2.26-8.008h1.891v1.61H308.9v2.792h-1.625V38.071H308.9Z" transform="translate(-256.662 -37.909)" fill="#464545"/>
        <path id="Path_7" data-name="Path 7" d="M340.647,40.674V39.226h7.86v1.448H345.2l3.664,8.613-1.433.621-2.822-6.737-2.778,6.84-1.477-.62,3.664-8.717Zm10.888,10.918h-1.625V38.413h1.625v5.112h1.891v1.64h-1.891Z" transform="translate(-285.498 -38.251)" fill="#464545"/>
        <path id="Path_8" data-name="Path 8" d="M389.487,45.665v1.773h-1.625V45.665h-3.591V44.306h8.791v1.359Zm-2.749,1.152v2.748h9.412v1.418H385.1V46.818Zm4.979-5.954a2.63,2.63,0,0,1-.257,1.145,3.115,3.115,0,0,1-1.693,1.588,3.3,3.3,0,0,1-2.453,0,3.485,3.485,0,0,1-1.02-.635,3.412,3.412,0,0,1-.671-.953,2.609,2.609,0,0,1-.259-1.145,2.562,2.562,0,0,1,.259-1.137,3.452,3.452,0,0,1,.671-.946,3.231,3.231,0,0,1,1.02-.643,3.4,3.4,0,0,1,2.453,0,3.053,3.053,0,0,1,1,.643,3.344,3.344,0,0,1,.688.946A2.583,2.583,0,0,1,391.717,40.864Zm-1.551.015a1.527,1.527,0,0,0-.473-1.13,1.66,1.66,0,0,0-2.3,0,1.588,1.588,0,0,0,0,2.26,1.66,1.66,0,0,0,2.3,0A1.527,1.527,0,0,0,390.166,40.879Zm4,2.275h-1.876V41.81h1.876V38.071H395.8v9.515H394.17Z" transform="translate(-315.263 -37.909)" fill="#464545"/>
        <path id="Path_9" data-name="Path 9" d="M427.551,47.184h12.115v1.448h-5.245v3.4h-1.64v-3.4h-5.23Zm2.585-6.442h6.93v-1.67h1.625v6.339H428.526V39.072h1.61Zm6.93,1.418h-6.93v1.817h6.93Z" transform="translate(-344.596 -38.697)" fill="#464545"/>
      </g>
    </g>
  </g>
</svg>
